# WaveFront *.obj file (generated by CINEMA 4D)

mtllib ./Ceiling_8.mtl

v 229.30078125 101.59999847412109 -23.29251861572266
v 229.30078125 104.25 -23.29251861572266
v 229.7001953125 104.25 -24.77051544189453
v 229.7001953125 101.59999847412109 -24.77051544189453
v 211.900390625 101.59999847412109 41.43048858642578
v 195.900390625 101.59999847412109 101.14148712158203
v 195.900390625 104.25 101.14148712158203
v 231.80078125 101.59999847412109 -22.60752105712891
v 198.7001953125 101.59999847412109 101.14148712158203
v 231.80078125 104.25 -22.60752105712891
v 198.7001953125 104.25 101.14148712158203
# 11 vertices

vn -0.96591055393219 0 -0.25887614488602
vn 0.70710676908493 0 -0.70710676908493
vn 0 0 1
vn 0.96591055393219 0 0.25887614488602
vn 0 1 0
vn 0 -1 0
# 6 normals

vt -152.39399719238281 2.64999985694885 0
vt -152.39399719238281 0.00000095367432 0
vt -150.86399841308594 0.00000095367432 0
vt 4.9810299873352 2.64999985694885 0
vt 1.92115998268127 2.64999985694885 0
vt 1.92115998268127 0.00000095367432 0
vt 85.11979675292969 2.64999985694885 0
vt 85.11979675292969 0.00000083446503 0
vt 87.8634033203125 0.00000083446503 0
vt 150.86399841308594 2.64999985694885 0
vt 22.74729919433594 2.64999985694885 0
vt 22.74729919433594 0.00000143051147 0
vt -150.86399841308594 0.00000131130219 0
vt -22.03700065612793 0.00000143051147 0
vt -83.85530090332031 2.64999985694885 0
vt -22.03700065612793 2.64999985694885 0
vt -121.03199768066406 123.74899291992188 0
vt -118.47200012207031 124.43499755859375 0
vt -118.86799621582031 125.91299438476562 0
vt -87.8634033203125 0 0
vt -150.86399841308594 2.64999985694885 0
vt 4.9810299873352 0.00000095367432 0
vt 87.8634033203125 2.64999985694885 0
vt 150.86399841308594 0.00000131130219 0
vt -85.11979675292969 0 0
vt 121.03199768066406 123.74899291992188 0
vt 118.47200012207031 124.43499755859375 0
vt 101.12400054931641 59.71070098876953 0
vt 118.86799621582031 125.91299438476562 0
vt 85.11979675292969 0 0
vt 87.8634033203125 0 0
# 31 texture coordinates

o Mesh129_Group116_Group115_Group114_Group113_Group111_Model
usemtl Fig03
f 2/3/1 3/2/1 4/1/1
f 10/6/2 8/5/2 4/4/2
f 11/9/3 7/8/3 6/7/3
f 11/12/4 9/11/4 8/10/4
f 5/15/1 7/14/1 2/13/1
f 5/15/1 6/16/1 7/14/1
f 3/19/5 2/18/5 10/17/5
f 11/20/5 10/17/5 2/18/5
f 1/21/1 2/3/1 4/1/1
f 3/22/2 10/6/2 4/4/2
f 9/23/3 11/9/3 6/7/3
f 10/24/4 11/12/4 8/10/4
f 1/21/1 5/15/1 2/13/1
f 7/25/5 11/20/5 2/18/5

usemtl _28
f 5/28/6 1/27/6 8/26/6
f 4/29/6 8/26/6 1/27/6
f 9/31/6 6/30/6 5/28/6
f 9/31/6 5/28/6 8/26/6

