# WaveFront *.obj file (generated by CINEMA 4D)

mtllib ./Ceiling_3.mtl

v 110.80078125 101.59999847412109 55.62149810791016
v 113 101.59999847412109 57.78548431396484
v 113 104.25 57.78548431396484
v 110.80078125 104.25 55.62149810791016
v 110.900390625 101.59999847412109 55.58449554443359
v 186.900390625 101.59999847412109 -228.363525390625
v 186.900390625 104.25 -228.363525390625
v 189.6005859375 104.25 -228.363525390625
v 189.6005859375 101.59999847412109 -228.363525390625
v 189.5 101.59999847412109 -228.238525390625
v 112.900390625 101.59999847412109 57.54349517822266
v 187 101.59999847412109 -228.238525390625
# 12 vertices

vn -0.70710676908493 0 0.70710676908493
vn 0 -1 0
vn -0.96592617034912 0 -0.2588178217411
vn 0 1 0
vn 0.96592617034912 0 0.2588178217411
vn 0 0 -1
# 6 normals

vt -32.18769836425781 0.0000022649765 0
vt -29.12770080566406 0.0000022649765 0
vt -29.12770080566406 2.64999985694885 0
vt 2.16371989250183 43.35649871826172 0
vt 0.1394190043211 45.55759429931641 0
vt 0.0000000726754 45.52030181884766 0
vt 76.09349822998047 329.5050048828125 0
vt -337.97198486328125 2.64999985694885 0
vt -337.97198486328125 0.00000023841858 0
vt -43.96920013427734 0.00000047683716 0
vt -78.83699798583984 329.5050048828125 0
vt -2.16371989250183 43.35649871826172 0
vt 0.00000000000001 45.52030181884766 0
vt 338.6820068359375 2.64999985694885 0
vt 42.43920135498047 2.64999985694885 0
vt 42.43920135498047 0.00000047683716 0
vt 78.67410278320312 329.3800048828125 0
vt 78.83699798583984 329.5050048828125 0
vt 2.09900999069214 43.59799957275391 0
vt 76.18939971923828 329.3800048828125 0
vt -78.83699798583984 -0.00000429153442 0
vt -76.09349822998047 -0.00000429153442 0
vt -76.09349822998047 2.64999985694885 0
vt -32.18769836425781 2.64999985694885 0
vt -43.96920013427734 2.64999985694885 0
vt -76.09349822998047 329.5050048828125 0
vt 338.6820068359375 0.00000023841858 0
vt -78.83699798583984 2.64999985694885 0
# 28 texture coordinates

o Mesh135_Group116_Group115_Group114_Group113_Group111_Model
usemtl Fig03
f 2/3/1 3/2/1 4/1/1
f 1/6/2 5/5/2 2/4/2
f 1/6/2 6/7/2 5/5/2
f 4/10/3 7/9/3 6/8/3
f 4/13/4 3/12/4 8/11/4
f 3/16/5 2/15/5 9/14/5
f 9/18/2 2/4/2 10/17/2
f 10/17/2 2/4/2 11/19/2
f 11/19/2 2/4/2 5/5/2
f 12/20/2 5/5/2 6/7/2
f 9/18/2 12/20/2 6/7/2
f 10/17/2 12/20/2 9/18/2
f 6/23/6 7/22/6 8/21/6
f 1/24/1 2/3/1 4/1/1
f 1/25/3 4/10/3 6/8/3
f 7/26/4 4/13/4 8/11/4
f 8/27/5 3/16/5 9/14/5
f 9/28/6 6/23/6 8/21/6

usemtl _28
f 5/5/2 12/20/2 10/17/2
f 11/19/2 5/5/2 10/17/2

