# WaveFront *.obj file (generated by CINEMA 4D)

mtllib ./Ceiling_7.mtl

v 293 101.59999847412109 101.14148712158203
v 293 104.25 101.14148712158203
v 306.900390625 104.25 49.26248931884766
v 306.900390625 101.59999847412109 49.26248931884766
v 295.7001953125 101.59999847412109 101.14148712158203
v 295.7001953125 104.25 101.14148712158203
v 309.5 104.25 49.94849395751953
v 309.5 101.59999847412109 49.94849395751953
# 8 vertices

vn -0.96594387292862 0 -0.25875172019005
vn 0 0 1
vn 0.96594387292862 0 0.25875172019005
vn 0 1 0
vn 0.25875172019005 0 -0.96594387292862
vn 0 -1 0
# 6 normals

vt -100.85399627685547 2.64999985694885 0
vt -100.85399627685547 0.00000154972076 0
vt -47.14649963378906 0.00000154972076 0
vt 182.20500183105469 2.64999985694885 0
vt 182.20500183105469 0.00000023841858 0
vt 184.94900512695312 0.00000023841858 0
vt 100.85399627685547 2.64999985694885 0
vt 47.85639953613281 2.64999985694885 0
vt 47.85639953613281 0.00000154972076 0
vt -198.66200256347656 51.19300079345703 0
vt -184.94900512695312 0.00004029273987 0
vt -182.20500183105469 0.00004029273987 0
vt -178.64999389648438 0.00000023841858 0
vt -176 0.00000023841858 0
vt -176 2.64999985694885 0
vt -47.14649963378906 2.64999985694885 0
vt 184.94900512695312 2.64999985694885 0
vt 100.85399627685547 0.00000143051147 0
vt -196.10200500488281 51.87870025634766 0
vt -178.64999389648438 2.64999985694885 0
vt 198.66200256347656 51.19300079345703 0
vt 196.10200500488281 51.87870025634766 0
vt 182.20500183105469 0.00004029273987 0
vt 184.94900512695312 0.00004029273987 0
# 24 texture coordinates

o Mesh131_Group116_Group115_Group114_Group113_Group111_Model
usemtl Fig03
f 2/3/1 3/2/1 4/1/1
f 6/6/2 2/5/2 1/4/2
f 6/9/3 5/8/3 8/7/3
f 2/12/4 6/11/4 7/10/4
f 4/15/5 3/14/5 7/13/5
f 1/16/1 2/3/1 4/1/1
f 5/17/2 6/6/2 1/4/2
f 7/18/3 6/9/3 8/7/3
f 3/19/4 2/12/4 7/10/4
f 8/20/5 4/15/5 7/13/5

usemtl _28
f 1/23/6 4/22/6 8/21/6
f 5/24/6 1/23/6 8/21/6

