# WaveFront *.obj file (generated by CINEMA 4D)

mtllib ./Ceiling_1.mtl

v 80.80078125 114.77999877929688 112.59349822998047
v 319.7001953125 114.77999877929688 5.11849212646484
v 80.80078125 114.77999877929688 -114.61951446533203
v 613.6005859375 114.77999877929688 112.59249114990234
v 383.6005859375 114.77999877929688 -12.00949859619141
v 400.7001953125 114.77999877929688 -75.93350982666016
v 594.2001953125 114.77999877929688 -54.39652252197266
v 613.6005859375 114.77999877929688 -54.39652252197266
v 594.2001953125 114.77999877929688 -230.04852294921875
v 353.900390625 114.77999877929688 -122.72949981689453
v 290 114.77999877929688 -105.60050201416016
v 17.80078125 114.77999877929688 -230.04852294921875
v 17.80078125 114.77999877929688 -114.61951446533203
v 281.5 114.77999877929688 -73.81751251220703
v 272.900390625 114.77999877929688 -41.67749786376953
v 296.400390625 114.77999877929688 -18.14850616455078
v 296.1005859375 114.77999877929688 -18.41049957275391
v 281.400390625 114.77999877929688 -73.46051788330078
v 11.2001953125 112.52999877929688 -108.03549957275391
v 11.2001953125 112.52999877929688 -236.63250732421875
v 11.2001953125 111.02999877929688 -236.63250732421875
v 11.2001953125 111.02999877929688 -109.78549957275391
v 11.2001953125 111.02999877929688 -108.03549957275391
v 11.2001953125 114.77999877929688 -108.03549957275391
v 11.2001953125 114.77999877929688 -236.63250732421875
v 74.2001953125 114.77999877929688 -108.03549957275391
v 74.2001953125 112.52999877929688 -108.03549957275391
v 600.7001953125 112.52999877929688 -236.63250732421875
v 600.7001953125 114.77999877929688 -236.63250732421875
v 600.7001953125 114.77999877929688 -60.98050689697266
v 620.1005859375 114.77999877929688 -60.98050689697266
v 620.1005859375 114.77999877929688 119.17649078369141
v 74.2001953125 114.77999877929688 119.17749786376953
v 74.2001953125 112.52999877929688 119.17749786376953
v 290 112.52999877929688 -105.60050201416016
v 353.900390625 112.52999877929688 -122.72949981689453
v 400.7001953125 112.52999877929688 -75.93350982666016
v 600.7001953125 112.52999877929688 -60.98050689697266
v 620.1005859375 112.52999877929688 119.17649078369141
v 383.6005859375 112.52999877929688 -12.00949859619141
v 319.7001953125 112.52999877929688 5.11849212646484
v 296.400390625 112.52999877929688 -18.14850616455078
v 272.900390625 112.52999877929688 -41.67749786376953
v 281.5 112.52999877929688 -73.81751251220703
v 281.5 111.02999877929688 -73.81751251220703
v 290 111.02999877929688 -105.60050201416016
v 157.7001953125 111.02999877929688 104.17649078369141
v 359.80078125 111.02999877929688 -236.63250732421875
v 88.6005859375 111.02999877929688 35.02548980712891
v 88.6005859375 111.02999877929688 -109.78549957275391
v 600.7001953125 111.02999877929688 -236.63250732421875
v 600.7001953125 111.02999877929688 -60.98050689697266
v 620.1005859375 112.52999877929688 -60.98050689697266
v 74.2001953125 111.02999877929688 119.17749786376953
v 620.1005859375 111.02999877929688 119.17649078369141
v 74.2001953125 111.02999877929688 -108.03549957275391
v 619.30078125 111.02999877929688 104.17649078369141
v 619.30078125 111.02999877929688 -45.71649932861328
v 617.400390625 111.02999877929688 -45.71649932861328
v 585.1005859375 111.02999877929688 -45.71649932861328
v 585.1005859375 111.02999877929688 -152.38650512695312
v 515.900390625 111.02999877929688 -221.53851318359375
v 359.80078125 111.02999877929688 -221.53851318359375
v 620.1005859375 111.02999877929688 -60.98050689697266
v 319.7001953125 111.02999877929688 5.11849212646484
v 296.400390625 111.02999877929688 -18.14850616455078
v 272.900390625 111.02999877929688 -41.67749786376953
v 281.400390625 111.02999877929688 -73.46051788330078
v 281.400390625 112.52999877929688 -73.46051788330078
v 296.1005859375 111.02999877929688 -18.41049957275391
v 296.1005859375 112.52999877929688 -18.41049957275391
v 383.6005859375 111.02999877929688 -12.00949859619141
v 400.7001953125 111.02999877929688 -75.93350982666016
v 353.900390625 111.02999877929688 -122.72949981689453
# 74 vertices

vn -1 0 0
vn 0 1 0
vn 0 0 1
vn 0 -1 0
vn 0 0 -1
vn 0.96592617034912 0 0.2588178217411
vn 1 0 0
vn 0.70710676908493 0 -0.70710676908493
vn -0.2588178217411 0 -0.96592617034912
vn -0.96592617034912 0 -0.2588178217411
vn -0.70710676908493 0 0.70710676908493
vn 0.2588178217411 0 0.96592617034912
# 12 normals

vt 0.87711334228516 0.87032008171082 0
vt 0.72906476259232 0.87032008171082 0
vt 0.72906476259232 0.87226617336273 0
vt 0.87644177675247 0.86945515871048 0
vt 0.00935403164476 0.34937036037445 0
vt 0.01695302128792 0.24383926391602 0
vt 0.00935403164476 0.23814463615417 0
vt 0.01188702788204 0.27711808681488 0
vt 0.08188340812922 0.23814463615417 0
vt 0.80159413814545 0.70012122392654 0
vt 0.72906476259232 0.70012122392654 0
vt 0.72906476259232 0.70206731557846 0
vt 0.7532411813736 0.69925630092621 0
vt 0.08188340812922 0.79645216464996 0
vt 0.68802177906036 0.68522644042969 0
vt 0.00935403164476 0.79645216464996 0
vt 0.25975307822227 0.75937688350677 0
vt 0.00935403164476 0.68522644042969 0
vt 0.68802177906036 0.0256233215332 0
vt 0.00935403164476 0.0256233215332 0
vt 0.00935403164476 0.02756941318512 0
vt 0.23557661473751 0.02627193927765 0
vt 0.68802177906036 0.34937036037445 0
vt 0.01695302128792 0.3436758518219 0
vt 0.68053859472275 0.3436758518219 0
vt 0.68802177906036 0.19744598865509 0
vt 0.68053859472275 0.19175148010254 0
vt 0.70287346839905 0.19175148010254 0
vt 0.71035665273666 0.19744598865509 0
vt 0.71035665273666 0.04162514209747 0
vt 0.70287346839905 0.04731976985931 0
vt 0.08948239684105 0.04731893539429 0
vt 0.08188340812922 0.04162430763245 0
vt 0.08948239684105 0.24383926391602 0
vt 0.99064594507217 0.99102646112442 0
vt 0.72906476259232 0.99102646112442 0
vt 0.72906476259232 0.99297249317169 0
vt 0.8162584900856 0.99016153812408 0
vt 0.08188340812922 0.99297249317169 0
vt 0.33032509684563 0.79855823516846 0
vt 0.40389105677605 0.78374308347702 0
vt 0.45776978135109 0.82421767711639 0
vt 0.68802177906036 0.83715081214905 0
vt 0.71035665273666 0.99297165870666 0
vt 0.43808370828629 0.87950664758682 0
vt 0.36451771855354 0.89432096481323 0
vt 0.33769360184669 0.87419694662094 0
vt 0.3106389939785 0.85384631156921 0
vt 0.32053938508034 0.82604789733887 0
vt 0.79285264015198 0.82037091255188 0
vt 0.82944309711456 0.82037091255188 0
vt 0.82944309711456 0.81842482089996 0
vt 0.74692231416702 0.81799238920212 0
vt 0.79285264015198 0.81842482089996 0
vt 0.82944309711456 0.81712746620178 0
vt 0.32053938508034 0.50424683094025 0
vt 0.33032509684563 0.47675716876984 0
vt 0.17801362276077 0.6581968665123 0
vt 0.27629268169403 0.54640030860901 0
vt 0.4106839299202 0.36342537403107 0
vt 0.09846200048923 0.59838700294495 0
vt 0.09846200048923 0.47313749790192 0
vt 0.00935403164476 0.47313749790192 0
vt 0.00935403164476 0.36342537403107 0
vt 0.9312858581543 0.95513224601746 0
vt 0.72906476259232 0.95513224601746 0
vt 0.72906476259232 0.95642966032028 0
vt 0.79647177457809 0.95556473731995 0
vt 0.9312858581543 0.95642966032028 0
vt 0.72906476259232 0.95837569236755 0
vt 0.78000807762146 0.80112648010254 0
vt 0.75767320394516 0.80112648010254 0
vt 0.75767320394516 0.80307251214981 0
vt 0.76511818170547 0.80026149749756 0
vt 0.93647229671478 0.97372806072235 0
vt 0.72906476259232 0.97372806072235 0
vt 0.72906476259232 0.97567409276962 0
vt 0.7982006072998 0.97286313772202 0
vt 0.63782727718353 0.00832486152649 0
vt 0.00935403164476 0.00832486152649 0
vt 0.00935403164476 0.01027095317841 0
vt 0.2188451141119 0.00897359848022 0
vt 0.63782727718353 0.00702750682831 0
vt 0.00935403164476 0.00702750682831 0
vt 0.99064594507217 0.98972910642624 0
vt 0.72906476259232 0.98972910642624 0
vt 0.80159413814545 0.69882386922836 0
vt 0.72906476259232 0.69882386922836 0
vt 0.70943588018417 0.6581968665123 0
vt 0.36451771855354 0.57251989841461 0
vt 0.33769360184669 0.55239588022232 0
vt 0.3106389939785 0.53204524517059 0
vt 0.7388504743576 0.80276370048523 0
vt 0.73896515369415 0.80307251214981 0
vt 0.72906476259232 0.77527403831482 0
vt 0.73562675714493 0.7937034368515 0
vt 0.79244160652161 0.81842482089996 0
vt 0.79285264015198 0.81712746620178 0
vt 0.79244160652161 0.82037091255188 0
vt 0.7388504743576 0.76091033220291 0
vt 0.73896515369415 0.76121914386749 0
vt 0.72906476259232 0.7334206700325 0
vt 0.73562675714493 0.75185000896454 0
vt 0.75585108995438 0.82037091255188 0
vt 0.75585108995438 0.81842482089996 0
vt 0.79244160652161 0.81712746620178 0
vt 0.72906476259232 0.81842482089996 0
vt 0.75585108995438 0.81712746620178 0
vt 0.75577419996262 0.88654768466949 0
vt 0.72906476259232 0.90667170286179 0
vt 0.75611937046051 0.88632106781006 0
vt 0.74698609113693 0.89318019151688 0
vt 0.82945483922958 0.83572328090668 0
vt 0.82980000972748 0.83572328090668 0
vt 0.82980000972748 0.8344259262085 0
vt 0.77810871601105 0.83702063560486 0
vt 0.75577419996262 0.92095327377319 0
vt 0.72906476259232 0.94107729196548 0
vt 0.75611937046051 0.92072665691376 0
vt 0.74698609113693 0.92758578062058 0
vt 0.72906476259232 0.82037091255188 0
vt 0.82945483922958 0.83766931295395 0
vt 0.82980000972748 0.83766931295395 0
vt 0.80263072252274 0.83766931295395 0
vt 0.80263072252274 0.83572328090668 0
vt 0.82945483922958 0.8344259262085 0
vt 0.72906476259232 0.83572328090668 0
vt 0.80263072252274 0.8344259262085 0
vt 0.43808370828629 0.55770564079285 0
vt 0.45776978135109 0.50241667032242 0
vt 0.72906476259232 0.71741962432861 0
vt 0.80265790224075 0.71741962432861 0
vt 0.80265790224075 0.71612226963043 0
vt 0.77812683582306 0.71698719263077 0
vt 0.72906476259232 0.71936571598053 0
vt 0.80265790224075 0.71936571598053 0
vt 0.72906476259232 0.83766931295395 0
vt 0.80263072252274 0.85496771335602 0
vt 0.85650944709778 0.85496771335602 0
vt 0.85650944709778 0.8530216217041 0
vt 0.83854985237122 0.85431903600693 0
vt 0.80263072252274 0.85172426700592 0
vt 0.80263072252274 0.8530216217041 0
vt 0.72906476259232 0.8530216217041 0
vt 0.40389105677605 0.46194207668304 0
vt 0.4106839299202 0.37648046016693 0
vt 0.59039515256882 0.37648046016693 0
vt 0.67006260156631 0.52855187654495 0
vt 0.67006260156631 0.43629121780396 0
vt 0.70724803209305 0.52855187654495 0
vt 0.70943588018417 0.52855187654495 0
vt 0.85650944709778 0.85172426700592 0
vt 0.72906476259232 0.85496771335602 0
vt 0.78000807762146 0.79982906579971 0
vt 0.75767320394516 0.79982906579971 0
vt 0.71035665273666 0.83715081214905 0
vt 0.93647229671478 0.97243070602417 0
vt 0.72906476259232 0.97243070602417 0
vt 0.87711334228516 0.86902272701263 0
vt 0.8750986456871 0.86902272701263 0
vt 0.72906476259232 0.86902272701263 0
vt 0.68802177906036 0.02432596683502 0
vt 0.28669187426567 0.02432596683502 0
vt 0.00935403164476 0.02432596683502 0
vt 0.08188340812922 0.47465109825134 0
vt 0.08188340812922 0.67117148637772 0
vt 0.71035665273666 0.67117059230804 0
vt 0.71035665273666 0.51534974575043 0
vt 0.68802177906036 0.51534974575043 0
vt 0.68802177906036 0.36342537403107 0
vt 0.87711334228516 0.87226617336273 0
vt 0.80159413814545 0.70206731557846 0
vt 0.68802177906036 0.02756941318512 0
vt 0.99064594507217 0.99297249317169 0
vt 0.9312858581543 0.95837569236755 0
vt 0.78000807762146 0.80307251214981 0
vt 0.93647229671478 0.97567409276962 0
vt 0.63782727718353 0.01027095317841 0
vt 0.72906476259232 0.81712746620178 0
vt 0.72906476259232 0.8344259262085 0
vt 0.72906476259232 0.71612226963043 0
vt 0.72906476259232 0.85172426700592 0
vt 0.00935403164476 0.47465109825134 0
# 183 texture coordinates

o Mesh144_Group127_Model
usemtl Mesh144_Group127_Model
f 25/3/1 20/2/1 19/1/1
f 24/7/2 13/6/2 25/5/2
f 13/6/2 24/7/2 26/9/2
f 24/12/3 19/11/3 27/10/3
f 19/16/4 28/15/4 27/14/4
f 28/15/4 19/16/4 20/18/4
f 29/21/5 28/20/5 20/19/5
f 25/5/2 12/24/2 29/23/2
f 12/24/2 25/5/2 13/6/2
f 29/23/2 12/24/2 9/25/2
f 29/23/2 9/25/2 30/26/2
f 7/27/2 30/26/2 9/25/2
f 30/26/2 7/27/2 8/28/2
f 30/26/2 8/28/2 31/29/2
f 31/29/2 8/28/2 32/30/2
f 4/31/2 32/30/2 8/28/2
f 1/32/2 32/30/2 4/31/2
f 1/32/2 33/33/2 32/30/2
f 33/33/2 1/32/2 26/9/2
f 3/34/2 26/9/2 1/32/2
f 13/6/2 26/9/2 3/34/2
f 26/37/1 27/36/1 34/35/1
f 27/14/4 35/40/4 34/39/4
f 27/14/4 28/15/4 35/40/4
f 35/40/4 28/15/4 36/41/4
f 36/41/4 28/15/4 37/42/4
f 38/43/4 37/42/4 28/15/4
f 39/44/4 37/42/4 38/43/4
f 39/44/4 40/45/4 37/42/4
f 39/44/4 41/46/4 40/45/4
f 34/39/4 41/46/4 39/44/4
f 41/46/4 34/39/4 42/47/4
f 42/47/4 34/39/4 43/48/4
f 34/39/4 44/49/4 43/48/4
f 34/39/4 35/40/4 44/49/4
f 35/52/6 11/51/6 14/50/6
f 46/55/6 35/52/6 44/54/6
f 47/58/4 46/57/4 45/56/4
f 47/58/4 48/60/4 46/57/4
f 49/61/4 48/60/4 47/58/4
f 50/62/4 48/60/4 49/61/4
f 22/63/4 48/60/4 50/62/4
f 48/60/4 22/63/4 21/64/4
f 38/67/7 52/66/7 51/65/7
f 30/70/7 38/67/7 28/69/7
f 31/73/5 53/72/5 38/71/5
f 32/77/7 39/76/7 53/75/7
f 33/81/3 34/80/3 39/79/3
f 34/80/3 54/84/3 55/83/3
f 27/36/1 56/86/1 54/85/1
f 19/11/3 23/88/3 56/87/3
f 47/58/4 65/90/4 57/89/4
f 65/90/4 47/58/4 66/91/4
f 66/91/4 47/58/4 67/92/4
f 47/58/4 45/56/4 67/92/4
f 67/95/4 45/94/4 68/93/4
f 45/98/6 44/54/6 69/97/6
f 44/54/6 14/50/6 18/99/6
f 43/102/4 44/101/4 69/100/4
f 69/97/6 18/99/6 15/104/6
f 68/106/6 69/97/6 43/105/6
f 67/108/8 43/105/8 71/107/8
f 66/111/4 67/110/4 70/109/4
f 70/115/8 71/114/8 42/113/8
f 42/119/4 43/118/4 71/117/4
f 43/105/8 15/104/8 17/121/8
f 71/114/8 17/123/8 16/122/8
f 42/113/8 16/122/8 2/124/8
f 66/126/8 42/113/8 41/125/8
f 65/128/9 41/125/9 40/127/9
f 57/89/4 65/90/4 72/129/4
f 57/89/4 72/129/4 73/130/4
f 72/133/10 40/132/10 37/131/10
f 40/132/10 5/136/10 6/135/10
f 41/125/9 2/124/9 5/137/9
f 37/140/11 6/139/11 10/138/11
f 36/143/11 74/142/11 37/140/11
f 74/142/12 36/143/12 35/144/12
f 46/57/4 48/60/4 74/145/4
f 74/145/4 48/60/4 63/146/4
f 74/145/4 63/146/4 73/130/4
f 73/130/4 63/146/4 62/147/4
f 57/89/4 73/130/4 62/147/4
f 57/89/4 62/147/4 60/148/4
f 60/148/4 62/147/4 61/149/4
f 57/89/4 60/148/4 59/150/4
f 57/89/4 59/150/4 58/151/4
f 73/152/11 37/140/11 74/142/11
f 36/143/12 10/138/12 11/153/12
f 53/72/5 64/155/5 52/154/5
f 39/44/4 38/43/4 53/156/4
f 39/76/7 55/158/7 64/157/7
f 19/1/1 22/160/1 23/159/1
f 20/2/1 21/161/1 22/160/1
f 48/163/5 21/162/5 20/19/5
f 28/20/5 51/164/5 48/163/5
f 22/63/4 50/62/4 56/165/4
f 49/61/4 54/166/4 56/165/4
f 55/167/4 54/166/4 47/58/4
f 49/61/4 47/58/4 54/166/4
f 58/151/4 64/168/4 55/167/4
f 52/169/4 64/168/4 59/150/4
f 58/151/4 59/150/4 64/168/4
f 61/149/4 51/170/4 52/169/4
f 48/60/4 51/170/4 62/147/4
f 61/149/4 62/147/4 51/170/4
f 24/171/1 25/3/1 19/1/1
f 26/172/3 24/12/3 27/10/3
f 25/173/5 29/21/5 20/19/5
f 33/174/1 26/37/1 34/35/1
f 44/54/6 35/52/6 14/50/6
f 45/98/6 46/55/6 44/54/6
f 28/69/7 38/67/7 51/65/7
f 29/175/7 30/70/7 28/69/7
f 30/176/5 31/73/5 38/71/5
f 31/177/7 32/77/7 53/75/7
f 32/178/3 33/81/3 39/79/3
f 39/79/3 34/80/3 55/83/3
f 34/35/1 27/36/1 54/85/1
f 27/10/3 19/11/3 56/87/3
f 68/106/6 45/98/6 69/97/6
f 69/97/6 44/54/6 18/99/6
f 43/105/6 69/97/6 15/104/6
f 67/108/6 68/106/6 43/105/6
f 70/179/8 67/108/8 71/107/8
f 66/126/8 70/115/8 42/113/8
f 71/107/8 43/105/8 17/121/8
f 42/113/8 71/114/8 16/122/8
f 41/125/8 42/113/8 2/124/8
f 65/128/8 66/126/8 41/125/8
f 72/180/9 65/128/9 40/127/9
f 73/181/10 72/133/10 37/131/10
f 37/131/10 40/132/10 6/135/10
f 40/127/9 41/125/9 5/137/9
f 36/143/11 37/140/11 10/138/11
f 46/182/12 74/142/12 35/144/12
f 35/144/12 36/143/12 11/153/12
f 38/71/5 53/72/5 52/154/5
f 53/75/7 39/76/7 64/157/7
f 19/1/1 20/2/1 22/160/1
f 28/20/5 48/163/5 20/19/5
f 23/183/4 22/63/4 56/165/4
f 50/62/4 49/61/4 56/165/4
f 57/89/4 55/167/4 47/58/4
f 57/89/4 58/151/4 55/167/4
f 60/148/4 52/169/4 59/150/4
f 60/148/4 61/149/4 52/169/4
f 63/146/4 48/60/4 62/147/4

