# WaveFront *.obj file (generated by CINEMA 4D)

mtllib ./Center_3.mtl

v 368.400390625 -13.625 -30.45749664306641
v 368.6005859375 -13.625 -30.39249420166016
v 368.400390625 112.25 -30.45749664306641
v 368.6005859375 112.25 -30.39249420166016
v 366.400390625 -13.625 -28.46750640869141
v 366.5 -13.625 -28.22550201416016
v 366.400390625 112.25 -28.46750640869141
v 366.5 112.25 -28.22550201416016
v 368 -13.625 -28.88751983642578
v 368 112.25 -28.88751983642578
v 368.2001953125 -13.625 -28.68350982666016
v 368.2001953125 112.25 -28.68350982666016
v 297.7001953125 -13.625 -46.87451934814453
v 297.5 -13.625 -46.69849395751953
v 297.7001953125 112.25 -46.87451934814453
v 297.5 112.25 -46.69849395751953
v 297 -13.625 -49.59351348876953
v 296.7001953125 -13.625 -49.65851593017578
v 297 112.25 -49.59351348876953
v 296.7001953125 112.25 -49.65851593017578
v 296.6005859375 -13.625 -48.02350616455078
v 296.6005859375 112.25 -48.02350616455078
v 296.30078125 -13.625 -47.94950103759766
v 296.30078125 112.25 -47.94950103759766
v 325.6005859375 -13.625 -18.98850250244141
v 325.400390625 -13.625 -18.81150054931641
v 328.30078125 -13.625 -18.25949859619141
v 328.400390625 -13.625 -18.01850128173828
v 325.6005859375 112.25 -18.98850250244141
v 325.400390625 112.25 -18.81150054931641
v 328.30078125 112.25 -18.25949859619141
v 328.400390625 112.25 -18.01850128173828
v 326.80078125 -13.625 -17.83951568603516
v 326.80078125 112.25 -17.83951568603516
v 326.7001953125 -13.625 -17.56049346923828
v 326.7001953125 112.25 -17.56049346923828
v 378.6005859375 -13.625 -68.55051422119141
v 378.900390625 -13.625 -68.48651885986328
v 378.6005859375 112.25 -68.55051422119141
v 378.900390625 112.25 -68.48651885986328
v 377.900390625 112.25 -71.26950836181641
v 378.1005859375 112.25 -71.44651031494141
v 377.900390625 -13.625 -71.26950836181641
v 378.1005859375 -13.625 -71.44651031494141
v 379 -13.625 -70.12052154541016
v 379 112.25 -70.12052154541016
v 379.30078125 -13.625 -70.19550323486328
v 379.30078125 112.25 -70.19550323486328
v 309.2001953125 -13.625 -89.67749786376953
v 309.1005859375 -13.625 -89.91849517822266
v 309.2001953125 112.25 -89.67749786376953
v 309.1005859375 112.25 -89.91849517822266
v 307.2001953125 -13.625 -87.68750762939453
v 307 -13.625 -87.75150299072266
v 307.2001953125 112.25 -87.68750762939453
v 307 112.25 -87.75150299072266
v 307.6005859375 -13.625 -89.25650787353516
v 307.6005859375 112.25 -89.25650787353516
v 307.400390625 -13.625 -89.46149444580078
v 307.400390625 112.25 -89.46149444580078
v 347.30078125 -13.625 -99.88449859619141
v 347.2001953125 -13.625 -100.12650299072266
v 350 112.25 -99.15650177001953
v 350.2001953125 112.25 -99.33249664306641
v 350 -13.625 -99.15650177001953
v 350.2001953125 -13.625 -99.33249664306641
v 347.30078125 112.25 -99.88449859619141
v 347.2001953125 112.25 -100.12650299072266
v 348.80078125 -13.625 -100.30551910400391
v 348.80078125 112.25 -100.30551910400391
v 348.900390625 -13.625 -100.58451080322266
v 348.900390625 112.25 -100.58451080322266
# 72 vertices

vn 0.2588178217411 0 -0.96592617034912
vn -0.96592617034912 0 -0.2588178217411
vn -0.2588178217411 0 -0.96592617034912
vn 0.96592617034912 0 0.2588178217411
vn 0.2588178217411 0 0.96592617034912
vn -0.96592617034912 0 0.2588178217411
vn 0 -1 0
vn 0 1 0
vn 0.70710676908493 0 0.70710676908493
vn 0.70710676908493 0 -0.70710676908493
vn -0.70710676908493 0 0.70710676908493
vn 0.96592617034912 0 -0.2588178217411
vn -0.70710676908493 0 -0.70710676908493
vn -0.2588178217411 0 0.96592617034912
# 14 normals

vt 0.9043163061142 0.00538098812103 0
vt 0.9043163061142 0.99461901187897 0
vt 0.90712338685989 0.99461901187897 0
vt 0.90525197982788 0.66487300395966 0
vt 0.59084033966064 0.00538098812103 0
vt 0.59084033966064 0.99461901187897 0
vt 0.61285430192947 0.99461901187897 0
vt 0.59817832708359 0.66487300395966 0
vt 0.707479596138 0.99461901187897 0
vt 0.707479596138 0.00538098812103 0
vt 0.68505018949509 0.00538098812103 0
vt 0.70000314712524 0.33512699604034 0
vt 0.5716387629509 0.00538098812103 0
vt 0.56602454185486 0.00538098812103 0
vt 0.56602454185486 0.99461901187897 0
vt 0.55807793140411 0.66487300395966 0
vt 0.54218471050262 0.99461901187897 0
vt 0.54218471050262 0.00538098812103 0
vt 0.5407879948616 0.00538098812103 0
vt 0.94973039627075 0.99461901187897 0
vt 0.97357028722763 0.99101954698563 0
vt 0.97076314687729 0.98941624164581 0
vt 0.96468794345856 0.99168491363525 0
vt 0.97918444871902 0.97758883237839 0
vt 0.94973039627075 0.948774933815 0
vt 0.94833368062973 0.95067685842514 0
vt 0.97076314687729 0.95397770404816 0
vt 0.95627576112747 0.95114314556122 0
vt 0.97637736797333 0.96631598472595 0
vt 0.97918444871902 0.96580511331558 0
vt 0.90712338685989 0.00538098812103 0
vt 0.61285430192947 0.00538098812103 0
vt 0.6187436580658 0.99461901187897 0
vt 0.5716387629509 0.99461901187897 0
vt 0.5407879948616 0.99461901187897 0
vt 0.94833368062973 0.99271708726883 0
vt 0.97637736797333 0.97707796096802 0
vt 0.97357028722763 0.95237439870834 0
vt 0.88230758905411 0.00538098812103 0
vt 0.88230758905411 0.99461901187897 0
vt 0.8851146697998 0.99461901187897 0
vt 0.88324326276779 0.66487300395966 0
vt 0.43340870738029 0.00538098812103 0
vt 0.43340870738029 0.99461901187897 0
vt 0.44951963424683 0.99461901187897 0
vt 0.43877902626991 0.66487300395966 0
vt 0.47153401374817 0.99461901187897 0
vt 0.47153401374817 0.00538098812103 0
vt 0.44951963424683 0.00538098812103 0
vt 0.29617413878441 0.00538098812103 0
vt 0.27863273024559 0.00538098812103 0
vt 0.27863273024559 0.99461901187897 0
vt 0.27064487338066 0.66487300395966 0
vt 0.25466918945312 0.99461901187897 0
vt 0.77251607179642 0.99461901187897 0
vt 0.77251607179642 0.00538098812103 0
vt 0.7683122754097 0.00538098812103 0
vt 0.77111482620239 0.33512699604034 0
vt 0.95394790172577 0.70217329263687 0
vt 0.94834738969803 0.71560424566269 0
vt 0.95255118608475 0.71502268314362 0
vt 0.95161551237106 0.71093344688416 0
vt 0.96516263484955 0.72543579339981 0
vt 0.95394790172577 0.69141125679016 0
vt 0.95815169811249 0.69090044498444 0
vt 0.95255118608475 0.67856192588806 0
vt 0.9548836350441 0.68695789575577 0
vt 0.96796971559525 0.66953217983246 0
vt 0.96516263484955 0.66814881563187 0
vt 0.8851146697998 0.00538098812103 0
vt 0.29617413878441 0.99461901187897 0
vt 0.25466918945312 0.00538098812103 0
vt 0.7683122754097 0.99461901187897 0
vt 0.95815169811249 0.70268416404724 0
vt 0.96796971559525 0.72405242919922 0
vt 0.94834738969803 0.67798030376434 0
vt 0.83771806955338 0.00538098812103 0
vt 0.83771806955338 0.99461901187897 0
vt 0.84109729528427 0.99461901187897 0
vt 0.83884447813034 0.66487300395966 0
vt 0.13353170454502 0.00538098812103 0
vt 0.13353170454502 0.99461901187897 0
vt 0.15456445515156 0.99461901187897 0
vt 0.14054262638092 0.66487300395966 0
vt 0.17139339447021 0.99461901187897 0
vt 0.17139339447021 0.00538098812103 0
vt 0.15456445515156 0.00538098812103 0
vt 0.11293339729309 0.00538098812103 0
vt 0.08909354358912 0.00538098812103 0
vt 0.08909354358912 0.99461901187897 0
vt 0.09704016149044 0.33512699604034 0
vt 0.0708679035306 0.99461901187897 0
vt 0.17420050501823 0.99461901187897 0
vt 0.17420050501823 0.00538098812103 0
vt 0.94833368062973 0.82762199640274 0
vt 0.96655935049057 0.83745354413986 0
vt 0.96796971559525 0.83526074886322 0
vt 0.96095424890518 0.83344542980194 0
vt 0.9903991818428 0.83385407924652 0
vt 0.94833368062973 0.81407791376114 0
vt 0.95114082098007 0.81546890735626 0
vt 0.96796971559525 0.80643916130066 0
vt 0.95581477880478 0.81199532747269 0
vt 0.98900246620178 0.8097397685051 0
vt 0.9903991818428 0.80784583091736 0
vt 0.13213500380516 0.00538098812103 0
vt 0.11293339729309 0.99461901187897 0
vt 0.0708679035306 0.00538098812103 0
vt 0.95114082098007 0.82623100280762 0
vt 0.98900246620178 0.83196008205414 0
vt 0.96655935049057 0.80424636602402 0
vt 0.86029887199402 0.00538098812103 0
vt 0.86029887199402 0.99461901187897 0
vt 0.86310595273972 0.99461901187897 0
vt 0.86123460531235 0.66487300395966 0
vt 0.37608182430267 0.00538098812103 0
vt 0.37608182430267 0.99461901187897 0
vt 0.3921927511692 0.99461901187897 0
vt 0.40686899423599 0.33512699604034 0
vt 0.41420713067055 0.99461901187897 0
vt 0.41420713067055 0.00538098812103 0
vt 0.3921927511692 0.00538098812103 0
vt 0.35688024759293 0.00538098812103 0
vt 0.33933883905411 0.00538098812103 0
vt 0.33933883905411 0.99461901187897 0
vt 0.34518596529961 0.33512699604034 0
vt 0.31537574529648 0.99461901187897 0
vt 0.79592150449753 0.99461901187897 0
vt 0.79592150449753 0.00538098812103 0
vt 0.79171770811081 0.00538098812103 0
vt 0.7945202589035 0.33512699604034 0
vt 0.96235555410385 0.79348433017731 0
vt 0.96796971559525 0.78005361557007 0
vt 0.96375221014023 0.78064286708832 0
vt 0.9646925330162 0.78472697734833 0
vt 0.95114082098007 0.77022206783295 0
vt 0.96235555410385 0.73619782924652 0
vt 0.95815169811249 0.73670077323914 0
vt 0.96375221014023 0.74903929233551 0
vt 0.96141982078552 0.74064594507217 0
vt 0.94833368062973 0.75806903839111 0
vt 0.95114082098007 0.75946009159088 0
vt 0.86310595273972 0.00538098812103 0
vt 0.35688024759293 0.99461901187897 0
vt 0.31537574529648 0.00538098812103 0
vt 0.79171770811081 0.99461901187897 0
vt 0.95815169811249 0.79298138618469 0
vt 0.94833368062973 0.77161312103271 0
vt 0.96796971559525 0.74962854385376 0
vt 0.92632502317429 0.00538098812103 0
vt 0.92632502317429 0.99461901187897 0
vt 0.92913210391998 0.99461901187897 0
vt 0.92726069688797 0.66487300395966 0
vt 0.63794523477554 0.00538098812103 0
vt 0.63794523477554 0.99461901187897 0
vt 0.65994548797607 0.99461901187897 0
vt 0.64527869224548 0.66487300395966 0
vt 0.74911069869995 0.99461901187897 0
vt 0.74911069869995 0.00538098812103 0
vt 0.72668123245239 0.00538098812103 0
vt 0.74163419008255 0.33512699604034 0
vt 0.52158635854721 0.00538098812103 0
vt 0.51597213745117 0.00538098812103 0
vt 0.51597213745117 0.99461901187897 0
vt 0.50802552700043 0.66487300395966 0
vt 0.49213230609894 0.99461901187897 0
vt 0.49213230609894 0.00538098812103 0
vt 0.49073559045792 0.00538098812103 0
vt 0.97778779268265 0.92047983407974 0
vt 0.95394790172577 0.92407137155533 0
vt 0.95675504207611 0.92568230628967 0
vt 0.96283024549484 0.9234111905098 0
vt 0.94833368062973 0.93751001358032 0
vt 0.97778779268265 0.90971779823303 0
vt 0.97918444871902 0.90782386064529 0
vt 0.95675504207611 0.9045153260231 0
vt 0.97124242782593 0.90735232830048 0
vt 0.95114082098007 0.89218473434448 0
vt 0.94833368062973 0.8926876783371 0
vt 0.92913210391998 0.00538098812103 0
vt 0.65994548797607 0.00538098812103 0
vt 0.66584855318069 0.99461901187897 0
vt 0.52158635854721 0.99461901187897 0
vt 0.49073559045792 0.99461901187897 0
vt 0.97918444871902 0.92237383127213 0
vt 0.95114082098007 0.93801295757294 0
vt 0.95394790172577 0.90612632036209 0
vt 0.81512308120728 0.00538098812103 0
vt 0.81512308120728 0.99461901187897 0
vt 0.81851643323898 0.99461901187897 0
vt 0.81625419855118 0.66487300395966 0
vt 0.01101120002568 0.00538098812103 0
vt 0.01101120002568 0.99461901187897 0
vt 0.03204394876957 0.99461901187897 0
vt 0.05073059722781 0.33512699604034 0
vt 0.04885919392109 0.99461901187897 0
vt 0.04885919392109 0.00538098812103 0
vt 0.03204394876957 0.00538098812103 0
vt 0.23546759784222 0.00538098812103 0
vt 0.21162773668766 0.00538098812103 0
vt 0.21162773668766 0.99461901187897 0
vt 0.21957436203957 0.33512699604034 0
vt 0.19340209662914 0.99461901187897 0
vt 0.05166630074382 0.99461901187897 0
vt 0.05166630074382 0.00538098812103 0
vt 0.9903991818428 0.88003957271576 0
vt 0.97217357158661 0.87020015716553 0
vt 0.97077685594559 0.87239271402359 0
vt 0.977783203125 0.87421083450317 0
vt 0.94833368062973 0.87379956245422 0
vt 0.9903991818428 0.84959864616394 0
vt 0.98759210109711 0.84821557998657 0
vt 0.97077685594559 0.85724556446075 0
vt 0.98292273283005 0.85168659687042 0
vt 0.94974410533905 0.85393679141998 0
vt 0.94833368062973 0.85583865642548 0
vt 0.00960080046207 0.00538098812103 0
vt 0.23546759784222 0.99461901187897 0
vt 0.19340209662914 0.00538098812103 0
vt 0.98759210109711 0.88142269849777 0
vt 0.94974410533905 0.87570142745972 0
vt 0.97217357158661 0.85943812131882 0
# 222 texture coordinates

o Mesh164_Component_15_1_Component_11_1_Group129_Model.1
usemtl Mesh164_Component_15_1_Component_11_1_Group129_Model
f 3/3/1 4/2/1 2/1/1
f 10/7/2 3/6/2 1/5/2
f 9/11/3 5/10/3 7/9/3
f 12/15/4 11/14/4 2/13/4
f 11/14/5 12/15/5 8/17/5
f 5/19/6 6/18/6 8/17/6
f 9/22/7 11/21/7 6/20/7
f 2/24/7 11/21/7 9/22/7
f 10/27/8 7/26/8 8/25/8
f 4/30/8 3/29/8 10/27/8
f 1/31/1 3/3/1 2/1/1
f 9/32/2 10/7/2 1/5/2
f 10/7/3 9/32/3 7/33/3
f 4/34/4 12/15/4 2/13/4
f 6/18/5 11/14/5 8/17/5
f 7/35/6 5/19/6 8/17/6
f 5/36/7 9/22/7 6/20/7
f 1/37/7 2/24/7 9/22/7
f 12/38/8 10/27/8 8/25/8
f 12/38/8 4/30/8 10/27/8
f 15/41/9 16/40/9 14/39/9
f 22/45/10 15/44/10 13/43/10
f 21/49/4 17/48/4 19/47/4
f 24/52/11 23/51/11 14/50/11
f 23/51/2 24/52/2 20/54/2
f 17/57/1 18/56/1 20/55/1
f 21/61/7 23/60/7 18/59/7
f 14/63/7 23/60/7 21/61/7
f 22/66/8 19/65/8 20/64/8
f 16/69/8 15/68/8 22/66/8
f 13/70/9 15/41/9 14/39/9
f 21/49/10 22/45/10 13/43/10
f 22/45/4 21/49/4 19/47/4
f 16/71/11 24/52/11 14/50/11
f 18/72/2 23/51/2 20/54/2
f 19/73/1 17/57/1 20/55/1
f 17/74/7 21/61/7 18/59/7
f 13/75/7 14/63/7 21/61/7
f 24/76/8 22/66/8 20/64/8
f 24/76/8 16/69/8 22/66/8
f 31/79/12 32/78/12 28/77/12
f 34/83/3 31/82/3 27/81/3
f 33/87/10 25/86/10 29/85/10
f 36/90/5 35/89/5 28/88/5
f 35/89/11 36/90/11 30/92/11
f 25/86/13 26/94/13 30/93/13
f 33/97/7 35/96/7 26/95/7
f 28/99/7 35/96/7 33/97/7
f 34/102/8 29/101/8 30/100/8
f 32/105/8 31/104/8 34/102/8
f 27/81/12 31/82/12 28/106/12
f 33/87/3 34/83/3 27/81/3
f 34/83/10 33/87/10 29/85/10
f 32/107/5 36/90/5 28/88/5
f 26/108/11 35/89/11 30/92/11
f 29/85/13 25/86/13 30/93/13
f 25/109/7 33/97/7 26/95/7
f 27/110/7 28/99/7 33/97/7
f 36/111/8 34/102/8 30/100/8
f 36/111/8 32/105/8 34/102/8
f 41/114/13 42/113/13 44/112/13
f 46/118/11 41/117/11 43/116/11
f 45/122/2 37/121/2 39/120/2
f 48/125/10 47/124/10 44/123/10
f 47/124/4 48/125/4 40/127/4
f 37/130/14 38/129/14 40/128/14
f 45/134/7 47/133/7 38/132/7
f 44/136/7 47/133/7 45/134/7
f 46/139/8 39/138/8 40/137/8
f 42/142/8 41/141/8 46/139/8
f 43/143/13 41/114/13 44/112/13
f 45/122/11 46/118/11 43/116/11
f 46/118/2 45/122/2 39/120/2
f 42/144/10 48/125/10 44/123/10
f 38/145/4 47/124/4 40/127/4
f 39/146/14 37/130/14 40/128/14
f 37/147/7 45/134/7 38/132/7
f 43/148/7 44/136/7 45/134/7
f 48/149/8 46/139/8 40/137/8
f 48/149/8 42/142/8 46/139/8
f 55/152/14 56/151/14 54/150/14
f 58/156/4 55/155/4 53/154/4
f 57/160/5 49/159/5 51/158/5
f 60/164/2 59/163/2 54/162/2
f 59/163/3 60/164/3 52/166/3
f 49/168/12 50/167/12 52/166/12
f 57/171/7 59/170/7 50/169/7
f 54/173/7 59/170/7 57/171/7
f 58/176/8 51/175/8 52/174/8
f 56/179/8 55/178/8 58/176/8
f 53/180/14 55/152/14 54/150/14
f 57/181/4 58/156/4 53/154/4
f 58/156/5 57/181/5 51/182/5
f 56/183/2 60/164/2 54/162/2
f 50/167/3 59/163/3 52/166/3
f 51/184/12 49/168/12 52/166/12
f 49/185/7 57/171/7 50/169/7
f 53/186/7 54/173/7 57/171/7
f 60/187/8 58/176/8 52/174/8
f 60/187/8 56/179/8 58/176/8
f 67/190/6 68/189/6 62/188/6
f 70/194/5 67/193/5 61/192/5
f 69/198/11 65/197/11 63/196/11
f 72/201/3 71/200/3 62/199/3
f 71/200/10 72/201/10 64/203/10
f 65/197/9 66/205/9 64/204/9
f 69/208/7 71/207/7 66/206/7
f 62/210/7 71/207/7 69/208/7
f 70/213/8 63/212/8 64/211/8
f 68/216/8 67/215/8 70/213/8
f 61/192/6 67/193/6 62/217/6
f 69/198/5 70/194/5 61/192/5
f 70/194/11 69/198/11 63/196/11
f 68/218/3 72/201/3 62/199/3
f 66/219/10 71/200/10 64/203/10
f 63/196/9 65/197/9 64/204/9
f 65/220/7 69/208/7 66/206/7
f 61/221/7 62/210/7 69/208/7
f 72/222/8 70/213/8 64/211/8
f 72/222/8 68/216/8 70/213/8

