# WaveFront *.obj file (generated by CINEMA 4D)

mtllib ./Center_2.mtl

v 378.6005859375 -13.625 -68.55051422119141
v 378.900390625 -13.625 -68.48651885986328
v 368.400390625 -13.625 -30.45749664306641
v 368.6005859375 -13.625 -30.39249420166016
v 368.400390625 -10.625 -30.45749664306641
v 368.6005859375 -10.625 -30.39249420166016
v 378.6005859375 -10.625 -68.55051422119141
v 378.900390625 -10.625 -68.48651885986328
v 347.30078125 -13.625 -99.88449859619141
v 347.2001953125 -13.625 -100.12650299072266
v 309.2001953125 -13.625 -89.67749786376953
v 309.1005859375 -13.625 -89.91849517822266
v 347.30078125 -10.625 -99.88449859619141
v 347.2001953125 -10.625 -100.12650299072266
v 309.2001953125 -10.625 -89.67749786376953
v 309.1005859375 -10.625 -89.91849517822266
v 325.6005859375 -13.625 -18.98850250244141
v 325.400390625 -13.625 -18.81150054931641
v 297.7001953125 -13.625 -46.87451934814453
v 297.5 -13.625 -46.69849395751953
v 297.7001953125 -10.625 -46.87451934814453
v 297.5 -10.625 -46.69849395751953
v 325.6005859375 -10.625 -18.98850250244141
v 325.400390625 -10.625 -18.81150054931641
v 378.6005859375 112.25 -68.55051422119141
v 378.900390625 112.25 -68.48651885986328
v 368.400390625 112.25 -30.45749664306641
v 368.6005859375 112.25 -30.39249420166016
v 368.400390625 109.18000030517578 -30.45749664306641
v 368.6005859375 109.18000030517578 -30.39249420166016
v 378.6005859375 109.18000030517578 -68.55051422119141
v 378.900390625 109.18000030517578 -68.48651885986328
v 350 112.25 -99.15650177001953
v 350.2001953125 112.25 -99.33249664306641
v 377.900390625 112.25 -71.26950836181641
v 378.1005859375 112.25 -71.44651031494141
v 377.900390625 109.18000030517578 -71.26950836181641
v 378.1005859375 109.18000030517578 -71.44651031494141
v 350 109.18000030517578 -99.15650177001953
v 350.2001953125 109.18000030517578 -99.33249664306641
v 350 -13.625 -99.15650177001953
v 350.2001953125 -13.625 -99.33249664306641
v 377.900390625 -13.625 -71.26950836181641
v 378.1005859375 -13.625 -71.44651031494141
v 377.900390625 -10.625 -71.26950836181641
v 378.1005859375 -10.625 -71.44651031494141
v 350 -10.625 -99.15650177001953
v 350.2001953125 -10.625 -99.33249664306641
v 347.30078125 112.25 -99.88449859619141
v 347.2001953125 112.25 -100.12650299072266
v 309.2001953125 112.25 -89.67749786376953
v 309.1005859375 112.25 -89.91849517822266
v 347.30078125 109.18000030517578 -99.88449859619141
v 347.2001953125 109.18000030517578 -100.12650299072266
v 309.2001953125 109.18000030517578 -89.67749786376953
v 309.1005859375 109.18000030517578 -89.91849517822266
v 328.30078125 -13.625 -18.25949859619141
v 328.400390625 -13.625 -18.01850128173828
v 366.400390625 -13.625 -28.46750640869141
v 366.5 -13.625 -28.22550201416016
v 328.30078125 -10.625 -18.25949859619141
v 328.400390625 -10.625 -18.01850128173828
v 366.400390625 -10.625 -28.46750640869141
v 366.5 -10.625 -28.22550201416016
v 325.6005859375 112.25 -18.98850250244141
v 325.400390625 112.25 -18.81150054931641
v 297.7001953125 112.25 -46.87451934814453
v 297.5 112.25 -46.69849395751953
v 297.7001953125 109.18000030517578 -46.87451934814453
v 297.5 109.18000030517578 -46.69849395751953
v 325.6005859375 109.18000030517578 -18.98850250244141
v 325.400390625 109.18000030517578 -18.81150054931641
v 307.2001953125 -13.625 -87.68750762939453
v 307 -13.625 -87.75150299072266
v 297 -13.625 -49.59351348876953
v 296.7001953125 -13.625 -49.65851593017578
v 307.2001953125 -10.625 -87.68750762939453
v 307 -10.625 -87.75150299072266
v 297 -10.625 -49.59351348876953
v 296.7001953125 -10.625 -49.65851593017578
v 328.30078125 112.25 -18.25949859619141
v 328.400390625 112.25 -18.01850128173828
v 366.400390625 112.25 -28.46750640869141
v 366.5 112.25 -28.22550201416016
v 328.30078125 109.18000030517578 -18.25949859619141
v 328.400390625 109.18000030517578 -18.01850128173828
v 366.400390625 109.18000030517578 -28.46750640869141
v 366.5 109.18000030517578 -28.22550201416016
v 307.2001953125 112.25 -87.68750762939453
v 307 112.25 -87.75150299072266
v 297 112.25 -49.59351348876953
v 296.7001953125 112.25 -49.65851593017578
v 307.2001953125 109.18000030517578 -87.68750762939453
v 307 109.18000030517578 -87.75150299072266
v 297 109.18000030517578 -49.59351348876953
v 296.7001953125 109.18000030517578 -49.65851593017578
# 96 vertices

vn -0.2588178217411 0 0.96592617034912
vn -0.96592617034912 0 -0.2588178217411
vn 0 -1 0
vn 0.2588178217411 0 -0.96592617034912
vn 0 1 0
vn 0.96592617034912 0 0.2588178217411
vn 0.96592617034912 0 -0.2588178217411
vn 0.2588178217411 0 0.96592617034912
vn -0.96592617034912 0 0.2588178217411
vn -0.2588178217411 0 -0.96592617034912
vn -0.70710676908493 0 -0.70710676908493
vn 0.70710676908493 0 -0.70710676908493
vn 0.70710676908493 0 0.70710676908493
vn -0.70710676908493 0 0.70710676908493
# 14 normals

vt 0.3339309990406 0.39856767654419 0
vt 0.3339309990406 0.37913191318512 0
vt 0.33266651630402 0.37913191318512 0
vt 0.33350950479507 0.38561046123505 0
vt 0.75092357397079 0.81435739994049 0
vt 0.99152880907059 0.81435739994049 0
vt 0.99152880907059 0.79492163658142 0
vt 0.91132706403732 0.80787885189056 0
vt 0.58833885192871 0.72878700494766 0
vt 0.65339505672455 0.48199141025543 0
vt 0.65150141716003 0.48157691955566 0
vt 0.63107842206955 0.56411844491959 0
vt 0.40573686361313 0.46972274780273 0
vt 0.40573686361313 0.4891585111618 0
vt 0.40763050317764 0.4891585111618 0
vt 0.4063680768013 0.48267996311188 0
vt 0.65339505672455 0.99158430099487 0
vt 0.58833885192871 0.74478876590729 0
vt 0.5870743393898 0.74520993232727 0
vt 0.60960274934769 0.82719433307648 0
vt 0.75091737508774 0.50101280212402 0
vt 0.99152898788452 0.50101280212402 0
vt 0.99152898788452 0.48157703876495 0
vt 0.91132509708405 0.4945342540741 0
vt 0.9919393658638 0.81435739994049 0
vt 0.75092357397079 0.79492163658142 0
vt 0.5870743393898 0.72836589813232 0
vt 0.40763050317764 0.46972274780273 0
vt 0.65150141716003 0.99199891090393 0
vt 0.75091737508774 0.48157703876495 0
vt 0.7515527009964 0.95610767602921 0
vt 0.7515527009964 0.93667191267014 0
vt 0.75091737508774 0.93667191267014 0
vt 0.91198396682739 0.94962906837463 0
vt 0.75154656171799 0.92067009210587 0
vt 0.99219959974289 0.92067009210587 0
vt 0.99219959974289 0.9012343287468 0
vt 0.91198188066483 0.91419148445129 0
vt 0.50533032417297 0.24717628955841 0
vt 0.26468345522881 0.31330966949463 0
vt 0.26531261205673 0.31487107276917 0
vt 0.34510877728462 0.2917857170105 0
vt 0.28181284666061 0.37913191318512 0
vt 0.28181284666061 0.39856767654419 0
vt 0.28333503007889 0.39856767654419 0
vt 0.28232023119926 0.39208900928497 0
vt 0.00780041562393 0.24873757362366 0
vt 0.24844728410244 0.31487107276917 0
vt 0.2490826100111 0.31330323219299 0
vt 0.08843753486872 0.26973903179169 0
vt 0.99219959974289 0.95610767602921 0
vt 0.99219959974289 0.93667191267014 0
vt 0.75091737508774 0.95610767602921 0
vt 0.75154656171799 0.9012343287468 0
vt 0.50596565008163 0.24874413013458 0
vt 0.75091737508774 0.9012343287468 0
vt 0.00842957384884 0.24717628955841 0
vt 0.92840784788132 0.39470016956329 0
vt 0.92840784788132 0.37526440620422 0
vt 0.92714339494705 0.37526440620422 0
vt 0.92798638343811 0.38174295425415 0
vt 0.75091737508774 0.39470016956329 0
vt 0.92714339494705 0.39470016956329 0
vt 0.00780041562393 0.6135202050209 0
vt 0.18402642011642 0.79418855905533 0
vt 0.18529090285301 0.79304182529449 0
vt 0.12570591270924 0.73358350992203 0
vt 0.92714995145798 0.69601637125015 0
vt 0.92714995145798 0.71545213460922 0
vt 0.92841440439224 0.71545213460922 0
vt 0.92757141590118 0.7089735865593 0
vt 0.37711772322655 0.81019032001495 0
vt 0.20089173316956 0.99085873365402 0
vt 0.20215621590614 0.99199908971786 0
vt 0.26005521416664 0.93101608753204 0
vt 0.75092393159866 0.71545213460922 0
vt 0.75091737508774 0.37526440620422 0
vt 0.00906490068883 0.61237978935242 0
vt 0.92841440439224 0.69601637125015 0
vt 0.37838220596313 0.81133705377579 0
vt 0.75092393159866 0.69601637125015 0
vt 0.31706565618515 0.39856767654419 0
vt 0.31706565618515 0.37867832183838 0
vt 0.31580117344856 0.37867832183838 0
vt 0.31664416193962 0.38530814647675 0
vt 0.00780041562393 0.0278902053833 0
vt 0.24840565025806 0.0278902053833 0
vt 0.24840565025806 0.00800096988678 0
vt 0.1682039052248 0.02126038074493 0
vt 0.50641733407974 0.59637820720673 0
vt 0.57147353887558 0.34958267211914 0
vt 0.56957989931107 0.34916806221008 0
vt 0.54915690422058 0.43170964717865 0
vt 0.40573686361313 0.57648891210556 0
vt 0.40573686361313 0.59637820720673 0
vt 0.40763050317764 0.59637820720673 0
vt 0.4063680768013 0.589748442173 0
vt 0.48955202102661 0.59596359729767 0
vt 0.42449581623077 0.34916806221008 0
vt 0.42323133349419 0.34958922863007 0
vt 0.44575971364975 0.43157362937927 0
vt 0.52103352546692 0.0278902053833 0
vt 0.76164507865906 0.0278902053833 0
vt 0.76164507865906 0.00800096988678 0
vt 0.68144124746323 0.02126038074493 0
vt 0.24881622195244 0.0278902053833 0
vt 0.00780041562393 0.00800096988678 0
vt 0.50515282154083 0.59595710039139 0
vt 0.40763050317764 0.57648891210556 0
vt 0.4876583814621 0.59637820720673 0
vt 0.52103352546692 0.00800096988678 0
vt 0.92841440439224 0.60823249816895 0
vt 0.92841440439224 0.58834320306778 0
vt 0.92714995145798 0.58834320306778 0
vt 0.92799293994904 0.5949729681015 0
vt 0.75092393159866 0.60823249816895 0
vt 0.92714995145798 0.60823249816895 0
vt 0.57147353887558 0.9908521771431 0
vt 0.39524751901627 0.81019032001495 0
vt 0.39398303627968 0.81133055686951 0
vt 0.45356804132462 0.87079101800919 0
vt 0.92714995145798 0.66012531518936 0
vt 0.92714995145798 0.68001461029053 0
vt 0.92841440439224 0.68001461029053 0
vt 0.92757141590118 0.67338484525681 0
vt 0.39524751901627 0.79418855905533 0
vt 0.57147353887558 0.61352670192719 0
vt 0.57020902633667 0.61237996816635 0
vt 0.51231002807617 0.67336505651474 0
vt 0.75092393159866 0.68001461029053 0
vt 0.75092393159866 0.58834320306778 0
vt 0.57020902633667 0.99199891090393 0
vt 0.92841440439224 0.66012531518936 0
vt 0.39398303627968 0.79304838180542 0
vt 0.75092393159866 0.66012531518936 0
vt 0.92840784788132 0.46557533740997 0
vt 0.92840784788132 0.44613945484161 0
vt 0.92714339494705 0.44613945484161 0
vt 0.92798638343811 0.45261812210083 0
vt 0.75091737508774 0.46557533740997 0
vt 0.92714339494705 0.46557533740997 0
vt 0.18529090285301 0.59523129463196 0
vt 0.00906490068883 0.41456937789917 0
vt 0.00780041562393 0.41570961475372 0
vt 0.06738540530205 0.47517013549805 0
vt 0.92714339494705 0.41070199012756 0
vt 0.92714339494705 0.43013775348663 0
vt 0.92840784788132 0.43013775348663 0
vt 0.92756485939026 0.42365908622742 0
vt 0.20215621590614 0.59637796878815 0
vt 0.37838220596313 0.41571617126465 0
vt 0.37711772322655 0.41456937789917 0
vt 0.31921872496605 0.47555458545685 0
vt 0.75091737508774 0.43013775348663 0
vt 0.75091737508774 0.44613945484161 0
vt 0.18402642011642 0.59637796878815 0
vt 0.92840784788132 0.41070199012756 0
vt 0.20089173316956 0.59523779153824 0
vt 0.75091737508774 0.41070199012756 0
vt 0.52220177650452 0.18336892127991 0
vt 0.52220177650452 0.16347968578339 0
vt 0.52156645059586 0.16347968578339 0
vt 0.68263304233551 0.17673909664154 0
vt 0.00842957384884 0.06378126144409 0
vt 0.2490826100111 0.06378126144409 0
vt 0.2490826100111 0.04389202594757 0
vt 0.16886493563652 0.05715143680573 0
vt 0.24844728410244 0.33087289333344 0
vt 0.00780041562393 0.39700627326965 0
vt 0.00842957384884 0.39856767654419 0
vt 0.08822575956583 0.37548232078552 0
vt 0.4057432115078 0.39794063568115 0
vt 0.4057432115078 0.41782999038696 0
vt 0.40726542472839 0.41782999038696 0
vt 0.40625062584877 0.4112001657486 0
vt 0.00780041562393 0.16504096984863 0
vt 0.24844728410244 0.23117446899414 0
vt 0.2490826100111 0.22960662841797 0
vt 0.08843753486872 0.18604242801666 0
vt 0.76284867525101 0.18336892127991 0
vt 0.76284867525101 0.16347968578339 0
vt 0.52156645059586 0.18336892127991 0
vt 0.00842957384884 0.04389202594757 0
vt 0.2490826100111 0.33244073390961 0
vt 0.00780041562393 0.04389202594757 0
vt 0.00842957384884 0.16347968578339 0
vt 0.7515527009964 0.88523256778717 0
vt 0.7515527009964 0.8657968044281 0
vt 0.75092357397079 0.8657968044281 0
vt 0.91198396682739 0.8787539601326 0
vt 0.7515527009964 0.84979498386383 0
vt 0.99219959974289 0.84979498386383 0
vt 0.99219959974289 0.83035922050476 0
vt 0.91198396682739 0.8433164358139 0
vt 0.5221956372261 0.14747786521912 0
vt 0.76284247636795 0.08135092258453 0
vt 0.76221334934235 0.07978308200836 0
vt 0.68241715431213 0.10287058353424 0
vt 0.26468345522881 0.37913191318512 0
vt 0.26468345522881 0.39856767654419 0
vt 0.26621201634407 0.39856767654419 0
vt 0.26519295573235 0.39208900928497 0
vt 0.50596565008163 0.14591002464294 0
vt 0.26531878113747 0.07978308200836 0
vt 0.26468962430954 0.08134436607361 0
vt 0.345324665308 0.10234582424164 0
vt 0.99219959974289 0.88523256778717 0
vt 0.99219959974289 0.8657968044281 0
vt 0.75092357397079 0.88523256778717 0
vt 0.7515527009964 0.83035922050476 0
vt 0.52156645059586 0.14591658115387 0
vt 0.75092357397079 0.83035922050476 0
vt 0.50533646345139 0.14747786521912 0
vt 0.92841440439224 0.64412355422974 0
vt 0.92841440439224 0.62423425912857 0
vt 0.92714995145798 0.62423425912857 0
vt 0.92799293994904 0.63086402416229 0
vt 0.75092393159866 0.64412355422974 0
vt 0.92714995145798 0.64412355422974 0
vt 0.00780041562393 0.81133073568344 0
vt 0.18402642011642 0.99199908971786 0
vt 0.18529090285301 0.99085235595703 0
vt 0.12570591270924 0.93139410018921 0
vt 0.92714995145798 0.55245214700699 0
vt 0.92714995145798 0.57234144210815 0
vt 0.92841440439224 0.57234144210815 0
vt 0.92757141590118 0.56571167707443 0
vt 0.37711772322655 0.61237978935242 0
vt 0.20089173316956 0.79304814338684 0
vt 0.20215621590614 0.79418855905533 0
vt 0.26005521416664 0.73320549726486 0
vt 0.75092393159866 0.57234144210815 0
vt 0.75092393159866 0.62423425912857 0
vt 0.00906490068883 0.81019032001495 0
vt 0.92841440439224 0.55245214700699 0
vt 0.37838220596313 0.61352652311325 0
vt 0.75092393159866 0.55245214700699 0
vt 0.35079631209373 0.39856767654419 0
vt 0.35079631209373 0.37913191318512 0
vt 0.34953182935715 0.37913191318512 0
vt 0.35037481784821 0.38561046123505 0
vt 0.75092375278473 0.7789198756218 0
vt 0.99153512716293 0.7789198756218 0
vt 0.99153512716293 0.75948411226273 0
vt 0.91133135557175 0.77244126796722 0
vt 0.73405206203461 0.48157703876495 0
vt 0.66899585723877 0.72836589813232 0
vt 0.67088949680328 0.72878700494766 0
vt 0.69131249189377 0.64624333381653 0
vt 0.40573686361313 0.50516033172607 0
vt 0.40573686361313 0.52459609508514 0
vt 0.40763050317764 0.52459609508514 0
vt 0.4063680768013 0.51811748743057 0
vt 0.66899585723877 0.74520993232727 0
vt 0.73405206203461 0.99199873209 0
vt 0.73531657457352 0.99158412218094 0
vt 0.71278816461563 0.90959757566452 0
vt 0.75092393159866 0.53645038604736 0
vt 0.99152898788452 0.53645038604736 0
vt 0.99152898788452 0.51701462268829 0
vt 0.9113273024559 0.52997177839279 0
vt 0.9919393658638 0.7789198756218 0
vt 0.75092375278473 0.75948411226273 0
vt 0.73531657457352 0.48199164867401 0
vt 0.40763050317764 0.50516033172607 0
vt 0.67088949680328 0.74478876590729 0
vt 0.75092393159866 0.51701462268829 0
vt 0.5221956372261 0.06378126144409 0
vt 0.5221956372261 0.04389202594757 0
vt 0.52156645059586 0.04389202594757 0
vt 0.6826269030571 0.05715143680573 0
vt 0.26531878113747 0.06378126144409 0
vt 0.50596565008163 0.06378126144409 0
vt 0.50596565008163 0.04389202594757 0
vt 0.42575001716614 0.05715143680573 0
vt 0.26531878113747 0.23117446899414 0
vt 0.50596565008163 0.16504752635956 0
vt 0.50533646345139 0.16347968578339 0
vt 0.4255402982235 0.18656718730927 0
vt 0.40573686361313 0.43383169174194 0
vt 0.40573686361313 0.45372104644775 0
vt 0.40726542472839 0.45372104644775 0
vt 0.40624636411667 0.44709122180939 0
vt 0.24907644093037 0.14591002464294 0
vt 0.00842957384884 0.07978308200836 0
vt 0.00780041562393 0.08134436607361 0
vt 0.08843547850847 0.10234582424164 0
vt 0.76284247636795 0.06378126144409 0
vt 0.76284247636795 0.04389202594757 0
vt 0.52156645059586 0.06378126144409 0
vt 0.26531878113747 0.04389202594757 0
vt 0.26468962430954 0.2296130657196 0
vt 0.26468962430954 0.04389202594757 0
vt 0.24844728410244 0.14747786521912 0
vt 0.30020034313202 0.39856767654419 0
vt 0.30020034313202 0.37867832183838 0
vt 0.29893586039543 0.37867832183838 0
vt 0.29977884888649 0.38530814647675 0
vt 0.26441705226898 0.0278902053833 0
vt 0.50502848625183 0.0278902053833 0
vt 0.50502848625183 0.00800096988678 0
vt 0.424824655056 0.02126038074493 0
vt 0.73405206203461 0.21836531162262 0
vt 0.66899585723877 0.46515417098999 0
vt 0.67088949680328 0.46557533740997 0
vt 0.69131249189377 0.38303160667419 0
vt 0.40573686361313 0.54059785604477 0
vt 0.40573686361313 0.56048715114594 0
vt 0.40763050317764 0.56048715114594 0
vt 0.4063680768013 0.55385738611221 0
vt 0.5870743393898 0.21878623962402 0
vt 0.65213054418564 0.46557509899139 0
vt 0.65339505672455 0.46516048908234 0
vt 0.63086664676666 0.38317394256592 0
vt 0.75091737508774 0.99199873209 0
vt 0.9915224313736 0.99199873209 0
vt 0.9915224313736 0.97210943698883 0
vt 0.91132074594498 0.98536896705627 0
vt 0.50543266534805 0.0278902053833 0
vt 0.26441705226898 0.00800096988678 0
vt 0.73531657457352 0.21877992153168 0
vt 0.40763050317764 0.54059785604477 0
vt 0.58896797895432 0.21836519241333 0
vt 0.75091737508774 0.97210943698883 0
# 324 texture coordinates

o Mesh145_Group130_Group129_Model.1
usemtl Mesh145_Group130_Group129_Model
f 3/3/1 4/2/1 6/1/1
f 3/7/2 5/6/2 7/5/2
f 1/11/3 2/10/3 4/9/3
f 7/15/4 8/14/4 2/13/4
f 5/19/5 6/18/5 8/17/5
f 2/23/6 8/22/6 6/21/6
f 5/6/1 3/7/1 6/25/1
f 1/26/2 3/7/2 7/5/2
f 3/27/3 1/11/3 4/9/3
f 1/28/4 7/15/4 2/13/4
f 7/29/5 5/19/5 8/17/5
f 4/30/6 2/23/6 6/21/6
f 9/33/7 10/32/7 14/31/7
f 9/37/8 13/36/8 15/35/8
f 11/41/3 12/40/3 10/39/3
f 15/45/9 16/44/9 12/43/9
f 13/49/5 14/48/5 16/47/5
f 12/52/10 16/51/10 14/31/10
f 13/53/7 9/33/7 14/31/7
f 11/54/8 9/37/8 15/35/8
f 9/55/3 11/41/3 10/39/3
f 11/54/9 15/35/9 12/56/9
f 15/57/5 13/49/5 16/47/5
f 10/32/10 12/52/10 14/31/10
f 19/60/11 20/59/11 22/58/11
f 19/60/12 21/63/12 23/62/12
f 17/66/3 18/65/3 20/64/3
f 23/70/13 24/69/13 18/68/13
f 21/74/5 22/73/5 24/72/5
f 18/68/14 24/69/14 22/76/14
f 21/63/11 19/60/11 22/58/11
f 17/77/12 19/60/12 23/62/12
f 19/78/3 17/66/3 20/64/3
f 17/79/13 23/70/13 18/68/13
f 23/80/5 21/74/5 24/72/5
f 20/81/14 18/68/14 22/76/14
f 29/84/1 30/83/1 28/82/1
f 29/88/2 27/87/2 25/86/2
f 31/92/3 32/91/3 30/90/3
f 25/96/4 26/95/4 32/94/4
f 27/100/5 28/99/5 26/98/5
f 32/104/6 26/103/6 28/102/6
f 27/87/1 29/88/1 28/106/1
f 31/107/2 29/88/2 25/86/2
f 29/108/3 31/92/3 30/90/3
f 31/109/4 25/96/4 32/94/4
f 25/110/5 27/100/5 26/98/5
f 30/111/6 32/104/6 28/102/6
f 37/114/13 38/113/13 36/112/13
f 37/114/14 35/117/14 33/116/14
f 39/120/3 40/119/3 38/118/3
f 33/124/11 34/123/11 40/122/11
f 35/128/5 36/127/5 34/126/5
f 40/122/12 34/123/12 36/130/12
f 35/117/13 37/114/13 36/112/13
f 39/131/14 37/114/14 33/116/14
f 37/132/3 39/120/3 38/118/3
f 39/133/11 33/124/11 40/122/11
f 33/134/5 35/128/5 34/126/5
f 38/135/12 40/122/12 36/130/12
f 43/138/13 44/137/13 46/136/13
f 43/138/14 45/141/14 47/140/14
f 41/144/3 42/143/3 44/142/3
f 47/148/11 48/147/11 42/146/11
f 45/152/5 46/151/5 48/150/5
f 42/146/12 48/147/12 46/154/12
f 45/141/13 43/138/13 46/136/13
f 41/155/14 43/138/14 47/140/14
f 43/156/3 41/144/3 44/142/3
f 41/157/11 47/148/11 42/146/11
f 47/158/5 45/152/5 48/150/5
f 44/159/12 42/146/12 46/154/12
f 53/162/7 54/161/7 50/160/7
f 53/166/8 49/165/8 51/164/8
f 55/170/3 56/169/3 54/168/3
f 51/174/9 52/173/9 56/172/9
f 49/178/5 50/177/5 52/176/5
f 56/181/10 52/180/10 50/160/10
f 49/182/7 53/162/7 50/160/7
f 55/183/8 53/166/8 51/164/8
f 53/184/3 55/170/3 54/168/3
f 55/183/9 51/164/9 56/185/9
f 51/186/5 49/178/5 52/176/5
f 54/161/10 56/181/10 50/160/10
f 57/189/9 58/188/9 62/187/9
f 57/193/10 61/192/10 63/191/10
f 59/197/3 60/196/3 58/195/3
f 63/201/7 64/200/7 60/199/7
f 61/205/5 62/204/5 64/203/5
f 60/208/8 64/207/8 62/187/8
f 61/209/9 57/189/9 62/187/9
f 59/210/10 57/193/10 63/191/10
f 57/211/3 59/197/3 58/195/3
f 59/210/7 63/191/7 60/212/7
f 63/213/5 61/205/5 64/203/5
f 58/188/8 60/208/8 62/187/8
f 69/216/11 70/215/11 68/214/11
f 69/216/12 67/219/12 65/218/12
f 71/222/3 72/221/3 70/220/3
f 65/226/13 66/225/13 72/224/13
f 67/230/5 68/229/5 66/228/5
f 72/224/14 66/225/14 68/232/14
f 67/219/11 69/216/11 68/214/11
f 71/233/12 69/216/12 65/218/12
f 69/234/3 71/222/3 70/220/3
f 71/235/13 65/226/13 72/224/13
f 65/236/5 67/230/5 66/228/5
f 70/237/14 72/224/14 68/232/14
f 73/240/4 74/239/4 78/238/4
f 73/244/6 77/243/6 79/242/6
f 75/248/3 76/247/3 74/246/3
f 79/252/1 80/251/1 76/250/1
f 77/256/5 78/255/5 80/254/5
f 76/260/2 80/259/2 78/258/2
f 77/243/4 73/244/4 78/262/4
f 75/263/6 73/244/6 79/242/6
f 73/264/3 75/248/3 74/246/3
f 75/265/1 79/252/1 76/250/1
f 79/266/5 77/256/5 80/254/5
f 74/267/2 76/260/2 78/258/2
f 85/270/9 86/269/9 82/268/9
f 85/274/10 81/273/10 83/272/10
f 87/278/3 88/277/3 86/276/3
f 83/282/7 84/281/7 88/280/7
f 81/286/5 82/285/5 84/284/5
f 88/289/8 84/288/8 82/268/8
f 81/290/9 85/270/9 82/268/9
f 87/291/10 85/274/10 83/272/10
f 85/292/3 87/278/3 86/276/3
f 87/291/7 83/272/7 88/293/7
f 83/294/5 81/286/5 84/284/5
f 86/269/8 88/289/8 82/268/8
f 93/297/4 94/296/4 90/295/4
f 93/301/6 89/300/6 91/299/6
f 95/305/3 96/304/3 94/303/3
f 91/309/1 92/308/1 96/307/1
f 89/313/5 90/312/5 92/311/5
f 96/317/2 92/316/2 90/315/2
f 89/300/4 93/301/4 90/319/4
f 95/320/6 93/301/6 91/299/6
f 93/321/3 95/305/3 94/303/3
f 95/322/1 91/309/1 96/307/1
f 91/323/5 89/313/5 92/311/5
f 94/324/2 96/317/2 90/315/2

