# WaveFront *.obj file (generated by CINEMA 4D)

mtllib ./Chair_3.mtl

v 16.1005859375 -13.75 -165.05850219726562
v 32.1005859375 -13.75 -174.2965087890625
v 32.1005859375 -13.75 -118.71952056884766
v 16.1005859375 -13.75 -127.95749664306641
v 16.1005859375 -12.00745964050293 -165.05850219726562
v 32.1005859375 -12.00745964050293 -174.2965087890625
v 16.1005859375 -12.00745964050293 -127.95749664306641
v 32.1005859375 -12.00745964050293 -118.71952056884766
v 33.6005859375 -12.00745964050293 -176.89450073242188
v 33.6005859375 -12.00745964050293 -116.18451690673828
v 14.6005859375 -12.00745964050293 -127.15351104736328
v 14.6005859375 -12.00745964050293 -165.92449951171875
v 34.1005859375 -11.57182025909424 -177.1824951171875
v 34.1005859375 -11.57182025909424 -115.89551544189453
v 33.6005859375 -11.57182025909424 -177.47149658203125
v 14.6005859375 -11.57182025909424 -166.50250244140625
v 14.1005859375 -11.57182025909424 -165.635498046875
v 14.1005859375 -11.57182025909424 -127.44251251220703
v 14.6005859375 -11.57182025909424 -126.57651519775391
v 33.6005859375 -11.57182025909424 -115.60651397705078
v 33.6005859375 2.73460006713867 -115.60651397705078
v 34.1005859375 2.73460006713867 -115.89551544189453
v 14.6005859375 2.73460006713867 -126.57651519775391
v 33.6005859375 3.1702995300293 -116.18451690673828
v 14.6005859375 3.1702995300293 -127.15351104736328
v 33.6005859375 3.1702995300293 -176.89450073242188
v 14.6005859375 3.1702995300293 -165.92449951171875
v 34.1005859375 2.73460006713867 -177.1824951171875
v 33.6005859375 2.73460006713867 -177.47149658203125
v 14.6005859375 2.73460006713867 -166.50250244140625
v 14.1005859375 2.73460006713867 -165.635498046875
v 14.1005859375 2.73460006713867 -127.44251251220703
# 32 vertices

vn 0 -1 0
vn -0.50001096725464 0 -0.86601907014847
vn -1 0 0
vn -0.50001096725464 0 0.86601907014847
vn 1 0 0
vn 0 1 0
vn 0.62986826896667 -0.49726936221123 0.59664821624756
vn 0.62986826896667 -0.49726936221123 -0.59664821624756
vn 0.3038238286972 -0.79418593645096 -0.52626967430115
vn 0.20178729295731 -0.49726489186287 -0.84380656480789
vn -0.72533690929413 -0.38729429244995 -0.56911289691925
vn -0.67701452970505 -0.62360715866089 -0.39085215330124
vn -0.85554099082947 -0.38728567957878 -0.34359768033028
vn -0.85554099082947 -0.38728567957878 0.34359768033028
vn -0.67701452970505 -0.62360715866089 0.39085215330124
vn -0.72533690929413 -0.38729429244995 0.56911289691925
vn 0.20178729295731 -0.49726489186287 0.84380656480789
vn 0.3038238286972 -0.79418593645096 0.52626967430115
vn 0.62986826896667 0.49726936221123 0.59664821624756
vn 0.20178729295731 0.49726489186287 0.84380656480789
vn -0.72533690929413 0.38729429244995 0.56911289691925
vn -0.67701452970505 0.62360715866089 0.39085215330124
vn 0.62986826896667 0.49726936221123 -0.59664821624756
vn 0.3038238286972 0.79418593645096 0.52626967430115
vn 0.20178729295731 0.49726489186287 -0.84380656480789
vn -0.72533690929413 0.38729429244995 -0.56911289691925
vn 0.3038238286972 0.79418593645096 -0.52626967430115
vn -0.67701452970505 0.62360715866089 -0.39085215330124
vn -0.85554099082947 0.38728567957878 -0.34359768033028
vn -0.85554099082947 0.38728567957878 0.34359768033028
# 30 normals

vt 0.61392360925674 0.89820247888565 0
vt 0.77325433492661 0.99182003736496 0
vt 0.77325433492661 0.42860329151154 0
vt 0.61533731222153 0.62822937965393 0
vt 0.43851685523987 0.41224336624146 0
vt 0.53051048517227 0.41224336624146 0
vt 0.53051048517227 0.39458453655243 0
vt 0.72511941194534 0.42623770236969 0
vt 0.89996862411499 0.41224336624146 0
vt 0.89996862411499 0.39458453655243 0
vt 0.72511941194534 0.39220762252808 0
vt 0.669273853302 0.18717992305756 0
vt 0.82860451936722 0.18717992305756 0
vt 0.82860451936722 0.16952097415924 0
vt 0.72379773855209 0.17213618755341 0
vt 0.42170387506485 0.02583885192871 0
vt 0.97514897584915 0.02583885192871 0
vt 0.97514897584915 0.00818002223969 0
vt 0.73897075653076 0.03183960914612 0
vt 0.59784758090973 0.42860329151154 0
vt 0.43851685523987 0.52222084999084 0
vt 0.43851685523987 0.89820218086243 0
vt 0.43421256542206 0.62423229217529 0
vt 0.61392360925674 0.52222114801407 0
vt 0.62041985988617 0.62423253059387 0
vt 0.43851685523987 0.39458453655243 0
vt 0.72511941194534 0.41824412345886 0
vt 0.72511941194534 0.37615513801575 0
vt 0.99196195602417 0.39458453655243 0
vt 0.72511941194534 0.38920605182648 0
vt 0.42170387506485 0.00818002223969 0
vt 0.73897075653076 0.00779342651367 0
vt 0.59784758090973 0.99182003736496 0
vt 0.43929523229599 0.62822914123535 0
vt 0.22825652360916 0.48189795017242 0
vt 0.22825652360916 0.87480288743973 0
vt 0.41746172308922 0.98596256971359 0
vt -10.19568920135498 0.91497135162354 0
vt 0.42244082689285 0.98889130353928 0
vt 0.42244082689285 0.36780953407288 0
vt 0.41746172308922 0.37072801589966 0
vt -10.16372299194336 0.73164814710617 0
vt 0.41746172308922 0.36488080024719 0
vt -6.81966114044189 -7.06865119934082 0
vt 0.22825652360916 0.47604048252106 0
vt 0.05978288128972 0.73164927959442 0
vt 0.00803801883012 0.03778338432312 0
vt 0.016671795398 0.03778338432312 0
vt 0.01379386987537 0.0333685874939 0
vt 2.52801251411438 -3.33657360076904 0
vt 0.22327743470669 0.48482668399811 0
vt 0.22327743470669 0.87187415361404 0
vt -10.18991374969482 0.89742332696915 0
vt 0.40562781691551 0.03778338432312 0
vt 0.39988201856613 0.0333685874939 0
vt 0.3970040678978 0.03778338432312 0
vt 2.64063954353333 3.33457136154175 0
vt 0.22825652360916 0.88065016269684 0
vt 0.41746172308922 0.99182003736496 0
vt 0.24650822579861 0.73164927959442 0
vt -6.65322017669678 8.7081995010376 0
vt 0.82860451936722 0.34852087497711 0
vt 0.82860451936722 0.20353972911835 0
vt 0.82362544536591 0.20353972911835 0
vt 0.7192115187645 0.2402149438858 0
vt 0.63442021608353 0.20353972911835 0
vt 0.63442021608353 0.34852087497711 0
vt 0.70767116546631 0.25342237949371 0
vt 0.2022223174572 0.36488080024719 0
vt 0.01301710307598 0.47605073451996 0
vt 0.01301710307598 0.48189795017242 0
vt 0.14918456971645 0.74592697620392 0
vt 0.01301710307598 0.87480288743973 0
vt 0.2022223174572 0.98597276210785 0
vt 0.2022223174572 0.37073826789856 0
vt 3.51784110069275 0.9148662686348 0
vt 0.20720140635967 0.98889130353928 0
vt 0.20720140635967 0.36780953407288 0
vt -10.28147220611572 0.74593275785446 0
vt -6.738853931427 -7.23591995239258 0
vt 0.61834418773651 0.20353972911835 0
vt 0.00803801883012 0.20353972911835 0
vt 0.00803801883012 0.34852087497711 0
vt -10.20925235748291 0.25342762470245 0
vt 0.42668294906616 0.18717992305756 0
vt 0.42668294906616 0.04219877719879 0
vt 0.42170387506485 0.04219877719879 0
vt -9.89871025085449 0.07887327671051 0
vt 0.61588817834854 0.04219877719879 0
vt 0.31290420889854 0.09208142757416 0
vt 0.01301710307598 0.8806603550911 0
vt 0.2022223174572 0.99182003736496 0
vt -0.03754085302353 0.74592709541321 0
vt -6.9052848815918 8.54093170166016 0
vt 0.00803801883012 0.18276453018188 0
vt 0.01379386987537 0.18717992305756 0
vt 0.016671795398 0.18276453018188 0
vt 2.52827143669128 3.49534702301025 0
vt 0.00803801883012 0.48482668399811 0
vt 0.00803801883012 0.87187415361404 0
vt 3.49169087409973 0.89732843637466 0
vt 3.49613571166992 0.08766424655914 0
vt 0.40562781691551 0.18276453018188 0
vt 0.1530279815197 0.07445847988129 0
vt 0.3970040678978 0.18276453018188 0
vt 0.39988201856613 0.18717992305756 0
vt 2.64089846611023 -3.17483520507812 0
vt -10.16372299194336 0.91497135162354 0
vt -10.19568920135498 0.73164814710617 0
vt 0.04824236780405 0.73164927959442 0
vt -10.16950035095215 0.89742332696915 0
vt 0.23496779799461 0.73164927959442 0
vt 0.82362544536591 0.34852087497711 0
vt 0.7192115187645 0.25342237949371 0
vt 0.16072499752045 0.74592697620392 0
vt 3.51207566261292 0.89732843637466 0
vt -10.24950695037842 0.74593275785446 0
vt 0.61834418773651 0.34852087497711 0
vt -10.17698764801025 0.25342762470245 0
vt 0.42170387506485 0.18717992305756 0
vt -9.89871025085449 0.0920866727829 0
vt 0.61588817834854 0.18717992305756 0
vt 0.32444575428963 0.09208142757416 0
vt -0.02600033767521 0.74592709541321 0
vt 3.51622128486633 0.08766424655914 0
vt 3.49613571166992 0.07445871829987 0
vt 0.1530279815197 0.08766603469849 0
# 127 texture coordinates

o Mesh179_Group154_Component_4_3_Component_1_3_Model.1
usemtl Mesh179_Group154_Component_4_3_Component_1_3_Model
f 2/3/1 3/2/1 4/1/1
f 1/7/2 5/6/2 6/5/2
f 4/10/3 7/9/3 5/6/3
f 3/14/4 8/13/4 7/12/4
f 2/18/5 6/17/5 8/16/5
f 5/22/6 7/21/6 8/20/6
f 1/24/1 2/3/1 4/1/1
f 2/26/2 1/7/2 6/5/2
f 1/7/3 4/10/3 5/6/3
f 4/10/4 3/29/4 7/9/4
f 3/31/5 2/18/5 8/16/5
f 6/33/6 5/22/6 8/20/6
f 10/37/1 11/36/1 12/35/1
f 9/41/9 13/40/8 14/39/7
f 13/40/8 9/41/9 15/43/10
f 12/35/12 16/45/11 15/43/10
f 12/49/12 17/48/13 16/47/11
f 11/36/15 18/52/14 17/51/13
f 18/56/14 11/55/15 19/54/16
f 10/37/18 20/59/17 19/58/16
f 20/59/17 10/37/18 14/39/7
f 20/64/17 14/63/7 22/62/19
f 23/67/4 19/66/4 20/64/4
f 25/71/22 23/70/21 21/69/20
f 24/75/6 26/74/6 27/73/6
f 24/75/24 22/78/19 28/77/23
f 24/75/24 21/69/20 22/78/19
f 22/83/5 14/82/5 13/81/5
f 13/87/8 15/86/10 29/85/25
f 29/85/2 15/86/2 16/89/2
f 26/74/27 29/92/25 30/91/26
f 26/74/27 28/77/23 29/92/25
f 31/97/29 27/96/28 30/95/26
f 27/73/28 31/100/29 32/99/30
f 31/97/3 17/48/3 18/56/3
f 31/97/29 30/95/26 16/47/11
f 18/56/14 19/54/16 23/103/21
f 25/106/22 32/105/30 23/103/21
f 9/41/1 10/37/1 12/35/1
f 10/37/18 9/41/9 14/39/7
f 9/41/9 12/35/12 15/43/10
f 12/35/12 11/36/15 17/51/13
f 11/36/15 10/37/18 19/58/16
f 21/113/20 20/64/17 22/62/19
f 21/113/4 23/67/4 20/64/4
f 24/75/24 25/71/22 21/69/20
f 25/71/6 24/75/6 27/73/6
f 26/74/27 24/75/24 28/77/23
f 28/118/5 22/83/5 13/81/5
f 28/120/23 13/87/8 29/85/25
f 30/122/2 29/85/2 16/89/2
f 27/73/28 26/74/27 30/91/26
f 25/71/22 27/73/28 32/99/30
f 32/105/3 31/97/3 18/56/3
f 17/48/13 31/97/29 16/47/11
f 32/105/30 18/56/14 23/103/21

