# WaveFront *.obj file (generated by CINEMA 4D)

mtllib ./Door_3.mtl

v 623.5 -12.4576997756958 28.64247894287109
v 623.5 104.95800018310547 28.64247894287109
v 623.5 -12.4576997756958 -29.36652374267578
v 623.5 104.95800018310547 -29.36652374267578
v 623.1005859375 104.95800018310547 28.64247894287109
v 623.1005859375 -12.4576997756958 28.64247894287109
v 623.1005859375 -12.4576997756958 -29.36652374267578
v 623.1005859375 104.95800018310547 -29.36652374267578
# 8 vertices

vn 0 0 1
vn 1 0 0
vn 0 -1 0
vn -1 0 0
vn 0 1 0
vn 0 0 -1
# 6 normals

vt 56.87149810791016 14.08489990234375 0
vt 56.61240005493164 14.08779907226562 0
vt 56.61240005493164 14.08869934082031 0
vt 56.61209869384766 14.06009864807129 0
vt 56.61339950561523 14.17799949645996 0
vt 56.87250137329102 14.17510032653809 0
vt 56.85509872436523 14.1752986907959 0
vt 56.85380172729492 14.05739974975586 0
vt 56.85290145874023 14.05739974975586 0
vt 56.59989929199219 12.97029876708984 0
vt 56.60129928588867 13.08819961547852 0
vt 56.86040115356445 13.08530044555664 0
vt 56.62939834594727 14.05990028381348 0
vt 56.63079833984375 14.17779922485352 0
vt 56.63169860839844 14.17779922485352 0
vt 56.61410140991211 14.24279975891113 0
vt 56.87319946289062 14.23999977111816 0
vt 56.87319946289062 14.23900032043457 0
vt 56.87149810791016 14.08589935302734 0
vt 56.87120056152344 14.05719947814941 0
vt 56.85419845581055 14.1752986907959 0
vt 56.85910034179688 12.96739959716797 0
vt 56.63040161132812 14.05990028381348 0
vt 56.61410140991211 14.24189949035645 0
# 24 texture coordinates

o Mesh55_Group59_Group58_Group56_Group52_Model
usemtl _Metal_Corrugated_Shiny_4
f 2/3/1 5/2/1 6/1/1
f 3/6/2 4/5/2 2/4/2
f 1/9/3 6/8/3 7/7/3
f 6/12/4 5/11/4 8/10/4
f 4/15/5 8/14/5 5/13/5
f 3/18/6 7/17/6 8/16/6
f 1/19/1 2/3/1 6/1/1
f 1/20/2 3/6/2 2/4/2
f 3/21/3 1/9/3 7/7/3
f 7/22/4 6/12/4 8/10/4
f 2/23/5 4/15/5 5/13/5
f 4/24/6 3/18/6 8/16/6

