# WaveFront *.obj file (generated by CINEMA 4D)

mtllib ./Door_1.mtl

v 57.1005859375 -12.25 -102.26950836181641
v 57.1005859375 104.75 -102.26950836181641
v 5.5 104.75 -102.26950836181641
v 5.5 -12.25 -102.26950836181641
v 57.1005859375 -12.25 -102.76950836181641
v 57.1005859375 104.75 -102.76950836181641
v 5.5 -12.25 -237.719482421875
v 6 -12.25 -237.719482421875
v 6 -12.25 -102.76950836181641
v 5.5 104.75 -237.719482421875
v 6 104.75 -102.76950836181641
v 6 104.75 -237.719482421875
# 12 vertices

vn 0 0 1
vn 1 0 0
vn -1 0 0
vn 0 0 -1
vn 0 -1 0
vn 0 1 0
# 6 normals

vt 5.49433994293213 0 0
vt 5.49433994293213 117 0
vt 57.10350036621094 117 0
vt -11.56620025634766 117 0
vt -11.56620025634766 0 0
vt -12.06620025634766 0 0
vt -123.38400268554688 0 0
vt -123.38400268554688 117 0
vt 12.06620025634766 117 0
vt -57.10350036621094 117 0
vt -5.99433994293213 117 0
vt -5.99433994293213 0 0
vt 123.38400268554688 117 0
vt 123.38400268554688 0 0
vt -5.49433994293213 0 0
vt -57.10350036621094 -12.06620025634766 0
vt -57.10350036621094 -11.56620025634766 0
vt -5.99433994293213 -11.56620025634766 0
vt -5.99433994293213 123.38400268554688 0
vt -5.49433994293213 123.38400268554688 0
vt 5.49433994293213 123.38400268554688 0
vt 5.99433994293213 123.38400268554688 0
vt 5.99433994293213 -11.56620025634766 0
vt 57.10350036621094 -11.56620025634766 0
vt 57.10350036621094 -12.06620025634766 0
vt 57.10350036621094 0 0
vt -12.06620025634766 117 0
vt 12.06620025634766 0 0
vt -57.10350036621094 0 0
vt -5.49433994293213 117 0
vt -5.49433994293213 -12.06620025634766 0
vt 5.49433994293213 -12.06620025634766 0
# 32 texture coordinates

o Mesh4_Group4_Model
usemtl _3
f 2/3/1 3/2/1 4/1/1
f 1/6/2 5/5/2 6/4/2
f 3/9/3 10/8/3 7/7/3
f 9/12/4 11/11/4 6/10/4
f 9/5/2 8/14/2 12/13/2
f 12/11/4 8/12/4 7/15/4
f 9/18/5 5/17/5 1/16/5
f 7/20/5 8/19/5 9/18/5
f 11/23/6 12/22/6 10/21/6
f 2/25/6 6/24/6 11/23/6
f 1/26/1 2/3/1 4/1/1
f 2/27/2 1/6/2 6/4/2
f 4/28/3 3/9/3 7/7/3
f 5/29/4 9/12/4 6/10/4
f 11/4/2 9/5/2 12/13/2
f 10/30/4 12/11/4 7/15/4
f 4/31/5 9/18/5 1/16/5
f 4/31/5 7/20/5 9/18/5
f 3/32/6 11/23/6 10/21/6
f 3/32/6 2/25/6 11/23/6

