# WaveFront *.obj file (generated by CINEMA 4D)

mtllib ./Door_2.mtl

v 0.2001953125 -12.25 -180.33151245117188
v 10.6005859375 -12.25 -180.33151245117188
v 10.6005859375 -12.25 -177.66751098632812
v 0.2001953125 -12.25 -177.66751098632812
v 0.2001953125 104.75 -180.33151245117188
v 10.6005859375 104.75 -180.33151245117188
v 0.2001953125 104.75 -177.66751098632812
v 10.6005859375 104.75 -177.66751098632812
# 8 vertices

vn 0 -1 0
vn 0 0 -1
vn -1 0 0
vn 0 0 1
vn 1 0 0
vn 0 1 0
# 6 normals

vt 0.73975843191147 0.99527668952942 0
vt 0.98675084114075 0.99527668952942 0
vt 0.98675084114075 0.97272253036499 0
vt 0.87037986516953 1.06731271743774 0
vt 0.01324912905693 0.99527668952942 0
vt 0.26024153828621 0.99527668952942 0
vt 0.26024153828621 0.00472331047058 0
vt 0.17791074514389 0.65662598609924 0
vt 0.56023049354553 0.99527668952942 0
vt 0.62349623441696 0.99527668952942 0
vt 0.62349623441696 0.00472331047058 0
vt 0.69970947504044 0.65662598609924 0
vt 0.28673982620239 0.99527668952942 0
vt 0.53373223543167 0.99527668952942 0
vt 0.53373223543167 0.00472331047058 0
vt 0.6983038187027 0.65662598609924 0
vt 0.64999449253082 0.99527668952942 0
vt 0.71326017379761 0.99527668952942 0
vt 0.71326017379761 0.00472331047058 0
vt 0.65813142061234 0.65662598609924 0
vt 0.98675084114075 0.94072180986404 0
vt 0.73975843191147 0.94072180986404 0
vt 0.73975843191147 0.96327596902847 0
vt 0.85612946748734 0.93977355957031 0
vt 0.73975843191147 0.97272253036499 0
vt 0.87037986516953 0.97929239273071 0
vt 0.01324912905693 0.00472331047058 0
vt -0.0689916536212 0.65662598609924 0
vt 0.56023049354553 0.00472331047058 0
vt 0.6364478468895 0.65662598609924 0
vt 0.28673982620239 0.00472331047058 0
vt 0.45140144228935 0.65662598609924 0
vt 0.64999449253082 0.00472331047058 0
vt 0.59486973285675 0.65662598609924 0
vt 0.98675084114075 0.96327596902847 0
vt 0.85612946748734 1.02779400348663 0
# 36 texture coordinates

o Mesh6_Group7_Model
usemtl Mesh6_Group7_Model
f 2/3/1 3/2/1 4/1/1
f 1/7/2 5/6/2 6/5/2
f 4/11/3 7/10/3 5/9/3
f 3/15/4 8/14/4 7/13/4
f 2/19/5 6/18/5 8/17/5
f 5/23/6 7/22/6 8/21/6
f 1/25/1 2/3/1 4/1/1
f 2/27/2 1/7/2 6/5/2
f 1/29/3 4/11/3 5/9/3
f 4/31/4 3/15/4 7/13/4
f 3/33/5 2/19/5 8/17/5
f 6/35/6 5/23/6 8/21/6

