# WaveFront *.obj file (generated by CINEMA 4D)

mtllib ./Door_5.mtl

v 620.7001953125 102.82099914550781 86.04149627685547
v 620.7001953125 -10.12399005889893 86.04149627685547
v 620.7001953125 -10.12399005889893 31.83049774169922
v 620.7001953125 102.82099914550781 31.83049774169922
# 4 vertices

vn 1 0 0
# 1 normal

vt 83.12979888916016 23.65010070800781 0
vt 83.29979705810547 23.62350082397461 0
vt 83.28610229492188 23.53529739379883 0
vt 83.11609649658203 23.56189727783203 0
# 4 texture coordinates

o Mesh52_Group54_Group53_Group52_Model
usemtl _Metal_Corrugated_Shiny_2
f 2/3/1 3/2/1 4/1/1
f 1/4/1 2/3/1 4/1/1

