# WaveFront *.obj file (generated by CINEMA 4D)

mtllib ./Door_4.mtl

v 624.1005859375 106.25 -64.54651641845703
v 624.1005859375 106.25 -30.76950836181641
v 619.30078125 106.25 -30.76950836181641
v 619.30078125 106.25 -64.54651641845703
v 619.30078125 -9.75 -30.76950836181641
v 624.1005859375 -9.75 -30.76950836181641
v 619.30078125 -9.75 -64.54651641845703
v 624.1005859375 -9.75 -64.54651641845703
v 624.1005859375 -13.75000095367432 -64.54651641845703
v 624.1005859375 -13.75000095367432 -30.76950836181641
v 619.30078125 -13.75000095367432 -64.54651641845703
v 619.30078125 -13.75000095367432 -30.76950836181641
# 12 vertices

vn 0 1 0
vn 0 0 1
vn 0 0 -1
vn 1 0 0
vn 0 -1 0
vn -1 0 0
# 6 normals

vt 0.87260454893112 0.69880151748657 0
vt 0.92128449678421 0.69880151748657 0
vt 0.92128449678421 0.42188251018524 0
vt 0.95384532213211 0.40549063682556 0
vt 0.78387719392776 0.99190682172775 0
vt 0.78387719392776 0.04088699817657 0
vt 0.73519724607468 0.04088699817657 0
vt 0.75142389535904 -0.92926263809204 0
vt 0.85258084535599 0.99190682172775 0
vt 0.85258084535599 0.04088699817657 0
vt 0.8039008975029 0.04088699817657 0
vt 0.771340072155 -0.92926263809204 0
vt 0.35258087515831 0.99190682172775 0
vt 0.35258087515831 0.04088699817657 0
vt 0.01001183036715 0.04088699817657 0
vt -0.11431379616261 -0.92926263809204 0
vt 0.92128449678421 0.71498781442642 0
vt 0.87260454893112 0.71498781442642 0
vt 0.87260454893112 0.99190682172775 0
vt 0.88883119821548 0.6062895655632 0
vt 0.87260454893112 0.42188251018524 0
vt 0.90505784749985 0.40549063682556 0
vt 0.73519724607468 0.99190682172775 0
vt 0.75142389535904 0.02175724506378 0
vt 0.8039008975029 0.99190682172775 0
vt 0.771340072155 0.02175724506378 0
vt 0.01001183036715 0.99190682172775 0
vt -0.11431379616261 0.02175724506378 0
vt 0.92128449678421 0.99190682172775 0
vt 0.84004372358322 0.6062895655632 0
vt 0.71517354249954 0.99190682172775 0
vt 0.71517354249954 0.04088699817657 0
vt 0.3726045191288 0.04088699817657 0
vt 0.60676330327988 -1.72646331787109 0
vt 0.3726045191288 0.99190682172775 0
vt 0.59293758869171 -1.72646331787109 0
vt 0.01001183036715 0.00809323787689 0
vt 0.22825516760349 -0.92926263809204 0
vt 0.8039008975029 0.00809323787689 0
vt 0.82012754678726 -0.92926263809204 0
vt 0.3726045191288 0.00809323787689 0
vt 0.83949917554855 -0.60132479667664 0
vt 0.73519724607468 0.00809323787689 0
vt 0.80021131038666 -0.92926263809204 0
vt 0.98998814821243 0.71498781442642 0
vt 0.94130820035934 0.71498781442642 0
vt 0.94130820035934 0.99190682172775 0
vt 0.95753484964371 0.6062895655632 0
vt 0.35258087515831 0.00809323787689 0
vt 0.22825516760349 -0.96205639839172 0
vt 0.85258084535599 0.00809323787689 0
vt 0.82012754678726 -0.96205639839172 0
vt 0.71517354249954 0.00809323787689 0
vt 0.83949917554855 -0.63411855697632 0
vt 0.78387719392776 0.00809323787689 0
vt 0.80021131038666 -0.96205639839172 0
vt 0.98998814821243 0.99190682172775 0
vt 0.90874737501144 0.6062895655632 0
# 58 texture coordinates

o Mesh39_Group31_Model
usemtl Mesh39_Group31_Model
f 2/3/1 1/2/1 4/1/1
f 5/7/2 6/6/2 2/5/2
f 8/11/3 7/10/3 4/9/3
f 6/15/4 8/14/4 1/13/4
f 5/19/5 7/18/5 8/17/5
f 3/21/1 2/3/1 4/1/1
f 3/23/2 5/7/2 2/5/2
f 1/25/3 8/11/3 4/9/3
f 2/27/4 6/15/4 1/13/4
f 6/29/5 5/19/5 8/17/5
f 7/33/6 5/32/6 3/31/6
f 4/35/6 7/33/6 3/31/6
f 8/14/4 6/15/4 10/37/4
f 7/10/3 8/11/3 9/39/3
f 5/32/6 7/33/6 11/41/6
f 6/6/2 5/7/2 12/43/2
f 12/47/5 11/46/5 9/45/5
f 9/49/4 8/14/4 10/37/4
f 11/51/3 7/10/3 9/39/3
f 12/53/6 5/32/6 11/41/6
f 10/55/2 6/6/2 12/43/2
f 10/57/5 12/47/5 9/45/5

v 621.80078125 -10.33938026428223 31.83049774169922
v 620.1005859375 -10.33938026428223 31.83049774169922
v 620.1005859375 -10.12399005889893 86.04149627685547
v 621.80078125 -10.12399005889893 86.04149627685547
v 621.80078125 102.60600280761719 31.83049774169922
v 620.1005859375 102.60600280761719 31.83049774169922
v 621.80078125 102.82099914550781 86.04149627685547
v 620.1005859375 102.82099914550781 86.04149627685547
v 620.1005859375 -13.57012844085693 89.23049163818359
v 620.1005859375 -13.7855110168457 28.64247894287109
v 620.1005859375 106.052001953125 28.64247894287109
v 620.1005859375 106.26699829101562 89.23049163818359
v 621.80078125 -13.57012939453125 89.23049163818359
v 621.80078125 106.26699829101562 89.23049163818359
v 621.80078125 -13.78551197052002 28.64247894287109
v 621.80078125 106.052001953125 28.64247894287109
v 624.1005859375 106.25 89.23049163818359
v 624.1005859375 -12.4576997756958 -29.36652374267578
v 624.1005859375 104.95800018310547 -29.36652374267578
v 621.80078125 104.95800018310547 -29.36652374267578
v 621.80078125 -12.4576997756958 -29.36652374267578
v 624.1005859375 -13.75000095367432 -30.76950836181641
v 624.1005859375 -12.4576997756958 28.64247894287109
v 624.1005859375 -13.75 29.83647918701172
v 624.1005859375 104.95800018310547 28.64247894287109
v 624.1005859375 104.95800018310547 29.83647918701172
v 624.1005859375 104.95800018310547 87.82648468017578
v 621.80078125 106.25 -30.76950836181641
v 621.80078125 106.25 89.23049163818359
v 621.80078125 -13.75 29.83647918701172
v 621.80078125 -12.4576997756958 29.83647918701172
v 621.80078125 -12.4576997756958 28.64247894287109
v 621.80078125 104.95800018310547 28.64247894287109
v 621.80078125 104.95800018310547 29.83647918701172
v 621.80078125 104.95800018310547 87.82648468017578
v 621.80078125 -13.75000095367432 87.82648468017578
v 621.80078125 -13.75000190734863 89.23049163818359
v 621.80078125 -13.75000095367432 -30.76950836181641
v 624.1005859375 -13.75000095367432 87.82648468017578
v 624.1005859375 -13.75000095367432 89.23049163818359
# 40 vertices

vn 0 0.9999942779541 -0.00337508600205
vn 0 -0.9999942779541 0.00337508600205
vn 0 -0.99999541044235 0.00303133064881
vn 0 0.99999541044235 -0.00303133064881
# 4 normals

vt 0.87738275527954 0.04267370700836 0
vt 0.88424718379974 0.04267370700836 0
vt 0.88424718379974 0.04180777072906 0
vt -0.62274450063705 0.3778430223465 0
vt 0.85991352796555 0.04180777072906 0
vt 0.85304909944534 0.04180777072906 0
vt 0.85304909944534 0.49584376811981 0
vt 0.48668631911278 0.60168963670731 0
vt 0.85991352796555 0.49584376811981 0
vt 0.85304909944534 0.49670803546906 0
vt -0.65981525182724 0.25981330871582 0
vt 0.87738275527954 0.49670803546906 0
vt 0.88424718379974 0.49670803546906 0
vt 0.51566600799561 0.74618548154831 0
vt 0.74244087934494 0.47745048999786 0
vt 0.75531619787216 0.00956273078918 0
vt 0.74244087934494 0.02341604232788 0
vt 0.3483262360096 0.55136114358902 0
vt 0.51069605350494 0.00869679450989 0
vt 0.34854990243912 0.55124253034592 0
vt 0.52356749773026 0.02255010604858 0
vt 0.34529572725296 0.55024439096451 0
vt 0.51069605350494 0.49043893814087 0
vt 0.52356749773026 0.47658610343933 0
vt 0.34370458126068 0.55606085062027 0
vt 0.34661597013474 0.55695486068726 0
vt 0.75531619787216 0.49130320549011 0
vt 0.34673509001732 0.55717760324478 0
vt 0.91342264413834 0.50190305709839 0
vt 0.91342264413834 0.02016258239746 0
vt 0.90655821561813 0.02016258239746 0
vt 0.52935302257538 0.56681323051453 0
vt 0.94017714262009 0.50174707174301 0
vt 0.94017714262009 0.25818562507629 0
vt 0.93331271409988 0.25818562507629 0
vt 0.88132685422897 -0.33935713768005 0
vt 0.96006727218628 0.50869679450989 0
vt 0.96006727218628 0.99043887853622 0
vt 0.96693170070648 0.99043887853622 0
vt 0.58223134279251 1.22291624546051 0
vt 0.99126535654068 0.99130314588547 0
vt 0.99126535654068 0.74774175882339 0
vt 0.98440092802048 0.74774175882339 0
vt 0.23932246863842 2.35517907142639 0
vt 0.75531619787216 0.99043893814087 0
vt 0.52357143163681 0.97745043039322 0
vt 0.51069605350494 0.99130320549011 0
vt 0.21301679313183 1.37842893600464 0
vt 0.51069605350494 0.50956267118454 0
vt 0.21324045956135 1.37831020355225 0
vt 0.52357143163681 0.52341598272324 0
vt 0.21483162045479 1.37249374389648 0
vt 0.75531619787216 0.50869685411453 0
vt 0.21495071053505 1.37271642684937 0
vt 0.7424448132515 0.52255016565323 0
vt 0.21786856651306 1.37358927726746 0
vt 0.7424448132515 0.97658610343933 0
vt 0.21627743542194 1.37940573692322 0
vt 0.87738275527954 0.04180777072906 0
vt -0.62282937765121 0.37781691551208 0
vt 0.48677191138268 0.60171377658844 0
vt 0.85991352796555 0.49670803546906 0
vt -0.65990406274796 0.25978720188141 0
vt 0.51575195789337 0.74621361494064 0
vt 0.90655821561813 0.50190305709839 0
vt 0.52753818035126 0.57274836301804 0
vt 0.90655821561813 0.01929664611816 0
vt 0.86011785268784 -0.57818555831909 0
vt 0.96693170070648 0.50869679450989 0
vt 0.58404576778412 1.21698117256165 0
vt 0.96693170070648 0.99130314588547 0
vt 0.2094424366951 2.35512351989746 0
vt 0.93331271409988 0.51929670572281 0
vt 0.93331271409988 0.99130314588547 0
vt 0.94259804487228 0.99130314588547 0
vt 0.57133084535599 1.23152732849121 0
vt 0.48756235837936 0.48632049560547 0
vt 0.49322682619095 0.00911903381348 0
vt 0.48756235837936 0.01431405544281 0
vt 0.11310102045536 0.55770653486252 0
vt 0.25335478782654 0.01431405544281 0
vt 0.11044476926327 0.55690133571625 0
vt 0.24853408336639 0.00911903381348 0
vt 0.11318459361792 0.55766189098358 0
vt 0.25335478782654 0.48632049560547 0
vt 0.10866668820381 0.56271660327911 0
vt 0.24853408336639 0.48632049560547 0
vt 0.49322682619095 0.49151432514191 0
vt 0.11136772483587 0.563605427742 0
vt 0.01440320443362 0.48632049560547 0
vt 0.00873461738229 0.49151432514191 0
vt 0.10595637559891 0.56189531087875 0
vt 0.83557987213135 0.99130320549011 0
vt 0.83557987213135 0.50890791416168 0
vt 0.82629454135895 0.50890791416168 0
vt 0.4489983022213 1.06143021583557 0
vt 0.7727854847908 0.24788057804108 0
vt 0.7727854847908 0.49151432514191 0
vt 0.78207075595856 0.49151432514191 0
vt 0.35583791136742 0.79708558320999 0
vt 0.79953998327255 0.99130320549011 0
vt 0.80882531404495 0.99130320549011 0
vt 0.80882531404495 0.50890791416168 0
vt 0.38464188575745 1.22110819816589 0
vt 0.79953998327255 0.25832033157349 0
vt 0.79953998327255 0.49151432514191 0
vt 0.80882531404495 0.49151432514191 0
vt 0.43643653392792 0.81501114368439 0
vt 0.91584348678589 0.99130314588547 0
vt 0.91584348678589 0.51929670572281 0
vt 0.90655821561813 0.51929670572281 0
vt 0.5343878865242 1.06381142139435 0
vt 0.82629454135895 0.25832033157349 0
vt 0.82629454135895 0.49151432514191 0
vt 0.83557987213135 0.49151432514191 0
vt 0.46640327572823 0.8045037984848 0
vt 0.25342735648155 0.98610937595367 0
vt 0.25342735648155 0.51410293579102 0
vt 0.24860665202141 0.51410293579102 0
vt -0.16513758897781 1.0633636713028 0
vt 0.95764642953873 0.25818562507629 0
vt 0.95764642953873 0.49130320549011 0
vt 0.96693170070648 0.49130320549011 0
vt 0.57737332582474 0.80516362190247 0
vt 0.86233443021774 0.99130320549011 0
vt 0.86233443021774 0.51410168409348 0
vt 0.85304909944534 0.51410168409348 0
vt 0.47754302620888 1.05926716327667 0
vt 0.01440320443362 0.00911903381348 0
vt 0.10587278008461 0.56193995475769 0
vt 0.00873461738229 0.00911903381348 0
vt 0.10775423794985 0.55601614713669 0
vt 0.7727854847908 0.50890791416168 0
vt 0.7727854847908 0.99130320549011 0
vt 0.78207075595856 0.99130320549011 0
vt 0.39230281114578 1.22252678871155 0
vt 0.78207075595856 0.2304869890213 0
vt 0.78207075595856 0.22484290599823 0
vt 0.7727854847908 0.22484290599823 0
vt 0.39409303665161 0.6150022149086 0
vt 0.00873461738229 0.99130320549011 0
vt 0.49322682619095 0.99130320549011 0
vt 0.24860665202141 0.98610937595367 0
vt -0.16690193116665 1.06918251514435 0
vt 0.01439907681197 0.51410293579102 0
vt 0.00873461738229 0.50890791416168 0
vt -0.16964334249496 1.06842195987701 0
vt 0.25342735648155 0.50890791416168 0
vt -0.16778209805489 1.06256210803986 0
vt -0.16505278646946 1.06331980228424 0
vt 0.48755824565887 0.98610937595367 0
vt 0.49322682619095 0.50890791416168 0
vt -0.16233156621456 1.06414437294006 0
vt -0.16684943437576 1.06919896602631 0
vt 0.88908898830414 0.51410168409348 0
vt 0.87980365753174 0.51410168409348 0
vt 0.87980365753174 0.51929670572281 0
vt 0.50436943769455 0.90296161174774 0
vt 0.87980365753174 0.99130314588547 0
vt 0.88908898830414 0.99130314588547 0
vt 0.50270563364029 0.90881145000458 0
vt 0.94259804487228 0.51929670572281 0
vt 0.57310855388641 1.22571206092834 0
vt 0.82629454135895 0.99130320549011 0
vt 0.45449325442314 1.0630955696106 0
vt 0.78207075595856 0.24788057804108 0
vt 0.35499006509781 0.79984885454178 0
vt 0.79953998327255 0.50890791416168 0
vt 0.38452884554863 1.22107362747192 0
vt 0.80882531404495 0.25832033157349 0
vt 0.43724521994591 0.81236612796783 0
vt 0.90655821561813 0.99130314588547 0
vt 0.53260976076126 1.0696268081665 0
vt 0.83557987213135 0.25832033157349 0
vt 0.46721193194389 0.80185908079147 0
vt -0.16691403090954 1.06917893886566 0
vt 0.96693170070648 0.25818562507629 0
vt 0.58002877235413 0.80596840381622 0
vt 0.85304909944534 0.99130320549011 0
vt 0.47574555873871 1.06514632701874 0
vt 0.78207075595856 0.50890791416168 0
vt 0.39412009716034 1.21658337116241 0
vt 0.7727854847908 0.2304869890213 0
vt 0.39402884244919 0.61498248577118 0
vt 0.01439907681197 0.98610937595367 0
vt -0.16955855488777 1.06837725639343 0
vt -0.16512544453144 1.06336724758148 0
vt 0.48755824565887 0.50890791416168 0
vt -0.16239616274834 1.064124584198 0
vt 0.50450307130814 0.90293180942535 0
# 190 texture coordinates

o Mesh53_Group55_Group53_Group52_Model.1
usemtl Mesh53_Group55_Group53_Group52_Model
f 14/61/7 15/60/7 16/59/7
f 18/65/2 14/64/2 13/63/2
f 20/68/8 18/65/8 17/67/8
f 15/60/3 20/71/3 19/70/3
f 15/75/6 21/74/6 20/73/6
f 21/74/6 15/75/6 22/77/6
f 22/77/6 15/75/6 14/79/6
f 22/77/6 14/79/6 23/81/6
f 18/82/6 23/81/6 14/79/6
f 20/73/6 23/81/6 18/82/6
f 20/73/6 24/85/6 23/81/6
f 24/85/6 20/73/6 21/74/6
f 21/89/2 25/88/2 26/87/2
f 22/93/9 27/92/9 25/91/9
f 23/97/3 28/96/3 27/95/3
f 24/101/10 26/100/10 28/99/10
f 26/105/4 19/104/4 28/103/4
f 19/104/4 26/105/4 25/107/4
f 25/107/4 16/109/4 19/104/4
f 16/109/4 25/107/4 27/111/4
f 16/109/4 27/111/4 13/113/4
f 13/113/4 27/111/4 28/103/4
f 28/103/4 17/115/4 13/113/4
f 28/103/4 19/104/4 17/115/4
f 13/117/7 14/61/7 16/59/7
f 17/67/2 18/65/2 13/63/2
f 19/120/8 20/68/8 17/67/8
f 16/59/3 15/60/3 19/70/3
f 24/123/2 21/89/2 26/87/2
f 21/89/9 22/125/9 25/88/9
f 22/127/3 23/97/3 27/95/3
f 23/97/10 24/129/10 28/96/10
f 31/133/2 32/132/2 33/131/2
f 30/137/4 34/136/4 31/135/4
f 35/139/4 34/136/4 30/137/4
f 34/136/4 35/139/4 36/141/4
f 37/143/4 36/141/4 35/139/4
f 37/143/4 38/145/4 36/141/4
f 2/146/4 38/145/4 37/143/4
f 2/146/4 39/148/4 38/145/4
f 39/148/4 2/146/4 29/149/4
f 41/153/1 29/152/1 2/151/1
f 36/157/5 42/156/5 50/155/5
f 50/161/3 40/160/3 2/159/3
f 2/146/4 31/135/4 34/136/4
f 2/146/4 37/143/4 31/135/4
f 37/165/5 45/164/5 32/163/5
f 35/169/3 44/168/3 45/167/3
f 30/173/1 33/172/1 44/171/1
f 44/177/6 43/176/6 46/175/6
f 39/181/5 47/180/5 46/179/5
f 51/185/3 48/184/3 47/183/3
f 29/149/4 51/187/4 39/148/4
f 51/187/4 29/149/4 52/189/4
f 29/193/2 41/192/2 49/191/2
f 48/197/5 51/196/5 52/195/5
f 45/201/6 41/200/6 40/199/6
f 40/199/6 50/204/6 33/203/6
f 33/203/6 50/204/6 42/206/6
f 45/201/6 46/175/6 41/200/6
f 42/206/6 43/176/6 44/177/6
f 49/210/6 41/200/6 47/209/6
f 46/175/6 47/209/6 41/200/6
f 43/215/2 42/214/2 36/213/2
f 38/218/2 46/217/2 43/215/2
f 30/220/2 31/133/2 33/131/2
f 40/222/1 41/153/1 2/151/1
f 34/224/5 36/157/5 50/155/5
f 34/226/3 50/161/3 2/159/3
f 31/228/5 37/165/5 32/163/5
f 37/230/3 35/169/3 45/167/3
f 35/232/1 30/173/1 44/171/1
f 45/201/6 44/177/6 46/175/6
f 38/235/5 39/181/5 46/179/5
f 39/237/3 51/185/3 47/183/3
f 52/239/2 29/193/2 49/191/2
f 49/241/5 48/197/5 52/195/5
f 32/243/6 45/201/6 40/199/6
f 32/243/6 40/199/6 33/203/6
f 44/177/6 33/203/6 42/206/6
f 48/246/6 49/210/6 47/209/6
f 36/213/2 38/218/2 43/215/2

v 623.5 -12.4576997756958 28.64247894287109
v 623.5 104.95800018310547 28.64247894287109
v 623.5 -12.4576997756958 -29.36652374267578
v 623.5 104.95800018310547 -29.36652374267578
v 623.1005859375 104.95800018310547 28.64247894287109
v 623.1005859375 -12.4576997756958 28.64247894287109
v 623.1005859375 -12.4576997756958 -29.36652374267578
v 623.1005859375 104.95800018310547 -29.36652374267578
# 8 vertices

# 0 normal

vt 56.87149810791016 14.08489990234375 0
vt 56.61240005493164 14.08779907226562 0
vt 56.61240005493164 14.08869934082031 0
vt 56.61209869384766 14.06009864807129 0
vt 56.61339950561523 14.17799949645996 0
vt 56.87250137329102 14.17510032653809 0
vt 56.85509872436523 14.1752986907959 0
vt 56.85380172729492 14.05739974975586 0
vt 56.85290145874023 14.05739974975586 0
vt 56.59989929199219 12.97029876708984 0
vt 56.60129928588867 13.08819961547852 0
vt 56.86040115356445 13.08530044555664 0
vt 56.62939834594727 14.05990028381348 0
vt 56.63079833984375 14.17779922485352 0
vt 56.63169860839844 14.17779922485352 0
vt 56.61410140991211 14.24279975891113 0
vt 56.87319946289062 14.23999977111816 0
vt 56.87319946289062 14.23900032043457 0
vt 56.87149810791016 14.08589935302734 0
vt 56.87120056152344 14.05719947814941 0
vt 56.85419845581055 14.1752986907959 0
vt 56.85910034179688 12.96739959716797 0
vt 56.63040161132812 14.05990028381348 0
vt 56.61410140991211 14.24189949035645 0
# 24 texture coordinates

o Mesh55_Group59_Group58_Group56_Group52_Model
usemtl _Metal_Corrugated_Shiny_4
f 54/251/2 57/250/2 58/249/2
f 55/254/4 56/253/4 54/252/4
f 53/257/5 58/256/5 59/255/5
f 58/260/6 57/259/6 60/258/6
f 56/263/1 60/262/1 57/261/1
f 55/266/3 59/265/3 60/264/3
f 53/267/2 54/251/2 58/249/2
f 53/268/4 55/254/4 54/252/4
f 55/269/5 53/257/5 59/255/5
f 59/270/6 58/260/6 60/258/6
f 54/271/1 56/263/1 57/261/1
f 56/272/3 55/266/3 60/264/3

