# WaveFront *.obj file (generated by CINEMA 4D)

mtllib ./Floor.mtl

v 270.6005859375 -13.75 7.15749359130859
v 233.1005859375 -13.75 -31.02051544189453
v 232.6005859375 -13.75 -30.87052154541016
v 270.900390625 -13.75 6.80348968505859
v 270.80078125 -13.75 7.41847991943359
v 195 -13.75000095367432 108.82349395751953
v 388.7001953125 -13.75 108.82349395751953
v 406.80078125 -13.75 41.13649749755859
v 413.1005859375 -13.75 17.51250457763672
v 308.900390625 -13.75 45.44748687744141
v 127.7001953125 -13.75 -2.77051544189453
v 109.30078125 -13.75000095367432 65.67949676513672
v 152.6005859375 -13.75000095367432 108.82349395751953
v 246.5 -13.75 -82.81851959228516
v 246.6005859375 -13.75 -83.17551422119141
v 260.5 -13.75 -135.12350463867188
v 287.7001953125 -13.75 -236.78851318359375
v 190.400390625 -13.75 -236.78851318359375
v 183.7001953125 -13.75 -211.89651489257812
v 155.7001953125 -13.75 -107.51251983642578
v 155.6005859375 -13.75 -107.15451812744141
v 247 -13.75 -82.68952178955078
v 271.2001953125 -13.75 7.06548309326172
v 309 -13.75 44.88948822021484
v 412.7001953125 -13.75 17.10448455810547
v 426.6005859375 -13.75 -34.56452178955078
v 426.7001953125 -13.75 -34.92151641845703
v 440.5 -13.75 -86.59052276611328
v 402.7001953125 -13.75 -124.41449737548828
v 402.400390625 -13.75 -124.67652130126953
v 364.6005859375 -13.75 -162.50048828125
v 312.900390625 -13.75 -148.65548706054688
v 312.6005859375 -13.75 -148.56048583984375
v 260.900390625 -13.75 -134.71551513671875
v 247 -13.75 -83.04651641845703
v 427 -13.75 -34.43451690673828
v 486 -13.75 108.82349395751953
v 486.30078125 -13.75 107.66048431396484
v 517.900390625 -13.75 -10.09851837158203
v 564 -13.75000190734863 -182.43951416015625
v 520.30078125 -13.75000381469727 -226.18548583984375
v 479 -13.75000190734863 -226.18548583984375
v 441.1005859375 -13.75 -86.73950958251953
v 427.1005859375 -13.75 -34.79251861572266
v 486.5 -13.75 108.82349395751953
v 518.30078125 -13.75 -9.96952056884766
v 564.5 -13.75000190734863 -182.031494140625
v 618.80078125 -13.75 108.82349395751953
v 618.80078125 -13.75000190734863 -50.11350250244141
v 589.5 -13.75000286102295 -50.11350250244141
v 589.5 -13.75000286102295 -157.03350830078125
v 618.80078125 -13.75000190734863 -236.78851318359375
v 413.400390625 -13.75000190734863 -236.78851318359375
v 413.400390625 -13.75000190734863 -226.18548583984375
v 312.400390625 -13.75 -149.04251098632812
v 312.80078125 -13.75 -149.13848876953125
v 364.7001953125 -13.75 -163.05850219726562
v 402.80078125 -13.75 -125.02951812744141
v 403 -13.75 -124.76850128173828
# 59 vertices

vn 0 1 0
# 1 normal

vt 0.24620762467384 0.49355781078339 0
vt 0.24717298150063 0.49391937255859 0
vt 0.31957465410233 0.40190947055817 0
vt 0.27098509669304 0.46312892436981 0
vt 0.32015350461006 0.40276265144348 0
vt 0.31996119022369 0.40128040313721 0
vt 0.27304339408875 0.61875373125076 0
vt 0.27400875091553 0.61844283342361 0
vt 0.39371284842491 0.31097447872162 0
vt 0.39352053403854 0.3096296787262 0
vt 0.32073232531548 0.40213119983673 0
vt 0.59470099210739 0.37695360183716 0
vt 0.5939279794693 0.37793695926666 0
vt 0.62076562643051 0.50246047973633 0
vt 0.62153679132462 0.50214713811874 0
vt 0.4002780020237 0.77835512161255 0
vt 0.30084636807442 0.74382674694061 0
vt 0.30007335543633 0.74480998516083 0
vt 0.27400875091553 0.61930322647095 0
vt 0.09724024683237 0.1356817483902 0
vt 0.09724024683237 0.13654208183289 0
vt 0.12330484390259 0.01017498970032 0
vt 0.10592844337225 0.09413290023804 0
vt 0.27323758602142 0.6196141242981 0
vt 0.40066453814507 0.77719342708588 0
vt 0.40105104446411 0.77858644723892 0
vt 0.40124335885048 0.7774224281311 0
vt 0.5012538433075 0.81213402748108 0
vt 0.5010614991188 0.81078916788101 0
vt 0.57404202222824 0.71963250637054 0
vt 0.57481503486633 0.72048324346542 0
vt 0.57462084293365 0.71900105476379 0
vt 0.64760136604309 0.62784433364868 0
vt 0.00853594671935 0.04453229904175 0
vt 0.08093761652708 0.13654208183289 0
vt 0.00815131329 0.04390323162079 0
vt 0.0325416252017 0.07499253749847 0
vt 0.64876091480255 0.62820345163345 0
vt 0.57519972324371 0.71985417604446 0
vt 0.62173098325729 0.50300997495651 0
vt 0.62095791101456 0.50332081317902 0
vt 0.17361176013947 0.15689194202423 0
vt 0.58253788948059 0.32001924514771 0
vt 0.5475909113884 0.15689194202423 0
vt 0.09773518145084 0.67826688289642 0
vt 0.151795104146 0.92983478307724 0
vt 0.16473123431206 0.98982506990433 0
vt 0.35258907079697 0.98982506990433 0
vt 0.04367526993155 0.42583620548248 0
vt 0.09175073355436 0.15689194202423 0
vt 0.00815131329 0.2608699798584 0
vt 0.09754286706448 0.67740404605865 0
vt 0.73602944612503 0.15969491004944 0
vt 0.73544871807098 0.15689194202423 0
vt 0.79703915119171 0.44349682331085 0
vt 0.72193372249603 0.96427154541016 0
vt 0.88604420423508 0.85884273052216 0
vt 0.80167365074158 0.96427154541016 0
vt 0.59527987241745 0.98982506990433 0
vt 0.59527987241745 0.96427154541016 0
vt 0.88700956106186 0.85785937309265 0
vt 0.9918487071991 0.98982506990433 0
vt 0.9918487071991 0.53993386030197 0
vt 0.93527734279633 0.53993386030197 0
vt 0.93527734279633 0.79761362075806 0
vt 0.9918487071991 0.15689194202423 0
vt 0.73641407489777 0.15689194202423 0
vt 0.79781222343445 0.4431859254837 0
# 68 texture coordinates

o Mesh18_Group21_Model
usemtl Mesh18_Group21_Model
f 1/3/1 2/2/1 3/1/1
f 2/2/1 1/3/1 4/5/1
f 4/5/1 1/3/1 5/6/1
f 2/2/1 14/7/1 3/1/1
f 14/7/1 2/2/1 22/8/1
f 23/11/1 10/10/1 24/9/1
f 4/5/1 10/10/1 23/11/1
f 4/5/1 5/6/1 10/10/1
f 24/9/1 10/10/1 9/12/1
f 24/9/1 9/12/1 25/13/1
f 25/13/1 9/12/1 26/14/1
f 26/14/1 9/12/1 36/15/1
f 16/18/1 34/17/1 55/16/1
f 16/18/1 35/19/1 34/17/1
f 16/22/1 22/21/1 35/20/1
f 15/24/1 22/8/1 16/18/1
f 14/7/1 22/8/1 15/24/1
f 55/16/1 34/17/1 33/25/1
f 55/16/1 33/25/1 56/26/1
f 56/26/1 33/25/1 32/27/1
f 56/26/1 32/27/1 57/28/1
f 57/28/1 32/27/1 31/29/1
f 57/28/1 31/29/1 30/30/1
f 57/28/1 30/30/1 58/31/1
f 58/31/1 30/30/1 29/32/1
f 58/31/1 29/32/1 28/33/1
f 58/36/1 28/35/1 59/34/1
f 59/39/1 28/33/1 43/38/1
f 28/33/1 44/40/1 43/38/1
f 28/33/1 36/15/1 44/40/1
f 27/41/1 36/15/1 28/33/1
f 26/14/1 36/15/1 27/41/1
f 6/42/1 5/6/1 1/3/1
f 7/44/1 8/43/1 10/10/1
f 3/1/1 6/42/1 1/3/1
f 6/42/1 10/10/1 5/6/1
f 8/43/1 9/12/1 10/10/1
f 15/24/1 16/18/1 20/45/1
f 17/48/1 18/47/1 19/46/1
f 6/42/1 3/1/1 11/49/1
f 19/46/1 20/45/1 16/18/1
f 11/49/1 12/51/1 13/50/1
f 20/45/1 21/52/1 14/7/1
f 3/1/1 14/7/1 21/52/1
f 7/44/1 37/54/1 38/53/1
f 39/55/1 36/15/1 9/12/1
f 38/53/1 39/55/1 9/12/1
f 39/55/1 44/40/1 36/15/1
f 39/55/1 43/38/1 44/40/1
f 40/57/1 42/56/1 43/38/1
f 40/57/1 41/58/1 42/56/1
f 53/59/1 42/56/1 41/58/1
f 53/59/1 54/60/1 42/56/1
f 52/62/1 40/57/1 47/61/1
f 52/62/1 41/58/1 40/57/1
f 51/65/1 50/64/1 49/63/1
f 52/62/1 47/61/1 51/65/1
f 17/48/1 16/18/1 55/16/1
f 42/56/1 58/31/1 59/39/1
f 43/38/1 42/56/1 59/39/1
f 54/60/1 57/28/1 58/31/1
f 17/48/1 57/28/1 54/60/1
f 17/48/1 56/26/1 57/28/1
f 17/48/1 55/16/1 56/26/1
f 6/42/1 7/44/1 10/10/1
f 13/50/1 6/42/1 11/49/1
f 17/48/1 19/46/1 16/18/1
f 15/24/1 20/45/1 14/7/1
f 11/49/1 3/1/1 21/52/1
f 8/43/1 7/44/1 38/53/1
f 8/43/1 38/53/1 9/12/1
f 39/55/1 40/57/1 43/38/1
f 52/62/1 53/59/1 41/58/1
f 52/62/1 51/65/1 49/63/1
f 42/56/1 54/60/1 58/31/1
f 53/59/1 17/48/1 54/60/1
f 27/41/1 28/33/1 29/32/1
f 25/13/1 26/14/1 23/11/1
f 30/30/1 31/29/1 32/27/1
f 27/41/1 29/32/1 30/30/1
f 30/30/1 22/8/1 23/11/1
f 33/25/1 34/17/1 35/19/1
f 30/30/1 32/27/1 33/25/1
f 33/25/1 35/19/1 22/8/1
f 30/30/1 33/25/1 22/8/1
f 22/8/1 2/2/1 4/5/1
f 23/11/1 22/8/1 4/5/1
f 48/66/1 49/63/1 50/64/1
f 46/68/1 45/67/1 48/66/1
f 51/65/1 47/61/1 46/68/1
f 24/9/1 25/13/1 23/11/1
f 26/14/1 27/41/1 30/30/1
f 26/14/1 30/30/1 23/11/1
f 46/68/1 48/66/1 50/64/1
f 50/64/1 51/65/1 46/68/1
f 38/53/1 37/54/1 45/67/1
f 47/61/1 40/57/1 39/55/1
f 46/68/1 39/55/1 38/53/1
f 46/68/1 47/61/1 39/55/1
f 45/67/1 46/68/1 38/53/1

