# WaveFront *.obj file (generated by CINEMA 4D)

mtllib ./pole.mtl

v 10.6005859375 104.75 -241.44451904296875
v 0.2001953125 -12.25 -241.44451904296875
v 10.6005859375 -12.25 -241.44451904296875
v 10.6005859375 -12.25 -237.719482421875
v 0.2001953125 -12.25 -237.719482421875
v 0.2001953125 104.75 -241.44451904296875
v 0.2001953125 104.75 -237.719482421875
v 10.6005859375 104.75 -237.719482421875
# 8 vertices

vn 0 -1 0
vn 0 0 -1
vn -1 0 0
vn 0 0 1
vn 1 0 0
vn 0 1 0
# 6 normals

vt 0.75303262472153 0.9950777888298 0
vt 0.98692029714584 0.9950777888298 0
vt 0.98692029714584 0.96355330944061 0
vt 0.90058636665344 1.06409180164337 0
vt 0.01307970657945 0.9950777888298 0
vt 0.24696739017963 0.9950777888298 0
vt 0.24696739017963 0.00492227077484 0
vt 0.16900482773781 0.65656310319901 0
vt 0.53317391872406 0.9950777888298 0
vt 0.61694383621216 0.9950777888298 0
vt 0.61694383621216 0.00492227077484 0
vt 0.6811597943306 0.65656310319901 0
vt 0.27312681078911 0.9950777888298 0
vt 0.5070144534111 0.9950777888298 0
vt 0.5070144534111 0.00492227077484 0
vt 0.66285437345505 0.65656310319901 0
vt 0.64310324192047 0.9950777888298 0
vt 0.72687321901321 0.9950777888298 0
vt 0.72687321901321 0.00492227077484 0
vt 0.690578520298 0.65656310319901 0
vt 0.98692029714584 0.92218446731567 0
vt 0.75303262472153 0.92218446731567 0
vt 0.75303262472153 0.95370894670486 0
vt 0.83936655521393 0.9242297410965 0
vt 0.75303262472153 0.96355330944061 0
vt 0.90058636665344 0.97610676288605 0
vt 0.01307970657945 0.00492227077484 0
vt -0.0647976025939 0.65656310319901 0
vt 0.53317391872406 0.00492227077484 0
vt 0.59739190340042 0.65656310319901 0
vt 0.27312681078911 0.00492227077484 0
vt 0.42905190587044 0.65656310319901 0
vt 0.64310324192047 0.00492227077484 0
vt 0.60681056976318 0.65656310319901 0
vt 0.98692029714584 0.95370894670486 0
vt 0.83936655521393 1.01221477985382 0
# 36 texture coordinates

o Mesh9_Group10_Model
usemtl Mesh9_Group10_Model
f 3/3/1 4/2/1 5/1/1
f 2/7/2 6/6/2 1/5/2
f 5/11/3 7/10/3 6/9/3
f 4/15/4 8/14/4 7/13/4
f 3/19/5 1/18/5 8/17/5
f 6/23/6 7/22/6 8/21/6
f 2/25/1 3/3/1 5/1/1
f 3/27/2 2/7/2 1/5/2
f 2/29/3 5/11/3 6/9/3
f 5/31/4 4/15/4 7/13/4
f 4/33/5 3/19/5 8/17/5
f 1/35/6 6/23/6 8/21/6

