# WaveFront *.obj file (generated by CINEMA 4D)

mtllib ./Tablesmall_3.mtl

v 205.900390625 18.125 -233.98248291015625
v 197.80078125 18.125 -220.04949951171875
v 206.80078125 18.125 -234.4854736328125
v 238.80078125 18.125 -234.4854736328125
v 238.6005859375 18.125 -205.0994873046875
v 206.900390625 18.125 -205.0994873046875
v 239.30078125 18.125 -205.46951293945312
v 247.2001953125 18.125 -219.16949462890625
v 247.2001953125 18.125 -219.91549682617188
v 239.30078125 18.125 -233.615478515625
v 238.6005859375 18.125 -233.9854736328125
v 206.900390625 18.125 -233.9854736328125
v 206.2001953125 18.125 -233.615478515625
v 198.30078125 18.125 -219.91549682617188
v 198.30078125 18.125 -219.16949462890625
v 205.900390625 18.125 -205.10250854492188
v 197.80078125 18.125 -219.03549194335938
v 206.80078125 18.125 -204.5994873046875
v 238.80078125 18.125 -204.5994873046875
v 206.2001953125 18.125 -205.46951293945312
v 239.6005859375 18.125 -205.10250854492188
v 247.7001953125 18.125 -219.03549194335938
v 247.7001953125 18.125 -220.04949951171875
v 239.6005859375 18.125 -233.98248291015625
v 238.80078125 -11.75 -219.54251098632812
v 233.80078125 -11.75 -228.17852783203125
v 211.7001953125 -11.75 -228.17852783203125
v 206.7001953125 -11.75 -219.54251098632812
v 233.80078125 -11.75 -210.906494140625
v 211.7001953125 -11.75 -210.906494140625
v 209.80078125 -11.25 -230.48248291015625
v 203.7001953125 -11.25 -220.04949951171875
v 210.6005859375 -11.25 -230.9854736328125
v 234.900390625 -11.25 -230.9854736328125
v 235.1005859375 -11.25 -230.42547607421875
v 210.400390625 -11.25 -230.42547607421875
v 204.1005859375 -11.25 -219.54251098632812
v 204.1005859375 -11.75 -219.54251098632812
v 210.400390625 -11.75 -230.42547607421875
v 211.7001953125 -11.25 -228.17852783203125
v 206.7001953125 -11.25 -219.54251098632812
v 233.80078125 -11.25 -228.17852783203125
v 235.1005859375 -11.75 -230.42547607421875
v 235.80078125 -11.25 -230.48248291015625
v 241.400390625 -11.75 -219.54251098632812
v 241.80078125 -11.25 -220.04949951171875
v 238.80078125 -11.25 -219.54251098632812
v 233.80078125 -11.25 -210.906494140625
v 211.7001953125 -11.25 -210.906494140625
v 210.400390625 -11.25 -208.65951538085938
v 241.400390625 -11.25 -219.54251098632812
v 235.1005859375 -11.25 -208.65951538085938
v 203.7001953125 -11.25 -219.03549194335938
v 209.80078125 -11.25 -208.603515625
v 210.6005859375 -11.25 -208.0994873046875
v 210.400390625 -11.75 -208.65951538085938
v 235.1005859375 -11.75 -208.65951538085938
v 234.900390625 -11.25 -208.0994873046875
v 235.80078125 -11.25 -208.603515625
v 241.80078125 -11.25 -219.03549194335938
# 60 vertices

vn -0.85318732261658 -0.17156875133514 -0.492580473423
vn -0.49119567871094 -0.16684652864933 -0.85492050647736
vn 0 -0.11831340193748 -0.99297630786896
vn 0 1 0
vn 0.55986577272415 0.76293629407883 0.32323145866394
vn 0.86601907014847 0 0.50001096725464
vn 0 0 1
vn 0 -0.74601972103119 -0.66592383384705
vn -0.39954170584679 0.59735935926437 0.69536191225052
vn -0.55986577272415 0.76293629407883 0.32323145866394
vn -0.86601907014847 0 0.50001096725464
vn -0.86601907014847 0 -0.50001096725464
vn 0 0 -1
vn 0.86601907014847 0 -0.50001096725464
vn 0 0.12031456828117 -0.99273580312729
vn -0.49154344201088 0.16269153356552 -0.8555212020874
vn -0.85273957252502 0.17450426518917 -0.49232453107834
vn -0.98108106851578 0.19359740614891 0
vn -0.85273957252502 0.17450426518917 0.49232453107834
vn -0.49154344201088 0.16269153356552 0.8555212020874
vn 0 0.12031456828117 0.99273580312729
vn 0.49154344201088 0.16269153356552 0.8555212020874
vn -0.98037099838257 -0.19716173410416 0
vn -0.85318732261658 -0.17156875133514 0.492580473423
vn -0.49119567871094 -0.16684652864933 0.85492050647736
vn 0.39954170584679 0.59735935926437 -0.69536191225052
vn 0.55986577272415 0.76293629407883 -0.32323145866394
vn 0 0.74601972103119 -0.66592383384705
vn 0 -0.11831340193748 0.99297630786896
vn 0.85273957252502 0.17450426518917 -0.49232453107834
vn 0.49154344201088 0.16269153356552 -0.8555212020874
vn 0.78948849439621 0.61376535892487 0
vn 0.49119567871094 -0.16684652864933 0.85492050647736
vn -0.39954170584679 0.59735935926437 -0.69536191225052
vn -0.55986577272415 0.76293629407883 -0.32323145866394
vn 0.85318732261658 -0.17156875133514 0.492580473423
vn 0.98037099838257 -0.19716173410416 0
vn 0.85318732261658 -0.17156875133514 -0.492580473423
vn -0.49119567871094 0.16684652864933 0.85492050647736
vn -0.78948849439621 0.61376535892487 0
vn 0.98108106851578 0.19359740614891 0
vn 0.85273957252502 0.17450426518917 0.49232453107834
vn 0.39954170584679 0.59735935926437 0.69536191225052
# 43 normals

vt 0.76070618629456 0.48951554298401 0
vt 0.76070618629456 0.25745701789856 0
vt 0.67358088493347 0.25745701789856 0
vt 0.5265246629715 0.41169035434723 0
vt 0.62645345926285 0.48951554298401 0
vt 0.59388148784637 0.25745701789856 0
vt 0.58720237016678 0.25745701789856 0
vt 0.31677213311195 0.4299054145813 0
vt 0.35170391201973 0.48951554298401 0
vt 0.61893433332443 0.48951554298401 0
vt 0.41233038902283 0.43284893035889 0
vt 0.90490382909775 0.68724399805069 0
vt 0.90657567977905 0.68282008171082 0
vt 0.70197737216949 0.68724399805069 0
vt 0.94476872682571 0.8863137960434 0
vt 0.70030552148819 0.68282008171082 0
vt 0.6952982544899 0.68327045440674 0
vt 0.93745499849319 0.88233852386475 0
vt 0.64769619703293 0.59684616327286 0
vt 0.64435255527496 0.60085129737854 0
vt 0.89040046930313 0.79591798782349 0
vt 0.00894954707474 0.62446409463882 0
vt 0.05989523977041 0.70688325166702 0
vt 0.06490255147219 0.7064328789711 0
vt 0.27636674046516 0.65338349342346 0
vt 0.01229318976402 0.62045896053314 0
vt 0.0340024009347 0.62045896053314 0
vt 0.1113128438592 0.75926554203033 0
vt 0.07575715333223 0.68868231773376 0
vt 0.14211682975292 0.84523665904999 0
vt 0.91893148422241 0.04769432544708 0
vt 0.91893148422241 0.05164432525635 0
vt 0.99105048179626 0.05164432525635 0
vt 1.17143893241882 0.04637765884399 0
vt 0.82891345024109 0.05164432525635 0
vt 0.82891345024109 0.04769432544708 0
vt 0.64435255527496 0.04769432544708 0
vt 0.8832768201828 0.04111111164093 0
vt 0.2603180706501 0.68868231773376 0
vt 0.27117267251015 0.7064328789711 0
vt 0.34835693240166 0.84523665904999 0
vt 0.64435255527496 0.70860016345978 0
vt 0.85062265396118 0.70860016345978 0
vt 0.84895086288452 0.7041762471199 0
vt 0.47191682457924 0.85736042261124 0
vt 0.26950085163116 0.71085679531097 0
vt 0.27701997756958 0.70688325166702 0
vt 0.19952961802483 0.8345228433609 0
vt 0.3271256685257 0.62446409463882 0
vt 0.32378202676773 0.62045896053314 0
vt 0.11087568104267 0.91360837221146 0
vt 0.30207282304764 0.62045896053314 0
vt 0.8468125462532 0.72553241252899 0
vt 0.8468125462532 0.72948235273361 0
vt 0.91893148422241 0.72948235273361 0
vt 0.93382924795151 0.72421580553055 0
vt 0.91893148422241 0.72553241252899 0
vt 0.99105048179626 0.72948235273361 0
vt 0.67500817775726 0.72421580553055 0
vt 0.64435255527496 0.72553241252899 0
vt 0.64435255527496 0.72948235273361 0
vt 0.82891345024109 0.72948235273361 0
vt 0.58998918533325 0.72421580553055 0
vt 0.8468125462532 0.04769432544708 0
vt 0.8468125462532 0.05164432525635 0
vt 1.01391816139221 0.04637765884399 0
vt 0.70781648159027 0.08632743358612 0
vt 0.69696187973022 0.06857657432556 0
vt 0.66606175899506 0.15455079078674 0
vt 0.76452684402466 0.2133002281189 0
vt 0.64435255527496 0.15455079078674 0
vt 0.7953308224678 0.12732899188995 0
vt 0.69696187973022 0.24052476882935 0
vt 0.70781648159027 0.22277414798737 0
vt 0.7953308224678 0.29927122592926 0
vt 0.90323203802109 0.24052476882935 0
vt 0.89237743616104 0.22277414798737 0
vt 1.0015709400177 0.29927122592926 0
vt 0.93413215875626 0.15455079078674 0
vt 0.95584136247635 0.15455079078674 0
vt 0.90323203802109 0.06857657432556 0
vt 1.03237509727478 0.2133002281189 0
vt 0.89237743616104 0.08632743358612 0
vt 0.990738093853 0.14507818222046 0
vt 0.80616366863251 0.14507818222046 0
vt 0.71413028240204 0.99153387546539 0
vt 0.68490195274353 0.75947535037994 0
vt 0.47863182425499 0.75947535037994 0
vt 0.39504572749138 0.90634262561798 0
vt 0.44940349459648 0.99153387546539 0
vt 0.44355618953705 0.99153387546539 0
vt 0.40261751413345 1.164715051651 0
vt 0.2439951300621 0.26413750648499 0
vt 0.2173555791378 0.03207898139954 0
vt 0.12647220492363 0.03207898139954 0
vt -0.19481128454208 0.14712822437286 0
vt 0.12958724796772 0.26413750648499 0
vt 0.12335742264986 0.26413750648499 0
vt -0.03276358544827 0.4085578918457 0
vt 0.03558910265565 0.03207898139954 0
vt 0.06401006877422 0.16772973537445 0
vt 0.28537091612816 0.51312834024429 0
vt 0.25029528141022 0.2810697555542 0
vt 0.27952361106873 0.51312834024429 0
vt 0.19577337801456 0.71961605548859 0
vt 0.04402517154813 0.2810697555542 0
vt 0.12764130532742 0.45634603500366 0
vt 0.00894954707474 0.51312834024429 0
vt 0.01479684375226 0.51312834024429 0
vt 0.22112186253071 0.45249915122986 0
vt 0.08493994176388 0.98758393526077 0
vt 0.07909264415503 0.98466104269028 0
vt 0.08410810679197 0.99153387546539 0
vt 0.15720437467098 1.21612334251404 0
vt 0.07658898830414 0.98756033182144 0
vt 0.1498903632164 1.21214735507965 0
vt 0.01312502287328 0.87643301486969 0
vt 0.00894954707474 0.8774915933609 0
vt 0.08271355926991 1.10207939147949 0
vt 0.01312502287328 0.87053966522217 0
vt 0.08688903599977 1.10102081298828 0
vt 0.07658898830414 0.75941240787506 0
vt 0.00894954707474 0.86948108673096 0
vt 0.1498903632164 0.98400187492371 0
vt 0.76917415857315 0.48951554298401 0
vt 0.6429728269577 0.63563799858093 0
vt 0.76917415857315 0.25745701789856 0
vt 0.88552778959274 0.48951554298401 0
vt 0.79347783327103 0.62698686122894 0
vt 0.35254389047623 0.73850631713867 0
vt 0.38427585363388 0.50644779205322 0
vt 0.37759673595428 0.50644779205322 0
vt 0.51107484102249 0.56738370656967 0
vt 0.06657437235117 0.53006058931351 0
vt 0.05989523977041 0.53404235839844 0
vt 0.06490255147219 0.53448474407196 0
vt -0.0371268093586 0.59502857923508 0
vt 0.00894954707474 0.61645358800888 0
vt 0.11884565651417 0.56332075595856 0
vt 0.14211682975292 0.67329436540604 0
vt 0.07575715333223 0.55223554372787 0
vt 0.27117267251015 0.53448474407196 0
vt 0.15294969081879 0.69104355573654 0
vt 0.26950085163116 0.53006058931351 0
vt -0.06798474490643 0.61728662252426 0
vt 0.58720237016678 0.50644779205322 0
vt 0.51583153009415 0.81025111675262 0
vt 0.35133853554726 0.75543856620789 0
vt 0.08410810679197 0.75543856620789 0
vt 0.08493994176388 0.75938856601715 0
vt 0.1583184748888 0.98397636413574 0
vt 0.07909264415503 0.76231169700623 0
vt 0.15294472873211 0.98689723014832 0
vt 0.08688903599977 1.09512901306152 0
vt 0.50581574440002 0.24052476882935 0
vt 0.50893080234528 0.00846612453461 0
vt 0.4180474281311 0.00846612453461 0
vt 0.52598375082016 0.14134287834167 0
vt 0.71997755765915 0.99153387546539 0
vt 0.64286237955093 1.1327908039093 0
vt 0.70030552148819 0.51087194681168 0
vt 0.6952982544899 0.51042956113815 0
vt 0.88715445995331 0.79992240667343 0
vt 0.64435255527496 0.59284073114395 0
vt 0.93745499849319 0.709497153759 0
vt 0.15762203931808 0.61569100618362 0
vt 0.70197737216949 0.50644779205322 0
vt 0.94286972284317 0.70994681119919 0
vt 0.90657567977905 0.51087194681168 0
vt 0.90490382909775 0.50644779205322 0
vt 1.14910984039307 0.70994681119919 0
vt 0.91242295503616 0.51042956113815 0
vt 0.62645345926285 0.73850631713867 0
vt 0.59472143650055 0.50644779205322 0
vt 0.72416651248932 0.6001256108284 0
vt 0.27701997756958 0.53404235839844 0
vt -0.24973651766777 0.71223813295364 0
vt 0.3271256685257 0.61645358800888 0
vt -0.14794509112835 0.82354593276978 0
vt 0.37916108965874 0.75926554203033 0
vt 0.2603180706501 0.55223554372787 0
vt 0.33752408623695 0.69104355573654 0
vt 0.76711338758469 0.75947535037994 0
vt 0.73787665367126 0.99153387546539 0
vt 0.8542303442955 0.99153387546539 0
vt 1.16962826251984 1.18753135204315 0
vt 0.8542303442955 0.75947535037994 0
vt 0.86269825696945 0.99153387546539 0
vt 0.98607516288757 1.21531200408936 0
vt 0.97905194759369 0.99153387546539 0
vt 0.94982361793518 0.75947535037994 0
vt 0.86269825696945 0.75947535037994 0
vt 0.78528606891632 0.97223490476608 0
vt 0.96252864599228 0.60085129737854 0
vt 0.95918500423431 0.59684616327286 0
vt 0.91242295503616 0.68327045440674 0
vt 1.15452456474304 0.88233852386475 0
vt 1.14721083641052 0.8863137960434 0
vt 0.30875194072723 0.73453277349472 0
vt 0.19555373489857 0.69960159063339 0
vt 0.35801765322685 0.98756033182144 0
vt 0.35551401972771 0.98466104269028 0
vt 0.35133853554726 0.99153387546539 0
vt 0.42456474900246 1.21612334251404 0
vt 0.34966671466827 0.98758393526077 0
vt 0.4214816391468 0.87643301486969 0
vt 0.43187853693962 1.21214735507965 0
vt 0.42565709352493 0.8774915933609 0
vt 0.42565709352493 0.86948108673096 0
vt 0.49905520677567 1.10207939147949 0
vt 0.4214816391468 0.87053966522217 0
vt 0.49487975239754 1.09512901306152 0
vt 0.35801765322685 0.75941240787506 0
vt 0.35551401972771 0.76231169700623 0
vt 0.42882373929024 0.98689723014832 0
vt 0.34966671466827 0.75938856601715 0
vt 0.42344990372658 0.98397636413574 0
vt 0.96252864599228 0.59284073114395 0
vt 1.20482492446899 0.79992240667343 0
vt 1.20157885551453 0.79591798782349 0
vt -0.09195614606142 0.85742139816284 0
vt 0.5120455622673 0.24052476882935 0
vt 0.67081826925278 0.38605082035065 0
vt 0.62645345926285 0.24052476882935 0
vt 0.79410922527313 0.39761936664581 0
vt 0.06657437235117 0.71085679531097 0
vt 0.23113879561424 0.72223806381226 0
vt 0.64435255527496 0.48951554298401 0
vt 0.51743882894516 0.64724212884903 0
vt 0.33035328984261 0.66526407003403 0
vt 0.38427585363388 0.25745701789856 0
vt 0.2098883241415 0.43284893035889 0
vt 0.17142699658871 0.65338349342346 0
vt 0.99105048179626 0.04769432544708 0
vt 1.17143893241882 0.04242777824402 0
vt 0.64435255527496 0.05164432525635 0
vt 0.8832768201828 0.0450611114502 0
vt 0.64602434635162 0.7041762471199 0
vt 0.67435890436172 0.85736042261124 0
vt 0.0059365411289 0.91360837221146 0
vt 0.93382924795151 0.72026586532593 0
vt 0.99105048179626 0.72553241252899 0
vt 0.67500817775726 0.72026586532593 0
vt 0.82891345024109 0.72553241252899 0
vt 0.58998918533325 0.72026586532593 0
vt 1.01391816139221 0.04242777824402 0
vt 0.36560025811195 1.14009976387024 0
vt -0.21631664037704 0.38280355930328 0
vt 0.00894954707474 0.26413750648499 0
vt 0.0583441182971 0.403404712677 0
vt 0.09819543361664 0.69010299444199 0
vt 0.6429728269577 0.39893329143524 0
vt 0.85629105567932 0.25745701789856 0
vt 0.78439229726791 0.39143466949463 0
vt 0.34502476453781 0.73850631713867 0
vt 0.49749374389648 0.80274224281311 0
vt 0.01390652172267 0.56332075595856 0
vt -0.27422484755516 0.61728662252426 0
vt 0.61977434158325 0.73850631713867 0
vt 0.78319191932678 0.81025111675262 0
vt 0.3914078772068 0.24052476882935 0
vt 0.52031779289246 0.37701809406281 0
vt 0.73774766921997 0.83548402786255 0
vt -0.25288480520248 0.82354593276978 0
vt 1.14496040344238 0.95197927951813 0
vt 0.98607516288757 0.97860658168793 0
vt 0.76061868667603 1.20778667926788 0
vt 0.30207282304764 0.73850631713867 0
vt 0.20913489162922 0.93496012687683 0
vt 0.59981387853622 0.00846612453461 0
vt 0.78844392299652 0.16194438934326 0
# 271 texture coordinates

o Mesh68_Group75_Group73_Model
usemtl Mesh68_Group75_Group73_Model
f 31/3/1 32/2/1 2/1/1
f 33/7/2 31/6/2 1/5/2
f 33/7/3 3/10/3 4/9/3
f 33/14/4 35/13/4 34/12/4
f 33/14/4 36/16/4 35/13/4
f 31/17/4 36/16/4 33/14/4
f 31/17/4 37/19/4 36/16/4
f 37/19/4 31/17/4 32/20/4
f 39/24/5 31/23/5 32/22/5
f 28/27/4 39/24/4 38/26/4
f 39/24/4 28/27/4 27/29/4
f 40/33/6 41/32/6 28/31/6
f 27/37/7 26/36/7 42/35/7
f 43/40/4 27/29/4 26/39/4
f 39/24/4 27/29/4 43/40/4
f 34/44/8 43/43/8 39/42/8
f 43/40/9 44/47/9 34/46/9
f 45/50/10 46/49/10 44/47/10
f 43/40/4 25/52/4 45/50/4
f 43/40/4 26/39/4 25/52/4
f 47/55/11 42/54/11 26/53/11
f 48/58/12 47/55/12 25/57/12
f 49/62/13 48/61/13 29/60/13
f 41/32/14 49/65/14 30/64/14
f 41/69/4 50/68/4 49/67/4
f 50/68/4 41/69/4 37/71/4
f 41/69/4 36/73/4 37/71/4
f 36/73/4 41/69/4 40/74/4
f 36/73/4 40/74/4 35/76/4
f 35/76/4 40/74/4 42/77/4
f 35/76/4 42/77/4 47/79/4
f 35/76/4 47/79/4 51/80/4
f 47/79/4 52/81/4 51/80/4
f 48/83/4 52/81/4 47/79/4
f 49/67/4 52/81/4 48/83/4
f 49/67/4 50/68/4 52/81/4
f 52/88/15 50/87/15 6/86/15
f 7/91/16 52/88/16 5/90/16
f 51/95/17 52/94/17 7/93/17
f 9/98/18 51/95/18 8/97/18
f 35/100/19 51/95/19 9/98/19
f 11/104/20 35/103/20 10/102/20
f 36/106/21 35/103/21 11/104/21
f 36/106/22 12/109/22 13/108/22
f 3/113/4 13/112/4 12/111/4
f 1/115/4 13/112/4 3/113/4
f 1/115/4 14/117/4 13/112/4
f 2/118/4 14/117/4 1/115/4
f 14/117/4 2/118/4 15/120/4
f 2/118/4 16/122/4 15/120/4
f 16/122/4 2/118/4 17/123/4
f 17/125/23 2/1/23 32/2/23
f 16/128/24 17/125/24 53/127/24
f 54/132/25 55/131/25 18/130/25
f 56/136/26 54/135/26 55/134/26
f 38/26/27 53/138/27 54/135/27
f 56/136/4 28/27/4 38/26/4
f 28/27/4 56/136/4 30/141/4
f 30/141/4 56/136/4 57/142/4
f 56/136/28 55/134/28 58/144/28
f 18/130/29 55/131/29 58/146/29
f 6/150/4 18/149/4 19/148/4
f 20/152/4 18/149/4 6/150/4
f 20/152/4 16/122/4 18/149/4
f 15/120/4 16/122/4 20/152/4
f 50/157/30 37/156/30 15/155/30
f 6/86/31 50/87/31 20/159/31
f 37/19/4 54/162/4 50/161/4
f 32/20/4 54/162/4 37/19/4
f 54/162/4 32/20/4 53/164/4
f 53/138/32 38/26/32 32/22/32
f 50/161/4 54/162/4 55/167/4
f 50/161/4 55/167/4 52/169/4
f 52/169/4 55/167/4 58/170/4
f 52/169/4 58/170/4 59/172/4
f 58/146/33 59/174/33 21/173/33
f 57/142/34 58/144/34 59/176/34
f 57/142/35 59/176/35 60/178/35
f 25/52/4 57/142/4 45/50/4
f 29/181/4 57/142/4 25/52/4
f 30/141/4 57/142/4 29/181/4
f 22/185/36 21/184/36 59/183/36
f 23/188/37 22/185/37 60/187/37
f 46/192/38 44/191/38 24/190/38
f 44/196/4 51/195/4 46/194/4
f 44/196/4 35/13/4 51/195/4
f 34/12/4 35/13/4 44/196/4
f 34/46/39 44/47/39 24/199/39
f 4/203/4 10/202/4 24/201/4
f 4/203/4 11/205/4 10/202/4
f 4/203/4 12/111/4 11/205/4
f 3/113/4 12/111/4 4/203/4
f 24/201/4 10/202/4 9/206/4
f 24/201/4 9/206/4 23/208/4
f 23/208/4 9/206/4 22/209/4
f 8/211/4 22/209/4 9/206/4
f 8/211/4 21/213/4 22/209/4
f 7/214/4 21/213/4 8/211/4
f 7/214/4 19/148/4 21/213/4
f 5/216/4 19/148/4 7/214/4
f 6/150/4 19/148/4 5/216/4
f 46/194/4 51/195/4 60/218/4
f 51/195/4 59/172/4 60/218/4
f 52/169/4 59/172/4 51/195/4
f 46/49/40 45/50/40 60/178/40
f 15/155/41 37/156/41 14/222/41
f 13/224/42 14/222/42 37/156/42
f 31/23/43 39/24/43 33/226/43
f 1/228/1 31/3/1 2/1/1
f 3/10/2 33/7/2 1/5/2
f 34/231/3 33/7/3 4/9/3
f 38/26/5 39/24/5 32/22/5
f 27/234/6 40/33/6 28/31/6
f 40/236/7 27/37/7 42/35/7
f 33/238/8 34/44/8 39/42/8
f 43/40/10 45/50/10 44/47/10
f 25/57/11 47/55/11 26/53/11
f 29/242/12 48/58/12 25/57/12
f 30/244/13 49/62/13 29/60/13
f 28/31/14 41/32/14 30/64/14
f 5/90/15 52/88/15 6/86/15
f 8/97/17 51/95/17 7/93/17
f 10/249/19 35/100/19 9/98/19
f 12/109/21 36/106/21 11/104/21
f 53/127/23 17/125/23 32/2/23
f 54/253/24 16/128/24 53/127/24
f 16/255/25 54/132/25 18/130/25
f 56/136/27 38/26/27 54/135/27
f 57/142/28 56/136/28 58/144/28
f 19/259/29 18/130/29 58/146/29
f 20/261/30 50/157/30 15/155/30
f 19/259/33 58/146/33 21/173/33
f 45/50/35 57/142/35 60/178/35
f 60/187/36 22/185/36 59/183/36
f 46/192/37 23/188/37 60/187/37
f 23/188/38 46/192/38 24/190/38
f 4/268/39 34/46/39 24/199/39
f 36/270/42 13/224/42 37/156/42

