# WaveFront *.obj file (generated by CINEMA 4D)

mtllib ./tablesmall_4.mtl

v 238.80078125 -11.75 -219.54251098632812
v 233.80078125 -11.75 -228.17852783203125
v 211.7001953125 -11.75 -228.17852783203125
v 206.7001953125 -11.75 -219.54251098632812
v 233.80078125 -11.75 -210.906494140625
v 211.7001953125 -11.75 -210.906494140625
v 239.7001953125 -13.75 -219.54251098632812
v 238.80078125 -13.75 -219.54251098632812
v 234.2001953125 -13.75 -228.92852783203125
v 234.2001953125 -13.75 -210.156494140625
v 239.7001953125 -11.75 -219.54251098632812
v 234.2001953125 -11.75 -210.156494140625
v 234.2001953125 -11.75 -228.92852783203125
v 211.30078125 -11.75 -228.92852783203125
v 211.30078125 -13.75 -228.92852783203125
v 211.7001953125 -13.75 -228.17852783203125
v 233.80078125 -13.75 -228.17852783203125
v 206.7001953125 -13.75 -219.54251098632812
v 205.900390625 -11.75 -219.54251098632812
v 211.30078125 -11.75 -210.156494140625
v 205.900390625 -13.75 -219.54251098632812
v 211.30078125 -13.75 -210.156494140625
v 233.80078125 -13.75 -210.906494140625
v 211.7001953125 -13.75 -210.906494140625
# 24 vertices

vn 0 -1 0
vn 0.86601907014847 0 0.50001096725464
vn 0 1 0
vn 0.86601907014847 0 -0.50001096725464
vn 0 0 -1
vn 0 0 1
vn -0.86601907014847 0 0.50001096725464
vn -0.86601907014847 0 -0.50001096725464
# 8 normals

vt -5.41891002655029 18.77159881591797 0
vt -0.8660249710083 9.38582038879395 0
vt 0 9.38582038879395 0
vt -5.41891002655029 0 0
vt -8.1283597946167 0 0
vt 2.70945000648499 0 0
vt 2.70945000648499 2 0
vt 5.41891002655029 0 0
vt 0.8660249710083 9.38582038879395 0
vt -0.00000000000001 9.38582038879395 0
vt 5.41891002655029 18.77159881591797 0
vt -18.96619987487793 0 0
vt -8.1283597946167 2 0
vt -28.39550018310547 0 0
vt -5.41891002655029 2 0
vt 5.85192012786865 18.02159881591797 0
vt 28.39550018310547 18.77159881591797 0
vt 27.96249961853027 18.02159881591797 0
vt 5.85192012786865 0 0
vt 27.96249961853027 0 0
vt 27.96249961853027 2 0
vt -1.62594997882843 0 0
vt 8.34584045410156 0 0
vt 8.34584045410156 2 0
vt 32.94839859008789 9.38582038879395 0
vt 33.81439971923828 9.38582038879395 0
vt 28.39550018310547 0 0
vt 14.19779968261719 0 0
vt 25.03560066223145 0 0
vt 25.03560066223145 2 0
vt -8.77884960174561 0 0
vt 2.0589599609375 0 0
vt 2.0589599609375 2 0
vt -32.94839859008789 9.38582038879395 0
vt -28.39550018310547 18.77159881591797 0
vt -33.81439971923828 9.38582038879395 0
vt -27.96249961853027 18.02159881591797 0
vt -5.85192012786865 18.02159881591797 0
vt 8.56136989593506 0 0
vt 18.53319931030273 0 0
vt 18.53319931030273 2 0
vt -2.27643990516663 0 0
vt 7.6953501701355 0 0
vt 7.6953501701355 2 0
vt 5.85192012786865 0.75 0
vt 28.39550018310547 2 0
vt -5.85192012786865 0.75 0
vt -27.96249961853027 0.75 0
vt -27.96249961853027 0 0
vt -5.85192012786865 0 0
vt -5.85192012786865 2 0
vt 27.96249961853027 0.75 0
vt -24.60260009765625 0 0
vt -14.63080024719238 0 0
vt -14.63080024719238 2 0
vt -18.96619987487793 2 0
vt -28.39550018310547 2 0
vt 5.85192012786865 2 0
vt -1.62594997882843 2 0
vt 14.19779968261719 2 0
vt -8.77884960174561 2 0
vt 8.56136989593506 2 0
vt -2.27643990516663 2 0
vt 5.41891002655029 2 0
vt -27.96249961853027 2 0
vt -24.60260009765625 2 0
# 66 texture coordinates

o Mesh67_Group74_Group73_Model
usemtl _45
f 7/3/1 8/2/1 9/1/1
f 7/3/1 10/4/1 8/2/1
f 12/7/2 10/6/2 7/5/2
f 11/10/3 1/9/3 12/8/3
f 11/10/3 13/11/3 1/9/3
f 11/13/4 7/5/4 9/12/4
f 13/15/5 9/4/5 15/14/5
f 14/17/3 2/16/3 13/11/3
f 3/18/3 2/16/3 14/17/3
f 3/21/6 16/20/6 17/19/6
f 4/24/2 18/23/2 16/22/2
f 4/25/3 3/18/3 14/17/3
f 19/26/3 4/25/3 14/17/3
f 19/26/3 20/27/3 4/25/3
f 19/30/7 21/29/7 22/28/7
f 14/33/8 15/32/8 21/31/8
f 21/36/1 15/35/1 18/34/1
f 18/34/1 15/35/1 16/37/1
f 16/37/1 15/35/1 17/38/1
f 15/35/1 9/1/1 17/38/1
f 17/38/1 9/1/1 8/2/1
f 2/41/7 17/40/7 8/39/7
f 2/16/3 1/9/3 13/11/3
f 1/44/8 8/43/8 23/42/8
f 5/45/3 12/8/3 1/9/3
f 20/27/3 12/8/3 5/45/3
f 20/46/6 22/27/6 10/8/6
f 22/14/1 23/47/1 10/4/1
f 24/48/1 23/47/1 22/14/1
f 5/51/5 23/50/5 24/49/5
f 6/52/3 20/27/3 5/45/3
f 4/25/3 20/27/3 6/52/3
f 6/55/4 24/54/4 18/53/4
f 18/34/1 24/48/1 22/14/1
f 21/36/1 18/34/1 22/14/1
f 23/47/1 8/2/1 10/4/1
f 11/13/2 12/7/2 7/5/2
f 13/56/4 11/13/4 9/12/4
f 14/57/5 13/15/5 15/14/5
f 2/58/6 3/21/6 17/19/6
f 3/59/2 4/24/2 16/22/2
f 20/60/7 19/30/7 22/28/7
f 19/61/8 14/33/8 21/31/8
f 1/62/7 2/41/7 8/39/7
f 5/63/8 1/44/8 23/42/8
f 12/64/6 20/46/6 10/8/6
f 6/65/5 5/51/5 24/49/5
f 4/66/4 6/55/4 18/53/4

