# WaveFront *.obj file (generated by CINEMA 4D)

mtllib ./Tabletop_2.mtl

v 160.80078125 23.5625 -34.77249908447266
v 179.900390625 23.5625 -53.86450958251953
v 247.80078125 23.5625 14.01747894287109
v 228.7001953125 23.5625 33.10948944091797
v 179.900390625 19.5625 -53.86450958251953
v 160.80078125 19.5625 -34.77249908447266
v 213.80078125 23.5625 -19.92350006103516
v 194.7001953125 23.5625 -0.83152008056641
v 213.80078125 19.5625 -19.92350006103516
v 194.7001953125 19.5625 -0.83152008056641
v 247.80078125 19.5625 14.01747894287109
v 228.7001953125 19.5625 33.10948944091797
# 12 vertices

vn -0.70710676908493 0 -0.70710676908493
vn -0.70710676908493 0 0.70710676908493
vn 0 -1 0
vn 0.70710676908493 0 0.70710676908493
vn 0 1 0
# 5 normals

vt 61.29460144042969 33.3125 0
vt 34.29460144042969 33.3125 0
vt 34.29460144042969 37.3125 0
vt -20.5664005279541 33.3125 0
vt -68.56639862060547 33.3125 0
vt -68.56639862060547 37.3125 0
vt -91.47589874267578 -9.51545906066895 0
vt -59.19210052490234 26.00579833984375 0
vt -39.21139907836914 7.84612941741943 0
vt 27.4335994720459 33.3125 0
vt -20.5664005279541 37.3125 0
vt -26.90830039978027 61.52700042724609 0
vt -6.92760992050171 43.36740112304688 0
vt -34.29460144042969 33.3125 0
vt -61.29460144042969 33.3125 0
vt -61.29460144042969 37.3125 0
vt 61.29460144042969 37.3125 0
vt -71.49520111083984 -27.67509841918945 0
vt 27.4335994720459 37.3125 0
vt -34.29460144042969 37.3125 0
vt -1.00002002716064 0.00132358074188 0
vt -0.00000000000002 0 0
vt -0.00041953398613 -0.99884796142578 0
vt -1.00044000148773 -0.99752593040466 0
vt -0.99999797344208 -0.00024795532227 0
vt -0.00000000000008 0 0
vt 0.00007799760351 -1.00155973434448 0
vt -0.99992001056671 -1.00181007385254 0
# 28 texture coordinates

o Mesh171_Component_10_1_Model
usemtl FrontColor
f 2/3/1 5/2/1 6/1/1
f 2/6/2 5/5/2 9/4/2
f 9/9/3 10/8/3 6/7/3
f 7/3/1 9/2/1 10/1/1
f 7/11/2 9/4/2 11/10/2
f 11/13/3 12/12/3 10/8/3
f 4/16/4 12/15/4 11/14/4
f 8/11/2 10/4/2 12/10/2
f 1/6/2 6/5/2 10/4/2
f 1/17/1 2/3/1 6/1/1
f 7/11/2 2/6/2 9/4/2
f 5/18/3 9/9/3 6/7/3
f 8/17/1 7/3/1 10/1/1
f 3/19/2 7/11/2 11/10/2
f 9/9/3 11/13/3 10/8/3
f 3/20/4 4/16/4 11/14/4
f 4/19/2 8/11/2 12/10/2
f 8/11/2 1/6/2 10/4/2

usemtl Screenshot_2018_02_28_10_03_46
f 2/23/5 1/22/5 8/21/5
f 7/24/5 2/23/5 8/21/5

usemtl Screenshot_2018_02_27_11_51_09
f 7/27/5 8/26/5 4/25/5
f 3/28/5 7/27/5 4/25/5

