# WaveFront *.obj file (generated by CINEMA 4D)

mtllib ./Tabletop_1.mtl

v 511.900390625 23.56230163574219 -80.53949737548828
v 492.80078125 23.56230163574219 -61.44751739501953
v 458.900390625 23.56230163574219 -95.38849639892578
v 458.900390625 19.56230163574219 -95.38849639892578
v 477.900390625 23.56230163574219 -114.48050689697266
v 477.900390625 19.56230163574219 -114.48050689697266
v 492.80078125 19.56230163574219 -61.44751739501953
v 511.900390625 19.56230163574219 -80.53949737548828
# 8 vertices

vn 0.70710676908493 0 -0.70710676908493
vn 0 1 0
vn 0.70710676908493 0 0.70710676908493
vn 0 -1 0
vn -0.70710676908493 0 -0.70710676908493
# 5 normals

vt 0.49908500909805 4.00703001022339 0
vt 0.99868702888489 4.01067972183228 0
vt 0.4985080063343 5.00265979766846 0
vt 0.99810898303986 5.0062894821167 0
# 4 texture coordinates

o Mesh174_Group149_Component_2_1_Model
usemtl Screen_Shot_2018_03_01_at_3_58_36_PM
f 2/2/1 7/2/1 4/1/1
f 2/2/2 1/4/2 5/3/2
f 2/2/3 7/2/3 8/4/3
f 4/1/4 6/3/4 8/4/4
f 5/3/5 6/3/5 4/1/5
f 1/4/1 8/4/1 6/3/1
f 3/1/1 2/2/1 4/1/1
f 3/1/2 2/2/2 5/3/2
f 1/4/3 2/2/3 8/4/3
f 7/2/4 4/1/4 8/4/4
f 3/1/5 5/3/5 4/1/5
f 5/3/1 1/4/1 6/3/1

