# WaveFront *.obj file (generated by CINEMA 4D)

mtllib ./Table_1.mtl

v 511.900390625 23.56230163574219 -80.53949737548828
v 492.80078125 23.56230163574219 -61.44751739501953
v 424.900390625 23.56230163574219 -129.33050537109375
v 444 23.56230163574219 -148.4215087890625
v 519.7001953125 22.56230163574219 -78.72351837158203
v 514.30078125 22.56230163574219 -60.61652374267578
v 506 -12.75016498565674 -68.92652130126953
v 509.6005859375 -12.75016498565674 -81.09351348876953
v 519.1005859375 23.56230163574219 -79.49350738525391
v 513.30078125 23.56230163574219 -60.02649688720703
v 493.80078125 23.56230163574219 -54.23252105712891
v 418.5 23.56230163574219 -129.57150268554688
v 423.5 23.56230163574219 -149.85848999023438
v 443 23.56230163574219 -155.64450073242188
v 519.2001953125 22.56230163574219 -80.66352081298828
v 444.1005859375 22.56230163574219 -155.6875
v 509.1005859375 -12.75016498565674 -83.03351593017578
v 446.5 -12.75016498565674 -145.6094970703125
v 508.2001953125 -12.75016498565674 -82.51749420166016
v 508.5 -12.75016498565674 -81.11051177978516
v 505.1005859375 -12.75016498565674 -69.45450592041016
v 504.400390625 -12.75016498565674 -67.37851715087891
v 512.7001953125 22.56230163574219 -59.06851959228516
v 494.6005859375 22.56230163574219 -53.67951202392578
v 492.7001953125 22.56230163574219 -54.18952178955078
v 418.5 22.56230163574219 -128.364501953125
v 417.900390625 22.56230163574219 -130.37051391601562
v 422.6005859375 22.56230163574219 -149.27850341796875
v 424 22.56230163574219 -150.7965087890625
v 442.2001953125 22.56230163574219 -156.19650268554688
v 444.6005859375 -12.75016498565674 -146.1195068359375
v 446 -12.75016498565674 -144.71148681640625
v 508.2001953125 -13.75016498565674 -82.51749420166016
v 446 -13.75016498565674 -144.71148681640625
v 508.5 -13.75016498565674 -81.11051177978516
v 505.1005859375 -13.75016498565674 -69.45450592041016
v 503.900390625 -12.75016498565674 -68.26450347900391
v 503.900390625 -13.75016498565674 -68.26450347900391
v 492.2001953125 -12.75016498565674 -64.79550933837891
v 492.2001953125 -12.75016498565674 -63.75650787353516
v 490.30078125 -12.75016498565674 -64.26651763916016
v 428.30078125 -12.75016498565674 -126.23450469970703
v 427.80078125 -12.75016498565674 -128.24151611328125
v 430.900390625 -12.75016498565674 -140.96951293945312
v 432.400390625 -12.75016498565674 -142.48748779296875
v 444.6005859375 -12.75016498565674 -145.08151245117188
v 444.6005859375 -13.75016498565674 -145.08151245117188
v 492.2001953125 -13.75016498565674 -64.79550933837891
v 490.80078125 -13.75016498565674 -65.16449737548828
v 429.2001953125 -13.75016498565674 -126.75949859619141
v 428.80078125 -13.75016498565674 -128.260498046875
v 431.80078125 -13.75016498565674 -140.47149658203125
v 432.900390625 -13.75016498565674 -141.6044921875
v 490.80078125 -12.75016498565674 -65.16449737548828
v 429.2001953125 -12.75016498565674 -126.75949859619141
v 428.80078125 -12.75016498565674 -128.260498046875
v 431.80078125 -12.75016498565674 -140.47149658203125
v 432.900390625 -12.75016498565674 -141.6044921875
# 58 vertices

vn 0.91986238956451 -0.28088071942329 0.27378681302071
vn 0.96446245908737 0.24653762578964 -0.09503370523453
vn 0.78560733795166 0.19806592166424 0.58616632223129
vn 0.60349279642105 0.52114576101303 0.60349279642105
vn 0 1 0
vn 0.37935337424278 0.26728802919388 -0.88580369949341
vn 0.88580369949341 0.26728802919388 -0.37935337424278
vn 0.80009090900421 0.5663013458252 -0.19788202643394
vn 0.93632912635803 -0.2506919503212 -0.24584811925888
vn 0 -1 0
vn 0.15544064342976 -0.79079711437225 -0.5920118689537
vn 0.41359525918961 -0.81109672784805 0.41359525918961
vn 0.58616632223129 0.19806592166424 0.78560733795166
vn -0.09503370523453 0.24653762578964 0.96446245908737
vn -0.19788202643394 0.5663013458252 0.80009090900421
vn -0.37935337424278 0.26728802919388 0.88580369949341
vn -0.87916702032089 0.26869079470634 0.39353606104851
vn -0.79663580656052 0.56400763988495 0.21740920841694
vn -0.9605473279953 0.24909791350365 0.12368956953287
vn -0.80237179994583 0.20222580432892 -0.56151962280273
vn -0.61473655700684 0.52714025974274 -0.58670449256897
vn -0.59922808408737 0.20106562972069 -0.77491825819016
vn 0.09503370523453 0.24653762578964 -0.96446245908737
vn 0.19788202643394 0.5663013458252 -0.80009090900421
vn 0.69883555173874 -0.1525050252676 -0.69883555173874
vn 0.70710676908493 0 -0.70710676908493
vn 0.96721082925797 0 -0.25397488474846
vn 0.95845186710358 0 0.28525426983833
vn 0.70710676908493 0 0.70710676908493
vn -0.15544064342976 -0.79079711437225 0.5920118689537
vn 0.27378681302071 -0.28088071942329 0.91986238956451
vn -0.69883555173874 -0.1525050252676 0.69883555173874
vn -0.591159760952 -0.78853595256805 0.16953225433826
vn -0.93366783857346 -0.27397215366364 -0.23065912723541
vn -0.42347714304924 -0.8110785484314 -0.4035080075264
vn -0.27378681302071 -0.28088071942329 -0.91986238956451
vn 0.25397488474846 0 -0.96721082925797
vn 0.28525426983833 0 0.95845186710358
vn -0.25397488474846 0 0.96721082925797
vn -0.28525426983833 0 -0.95845186710358
vn -0.72396397590637 0 -0.68983775377274
vn -0.9708097577095 0 -0.23985078930855
vn -0.9612557888031 0 0.27565789222717
vn -0.70710676908493 0 0.70710676908493
# 44 normals

vt 0.82081711292267 0.00855815410614 0
vt 0.7566722035408 0.00855815410614 0
vt 0.7128614783287 0.17692852020264 0
vt 0.43717101216316 0.54703277349472 0
vt 0.80832242965698 0.17692852020264 0
vt 0.70975083112717 0.1816965341568 0
vt 0.4327477812767 0.09166896343231 0
vt 0.53983384370804 0.62814784049988 0
vt 0.50925701856613 0.53532892465591 0
vt 0.50187408924103 0.63313513994217 0
vt 0.53016841411591 1.10185301303864 0
vt 0.40118005871773 0.54210436344147 0
vt 0.60131627321243 1.17582881450653 0
vt 0.40645208954811 0.50770312547684 0
vt 0.04320603236556 0.86577129364014 0
vt 0.6954887509346 1.12973165512085 0
vt 0.00946287624538 0.86692041158676 0
vt 0.67251366376877 0.64412432909012 0
vt 0.03582311049104 0.96364903450012 0
vt 0.14390006661415 0.95679748058319 0
vt 0.53016841411591 0.64412432909012 0
vt 0.13862802088261 0.99123680591583 0
vt 0.50714379549026 0.61624813079834 0
vt 0.50714379549026 1.12973165512085 0
vt 0.14443035423756 0.99144184589386 0
vt 0.54035902023315 0.63372647762299 0
vt -0.07526283711195 0.78079175949097 0
vt 0.81855016946793 0.17692852020264 0
vt 0.81238180398941 0.1816965341568 0
vt 0.30663779377937 0.32483053207397 0
vt 0.83104491233826 0.00855815410614 0
vt 0.32754722237587 0.31073009967804 0
vt 0.98790109157562 0.89952880144119 0
vt 0.65786790847778 0.60116571187973 0
vt 0.99053710699081 0.90877878665924 0
vt 0.85906887054443 1.29651355743408 0
vt 0.98315417766571 0.90198922157288 0
vt 0.86440324783325 0.8663010597229 0
vt 0.98473477363586 0.90869772434235 0
vt 0.85913121700287 1.28696322441101 0
vt 0.97155463695526 0.9667911529541 0
vt 0.85526096820831 1.29295182228088 0
vt 0.96681290864944 0.96427369117737 0
vt 0.96312147378922 0.97417205572128 0
vt 0.79887557029724 1.32055377960205 0
vt 0.46233373880386 0.31724345684052 0
vt 0.50609070062637 0.48561382293701 0
vt 0.51452904939651 0.48561382293701 0
vt 0.36251279711723 0.90257567167282 0
vt 0.50925701856613 0.49038183689117 0
vt 0.36251279711723 0.57676070928574 0
vt 0.41066870093346 0.48561382293701 0
vt 0.40645208954811 0.49038183689117 0
vt 0.56600219011307 0.35681748390198 0
vt 0.40064975619316 0.48561382293701 0
vt 0.86712777614594 0.58624428510666 0
vt 0.40064975619316 0.50749814510345 0
vt 0.00946287624538 0.86116540431976 0
vt 0.54751968383789 0.68150079250336 0
vt 0.95765745639801 0.17692852020264 0
vt 0.96186989545822 0.1816965341568 0
vt 0.9682332277298 0.17692852020264 0
vt 0.9736379981041 0.36806118488312 0
vt 0.85797363519669 0.17692852020264 0
vt 0.85491591691971 0.1816965341568 0
vt 0.91270840167999 0.34009194374084 0
vt 0.84997063875198 0.17692852020264 0
vt 0.9378154873848 0.41210615634918 0
vt 0.51136273145676 0.29535913467407 0
vt 0.4154104590416 0.29535913467407 0
vt 0.41119384765625 0.30012714862823 0
vt 0.24888528883457 0.44652497768402 0
vt 0.4053915143013 0.29535913467407 0
vt 0.24308940768242 0.47575628757477 0
vt 0.40275549888611 0.12698876857758 0
vt 0.39274168014526 0.12698876857758 0
vt 0.21160264313221 0.30092561244965 0
vt 0.06270848959684 0.12698876857758 0
vt 0.00946287624538 0.29535913467407 0
vt -0.31885066628456 0.48233377933502 0
vt 0.64785408973694 0.59873396158218 0
vt 0.65523189306259 0.60544741153717 0
vt 0.85913121700287 0.86759126186371 0
vt 0.33738520741463 0.08322012424469 0
vt 0.00946287624538 0.08322012424469 0
vt 0.00946287624538 0.08798813819885 0
vt -0.17489704489708 0.16046631336212 0
vt 0.68143022060394 0.1550440788269 0
vt 0.67401254177094 0.1550440788269 0
vt 0.67401254177094 0.15981209278107 0
vt 0.1924237459898 0.23229038715363 0
vt 0.61256152391434 0.1550440788269 0
vt 0.61256152391434 0.15981209278107 0
vt 0.33139646053314 0.23229038715363 0
vt 0.40961328148842 0.10510444641113 0
vt 0.40328577160835 0.10510444641113 0
vt 0.40328577160835 0.1098724603653 0
vt 0.27340030670166 0.18235063552856 0
vt 0.96048539876938 0.96994763612747 0
vt 0.898801445961 0.986487865448 0
vt 0.7900059223175 1.32055377960205 0
vt 0.898801445961 0.99144184589386 0
vt 0.73362082242966 1.29295182228088 0
vt 0.39801374077797 0.31724345684052 0
vt 0.56906527280807 0.87611132860184 0
vt 0.38799995183945 0.31724345684052 0
vt 0.86712777614594 0.82635945081711 0
vt 0.06113305315375 0.31724345684052 0
vt 0.00946287624538 0.48561382293701 0
vt 0.47608584165573 0.7535657286644 0
vt 0.96888166666031 0.00855815410614 0
vt 0.9736379981041 0.44657552242279 0
vt 0.9017790555954 0.00855815410614 0
vt 0.91683852672577 0.43039619922638 0
vt 0.89377623796463 0.00855815410614 0
vt 0.93381977081299 0.24090015888214 0
vt 0.467075496912 0.12698876857758 0
vt 0.25194850564003 0.46997117996216 0
vt 0.58353412151337 0.61605149507523 0
vt 0.64785408973694 0.60368311405182 0
vt 0.85906887054443 0.85804092884064 0
vt 0.34476298093796 0.08322012424469 0
vt 0.33738520741463 0.08798813819885 0
vt 0.30915486812592 0.16046631336212 0
vt 0.34160181879997 0.10510444641113 0
vt 0.34160181879997 0.1098724603653 0
vt 0.49481362104416 0.18235063552856 0
vt 0.33422404527664 0.10510444641113 0
vt 0.33422404527664 0.1098724603653 0
vt 0.75349134206772 0.18235063552856 0
vt 0.89142370223999 0.98472851514816 0
vt 0.88878762722015 0.98901009559631 0
vt 0.72975009679794 1.28696322441101 0
vt 0.56666254997253 0.69104278087616 0
vt 0.56192076206207 0.69354593753815 0
vt 0.72447806596756 0.87039911746979 0
vt 0.55928474664688 0.6839764714241 0
vt 0.72981280088425 0.86169511079788 0
vt 0.56455677747726 0.68388593196869 0
vt 0.57562601566315 0.62328916788101 0
vt 0.78898572921753 0.82938349246979 0
vt 0.58037292957306 0.62566375732422 0
vt 0.58617013692856 0.62026160955429 0
vt 0.80003333091736 0.82914233207703 0
vt 0.40644696354866 0.08322012424469 0
vt 0.34476298093796 0.08798813819885 0
vt 0.35272991657257 0.16046631336212 0
vt 0.61853474378586 0.17692852020264 0
vt 0.61256152391434 0.17692852020264 0
vt 0.61256152391434 0.1816965341568 0
vt 0.72093021869659 0.25417470932007 0
vt 0.68291169404984 0.17692852020264 0
vt 0.61853474378586 0.1816965341568 0
vt 0.73596662282944 0.25417470932007 0
vt 0.69082510471344 0.17692852020264 0
vt 0.68291169404984 0.1816965341568 0
vt 0.77483373880386 0.25417470932007 0
vt 0.00946287624538 0.10510444641113 0
vt 0.00946287624538 0.1098724603653 0
vt 0.44314810633659 0.18235063552856 0
vt 0.64995980262756 0.20057713985443 0
vt 0.64258205890656 0.19881284236908 0
vt 0.58089810609818 0.2153913974762 0
vt 0.54446876049042 0.23570895195007 0
vt 0.57510089874268 0.22079348564148 0
vt 0.55928474664688 0.27901566028595 0
vt 0.47945335507393 0.26688838005066 0
vt 0.97788214683533 0.49711894989014 0
vt 0.56139045953751 0.28617250919342 0
vt 0.47546136379242 0.27340149879456 0
vt 0.88615161180496 0.57985824346542 0
vt 0.955213367939 0.56507736444473 0
vt 0.53571718931198 0.72232323884964 0
vt 0.89352941513062 0.58161759376526 0
vt 0.96154087781906 0.55940341949463 0
vt 0.97946274280548 0.50382745265961 0
vt 0.60097223520279 0.69472122192383 0
vt 0.53676682710648 0.54703277349472 0
vt 0.53982990980148 0.09166896343231 0
vt 0.49250176548958 0.78079175949097 0
vt 0.30196830630302 0.48465478420258 0
vt 0.47076696157455 0.31724345684052 0
vt 0.36251279711723 0.72512739896774 0
vt 0.67308431863785 0.35681748390198 0
vt 1.10923945903778 0.68150079250336 0
vt 1.02287518978119 0.34009194374084 0
vt 0.51399874687195 0.30012714862823 0
vt 0.35581102967262 0.44652497768402 0
vt 0.23718145489693 0.47485029697418 0
vt 0.24051079154015 0.48233377933502 0
vt 0.28880739212036 0.16046631336212 0
vt 0.68143022060394 0.15981209278107 0
vt 0.20009770989418 0.23229038715363 0
vt 0.39551085233688 0.23229038715363 0
vt 0.40961328148842 0.1098724603653 0
vt 0.28227001428604 0.18235063552856 0
vt 0.66866105794907 0.87611132860184 0
vt 0.84154886007309 0.65243524312973 0
vt 1.02911984920502 0.7535657286644 0
vt 0.97946274280548 0.00855815410614 0
vt 0.99872398376465 0.27297699451447 0
vt 1.01952219009399 0.43039619922638 0
vt 0.93232464790344 0.41834366321564 0
vt 0.35174629092216 0.46997117996216 0
vt 0.31682902574539 0.16046631336212 0
vt 0.5589285492897 0.18235063552856 0
vt 0.76116532087326 0.18235063552856 0
vt 0.40644696354866 0.08798813819885 0
vt 0.4169787466526 0.16046631336212 0
vt 0.72917777299881 0.25417470932007 0
vt 0.80228263139725 0.25417470932007 0
vt 0.69082510471344 0.1816965341568 0
vt 0.78306758403778 0.25417470932007 0
vt 0.90238445997238 0.18235063552856 0
vt 0.53622382879257 0.23588895797729 0
vt 0.47546136379242 0.68873256444931 0
# 216 texture coordinates

o Mesh172_Group147_Group146_Component_2_1_Model
usemtl Mesh172_Group147_Group146_Component_2_1_Model
f 6/3/1 7/2/1 8/1/1
f 10/6/4 6/3/3 5/5/2
f 1/10/5 10/9/5 9/8/5
f 10/9/5 1/10/5 2/12/5
f 10/9/5 2/12/5 11/14/5
f 11/14/5 2/12/5 3/15/5
f 3/15/5 12/17/5 11/14/5
f 3/15/5 13/19/5 12/17/5
f 4/20/5 13/19/5 3/15/5
f 4/20/5 14/22/5 13/19/5
f 14/22/5 4/20/5 9/8/5
f 9/8/5 4/20/5 1/10/5
f 9/8/8 15/26/7 16/25/6
f 9/29/8 5/5/2 15/28/7
f 8/1/9 17/31/9 15/28/7
f 8/35/10 18/34/11 17/33/10
f 18/34/11 8/35/10 19/37/10
f 19/37/10 8/35/10 20/39/10
f 20/39/10 8/35/10 7/41/12
f 20/39/10 7/41/12 21/43/10
f 21/43/10 7/41/12 22/44/12
f 6/48/3 23/47/13 22/46/12
f 6/48/3 10/50/4 23/47/13
f 11/53/15 24/52/14 23/47/13
f 24/52/14 11/53/15 25/55/16
f 12/17/18 26/58/17 25/57/16
f 26/62/17 12/61/18 27/60/19
f 13/65/21 28/64/20 27/60/19
f 13/65/21 29/67/22 28/64/20
f 14/71/24 30/70/23 29/69/22
f 14/71/24 16/73/6 30/70/23
f 18/76/11 31/75/11 30/70/23
f 15/79/25 17/78/25 18/76/25
f 18/34/11 32/82/10 31/81/11
f 32/82/10 18/34/11 19/37/10
f 19/86/26 33/85/26 34/84/26
f 20/90/27 35/89/27 33/88/27
f 21/93/28 36/92/28 35/89/28
f 37/97/29 38/96/29 36/95/29
f 21/43/10 22/44/12 37/99/10
f 37/99/10 22/44/12 39/100/10
f 39/100/10 22/44/12 40/102/30
f 24/52/31 40/104/31 22/46/31
f 24/52/14 25/55/16 41/106/30
f 26/109/32 42/108/32 41/106/32
f 26/62/17 27/60/19 43/111/33
f 28/64/34 44/113/34 43/111/34
f 45/115/35 44/113/35 28/64/20
f 30/70/36 31/75/36 45/117/36
f 31/81/11 46/120/10 45/119/35
f 31/81/11 32/82/10 46/120/10
f 32/123/37 34/84/37 47/122/37
f 39/126/38 48/125/38 38/96/38
f 54/129/39 49/128/39 48/125/39
f 39/100/10 40/102/30 54/131/10
f 54/131/10 40/102/30 41/132/30
f 54/131/10 41/132/30 55/134/10
f 42/135/33 55/134/10 41/132/30
f 43/137/33 55/134/10 42/135/33
f 43/137/33 56/139/10 55/134/10
f 44/140/35 56/139/10 43/137/33
f 44/140/35 57/142/10 56/139/10
f 44/140/35 58/143/10 57/142/10
f 45/119/35 58/143/10 44/140/35
f 45/119/35 46/120/10 58/143/10
f 46/146/40 47/122/40 53/145/40
f 58/150/41 53/149/41 52/148/41
f 57/153/42 52/148/42 51/152/42
f 56/156/43 51/152/43 50/155/43
f 55/159/44 50/158/44 49/128/44
f 53/163/10 47/162/10 34/161/10
f 51/166/10 52/165/10 34/161/10
f 50/169/10 34/161/10 33/168/10
f 38/172/10 49/171/10 33/168/10
f 38/172/10 48/174/10 49/171/10
f 35/176/10 36/175/10 38/172/10
f 5/5/1 6/3/1 8/1/1
f 9/29/8 10/6/4 5/5/2
f 14/22/24 9/8/8 16/25/6
f 5/5/2 8/1/9 15/28/7
f 7/182/12 6/48/3 22/46/12
f 10/50/4 11/53/15 23/47/13
f 11/14/15 12/17/18 25/57/16
f 12/61/18 13/65/21 27/60/19
f 13/187/21 14/71/24 29/69/22
f 16/73/6 18/76/11 30/70/23
f 16/73/25 15/79/25 18/76/25
f 32/123/26 19/86/26 34/84/26
f 19/192/27 20/90/27 33/88/27
f 20/90/28 21/93/28 35/89/28
f 21/195/29 37/97/29 36/95/29
f 23/47/31 24/52/31 22/46/31
f 40/104/30 24/52/14 41/106/30
f 25/55/32 26/109/32 41/106/32
f 42/200/33 26/62/17 43/111/33
f 27/60/34 28/64/34 43/111/34
f 29/67/22 45/115/35 28/64/20
f 29/69/36 30/70/36 45/117/36
f 46/146/37 32/123/37 47/122/37
f 37/97/38 39/126/38 38/96/38
f 39/126/39 54/129/39 48/125/39
f 58/208/40 46/146/40 53/145/40
f 57/153/41 58/150/41 52/148/41
f 56/156/42 57/153/42 51/152/42
f 55/212/43 56/156/43 50/155/43
f 54/129/44 55/159/44 49/128/44
f 52/165/10 53/163/10 34/161/10
f 50/169/10 51/166/10 34/161/10
f 49/171/10 50/169/10 33/168/10
f 35/176/10 38/172/10 33/168/10

