# WaveFront *.obj file (generated by CINEMA 4D)

mtllib ./Thing_5.mtl

v 165.30078125 19.625 -219.54251098632812
v 164.80078125 19.625 -218.6715087890625
v 164.80078125 19.625 -220.41351318359375
v 165.30078125 19.125 -219.54251098632812
v 164.80078125 19.125 -220.41351318359375
v 164.80078125 19.125 -218.6715087890625
v 159.80078125 19.125 -218.6715087890625
v 159.80078125 19.625 -218.6715087890625
v 159.30078125 19.125 -219.54251098632812
v 159.80078125 19.125 -220.41351318359375
v 159.30078125 19.625 -219.54251098632812
v 159.80078125 19.625 -220.41351318359375
v 165 19.625 -219.54251098632812
v 165 19.125 -219.54251098632812
v 164.7001953125 19.125 -218.9215087890625
v 160 19.125 -218.9215087890625
v 160 19.625 -218.9215087890625
v 164.7001953125 19.625 -218.9215087890625
v 159.6005859375 19.125 -219.54251098632812
v 159.6005859375 19.625 -219.54251098632812
v 164.7001953125 19.125 -220.16351318359375
v 164.7001953125 19.625 -220.16351318359375
v 160 19.625 -220.16351318359375
v 160 19.125 -220.16351318359375
# 24 vertices

vn 0 1 0
vn 0.86601907014847 0 -0.50001096725464
vn 0 -1 0
vn 0.86601907014847 0 0.50001096725464
vn 0 0 1
vn 0 0 -1
vn -0.86601907014847 0 -0.50001096725464
vn -0.86601907014847 0 0.50001096725464
# 8 normals

vt 0.83277457952499 0.70871955156326 0
vt 0.86262446641922 0.84967041015625 0
vt 0.90769195556641 0.84967041015625 0
vt 0.86769700050354 0.78178113698959 0
vt 0.83277457952499 0.99062132835388 0
vt 0.86080992221832 0.09029173851013 0
vt 0.99131625890732 0.09029173851013 0
vt 0.99131625890732 0.00937867164612 0
vt 0.68415302038193 -0.17941832542419 0
vt 0.83277457952499 0.40806043148041 0
vt 0.86262446641922 0.54901129007339 0
vt 0.90769195556641 0.54901129007339 0
vt 0.86769700050354 0.48112201690674 0
vt 0.83277457952499 0.68996220827103 0
vt 0.73030358552933 0.09029173851013 0
vt 0.86080992221832 0.00937867164612 0
vt 0.83481675386429 -0.17941832542419 0
vt 0.00868372712284 0.38930308818817 0
vt 0.75785726308823 0.38930308818817 0
vt 0.75785726308823 0.30839002132416 0
vt 0.58346438407898 0.11959290504456 0
vt 0.8177033662796 0.64950567483902 0
vt 0.08360107988119 0.68996220827103 0
vt 0.04482430592179 0.34020161628723 0
vt 0.11345095932484 0.64950567483902 0
vt 0.06645145267248 0.38065814971924 0
vt 0.00868372712284 0.18996214866638 0
vt 0.71293610334396 0.18996214866638 0
vt 0.71293610334396 0.10904920101166 0
vt -0.32306024432182 -0.07974791526794 0
vt 0.77522468566895 0.38930308818817 0
vt 0.86827236413956 0.38930308818817 0
vt 0.86827236413956 0.30839002132416 0
vt 0.29678323864937 0.11959290504456 0
vt 0.05360487475991 0.54901129007339 0
vt 0.01274621300399 0.48112201690674 0
vt 0.00868372712284 0.54901129007339 0
vt -0.03050658106804 0.48112201690674 0
vt 0.08360107988119 0.40806043148041 0
vt 0.73030358552933 0.18996214866638 0
vt 0.86080992221832 0.18996214866638 0
vt 0.86080992221832 0.10904920101166 0
vt 0.48120307922363 -0.07974791526794 0
vt 0.99131625890732 0.18996214866638 0
vt 0.99131625890732 0.10904920101166 0
vt 1.22874343395233 -0.07974791526794 0
vt 0.05360487475991 0.84967041015625 0
vt 0.08360107988119 0.70871955156326 0
vt 0.00868372712284 0.84967041015625 0
vt 1.76590061187744 0.78178113698959 0
vt 0.11345095932484 0.74917608499527 0
vt 1.72264778614044 0.78178113698959 0
vt 0.8177033662796 0.74917608499527 0
vt 1.66894257068634 0.68131726980209 0
vt 1.69056975841522 0.64086073637009 0
vt 0.96465533971786 0.68131726980209 0
vt 0.86827236413956 0.28963267803192 0
vt 0.96132004261017 0.28963267803192 0
vt 0.96132004261017 0.20871961116791 0
vt 0.91426509618759 0.01992249488831 0
vt 0.77073866128922 0.38065814971924 0
vt 0.77522468566895 0.28963267803192 0
vt 0.86827236413956 0.20871961116791 0
vt 1.06492841243744 0.01992249488831 0
vt 0.8177033662796 0.44851696491241 0
vt 0.77073866128922 0.58158624172211 0
vt 0.04482430592179 0.62204277515411 0
vt 0.00868372712284 0.28963267803192 0
vt 0.75785726308823 0.28963267803192 0
vt 0.75785726308823 0.20871961116791 0
vt -0.31473997235298 0.01992249488831 0
vt 0.8177033662796 0.95016479492188 0
vt 0.08360107988119 0.99062132835388 0
vt 1.69056975841522 0.92270189523697 0
vt 0.11345095932484 0.95016479492188 0
vt 1.66894257068634 0.88224536180496 0
vt 0.00868372712284 0.09029173851013 0
vt 0.71293610334396 0.09029173851013 0
vt 0.71293610334396 0.00937867164612 0
vt 0.57514363527298 -0.17941832542419 0
vt 0.11345095932484 0.44851696491241 0
vt 0.06645145267248 0.58158624172211 0
vt 0.96132004261017 0.38930308818817 0
vt 0.96132004261017 0.30839002132416 0
vt 1.04432499408722 0.11959290504456 0
vt 0.96465533971786 0.88224536180496 0
vt 0.73030358552933 0.00937867164612 0
vt 0.9854798913002 -0.17941832542419 0
vt 0.00868372712284 0.30839002132416 0
vt 1.33100545406342 0.11959290504456 0
vt 0.00868372712284 0.10904920101166 0
vt 0.38122698664665 -0.07974791526794 0
vt 0.77522468566895 0.30839002132416 0
vt 0.40419372916222 0.11959290504456 0
vt 0.73030358552933 0.10904920101166 0
vt 0.63186639547348 -0.07974791526794 0
vt 1.37940669059753 -0.07974791526794 0
vt 1.0216748714447 0.01992249488831 0
vt 0.77522468566895 0.20871961116791 0
vt 1.1723381280899 0.01992249488831 0
vt 0.00868372712284 0.20871961116791 0
vt 0.43280109763145 0.01992249488831 0
vt 0.00868372712284 0.00937867164612 0
vt 1.27943086624146 -0.17941832542419 0
vt 1.15173411369324 0.11959290504456 0
# 105 texture coordinates

o Mesh64_Group70_Group67_Model
usemtl Mesh64_Group70_Group67_Model
f 1/3/1 13/2/1 2/1/1
f 1/3/1 3/5/1 13/2/1
f 5/8/2 3/7/2 1/6/2
f 4/12/3 14/11/3 5/10/3
f 4/12/3 6/14/3 14/11/3
f 4/16/4 1/6/4 2/15/4
f 6/20/5 2/19/5 8/18/5
f 7/23/3 15/22/3 6/14/3
f 16/25/3 15/22/3 7/23/3
f 16/29/6 17/28/6 18/27/6
f 19/33/2 20/32/2 17/31/2
f 19/35/3 16/25/3 7/23/3
f 9/37/3 19/35/3 7/23/3
f 9/37/3 10/39/3 19/35/3
f 9/42/7 11/41/7 12/40/7
f 7/45/8 8/44/8 11/41/8
f 11/49/1 8/48/1 20/47/1
f 20/47/1 8/48/1 17/51/1
f 17/51/1 8/48/1 18/53/1
f 8/48/1 2/1/1 18/53/1
f 18/53/1 2/1/1 13/2/1
f 15/59/7 18/58/7 13/57/7
f 15/22/3 14/11/3 6/14/3
f 14/63/8 13/57/8 22/62/8
f 21/65/3 5/10/3 14/11/3
f 10/39/3 5/10/3 21/65/3
f 10/70/6 12/69/6 3/68/6
f 12/73/1 22/72/1 3/5/1
f 23/75/1 22/72/1 12/73/1
f 21/79/5 22/78/5 23/77/5
f 24/81/3 10/39/3 21/65/3
f 19/35/3 10/39/3 24/81/3
f 24/84/4 23/83/4 20/32/4
f 20/47/1 23/75/1 12/73/1
f 11/49/1 20/47/1 12/73/1
f 22/72/1 13/2/1 3/5/1
f 4/16/2 5/8/2 1/6/2
f 6/87/4 4/16/4 2/15/4
f 7/89/5 6/20/5 8/18/5
f 15/91/6 16/29/6 18/27/6
f 16/93/2 19/33/2 17/31/2
f 10/95/7 9/42/7 12/40/7
f 9/42/8 7/45/8 11/41/8
f 14/63/7 15/59/7 13/57/7
f 21/99/8 14/63/8 22/62/8
f 5/101/6 10/70/6 3/68/6
f 24/103/5 21/79/5 23/77/5
f 19/33/4 24/84/4 20/32/4

v 165 19.5099983215332 -219.54251098632812
v 164.7001953125 19.5099983215332 -220.16351318359375
v 160 19.5099983215332 -220.16351318359375
v 159.6005859375 19.5099983215332 -219.54251098632812
v 165 19.3849983215332 -219.54251098632812
v 164.7001953125 19.3849983215332 -220.16351318359375
v 164.7001953125 19.5099983215332 -218.9215087890625
v 164.7001953125 19.3849983215332 -218.9215087890625
v 160 19.5099983215332 -218.9215087890625
v 159.6005859375 19.3849983215332 -219.54251098632812
v 160 19.3849983215332 -218.9215087890625
v 160 19.3849983215332 -220.16351318359375
# 12 vertices

# 0 normal

vt 10.97070026397705 28.05839920043945 0
vt 10.85389995574951 28.97249984741211 0
vt 9.33014011383057 28.95190048217773 0
vt 6626.97021484375 178.96798706054688 0
vt 6627.2099609375 178.97097778320312 0
vt 6627.2099609375 179.156005859375 0
vt 2789.010009765625 83.80809020996094 0
vt 2788.760009765625 83.80819702148438 0
vt 2788.760009765625 84.00959777832031 0
vt 5190.47021484375 17.03469848632812 0
vt 5190.35009765625 16.03769874572754 0
vt 5188.68994140625 16.03769874572754 0
vt 2782.409912109375 83.80879211425781 0
vt 2782.159912109375 83.80879211425781 0
vt 2782.159912109375 84.01029968261719 0
vt 6631.72998046875 179.031982421875 0
vt 6631.97021484375 179.03500366210938 0
vt 6631.97021484375 179.22000122070312 0
vt 8843.849609375 209.05899047851562 0
vt 8845.3896484375 209.0789794921875 0
vt 8845.3896484375 209.26498413085938 0
vt 5190.35009765625 83.56900024414062 0
vt 5188.68994140625 83.56919860839844 0
vt 5188.68994140625 83.76998901367188 0
vt 9.21455001831055 28.03459930419922 0
vt 6626.97021484375 179.1519775390625 0
vt 2789.010009765625 84.00959777832031 0
vt 5188.56005859375 17.03469848632812 0
vt 2782.409912109375 84.01029968261719 0
vt 6631.72998046875 179.21697998046875 0
vt 8843.849609375 209.24398803710938 0
vt 5190.35009765625 83.76979064941406 0
# 32 texture coordinates

o Mesh65_Group71_Group67_Model
usemtl Screen_Shot_2018_01_31_at_2_10_18_PM
f 26/108/1 27/107/1 28/106/1
f 25/111/2 29/110/2 30/109/2
f 31/114/4 32/113/4 29/112/4
f 33/117/1 31/116/1 25/115/1
f 28/120/8 34/119/8 35/118/8
f 27/123/7 36/122/7 34/121/7
f 26/126/6 30/125/6 36/124/6
f 33/129/5 35/128/5 32/127/5
f 25/130/1 26/108/1 28/106/1
f 26/131/2 25/111/2 30/109/2
f 25/132/4 31/114/4 29/112/4
f 28/133/1 33/117/1 25/115/1
f 33/134/8 28/120/8 35/118/8
f 28/135/7 27/123/7 34/121/7
f 27/136/6 26/126/6 36/124/6
f 31/137/5 33/129/5 32/127/5

