# WaveFront *.obj file (generated by CINEMA 4D)

mtllib ./Triangle_5.mtl

v 207.7001953125 104.25 77.18349456787109
v 201.1005859375 104.25 102.07349395751953
v 289.7001953125 104.25 102.07349395751953
v 303.2001953125 104.25 51.60448455810547
v 207.2001953125 103.75 77.33348846435547
v 200.5 103.75 102.07349395751953
v 207.2001953125 100.75 77.33348846435547
v 200.5 100.75 102.07349395751953
v 207.7001953125 100.25 77.18349456787109
v 201.1005859375 100.25 102.07349395751953
v 207.900390625 100.75 76.62549591064453
v 207.900390625 103.75 76.62549591064453
v 303.400390625 103.75 51.04648590087891
v 303.400390625 100.75 51.04648590087891
v 303.2001953125 100.25 51.60448455810547
v 303.80078125 100.75 51.45449066162109
v 303.80078125 103.75 51.45449066162109
v 290.2001953125 103.75 102.07349395751953
v 290.2001953125 100.75 102.07349395751953
v 289.7001953125 100.25 102.07349395751953
v 289.6005859375 100.75 102.57349395751953
v 200.900390625 100.75 102.57349395751953
v 289.6005859375 103.75 102.57349395751953
v 200.900390625 103.75 102.57349395751953
# 24 vertices

vn 0 1 0
vn -0.52132391929626 0.67517101764679 -0.52188640832901
vn -0.49460443854332 0.78207939863205 0.3791019320488
vn -0.79163157939911 0.50841051340103 0.33887782692909
vn -0.96564894914627 0 -0.25985020399094
vn -0.49460443854332 -0.78207939863205 0.3791019320488
vn -0.52132391929626 -0.67517101764679 -0.52188640832901
vn -0.72014820575714 -0.4342640042305 -0.54111117124557
vn -0.54032701253891 -0.43426167964935 -0.72073817253113
vn -0.54032701253891 0.43426167964935 -0.72073817253113
vn -0.72014820575714 0.4342640042305 -0.54111117124557
vn 0.39222911000252 0.83205324411392 -0.39222911000252
vn -0.2588178217411 0 -0.96592617034912
vn 0.39222911000252 -0.83205324411392 -0.39222911000252
vn 0.39797499775887 -0.54960238933563 -0.73454278707504
vn 0.73454278707504 -0.54960238933563 -0.39797499775887
vn 0.73454278707504 0.54960238933563 -0.39797499775887
vn 0.39797499775887 0.54960238933563 -0.73454278707504
vn 0.43269938230515 0.7033942937851 0.56392168998718
vn 0.96592617034912 0 0.2588178217411
vn 0.43269938230515 -0.7033942937851 0.56392168998718
vn 0.65898758172989 -0.4523566365242 0.60092335939407
vn 0.40985405445099 -0.45235511660576 0.79208236932755
vn -0.53295344114304 -0.50842148065567 0.67636400461197
vn 0 0 1
vn 0.65898758172989 0.4523566365242 0.60092335939407
vn 0.40985405445099 0.45235511660576 0.79208236932755
vn -0.53295344114304 0.50842148065567 0.67636400461197
vn -0.79163157939911 -0.50841051340103 0.33887782692909
vn 0 -1 0
# 30 normals

vt 0.9715341925621 0.98639130592346 0
vt 0.8451327085495 0.56246393918991 0
vt 0.01556815300137 0.56246393918991 0
vt 6.33409452438354 -4.48122501373291 0
vt 0.07736077904701 0.77153384685516 0
vt 0.00994482357055 0.56246393918991 0
vt 6.33394432067871 -4.48102283477783 0
vt 0.25607192516327 0.03832077980042 0
vt 0.48771440982819 0.03832077980042 0
vt 0.48771440982819 0.01312160491943 0
vt 3.05155158042908 -0.20826482772827 0
vt 0.48771440982819 0.00892174243927 0
vt 0.25466752052307 0.00892174243927 0
vt 0.25607192516327 0.01312160491943 0
vt 1.18631422519684 2.73750686645508 0
vt 0.24944294989109 0.01312160491943 0
vt 0.99122232198715 0.17971813678741 0
vt 0.24944294989109 0.03832077980042 0
vt 1.24506747722626 2.58872175216675 0
vt 0.25466752052307 0.04252076148987 0
vt 2.79514384269714 2.97070050239563 0
vt 0.07923521846533 0.77622091770172 0
vt 6.34061098098755 -4.47541236877441 0
vt 0.00994482357055 0.03832077980042 0
vt 1.24423599243164 2.58805847167969 0
vt 0.0717374458909 0.33135080337524 0
vt 0.96591091156006 0.11649334430695 0
vt 0.96778535842896 0.11180639266968 0
vt 1.3875287771225 3.07502460479736 0
vt 0.9715341925621 0.11523354053497 0
vt 3.48602557182312 3.84885215759277 0
vt 0.98623502254486 0.0173214673996 0
vt 0.98623502254486 0.04252076148987 0
vt 0.99005520343781 0.04252076148987 0
vt 4.90213441848755 -2.41906118392944 0
vt 0.97715753316879 0.98765122890472 0
vt 0.973408639431 0.99107837677002 0
vt 0.57530832290649 0.24703991413116 0
vt 4.44979476928711 -1.60831594467163 0
vt 0.51228559017181 0.04252076148987 0
vt 4.90139436721802 -2.41983413696289 0
vt 0.83950942754745 0.54042077064514 0
vt 0.84419095516205 0.54042077064514 0
vt 1.37978649139404 3.05512523651123 0
vt 0.84981429576874 0.06456387042999 0
vt 0.8451327085495 0.06036400794983 0
vt 0.8442000746727 0.06456387042999 0
vt 7.12063074111938 -3.2215633392334 0
vt 0.01556815300137 0.06036400794983 0
vt 0.01369370985776 0.06456387042999 0
vt 1.61981678009033 2.7707633972168 0
vt 0.01369370985776 0.08976316452026 0
vt 0.8442000746727 0.08976316452026 0
vt 6.80938339233398 -5.30260181427002 0
vt 0.84981429576874 0.08976316452026 0
vt 4.91040229797363 -2.36452770233154 0
vt 0.8451327085495 0.09396302700043 0
vt 5.45794534683228 -5.79468536376953 0
vt 0.01556815300137 0.09396302700043 0
vt 6.80998229980469 -5.30167865753174 0
vt 0.01369370985776 0.55826407670975 0
vt 6.59100770950317 -0.84963297843933 0
vt 0.49239593744278 0.03832077980042 0
vt 3.05230069160461 -0.2075047492981 0
vt 0.00994482357055 0.06456387042999 0
vt 4.42030143737793 -5.71085548400879 0
vt 1.40137493610382 3.03725099563599 0
vt 6.34042358398438 -4.47558879852295 0
vt 6.37469339370728 -5.29020690917969 0
vt 3.04642057418823 -0.20032215118408 0
vt 1.18269062042236 2.72777152061462 0
vt 1.24446630477905 2.58778929710388 0
vt 6.36485195159912 -4.49707508087158 0
vt 0.00994482357055 0.01312160491943 0
vt 1.22443032264709 2.6187002658844 0
vt 0.07361188530922 0.32666373252869 0
vt 1.40153312683105 3.03749418258667 0
vt 0.99005520343781 0.0173214673996 0
vt 4.90153455734253 -2.41999340057373 0
vt 0.84981429576874 0.56246393918991 0
vt 4.43928909301758 -1.59207057952881 0
vt 0.51228559017181 0.0173214673996 0
vt 4.89089870452881 -2.40358877182007 0
vt 1.38721227645874 3.07502460479736 0
vt 1.60205411911011 2.79824757575989 0
vt 6.79162120819092 -5.27513599395752 0
vt 4.91100168228149 -2.36359548568726 0
vt 6.79222059249878 -5.27420234680176 0
vt 0.49239593744278 0.01312160491943 0
vt 3.05170130729675 -0.20843458175659 0
vt 0.00994482357055 0.54042077064514 0
vt 1.39772891998291 3.02745676040649 0
# 92 texture coordinates

o Mesh110_Group110_Model
usemtl Mesh110_Group110_Model
f 2/3/1 3/2/1 4/1/1
f 6/6/4 2/3/3 1/5/2
f 8/10/5 6/9/5 5/8/5
f 7/14/8 9/13/7 10/12/6
f 7/14/8 11/16/9 9/13/7
f 5/8/11 12/18/10 11/16/9
f 5/8/11 1/20/2 12/18/10
f 12/22/10 1/5/2 4/1/12
f 11/16/13 12/18/13 13/24/13
f 14/28/15 15/27/14 9/26/7
f 14/28/15 16/30/16 15/27/14
f 13/34/18 17/33/17 16/32/16
f 13/37/18 4/1/12 17/36/17
f 17/36/17 4/1/12 3/2/19
f 16/32/20 17/33/20 18/40/20
f 19/43/22 20/42/21 15/27/14
f 21/47/23 20/46/21 19/45/22
f 22/50/24 10/49/6 20/46/21
f 21/47/25 23/53/25 24/52/25
f 21/47/23 19/45/22 18/55/26
f 23/53/27 18/55/26 3/57/19
f 23/53/27 3/57/19 2/59/3
f 24/61/28 2/3/3 6/6/4
f 24/63/28 6/9/4 8/10/29
f 22/50/24 8/65/29 10/49/6
f 9/26/30 15/27/30 20/42/30
f 1/5/1 2/3/1 4/1/1
f 5/8/11 6/9/4 1/20/2
f 7/14/5 8/10/5 5/8/5
f 8/10/29 7/14/8 10/12/6
f 7/14/8 5/8/11 11/16/9
f 13/37/18 12/22/10 4/1/12
f 14/74/13 11/16/13 13/24/13
f 11/76/9 14/28/15 9/26/7
f 14/78/15 13/34/18 16/32/16
f 18/80/26 17/36/17 3/2/19
f 19/82/20 16/32/20 18/40/20
f 16/30/16 19/43/22 15/27/14
f 21/47/23 22/50/24 20/46/21
f 22/50/25 21/47/25 24/52/25
f 23/53/27 21/47/23 18/55/26
f 24/52/28 23/53/27 2/59/3
f 22/89/24 24/63/28 8/10/29
f 10/91/30 9/26/30 20/42/30

