# WaveFront *.obj file (generated by CINEMA 4D)

mtllib ./Triangle_8.mtl

v 162 104.25 -105.13651275634766
v 230.1005859375 104.25 -37.05451202392578
v 255.1005859375 104.25 -130.06851196289062
v 161.5 103.75 -104.98651885986328
v 230 103.75 -36.49750518798828
v 161.5 100.75 -104.98651885986328
v 230 100.75 -36.49750518798828
v 162 100.25 -105.13651275634766
v 230.1005859375 100.25 -37.05451202392578
v 161.6005859375 100.75 -105.54450225830078
v 161.6005859375 103.75 -105.54450225830078
v 255.2001953125 103.75 -130.62649536132812
v 255.2001953125 100.75 -130.62649536132812
v 255.1005859375 100.25 -130.06851196289062
v 255.6005859375 100.75 -130.21749877929688
v 255.6005859375 103.75 -130.21749877929688
v 230.5 103.75 -36.64652252197266
v 230.5 100.75 -36.64652252197266
# 18 vertices

vn 0 1 0
vn -0.53579521179199 0.83205300569534 -0.14356625080109
vn 0.14347359538078 0.83196568489075 0.53595566749573
vn -0.02271929197013 0.54951310157776 0.83517611026764
vn -0.70710676908493 0 0.70710676908493
vn 0.14347359538078 -0.83196568489075 0.53595566749573
vn -0.53579521179199 -0.83205300569534 -0.14356625080109
vn -0.83512604236603 -0.54959440231323 0.0225937794894
vn -0.71192687749863 -0.54960966110229 -0.43713769316673
vn -0.71192687749863 0.54960966110229 -0.43713769316673
vn -0.83512604236603 0.54959440231323 0.0225937794894
vn 0.3922273516655 0.83214330673218 -0.39203986525536
vn -0.2588178217411 0 -0.96592617034912
vn 0.3922273516655 -0.83214330673218 -0.39203986525536
vn 0.39806765317917 -0.54966336488724 -0.73444700241089
vn 0.73461943864822 -0.54967540502548 -0.39773261547089
vn 0.73461943864822 0.54967540502548 -0.39773261547089
vn 0.39806765317917 0.54966336488724 -0.73444700241089
vn 0.96581822633743 0 0.25922027230263
vn 0.43695014715195 -0.54951590299606 0.71211433410645
vn -0.02271929197013 -0.54951310157776 0.83517611026764
vn 0.43695014715195 0.54951590299606 0.71211433410645
vn 0 -1 0
# 23 normals

vt 0.49042063951492 0.98257303237915 0
vt 0.36130186915398 0.13512325286865 0
vt 0.00957935955375 0.75541770458221 0
vt 3.47427153587341 -4.86172962188721 0
vt 0.36078238487244 0.13004839420319 0
vt 3.00611782073975 -3.62288093566895 0
vt 0.00699698412791 0.04878723621368 0
vt 0.36078238487244 0.04878723621368 0
vt 0.36078238487244 0.02145421504974 0
vt 3.19911909103394 -4.42570209503174 0
vt 0.8613018989563 0.98258191347122 0
vt 0.50957936048508 0.36228740215302 0
vt 0.50699698925018 0.36365401744843 0
vt 1.24021244049072 3.47608995437622 0
vt 0.50900816917419 0.01234316825867 0
vt 0.50690102577209 0.01689875125885 0
vt 0.50978285074234 0.01689875125885 0
vt 0.97535157203674 -3.1147575378418 0
vt 0.50690102577209 0.0442316532135 0
vt 0.50978285074234 0.0442316532135 0
vt 0.96789157390594 2.81153106689453 0
vt 0.50900816917419 0.04878723621368 0
vt 2.90776109695435 2.76470041275024 0
vt 0.00751648517326 0.75913494825363 0
vt 0.62912881374359 3.60894966125488 0
vt 0.3773587346077 0.0442316532135 0
vt 0.96748667955399 2.81069302558899 0
vt 0.99042063951492 0.13513219356537 0
vt 0.99093508720398 0.13004839420319 0
vt 1.23272514343262 3.51632356643677 0
vt 0.99300301074982 0.13377475738525 0
vt 2.39073491096497 4.27875947952271 0
vt 0.49026775360107 0.07802903652191 0
vt 0.49026775360107 0.10536205768585 0
vt 0.49238011240959 0.10536205768585 0
vt 2.75677871704102 -2.62130212783813 0
vt 0.49300301074982 0.98393046855927 0
vt 0.49093508720398 0.98765683174133 0
vt 0.28960534930229 0.10539019107819 0
vt 2.43490672111511 -1.88501405715942 0
vt 0.00699698412791 0.10536205768585 0
vt 2.75637602806091 -2.62214088439941 0
vt 0.86336475610733 0.98629909753799 0
vt 1.22498309612274 3.4764084815979 0
vt 0.86078238487244 0.98765683174133 0
vt 4.26326704025269 -4.48560333251953 0
vt 0.36336475610733 0.04878723621368 0
vt 0.36336475610733 0.02145421504974 0
vt 2.61712408065796 -2.65508127212524 0
vt 0.36336475610733 0.13140606880188 0
vt 3.17045521736145 -5.59171104431152 0
vt 1.24016749858856 3.47638130187988 0
vt 0.00699698412791 0.75405114889145 0
vt 2.99541115760803 -3.59031867980957 0
vt 0.00699698412791 0.02145421504974 0
vt 3.1884126663208 -4.39313983917236 0
vt 1.22507035732269 3.47608995437622 0
vt 0.96755999326706 2.81051969528198 0
vt 0.61841660737991 3.64154863357544 0
vt 0.3773587346077 0.01689875125885 0
vt 0.95677447319031 2.84328269958496 0
vt 0.50751650333405 0.35857021808624 0
vt 1.24029970169067 3.4764084815979 0
vt 0.49238011240959 0.07802903652191 0
vt 2.75644826889038 -2.62231349945068 0
vt 2.42420029640198 -1.85243320465088 0
vt 0.00699698412791 0.07802903652191 0
vt 2.7456693649292 -2.58956909179688 0
vt 0.48949828743935 0.07347357273102 0
vt 0.93642175197601 3.11924076080322 0
vt 2.61745977401733 -2.6540789604187 0
# 71 texture coordinates

o Mesh113_Group110_Model
usemtl Mesh113_Group110_Model
f 1/3/1 2/2/1 3/1/1
f 5/5/4 2/2/3 1/3/2
f 7/9/5 5/8/5 4/7/5
f 6/13/8 8/12/7 9/11/6
f 6/17/8 10/16/9 8/15/7
f 4/20/11 11/19/10 10/16/9
f 4/20/11 1/22/2 11/19/10
f 11/24/10 1/3/2 3/1/12
f 10/16/13 11/19/13 12/26/13
f 13/29/15 14/28/14 8/12/7
f 13/29/15 15/31/16 14/28/14
f 12/35/18 16/34/17 15/33/16
f 12/38/18 3/1/12 16/37/17
f 16/37/17 3/1/12 2/2/3
f 15/33/19 16/34/19 17/41/19
f 18/43/20 9/11/6 14/28/14
f 7/45/21 9/11/6 18/43/20
f 7/9/21 18/48/20 17/47/22
f 5/5/4 17/50/22 2/2/3
f 8/12/23 14/28/23 9/11/23
f 4/53/11 5/5/4 1/3/2
f 6/55/5 7/9/5 4/7/5
f 7/45/21 6/13/8 9/11/6
f 6/17/8 4/20/11 10/16/9
f 12/38/18 11/24/10 3/1/12
f 13/60/13 10/16/13 12/26/13
f 10/62/9 13/29/15 8/12/7
f 13/64/15 12/35/18 15/33/16
f 17/50/22 16/37/17 2/2/3
f 18/67/19 15/33/19 17/41/19
f 15/33/16 18/67/20 14/69/14
f 5/8/4 7/9/21 17/47/22

