# WaveFront *.obj file (generated by CINEMA 4D)

mtllib ./Triangle_6.mtl

v 543.2001953125 104.25 -117.60150909423828
v 559.1005859375 104.25 -176.99050903320312
v 517.400390625 104.25 -218.68548583984375
v 481.30078125 104.25 -218.68548583984375
v 472.900390625 104.25 -187.83551025390625
v 543.6005859375 103.75 -117.19251251220703
v 559.5 103.75 -176.58151245117188
v 543.6005859375 100.75 -117.19251251220703
v 559.5 100.75 -176.58151245117188
v 543.2001953125 100.25 -117.60150909423828
v 559.1005859375 100.25 -176.99050903320312
v 543 100.75 -117.04349517822266
v 543 103.75 -117.04349517822266
v 472.80078125 103.75 -187.27850341796875
v 472.80078125 100.75 -187.27850341796875
v 472.900390625 100.25 -187.83551025390625
v 472.5 100.75 -188.24349975585938
v 472.5 103.75 -188.24349975585938
v 480.80078125 103.75 -218.68548583984375
v 480.80078125 100.75 -218.68548583984375
v 481.30078125 100.25 -218.68548583984375
v 481.400390625 100.75 -219.18548583984375
v 516.900390625 100.75 -219.18548583984375
v 517.400390625 100.25 -218.68548583984375
v 481.400390625 103.75 -219.18548583984375
v 516.900390625 103.75 -219.18548583984375
v 518.1005859375 103.75 -218.68548583984375
v 559.2001953125 103.75 -177.54751586914062
v 559.2001953125 100.75 -177.54751586914062
v 518.1005859375 100.75 -218.68548583984375
# 30 vertices

vn 0.14356625080109 0.83205300569534 0.53579521179199
vn 0.71243524551392 0.675277531147 -0.19088277220726
vn 0.89427047967911 0.4343224465847 -0.10790871828794
vn 0.96592617034912 0 0.2588178217411
vn 0.71243524551392 -0.675277531147 -0.19088277220726
vn 0.14356625080109 -0.83205300569534 0.53579521179199
vn 0.43713769316673 -0.54960966110229 0.71192687749863
vn -0.0225937794894 -0.54959440231323 0.83512604236603
vn -0.0225937794894 0.54959440231323 0.83512604236603
vn 0.43713769316673 0.54960966110229 0.71192687749863
vn -0.71246033906937 0.67542791366577 0.19025610387325
vn -0.70710676908493 0 0.70710676908493
vn -0.71246033906937 -0.67542791366577 0.19025610387325
vn -0.82860463857651 -0.43441197276115 0.35312962532043
vn -0.89433968067169 -0.43441945314407 0.10694074630737
vn -0.89433968067169 0.43441945314407 0.10694074630737
vn -0.82860463857651 0.43441197276115 0.35312962532043
vn -0.43235683441162 0.70317751169205 -0.56445455551147
vn -0.96548920869827 0 -0.26044303178787
vn -0.43235683441162 -0.70317751169205 -0.56445455551147
vn -0.65839159488678 -0.45223012566566 -0.601671397686
vn -0.40941169857979 -0.45222476124763 -0.79238551855087
vn 0.28947272896767 -0.6540715098381 -0.69885337352753
vn 0.25609841942787 -0.42122641205788 -0.87004709243774
vn 0 0 -1
vn -0.65839159488678 0.45223012566566 -0.601671397686
vn -0.40941169857979 0.45222476124763 -0.79238551855087
vn 0.28947272896767 0.6540715098381 -0.69885337352753
vn 0.4341097176075 0.42123425006866 -0.79631054401398
vn 0.25609841942787 0.42122641205788 -0.87004709243774
vn 0.70710676908493 0 -0.70710676908493
vn 0.82842403650284 -0.43432185053825 -0.35366386175156
vn 0.89427047967911 -0.4343224465847 -0.10790871828794
vn 0.82842403650284 0.43432185053825 -0.35366386175156
vn 0.4341097176075 -0.42123425006866 -0.79631054401398
vn 0 1 0
vn 0 -1 0
# 37 normals

vt 0.90156471729279 0.17755508422852 0
vt 0.9901647567749 0.6543180346489 0
vt 0.99239039421082 0.65103471279144 0
vt 4.22986125946045 -4.20727062225342 0
vt 0.00843998603523 0.14713525772095 0
vt 0.33936697244644 0.14713525772095 0
vt 0.33936697244644 0.12305188179016 0
vt 2.95575261116028 -2.29105138778687 0
vt 0.4901647567749 0.5077942609787 0
vt 0.40156471729279 0.98455727100372 0
vt 0.40379577875137 0.98784059286118 0
vt 0.84663259983063 3.73221063613892 0
vt 0.40044918656349 0.98903685808182 0
vt 4.19141149520874 -3.49421310424805 0
vt 0.58919763565063 0.12706577777863 0
vt 0.58919763565063 0.15114915370941 0
vt 0.59254425764084 0.15114915370941 0
vt 3.67074394226074 -3.83131313323975 0
vt 0.90044921636581 0.17307543754578 0
vt 0.90379577875137 0.17427170276642 0
vt 3.8841233253479 -4.8509635925293 0
vt 0.50984066724777 0.74137949943542 0
vt 3.68845009803772 -3.06780529022217 0
vt 0.1826153844595 0.09309792518616 0
vt 0.57397842407227 0.09309792518616 0
vt 0.57397842407227 0.06901443004608 0
vt 3.25902652740479 -3.89011096954346 0
vt 0.00984068680555 0.42073285579681 0
vt 0.00928564369678 0.42520439624786 0
vt 0.86348015069962 3.73192119598389 0
vt 0.17951163649559 0.06500053405762 0
vt 0.17723824083805 0.06901443004608 0
vt 0.1826153844595 0.06901443004608 0
vt 1.7543785572052 -3.9810733795166 0
vt 0.17723824083805 0.09309792518616 0
vt 1.70852494239807 -0.03570413589478 0
vt 0.17951163649559 0.09711182117462 0
vt 3.29212546348572 -0.15975117683411 0
vt 0.55664926767349 0.98903685808182 0
vt 0.50760960578918 0.74465477466583 0
vt 4.22083425521851 -4.17796897888184 0
vt 0.00760963279754 0.09309792518616 0
vt 1.70802915096283 -0.03633499145508 0
vt 0.05664927884936 0.17307543754578 0
vt 0.05386318266392 0.17307543754578 0
vt 0.86632251739502 3.74360990524292 0
vt 0.21545131504536 0.01497709751129 0
vt 0.21266523003578 0.01096320152283 0
vt 0.21211017668247 0.01497709751129 0
vt 0.36434563994408 0.74390667676926 0
vt 0.01151125598699 0.01096320152283 0
vt 0.01429735217243 0.01497709751129 0
vt 0.60629856586456 2.798415184021 0
vt 0.01429735217243 0.03906047344208 0
vt 0.21211017668247 0.03906047344208 0
vt 0.56364119052887 2.67145562171936 0
vt 0.21545131504536 0.03906047344208 0
vt 1.67129838466644 -0.08081793785095 0
vt 0.21266523003578 0.04307436943054 0
vt 1.33550679683685 3.15683269500732 0
vt 0.01151125598699 0.04307436943054 0
vt 3.76371788978577 -5.0468864440918 0
vt 0.00760963279754 0.03906047344208 0
vt 0.3869754076004 1.54043531417847 0
vt 0.75780326128006 0.98903685808182 0
vt 0.76170486211777 0.98903685808182 0
vt 4.22997283935547 -4.18248844146729 0
vt 0.3447497189045 0.14713525772095 0
vt 0.57397842407227 0.14713525772095 0
vt 0.57397842407227 0.12305188179016 0
vt 1.41652369499207 1.53347980976105 0
vt 0.25780323147774 0.17307543754578 0
vt 0.49071979522705 0.50332278013229 0
vt 0.85200977325439 3.75475215911865 0
vt 0.34164595603943 0.1190379858017 0
vt 0.3447497189045 0.12305188179016 0
vt 2.9062602519989 1.6649911403656 0
vt 2.95624852180481 -2.29041719436646 0
vt 0.34164595603943 0.15114915370941 0
vt 1.36022222042084 -2.1766471862793 0
vt 0.00760963279754 0.01497709751129 0
vt 1.01586925983429 3.10294198989868 0
vt 1.06566786766052 1.42595887184143 0
vt 4.22983312606812 -4.18228054046631 0
vt 4.22983312606812 -4.20698165893555 0
vt 0.8619059920311 3.75449562072754 0
vt 0.85196071863174 3.75449562072754 0
vt 4.22088432312012 -4.22015571594238 0
vt 0.00843998603523 0.12305188179016 0
vt 2.94841957092285 -2.27283620834351 0
vt 0.49239036440849 0.5110776424408 0
vt 0.8518180847168 3.75451946258545 0
vt 0.00760963279754 0.12305188179016 0
vt 3.57764267921448 -3.83621788024902 0
vt 0.50928562879562 0.73690795898438 0
vt 3.67660927772522 -3.03837490081787 0
vt 3.24718570709229 -3.86068058013916 0
vt 0.84672677516937 3.73192119598389 0
vt 1.70816838741302 -0.03659272193909 0
vt 0.55386316776276 0.98903685808182 0
vt 4.22544240951538 -4.17137813568115 0
vt 0.00760963279754 0.06901443004608 0
vt 1.70426774024963 -0.02699303627014 0
vt 0.00760963279754 0.41745758056641 0
vt 0.86367124319077 3.73216199874878 0
vt 0.61053174734116 2.78789877891541 0
vt 0.55940800905228 2.68198037147522 0
vt 1.67165493965149 -0.07992911338806 0
vt 3.76794719696045 -5.05740261077881 0
vt 0.99071979522705 0.65878957509995 0
vt 4.22997283935547 -4.20686149597168 0
vt 1.40958631038666 1.55072355270386 0
vt 0.26170486211777 0.17307543754578 0
vt 0.86182188987732 3.75475215911865 0
vt 2.95589184761047 -2.29130840301514 0
vt 1.06530570983887 1.42506790161133 0
vt 4.22085618972778 -4.21986675262451 0
# 117 texture coordinates

o Mesh111_Group110_Model
usemtl Mesh111_Group110_Model
f 7/3/3 2/2/2 1/1/1
f 9/7/4 7/6/4 6/5/4
f 8/11/7 10/10/6 11/9/5
f 8/11/7 12/13/8 10/10/6
f 6/17/10 13/16/9 12/15/8
f 6/20/10 1/1/1 13/19/9
f 13/19/9 1/1/1 5/22/11
f 12/26/12 13/25/12 14/24/12
f 15/29/14 16/28/13 10/10/6
f 15/33/14 17/32/15 16/31/13
f 14/24/17 18/35/16 17/32/15
f 14/24/17 5/37/11 18/35/16
f 18/40/16 5/22/11 4/39/18
f 17/32/19 18/35/19 19/42/19
f 20/45/21 21/44/20 16/28/13
f 22/49/22 21/48/20 20/47/21
f 23/52/24 24/51/23 21/48/20
f 22/49/25 25/55/25 26/54/25
f 22/49/22 20/47/21 19/57/26
f 25/55/27 19/57/26 4/59/18
f 25/55/27 4/59/18 3/61/28
f 26/54/30 3/61/28 27/63/29
f 27/66/29 3/65/28 2/2/2
f 30/70/31 27/69/31 28/68/31
f 29/73/32 11/9/5 24/72/23
f 29/76/32 9/7/33 11/75/5
f 28/68/34 7/6/3 9/7/33
f 28/68/34 2/79/2 7/6/3
f 23/52/24 30/81/35 24/51/23
f 26/54/30 27/63/29 30/81/35
f 3/65/36 4/39/36 5/22/36
f 2/2/36 3/65/36 5/22/36
f 24/72/37 16/28/37 21/44/37
f 11/9/37 10/10/37 16/28/37
f 6/20/10 7/3/3 1/1/1
f 8/89/4 9/7/4 6/5/4
f 9/91/33 8/11/7 11/9/5
f 8/89/7 6/5/10 12/93/8
f 14/95/17 13/19/9 5/22/11
f 15/33/12 12/26/12 14/24/12
f 12/13/8 15/29/14 10/10/6
f 15/33/14 14/24/17 17/32/15
f 19/100/26 18/40/16 4/39/18
f 20/102/19 17/32/19 19/42/19
f 17/104/15 20/45/21 16/28/13
f 22/49/22 23/52/24 21/48/20
f 23/52/25 22/49/25 26/54/25
f 25/55/27 22/49/22 19/57/26
f 26/54/30 25/55/27 3/61/28
f 28/110/34 27/66/29 2/2/2
f 29/76/31 30/70/31 28/68/31
f 30/113/35 29/73/32 24/72/23
f 29/76/32 28/68/34 9/7/33
f 23/52/24 26/54/30 30/81/35
f 1/1/36 2/2/36 5/22/36
f 24/72/37 11/9/37 16/28/37

