# WaveFront *.obj file (generated by CINEMA 4D)

mtllib ./Triangle_11.mtl

v 28 104.25 -229.28851318359375
v 21.400390625 104.25 -229.28851318359375
v 21.400390625 104.25 -116.28549957275391
v 91.2001953125 104.25 -116.28549957275391
v 91.2001953125 104.25 -93.39350128173828
v 148.5 104.25 -108.75949859619141
v 27.5 103.75 -229.78851318359375
v 21.400390625 103.75 -229.78851318359375
v 27.5 100.75 -229.78851318359375
v 21.400390625 100.75 -229.78851318359375
v 28 100.25 -229.28851318359375
v 21.400390625 100.25 -229.28851318359375
v 28.7001953125 100.75 -229.28851318359375
v 28.7001953125 103.75 -229.28851318359375
v 149.1005859375 103.75 -108.90952301025391
v 149.1005859375 100.75 -108.90952301025391
v 148.5 100.25 -108.75949859619141
v 148.900390625 100.75 -108.35150909423828
v 148.900390625 103.75 -108.35150909423828
v 91.2001953125 103.75 -92.87549591064453
v 91.2001953125 100.75 -92.87549591064453
v 91.2001953125 100.25 -93.39350128173828
v 90.7001953125 100.75 -93.25949859619141
v 90.7001953125 103.75 -93.25949859619141
v 90.7001953125 103.75 -115.28549957275391
v 90.7001953125 100.75 -115.28549957275391
v 91.2001953125 100.25 -116.28549957275391
v 90.2001953125 100.75 -115.78549957275391
v 21.400390625 100.75 -115.78549957275391
v 21.400390625 100.25 -116.28549957275391
v 90.2001953125 103.75 -115.78549957275391
v 21.400390625 103.75 -115.78549957275391
v 20.900390625 103.75 -116.28549957275391
v 20.900390625 103.75 -229.28851318359375
v 20.900390625 100.75 -229.28851318359375
v 20.900390625 100.75 -116.28549957275391
# 36 vertices

vn 0.28947272896767 0.6540715098381 -0.69885337352753
vn -0.4765123128891 0.73883152008057 -0.4765123128891
vn -0.4765123128891 0.4765123128891 -0.73883152008057
vn 0 0 -1
vn -0.4765123128891 -0.73883152008057 -0.4765123128891
vn 0.28947272896767 -0.6540715098381 -0.69885337352753
vn 0.25609841942787 -0.42122641205788 -0.87004709243774
vn 0.4341097176075 -0.42123425006866 -0.79631054401398
vn 0.4341097176075 0.42123425006866 -0.79631054401398
vn 0.25609841942787 0.42122641205788 -0.87004709243774
vn 0.53579521179199 0.83205300569534 0.14356625080109
vn 0.70710676908493 0 -0.70710676908493
vn 0.53579521179199 -0.83205300569534 0.14356625080109
vn 0.83512604236603 -0.54959440231323 -0.0225937794894
vn 0.71192687749863 -0.54960966110229 0.43713769316673
vn 0.71192687749863 0.54960966110229 0.43713769316673
vn 0.83512604236603 0.54959440231323 -0.0225937794894
vn -0.37950536608696 0.7818860411644 0.49460074305534
vn 0.2588178217411 0 0.96592617034912
vn -0.37950536608696 -0.7818860411644 0.49460074305534
vn -0.33944451808929 -0.50826048851013 0.7914851307869
vn -0.67664909362793 -0.50826811790466 0.53273773193359
vn -0.67664909362793 0.50826811790466 0.53273773193359
vn -0.33944451808929 0.50826048851013 0.7914851307869
vn -0.37047389149666 0.85176181793213 0.37047389149666
vn -1 0 0
vn -0.37047389149666 -0.85176181793213 0.37047389149666
vn -0.66994976997375 -0.62932401895523 0.39385095238686
vn -0.39385095238686 -0.62932401895523 0.66994976997375
vn -0.4765123128891 -0.73883152008057 0.4765123128891
vn -0.4765123128891 -0.4765123128891 0.73883152008057
vn 0 0 1
vn -0.66994976997375 0.62932401895523 0.39385095238686
vn -0.39385095238686 0.62932401895523 0.66994976997375
vn -0.4765123128891 0.73883152008057 0.4765123128891
vn -0.73883152008057 0.4765123128891 0.4765123128891
vn -0.4765123128891 0.4765123128891 0.73883152008057
vn -0.73883152008057 -0.4765123128891 -0.4765123128891
vn -0.4765123128891 -0.4765123128891 -0.73883152008057
vn -0.73883152008057 0.4765123128891 -0.4765123128891
vn -0.73883152008057 -0.4765123128891 0.4765123128891
vn 0 1 0
vn 0 -1 0
# 43 normals

vt 0.4676618874073 0.13155519962311 0
vt 0.49275308847427 0.13155519962311 0
vt 0.49275308847427 0.1285001039505 0
vt 2.74411749839783 -3.63642501831055 0
vt 0.46956285834312 0.1285001039505 0
vt 0.49275308847427 0.11016964912415 0
vt 0.63469034433365 2.02832436561584 0
vt 0.49275308847427 0.10711455345154 0
vt 0.4676618874073 0.10711455345154 0
vt 0.46956285834312 0.11016964912415 0
vt 0.66704851388931 2.12072229385376 0
vt 0.46499982476234 0.11016964912415 0
vt 0.93606001138687 2.33854961395264 0
vt 0.46499982476234 0.1285001039505 0
vt 0.96855884790421 1.10435914993286 0
vt 0.52071559429169 1.18739008903503 0
vt 0.4904697239399 0.25190222263336 0
vt 0.03233810141683 0.98835337162018 0
vt 0.03500019013882 0.98835337162018 0
vt 2.85062503814697 -3.54083061218262 0
vt 0.00724689941853 0.1285001039505 0
vt 0.96819007396698 1.10394370555878 0
vt 0.53233808279037 0.15484845638275 0
vt 0.99046969413757 0.89129960536957 0
vt 0.99275308847427 0.89038294553757 0
vt 1.18011426925659 2.90577101707458 0
vt 0.99199199676514 0.89379251003265 0
vt 3.2160849571228 1.05781066417694 0
vt 0.51028770208359 0.01775681972504 0
vt 0.51028770208359 0.03608727455139 0
vt 0.51104879379272 0.03608727455139 0
vt 2.81931519508362 -3.77216529846191 0
vt 0.49199196696281 0.24940931797028 0
vt 0.49275308847427 0.25281894207001 0
vt 1.36868155002594 -3.56755542755127 0
vt 0.27262032032013 0.15801358222961 0
vt 2.80045890808105 -3.58225059509277 0
vt 0.2909160554409 0.03608727455139 0
vt 2.81901478767395 -3.77272701263428 0
vt 0.77262032032013 0.98518824577332 0
vt 0.77262032032013 0.98835337162018 0
vt 1.18349039554596 2.88904166221619 0
vt 0.77071934938431 0.9860070347786 0
vt 2.59412479400635 -3.47549819946289 0
vt 0.28901508450508 0.01775681972504 0
vt 0.28901508450508 0.03608727455139 0
vt 1.76708376407623 -0.85564088821411 0
vt 0.27071934938431 0.15719485282898 0
vt 0.27262032032013 0.15484845638275 0
vt 3.00532531738281 -1.83954286575317 0
vt 0.27262032032013 0.29788732528687 0
vt 2.84454202651978 -3.58545303344727 0
vt 0.45707225799561 0.08382129669189 0
vt 0.54081338644028 0.08382129669189 0
vt 0.54081338644028 0.06549084186554 0
vt 1.84251928329468 -0.80846309661865 0
vt 0.77262032032013 0.84531456232071 0
vt 0.77071934938431 0.85142469406128 0
vt 1.1854110956192 2.89397239685059 0
vt 0.76881837844849 0.84836965799332 0
vt 2.22671842575073 -3.97039031982422 0
vt 0.27452129125595 0.01164662837982 0
vt 0.00914786104113 0.01164662837982 0
vt 0.00914786104113 0.01470172405243 0
vt 0.52933233976364 1.99810707569122 0
vt 0.00914786104113 0.03303217887878 0
vt 0.27071934938431 0.03303217887878 0
vt 0.27071934938431 0.01470172405243 0
vt 2.58797836303711 -3.83842372894287 0
vt 0.45707225799561 0.06549084186554 0
vt 0.45517131686211 0.06549084186554 0
vt 1.84066021442413 -0.8033549785614 0
vt 0.27071934938431 0.29177713394165 0
vt 0.26881840825081 0.29483222961426 0
vt 3.17724466323853 -0.83931040763855 0
vt 0.00914786104113 0.03608727455139 0
vt 0.27452129125595 0.03608727455139 0
vt 2.61150097846985 -3.77316665649414 0
vt 0.00724689941853 0.03303217887878 0
vt 2.69082427024841 -1.70769596099854 0
vt 0.00914786104113 0.08382129669189 0
vt 0.43877655267715 0.08382129669189 0
vt 0.43877655267715 0.08076620101929 0
vt 1.6235556602478 -0.80564618110657 0
vt 0.00914786104113 0.08076620101929 0
vt 0.43877655267715 0.06243574619293 0
vt 1.62331235408783 -0.80632448196411 0
vt 0.43877655267715 0.05938065052032 0
vt 0.00914786104113 0.05938065052032 0
vt 0.00914786104113 0.06243574619293 0
vt 0.65069806575775 2.07132649421692 0
vt 0.4946540594101 0.11016964912415 0
vt 0.50063002109528 0.13560116291046 0
vt 0.00724689941853 0.06243574619293 0
vt 0.00724689941853 0.08076620101929 0
vt 0.6181520819664 1.98112833499908 0
vt 0.4946540594101 0.1285001039505 0
vt 1.3143208026886 2.39087057113647 0
vt 0.00724689941853 0.01470172405243 0
vt 1.81608939170837 -4.13273143768311 0
vt 0.44067752361298 0.08076620101929 0
vt 1.62362027168274 -0.80578684806824 0
vt 2.85053396224976 -3.54067134857178 0
vt 2.84648108482361 -3.58039951324463 0
vt 0.00724689941853 0.29788732528687 0
vt 2.84080100059509 -3.56465911865234 0
vt 1.18542635440826 2.89433908462524 0
vt 0.50724691152573 0.15484845638275 0
vt 0.50724691152573 0.84531456232071 0
vt 1.19110643863678 2.87859296798706 0
vt 2.74461531639099 -3.6378002166748 0
vt 0.63419234752655 2.02970552444458 0
vt 0.6675466299057 2.11934161186218 0
vt 0.96831172704697 1.10368704795837 0
vt 2.85062503814697 -3.59511947631836 0
vt 0.00724689941853 0.11016964912415 0
vt 0.95433962345123 1.14233374595642 0
vt 0.53500020503998 0.15484845638275 0
vt 1.19970560073853 2.90577101707458 0
vt 0.51104879379272 0.01775681972504 0
vt 2.81907176971436 -3.77284336090088 0
vt 2.79559230804443 -3.568772315979 0
vt 0.2909160554409 0.01775681972504 0
vt 2.81415200233459 -3.75924777984619 0
vt 1.18005001544952 2.90555739402771 0
vt 1.76684045791626 -0.85631918907166 0
vt 2.84633278846741 -3.58048534393311 0
vt 1.84072482585907 -0.80349564552307 0
vt 1.1836189031601 2.88900470733643 0
vt 0.52373397350311 2.01362705230713 0
vt 2.58238220214844 -3.82290935516357 0
vt 0.45517131686211 0.08382129669189 0
vt 1.84090352058411 -0.80267691612244 0
vt 2.6059045791626 -3.75765323638916 0
vt 1.61436259746552 -0.78016090393066 0
vt 1.61411929130554 -0.78083896636963 0
vt 0.64150238037109 2.04584097862244 0
vt 0.61790800094604 1.98045027256012 0
vt 0.44067752361298 0.06243574619293 0
vt 1.62337696552277 -0.80645895004272 0
vt 0.00724689941853 0.98835337162018 0
vt 2.84999418258667 -3.53917407989502 0
# 142 texture coordinates

o Mesh116_Group110_Model
usemtl Mesh116_Group110_Model
f 8/3/3 2/2/2 1/1/1
f 10/6/4 8/3/4 7/5/4
f 9/10/7 11/9/6 12/8/5
f 9/10/7 13/12/8 11/9/6
f 7/5/10 14/14/9 13/12/8
f 7/5/10 1/1/1 14/14/9
f 14/19/9 1/18/1 6/17/11
f 13/12/12 14/14/12 15/21/12
f 16/25/14 17/24/13 11/23/6
f 16/25/14 18/27/15 17/24/13
f 15/31/17 19/30/16 18/29/15
f 15/34/17 6/17/11 19/33/16
f 19/33/16 6/17/11 5/36/18
f 18/29/19 19/30/19 20/38/19
f 21/41/21 22/40/20 17/24/13
f 21/41/21 23/43/22 22/40/20
f 20/38/24 24/46/23 23/45/22
f 20/49/24 5/36/18 24/48/23
f 24/48/23 5/36/18 4/51/25
f 23/55/26 24/54/26 25/53/26
f 26/58/28 27/57/27 22/40/20
f 28/60/29 27/57/27 26/58/28
f 29/64/31 30/63/30 27/62/27
f 28/68/32 31/67/32 32/66/32
f 28/71/29 26/70/28 25/53/33
f 31/74/34 25/73/33 4/51/25
f 31/67/34 4/77/25 3/76/35
f 32/66/37 3/76/35 33/79/36
f 33/83/36 3/82/35 2/81/2
f 36/86/26 33/83/26 34/85/26
f 35/90/38 12/89/5 30/88/30
f 35/92/38 10/6/39 12/8/5
f 34/85/40 8/95/3 10/94/39
f 34/97/40 2/2/2 8/3/3
f 29/64/31 36/99/41 30/63/30
f 32/101/37 33/83/36 36/86/41
f 1/18/42 4/51/42 6/17/42
f 4/51/42 5/36/42 6/17/42
f 3/105/42 4/51/42 1/18/42
f 27/57/43 17/24/43 22/40/43
f 27/57/43 11/23/43 17/24/43
f 30/109/43 12/108/43 11/23/43
f 7/5/10 8/3/3 1/1/1
f 9/10/4 10/6/4 7/5/4
f 10/6/39 9/10/7 12/8/5
f 9/10/7 7/5/10 13/12/8
f 15/34/17 14/19/9 6/17/11
f 16/116/12 13/12/12 15/21/12
f 13/118/8 16/25/14 11/23/6
f 16/120/14 15/31/17 18/29/15
f 20/49/24 19/33/16 5/36/18
f 21/123/19 18/29/19 20/38/19
f 18/27/15 21/41/21 17/24/13
f 21/123/21 20/38/24 23/45/22
f 25/73/33 24/48/23 4/51/25
f 26/70/26 23/55/26 25/53/26
f 23/43/22 26/58/28 22/40/20
f 28/68/29 29/64/31 27/62/27
f 29/64/32 28/68/32 32/66/32
f 31/132/34 28/71/29 25/53/33
f 32/66/37 31/67/34 3/76/35
f 34/85/40 33/83/36 2/81/2
f 35/90/26 36/86/26 34/85/26
f 36/86/41 35/90/38 30/88/30
f 35/90/38 34/85/40 10/94/39
f 29/139/31 32/101/37 36/86/41
f 2/141/42 3/105/42 1/18/42
f 27/57/43 30/109/43 11/23/43

