# WaveFront *.obj file (generated by CINEMA 4D)

mtllib ./Triangle_1.mtl

v 407.6005859375 103.75 23.11248016357422
v 407.6005859375 100.75 23.11248016357422
v 329.1005859375 100.75 44.15848541259766
v 329.1005859375 103.75 44.15848541259766
v 408 103.75 23.52050018310547
v 408 100.75 23.52050018310547
v 407.5 104.25 23.66948699951172
v 329.2001953125 104.25 44.64148712158203
v 312.30078125 103.75 48.65549468994141
v 312.1005859375 104.25 49.21349334716797
v 312.30078125 100.75 48.65549468994141
v 311.6005859375 100.75 49.36249542236328
v 311.6005859375 103.75 49.36249542236328
v 297.5 100.75 102.07349395751953
v 297.5 103.75 102.07349395751953
v 312.1005859375 100.25 49.21349334716797
v 298 100.25 102.07349395751953
v 329.2001953125 100.25 44.64148712158203
v 407.5 100.25 23.66948699951172
v 387 100.75 102.07349395751953
v 386.5 100.25 102.07349395751953
v 387 103.75 102.07349395751953
v 386.5 104.25 102.07349395751953
v 298 104.25 102.07349395751953
v 297.80078125 103.75 102.57349395751953
v 386.30078125 103.75 102.57349395751953
v 297.80078125 100.75 102.57349395751953
v 386.30078125 100.75 102.57349395751953
# 28 vertices

vn -0.2588178217411 0 -0.96592617034912
vn 0.73454278707504 -0.54960238933563 -0.39797499775887
vn 0.73454278707504 0.54960238933563 -0.39797499775887
vn 0.39797499775887 0.54960238933563 -0.73454278707504
vn 0.39222911000252 0.83205324411392 -0.39222911000252
vn -0.18300370872021 0.70710802078247 -0.68301379680634
vn -0.52154368162155 0.67526614665985 -0.52154368162155
vn -0.54060888290405 0.43432462215424 -0.72048884630203
vn -0.54060888290405 -0.43432462215424 -0.72048884630203
vn -0.72048884630203 0.43432462215424 -0.54060888290405
vn -0.96592617034912 0 -0.2588178217411
vn -0.49460074305534 -0.7818860411644 0.37950536608696
vn -0.52154368162155 -0.67526614665985 -0.52154368162155
vn -0.72048884630203 -0.43432462215424 -0.54060888290405
vn -0.18300370872021 -0.70710802078247 -0.68301379680634
vn 0.39222911000252 -0.83205324411392 -0.39222911000252
vn 0.39797499775887 -0.54960238933563 -0.73454278707504
vn 0.43269938230515 -0.7033942937851 0.56392168998718
vn 0.65898758172989 -0.4523566365242 0.60092335939407
vn 0.96592617034912 0 0.2588178217411
vn 0.43269938230515 0.7033942937851 0.56392168998718
vn -0.49460074305534 0.7818860411644 0.37950536608696
vn 0.40985405445099 0.45235511660576 0.79208236932755
vn 0 0 1
vn -0.53273773193359 -0.50826811790466 0.67664909362793
vn -0.7914851307869 -0.50826048851013 0.33944451808929
vn -0.7914851307869 0.50826048851013 0.33944451808929
vn -0.53273773193359 0.50826811790466 0.67664909362793
vn 0.40985405445099 -0.45235511660576 0.79208236932755
vn 0.65898758172989 0.4523566365242 0.60092335939407
vn 0 1 0
vn 0 -1 0
# 32 normals

vt 0.44436037540436 0.0274566411972 0
vt 0.44436037540436 0.01054430007935 0
vt 0.0076241758652 0.01054430007935 0
vt 0.94486916065216 1.77954804897308 0
vt 0.99010580778122 0.01054430007935 0
vt 0.99010580778122 0.0274566411972 0
vt 0.99237585067749 0.0274566411972 0
vt 3.41798090934753 -1.63585042953491 0
vt 0.62239295244217 0.98997431993484 0
vt 0.6196112036705 0.98913443088532 0
vt 0.6201708316803 0.99227452278137 0
vt 0.22504307329655 0.45111978054047 0
vt 0.18398879468441 0.87090575695038 0
vt 0.18343462049961 0.87362867593765 0
vt 3.68335843086243 -2.73425531387329 0
vt 0.08885480463505 0.84513133764267 0
vt 0.08996859937906 0.84827697277069 0
vt 3.68082141876221 -2.73170185089111 0
vt 0.53782641887665 0.0274566411972 0
vt 0.95840859413147 1.76181268692017 0
vt 0.63764131069183 0.97254341840744 0
vt 0.63764131069183 0.9894557595253 0
vt 0.64157474040985 0.9894557595253 0
vt 1.12198209762573 2.7236316204071 0
vt 0.93483334779739 0.9894557595253 0
vt 0.93483334779739 0.97254341840744 0
vt 2.20689105987549 0.82635587453842 0
vt 0.93483334779739 0.96972471475601 0
vt 0.64074575901031 0.96972471475601 0
vt 0.64157474040985 0.97254341840744 0
vt 1.09084033966064 2.82854437828064 0
vt 0.9698098897934 1.0964343547821 0
vt 0.08885480463505 0.22805154323578 0
vt 0.18398879468441 0.20227706432343 0
vt 0.18343462049961 0.1995542049408 0
vt 0.54484176635742 2.16827058792114 0
vt 0.6196112036705 0.08404850959778 0
vt 0.6201708316803 0.08090841770172 0
vt 0.53799474239349 2.18899941444397 0
vt 0.62239295244217 0.0832085609436 0
vt 1.79545116424561 2.70582413673401 0
vt 0.50277733802795 0.52604722976685 0
vt 0.50555908679962 0.52604722976685 0
vt 0.5309591293335 2.16827058792114 0
vt 0.55307477712631 0.0274566411972 0
vt 3.41754126548767 -1.63636922836304 0
vt 0.50110393762588 0.06545734405518 0
vt 0.61793780326843 0.06545734405518 0
vt 0.6207195520401 0.06263864040375 0
vt 2.92869663238525 -1.59398460388184 0
vt 0.01040593534708 0.5471356511116 0
vt 0.50277733802795 0.5471356511116 0
vt 0.50166898965836 0.54431694746017 0
vt 3.68315815925598 -2.75837230682373 0
vt 0.0076241758652 0.06263864040375 0
vt 0.49999555945396 0.06263864040375 0
vt 0.49999555945396 0.04572629928589 0
vt 4.05545377731323 -3.56433582305908 0
vt 0.01040593534708 0.52604722976685 0
vt 0.00929757766426 0.52886593341827 0
vt 0.54152143001556 2.14957642555237 0
vt 0.0076241758652 0.52604722976685 0
vt 2.21964716911316 -3.58545207977295 0
vt 0.93761509656906 0.9894557595253 0
vt 2.20733618736267 0.82686549425125 0
vt 0.0076241758652 0.5471356511116 0
vt 0.00929757766426 0.54431694746017 0
vt 3.82671928405762 -0.28681254386902 0
vt 3.67264866828918 -2.73972940444946 0
vt 0.64074575901031 0.99227452278137 0
vt 2.04898715019226 2.98232841491699 0
vt 0.50110393762588 0.04290759563446 0
vt 0.50388568639755 0.04572629928589 0
vt 4.24185943603516 -2.15713167190552 0
vt 0.50388568639755 0.06263864040375 0
vt 4.05592679977417 -3.56386184692383 0
vt 3.24641251564026 -3.89713668823242 0
vt 3.67273759841919 -2.73987007141113 0
vt 3.68326950073242 -2.75827646255493 0
vt 0.54160207509995 2.14973449707031 0
vt 0.53106594085693 2.16814637184143 0
vt 0.0076241758652 0.0274566411972 0
vt 0.9452263712883 1.78017401695251 0
vt 0.99237585067749 0.01054430007935 0
vt 3.41761922836304 -1.63647079467773 0
vt 3.69521427154541 -2.74621772766113 0
vt 0.53782641887665 0.01054430007935 0
vt 0.95805138349533 1.76118683815002 0
vt 1.12162494659424 2.72300577163696 0
vt 2.20039296150208 0.83771026134491 0
vt 0.0860730484128 0.22889161109924 0
vt 0.54170948266983 2.14961051940918 0
vt 0.08996859937906 0.22490584850311 0
vt 0.54630440473557 2.16384506225586 0
vt 0.98927688598633 0.00772547721863 0
vt 0.55307477712631 0.01054430007935 0
vt 1.43425261974335 1.89202666282654 0
vt 3.40786075592041 -1.61945104598999 0
vt 2.91901612281799 -1.57706642150879 0
vt 3.67262077331543 -2.73996591567993 0
vt 0.0076241758652 0.04572629928589 0
vt 4.04492235183716 -3.54592895507812 0
vt 0.50166898965836 0.52886593341827 0
vt 0.53098529577255 2.16798830032349 0
vt 0.93761509656906 0.97254341840744 0
vt 2.20697450637817 0.82624143362045 0
vt 4.19861936569214 -2.60265493392944 0
vt 4.05556488037109 -3.56448745727539 0
vt 0.53790068626404 2.18883013725281 0
# 109 texture coordinates

o Mesh106_Group110_Model
usemtl Mesh106_Group110_Model
f 2/3/1 3/2/1 4/1/1
f 1/7/4 5/6/3 6/5/2
f 1/11/4 7/10/5 5/9/3
f 4/14/6 8/13/6 7/10/5
f 9/17/8 10/16/7 8/13/6
f 9/19/1 4/1/1 3/2/1
f 13/23/10 9/22/8 11/21/9
f 14/26/11 15/25/11 13/23/11
f 12/30/14 16/29/13 17/28/12
f 12/30/14 11/21/9 16/29/13
f 3/35/15 18/34/15 16/33/13
f 2/38/17 19/37/16 18/34/15
f 2/38/17 6/40/2 19/37/16
f 20/43/19 21/42/18 19/37/16
f 6/5/20 5/6/20 22/45/20
f 5/49/3 7/48/5 23/47/21
f 26/53/23 23/52/21 24/51/22
f 28/57/24 26/56/24 25/55/24
f 27/60/25 17/59/12 21/42/18
f 27/60/25 14/62/26 17/59/12
f 25/64/28 15/25/27 14/26/26
f 25/67/28 24/51/22 15/66/27
f 15/66/27 24/51/22 10/16/7
f 13/23/10 10/70/7 9/22/8
f 20/73/19 28/57/29 21/72/18
f 22/75/30 26/56/23 28/57/29
f 22/75/30 23/47/21 26/56/23
f 24/51/31 8/13/31 10/16/31
f 23/52/31 7/10/31 8/13/31
f 17/59/32 16/33/32 18/34/32
f 21/42/32 17/59/32 18/34/32
f 1/82/1 2/3/1 4/1/1
f 2/84/17 1/7/4 6/5/2
f 1/11/4 4/14/6 7/10/5
f 4/14/6 9/17/8 8/13/6
f 11/87/1 9/19/1 3/2/1
f 12/30/14 13/23/10 11/21/9
f 12/30/11 14/26/11 13/23/11
f 14/62/26 12/91/14 17/59/12
f 11/93/9 3/35/15 16/33/13
f 3/35/15 2/38/17 18/34/15
f 6/5/2 20/96/19 19/95/16
f 20/96/20 6/5/20 22/45/20
f 22/75/30 5/49/3 23/47/21
f 25/67/28 26/53/23 24/51/22
f 27/101/24 28/57/24 25/55/24
f 28/103/29 27/60/25 21/42/18
f 27/105/25 25/64/28 14/26/26
f 13/23/10 15/25/27 10/70/7
f 20/73/19 22/75/30 28/57/29
f 24/51/31 23/52/31 8/13/31
f 19/37/32 21/42/32 18/34/32

