# WaveFront *.obj file (generated by CINEMA 4D)

mtllib ./Triangle_7.mtl

v 302.5 103.75 44.54349517822266
v 302.5 100.75 44.54349517822266
v 241.900390625 100.75 -16.11652374267578
v 241.900390625 103.75 -16.11652374267578
v 302.400390625 103.75 45.10149383544922
v 302.400390625 100.75 45.10149383544922
v 302 104.25 44.69348907470703
v 241.5 104.25 -15.76349639892578
v 234.80078125 103.75 -23.20652008056641
v 234.6005859375 104.25 -22.64951324462891
v 234.80078125 100.75 -23.20652008056641
v 234.2001953125 100.75 -23.05750274658203
v 234.2001953125 103.75 -23.05750274658203
v 234.6005859375 100.25 -22.64951324462891
v 241.5 100.25 -15.76349639892578
v 302 100.25 44.69348907470703
v 209.7001953125 100.75 69.93149566650391
v 209.900390625 100.25 69.37349700927734
v 209.7001953125 103.75 69.93149566650391
v 209.900390625 104.25 69.37349700927734
v 209.30078125 103.75 69.52248382568359
v 209.30078125 100.75 69.52248382568359
# 22 vertices

vn 0.70710676908493 0 -0.70710676908493
vn 0.71192687749863 -0.54960966110229 0.43713769316673
vn 0.71192687749863 0.54960966110229 0.43713769316673
vn 0.83512604236603 0.54959440231323 -0.0225937794894
vn 0.53579521179199 0.83205300569534 0.14356625080109
vn 0.49998897314072 0.70712238550186 -0.49998897314072
vn -0.14334687590599 0.83183062076569 -0.53619915246964
vn 0.0229070764035 0.54939478635788 -0.83524882793427
vn -0.43670007586479 0.54939079284668 -0.71236425638199
vn -0.43670007586479 -0.54939079284668 -0.71236425638199
vn 0.0229070764035 -0.54939478635788 -0.83524882793427
vn -0.14334687590599 -0.83183062076569 -0.53619915246964
vn 0.49998897314072 -0.70712238550186 -0.49998897314072
vn 0.53579521179199 -0.83205300569534 0.14356625080109
vn 0.83512604236603 -0.54959440231323 -0.0225937794894
vn -0.39219853281975 -0.83227348327637 0.39179229736328
vn -0.39819115400314 -0.54978626966476 0.73428797721863
vn 0.2588178217411 0 0.96592617034912
vn -0.39219853281975 0.83227348327637 0.39179229736328
vn 0 1 0
vn -0.73471248149872 0.54979991912842 0.3973885178566
vn -0.96564894914627 0 -0.25985020399094
vn 0 -1 0
vn -0.73471248149872 -0.54979991912842 0.3973885178566
vn -0.39819115400314 0.54978626966476 0.73428797721863
# 25 normals

vt 0.95675992965698 0.9903889298439 0
vt 0.95675992965698 0.97473484277725 0
vt 0.64008975028992 0.97473484277725 0
vt 1.49390876293182 1.89586627483368 0
vt 0.6371768116951 0.97473484277725 0
vt 0.6371768116951 0.9903889298439 0
vt 0.64008975028992 0.9903889298439 0
vt 3.9211905002594 -2.28271722793579 0
vt 0.6393067240715 0.99299794435501 0
vt 1.91606247425079 -2.25387668609619 0
vt 0.49093323945999 0.63869446516037 0
vt 0.17509841918945 0.95416009426117 0
vt 0.17718861997128 0.95600217580795 0
vt 3.72695803642273 -2.54889869689941 0
vt 0.13908064365387 0.99009144306183 0
vt 0.1401257365942 0.99299794435501 0
vt 1.25543856620789 1.63967204093933 0
vt 0.50755399465561 0.91280943155289 0
vt 0.50755399465561 0.92846351861954 0
vt 0.54461687803268 0.92846351861954 0
vt 1.38812518119812 1.8181928396225 0
vt 0.54775220155716 0.92846351861954 0
vt 0.54775220155716 0.91280943155289 0
vt 0.54461687803268 0.91280943155289 0
vt 1.97788536548614 0.80033504962921 0
vt 0.13699044287205 0.00777971744537 0
vt 0.13908064365387 0.00990855693817 0
vt 0.1401257365942 0.00700211524963 0
vt 0.42760106921196 1.46480667591095 0
vt 0.17509841918945 0.04583990573883 0
vt 0.17718861997128 0.04399788379669 0
vt 0.65246659517288 1.9938040971756 0
vt 0.49093323945999 0.36130559444427 0
vt 0.493543446064 0.36052286624908 0
vt 0.63891077041626 1.9938040971756 0
vt 0.6393067240715 0.97212582826614 0
vt 3.89627885818481 1.16022181510925 0
vt 0.01013549137861 0.49008631706238 0
vt 0.00909039005637 0.49299800395966 0
vt 0.64640206098557 1.97099089622498 0
vt 0.50755399465561 0.9903889298439 0
vt 3.92078328132629 -2.28319692611694 0
vt 0.01013549137861 0.50991374254227 0
vt 0.49302342534065 0.63656550645828 0
vt 3.67019152641296 -2.52306413650513 0
vt 3.7268328666687 -2.54889869689941 0
vt 0.00700528454036 0.50913631916046 0
vt 1.85631823539734 0.60383081436157 0
vt 0.50755399465561 0.95812171697617 0
vt 0.9908595085144 0.95812171697617 0
vt 0.9908595085144 0.94246762990952 0
vt 2.2985200881958 0.81143224239349 0
vt 0.65413922071457 1.9936215877533 0
vt 0.63895672559738 1.99363720417023 0
vt 0.00700528454036 0.49086368083954 0
vt 2.34679245948792 -3.55178546905518 0
vt 0.99299472570419 0.95812171697617 0
vt 2.29892730712891 0.81191283464432 0
vt 0.00909039005637 0.50700211524963 0
vt 3.99332976341248 -0.55489063262939 0
vt 0.13699044287205 0.99222034215927 0
vt 1.08350443840027 2.75339007377625 0
vt 1.49424290657043 1.89644551277161 0
vt 3.92085671424866 -2.28329610824585 0
vt 0.493543446064 0.63947713375092 0
vt 3.72695803642273 -2.57226467132568 0
vt 1.25432145595551 1.64160263538361 0
vt 1.38779103755951 1.81761372089386 0
vt 1.97821938991547 0.80091273784637 0
vt 0.6540510058403 1.9938040971756 0
vt 0.49302342534065 0.36343455314636 0
vt 0.63882255554199 1.9936215877533 0
vt 0.50755399465561 0.97473484277725 0
vt 3.91006588935852 -2.26472568511963 0
vt 3.65947937965393 -2.50459241867065 0
vt 3.7268328666687 -2.57218647003174 0
vt 1.84560596942902 0.62229532003403 0
vt 0.50755399465561 0.94246762990952 0
vt 2.28780770301819 0.82989621162415 0
vt 0.6465784907341 1.97099089622498 0
vt 0.65246659517288 1.99363720417023 0
vt 0.99299472570419 0.94246762990952 0
vt 2.29859328269958 0.8113352060318 0
# 83 texture coordinates

o Mesh112_Group110_Model
usemtl Mesh112_Group110_Model
f 2/3/1 3/2/1 4/1/1
f 1/7/4 5/6/3 6/5/2
f 1/7/4 7/9/5 5/6/3
f 4/13/6 8/12/6 7/11/5
f 9/16/8 10/15/7 8/12/6
f 9/20/1 4/19/1 3/18/1
f 11/24/11 12/23/10 13/22/9
f 11/28/11 14/27/12 12/26/10
f 3/31/13 15/30/13 14/27/12
f 2/34/15 16/33/14 15/30/13
f 2/3/15 6/5/2 16/36/14
f 17/39/17 18/38/16 16/33/14
f 6/5/18 5/6/18 19/41/18
f 5/44/3 7/11/5 20/43/19
f 8/12/20 10/15/20 20/43/20
f 21/47/21 20/43/19 10/15/7
f 22/51/22 21/50/22 13/49/22
f 12/26/10 14/27/12 18/38/16
f 16/33/23 18/38/23 14/27/23
f 17/39/17 22/55/24 18/38/16
f 19/57/25 21/50/21 22/51/24
f 19/59/25 20/43/19 21/47/21
f 9/16/8 13/61/9 10/15/7
f 1/7/1 2/3/1 4/1/1
f 2/3/15 1/7/4 6/5/2
f 1/65/4 4/13/6 7/11/5
f 4/13/6 9/16/8 8/12/6
f 11/24/1 9/20/1 3/18/1
f 9/20/8 11/24/11 13/22/9
f 11/28/11 3/31/13 14/27/12
f 3/31/13 2/34/15 15/30/13
f 6/71/2 17/39/17 16/33/14
f 17/73/18 6/5/18 19/41/18
f 19/59/25 5/44/3 20/43/19
f 7/11/20 8/12/20 20/43/20
f 13/61/9 21/47/21 10/15/7
f 12/78/22 22/51/22 13/49/22
f 22/55/24 12/26/10 18/38/16
f 15/30/23 16/33/23 14/27/23
f 17/82/17 19/57/25 22/51/24

