# WaveFront *.obj file (generated by CINEMA 4D)

mtllib ./Triangle_3.mtl

v 293.80078125 104.25 -229.28851318359375
v 290 104.25 -229.28851318359375
v 266.1005859375 104.25 -140.28048706054688
v 358.1005859375 104.25 -164.927490234375
v 293.30078125 103.75 -229.78851318359375
v 290.1005859375 103.75 -229.78851318359375
v 293.30078125 100.75 -229.78851318359375
v 290.1005859375 100.75 -229.78851318359375
v 293.80078125 100.25 -229.28851318359375
v 290 100.25 -229.28851318359375
v 294.5 100.75 -229.28851318359375
v 294.5 103.75 -229.28851318359375
v 358.7001953125 103.75 -165.07650756835938
v 358.7001953125 100.75 -165.07650756835938
v 358.1005859375 100.25 -164.927490234375
v 358.5 100.75 -164.51950073242188
v 358.5 103.75 -164.51950073242188
v 266 103.75 -139.72250366210938
v 266 100.75 -139.72250366210938
v 266.1005859375 100.25 -140.28048706054688
v 265.6005859375 100.75 -140.13150024414062
v 289.5 100.75 -229.28851318359375
v 265.6005859375 103.75 -140.13150024414062
v 289.5 103.75 -229.28851318359375
# 24 vertices

vn 0 1 0
vn 0.28947272896767 0.6540715098381 -0.69885337352753
vn -0.43269938230515 0.7033942937851 -0.56392168998718
vn -0.40985405445099 0.45235511660576 -0.79208236932755
vn 0 0 -1
vn -0.43269938230515 -0.7033942937851 -0.56392168998718
vn 0.28947272896767 -0.6540715098381 -0.69885337352753
vn 0.25609841942787 -0.42122641205788 -0.87004709243774
vn 0.4341097176075 -0.42123425006866 -0.79631054401398
vn 0.4341097176075 0.42123425006866 -0.79631054401398
vn 0.25609841942787 0.42122641205788 -0.87004709243774
vn 0.53579521179199 0.83205300569534 0.14356625080109
vn 0.70710676908493 0 -0.70710676908493
vn 0.53579521179199 -0.83205300569534 0.14356625080109
vn 0.83512604236603 -0.54959440231323 -0.0225937794894
vn 0.71192687749863 -0.54960966110229 0.43713769316673
vn 0.71192687749863 0.54960966110229 0.43713769316673
vn 0.83512604236603 0.54959440231323 -0.0225937794894
vn -0.39222911000252 0.83205324411392 0.39222911000252
vn 0.2588178217411 0 0.96592617034912
vn -0.39222911000252 -0.83205324411392 0.39222911000252
vn -0.39797499775887 -0.54960238933563 0.73454278707504
vn -0.73454278707504 -0.54960238933563 0.39797499775887
vn -0.65898758172989 -0.4523566365242 -0.60092335939407
vn -0.96592617034912 0 -0.2588178217411
vn -0.39797499775887 0.54960238933563 0.73454278707504
vn -0.73454278707504 0.54960238933563 0.39797499775887
vn -0.65898758172989 0.4523566365242 -0.60092335939407
vn -0.40985405445099 -0.45235511660576 -0.79208236932755
vn 0 -1 0
# 30 normals

vt 0.49919682741165 0.64383119344711 0
vt 0.00967413187027 0.51017397642136 0
vt 0.13684049248695 0.99285191297531 0
vt 3.77045607566834 -2.79134178161621 0
vt 0.52013510465622 0.9290109872818 0
vt 0.54035866260529 0.9290109872818 0
vt 0.53982347249985 0.92629957199097 0
vt 3.96797895431519 -2.46890830993652 0
vt 0.52279555797577 0.92629957199097 0
vt 0.53982347249985 0.91003102064133 0
vt 0.95457249879837 2.66622376441956 0
vt 0.54035866260529 0.90731954574585 0
vt 0.52013510465622 0.90731954574585 0
vt 0.52279555797577 0.91003102064133 0
vt 1.00019812583923 2.74763178825378 0
vt 0.51641464233398 0.91003102064133 0
vt 1.38450694084167 2.94659638404846 0
vt 0.51641464233398 0.92629957199097 0
vt 1.43103289604187 1.83000802993774 0
vt 0.79219090938568 1.90554308891296 0
vt 0.15706406533718 0.99285191297531 0
vt 0.16078454256058 0.99285191297531 0
vt 3.77101469039917 -2.79223680496216 0
vt 0.65132075548172 0.95957577228546 0
vt 0.99298632144928 0.95957577228546 0
vt 0.99298632144928 0.94330716133118 0
vt 1.77547240257263 1.86291551589966 0
vt 0.15706406533718 0.00714814662933 0
vt 0.49919682741165 0.35616886615753 0
vt 0.50238728523254 0.35536074638367 0
vt 0.67317402362823 2.11128807067871 0
vt 0.50132209062576 0.35838139057159 0
vt 3.56753087043762 0.42287266254425 0
vt 0.64835697412491 0.94330716133118 0
vt 0.64835697412491 0.95957577228546 0
vt 4.23769187927246 -2.4637336730957 0
vt 0.50132209062576 0.6416187286377 0
vt 0.50238728523254 0.64463925361633 0
vt 1.66395473480225 -2.81109189987183 0
vt 3.69525027275085 -2.81924247741699 0
vt 0.51641464233398 0.95957577228546 0
vt 4.23727655410767 -2.46423292160034 0
vt 0.00967413187027 0.48982608318329 0
vt 0.00913892500103 0.49285197257996 0
vt 0.68079888820648 2.08760643005371 0
vt 0.00701368274167 0.49063396453857 0
vt 2.37023282051086 -3.70969581604004 0
vt 0.13684049248695 0.00714814662933 0
vt 0.1341800391674 0.00714814662933 0
vt 0.68841207027435 2.11023569107056 0
vt 0.51641464233398 0.99285191297531 0
vt 0.99081009626389 0.99285191297531 0
vt 0.99081009626389 0.97658336162567 0
vt 2.30654048919678 0.88113451004028 0
vt 0.99298632144928 0.99285191297531 0
vt 0.99298632144928 0.97658336162567 0
vt 4.17987489700317 -2.41168403625488 0
vt 0.00913892500103 0.50714808702469 0
vt 0.00701368274167 0.50936603546143 0
vt 4.01481819152832 -0.70598697662354 0
vt 0.66752505302429 0.9290109872818 0
vt 0.67018550634384 0.92629957199097 0
vt 2.00835037231445 0.81518250703812 0
vt 0.54301911592484 0.92629957199097 0
vt 1.68040215969086 2.98987078666687 0
vt 0.95502156019211 2.66667914390564 0
vt 0.54301911592484 0.91003102064133 0
vt 0.76666814088821 1.38386797904968 0
vt 0.68787997961044 2.11111426353455 0
vt 3.77088689804077 -2.79209566116333 0
vt 3.96833539009094 -2.46953821182251 0
vt 0.95421493053436 2.6668529510498 0
vt 1.0005556344986 2.74700260162354 0
vt 1.43069231510162 1.82941162586212 0
vt 3.77101469039917 -2.81794118881226 0
vt 0.65132075548172 0.94330716133118 0
vt 1.76513385772705 1.88109302520752 0
vt 0.16078454256058 0.00714814662933 0
vt 0.68779909610748 2.11128807067871 0
vt 4.23735094070435 -2.46433019638062 0
vt 3.68434238433838 -2.80007266998291 0
vt 0.51641464233398 0.94330716133118 0
vt 4.22636890411377 -2.4450626373291 0
vt 0.67308413982391 2.11109805107117 0
vt 0.99001735448837 0.97387188673019 0
vt 0.51641464233398 0.97658336162567 0
vt 1.29167866706848 2.79065442085266 0
vt 2.29602670669556 0.8996085524559 0
vt 4.18021535873413 -2.41108179092407 0
vt 1.99784171581268 0.83365714550018 0
vt 0.9546799659729 2.66607737541199 0
vt 0.6883093714714 2.11035490036011 0
# 92 texture coordinates

o Mesh108_Group110_Model
usemtl Mesh108_Group110_Model
f 2/3/1 3/2/1 4/1/1
f 6/7/4 2/6/3 1/5/2
f 8/10/5 6/7/5 5/9/5
f 7/14/8 9/13/7 10/12/6
f 7/14/8 11/16/9 9/13/7
f 5/9/11 12/18/10 11/16/9
f 5/9/11 1/5/2 12/18/10
f 12/22/10 1/21/2 4/1/12
f 11/26/13 12/25/13 13/24/13
f 14/30/15 15/29/14 9/28/7
f 14/30/15 16/32/16 15/29/14
f 13/24/18 17/35/17 16/34/16
f 13/38/18 4/1/12 17/37/17
f 17/37/17 4/1/12 3/2/19
f 16/34/20 17/35/20 18/41/20
f 19/44/22 20/43/21 15/29/14
f 21/46/23 20/43/21 19/44/22
f 22/49/24 10/48/6 20/43/21
f 21/53/25 23/52/25 24/51/25
f 21/53/23 19/56/22 18/55/26
f 23/59/27 18/58/26 3/2/19
f 23/62/27 3/61/19 2/6/3
f 24/64/28 2/6/3 6/7/4
f 24/64/28 6/7/4 8/10/29
f 22/67/24 8/10/29 10/12/6
f 9/28/30 15/29/30 20/43/30
f 1/21/1 2/3/1 4/1/1
f 5/9/11 6/7/4 1/5/2
f 7/14/5 8/10/5 5/9/5
f 8/10/29 7/14/8 10/12/6
f 7/14/8 5/9/11 11/16/9
f 13/38/18 12/22/10 4/1/12
f 14/76/13 11/26/13 13/24/13
f 11/78/9 14/30/15 9/28/7
f 14/76/15 13/24/18 16/34/16
f 18/58/26 17/37/17 3/2/19
f 19/82/20 16/34/20 18/41/20
f 16/32/16 19/44/22 15/29/14
f 21/53/23 22/86/24 20/85/21
f 22/86/25 21/53/25 24/51/25
f 23/52/27 21/53/23 18/55/26
f 24/64/28 23/62/27 2/6/3
f 22/67/24 24/64/28 8/10/29
f 10/48/30 9/28/30 20/43/30

