# WaveFront *.obj file (generated by CINEMA 4D)

mtllib ./Triangle_10.mtl

v 525.1005859375 104.25 -7.85050201416016
v 612 104.25 79.03849029541016
v 612 104.25 -31.13251495361328
v 524.5 103.75 -7.70151519775391
v 612 103.75 79.74649810791016
v 524.5 100.75 -7.70151519775391
v 612 100.75 79.74649810791016
v 525.1005859375 100.25 -7.85050201416016
v 612 100.25 79.03849029541016
v 524.7001953125 100.75 -8.25949859619141
v 524.7001953125 103.75 -8.25949859619141
v 612 103.75 -31.65052032470703
v 612 100.75 -31.65052032470703
v 612 100.25 -31.13251495361328
v 612.5 100.75 -31.26651763916016
v 612.5 103.75 -31.26651763916016
v 612.5 103.75 79.53849029541016
v 612.5 100.75 79.53849029541016
# 18 vertices

vn 0 1 0
vn -0.53579521179199 0.83205300569534 -0.14356625080109
vn 0.17662906646729 0.88711416721344 0.42641606926918
vn 0.04625073820353 0.60247838497162 0.79679399728775
vn -0.70710676908493 0 0.70710676908493
vn 0.17662906646729 -0.88711416721344 0.42641606926918
vn -0.53579521179199 -0.83205300569534 -0.14356625080109
vn -0.83512604236603 -0.54959440231323 0.0225937794894
vn -0.71192687749863 -0.54960966110229 -0.43713769316673
vn -0.71192687749863 0.54960966110229 -0.43713769316673
vn -0.83512604236603 0.54959440231323 0.0225937794894
vn 0.37950536608696 0.7818860411644 -0.49460074305534
vn -0.2588178217411 0 -0.96592617034912
vn 0.37950536608696 -0.7818860411644 -0.49460074305534
vn 0.33944451808929 -0.50826048851013 -0.7914851307869
vn 0.67664909362793 -0.50826811790466 -0.53273773193359
vn 0.67664909362793 0.50826811790466 -0.53273773193359
vn 0.33944451808929 0.50826048851013 -0.7914851307869
vn 1 0 0
vn 0.53069734573364 -0.60247999429703 0.59613609313965
vn 0.04625073820353 -0.60247838497162 0.79679399728775
vn 0.53069734573364 0.60247999429703 0.59613609313965
vn 0 -1 0
# 23 normals

vt 0.98937606811523 0.98522007465363 0
vt 0.98937606811523 0.14959013462067 0
vt 0.51117742061615 0.80862963199615 0
vt 4.38275766372681 -4.22134590148926 0
vt 0.98937606811523 0.14421999454498 0
vt 3.89414978027344 -3.1597785949707 0
vt 0.00787247065455 0.03360545635223 0
vt 0.48937606811523 0.03360545635223 0
vt 0.48937606811523 0.01085090637207 0
vt 3.39269042015076 -3.7824125289917 0
vt 0.48937606811523 0.98377895355225 0
vt 0.01117743458599 0.32473945617676 0
vt 0.00787247065455 0.3258695602417 0
vt 0.91885125637054 2.70404171943665 0
vt 0.0089741256088 0.32163727283478 0
vt 0.95708537101746 -2.55017709732056 0
vt 0.49102586507797 0.05530726909637 0
vt 0.49102586507797 0.07806181907654 0
vt 0.49212753772736 0.07806181907654 0
vt 0.78270184993744 2.47296118736267 0
vt 0.50897413492203 0.81173181533813 0
vt 0.50787246227264 0.8074996471405 0
vt 3.41830325126648 2.99457931518555 0
vt 1.28170835971832 3.05043411254883 0
vt 0.01062391977757 0.07806181907654 0
vt 0.78227043151855 2.47226357460022 0
vt 0.48937606811523 0.14814901351929 0
vt 0.48937606811523 0.14421999454498 0
vt 0.9114174246788 2.7352991104126 0
vt 0.49212753772736 0.14713263511658 0
vt 1.85861647129059 3.33292388916016 0
vt 0.00787247065455 0.05530726909637 0
vt 0.00787247065455 0.07806181907654 0
vt 2.33834910392761 -1.22507476806641 0
vt 0.99212753772736 0.98623651266098 0
vt 0.98937606811523 0.98914909362793 0
vt 0.9453552365303 0.85590505599976 0
vt 2.83734583854675 -0.64758706092834 0
vt 0.00787247065455 0.12251818180084 0
vt 0.61762118339539 0.12251818180084 0
vt 0.61762118339539 0.09976363182068 0
vt 2.42138862609863 -1.18130874633789 0
vt 0.49212753772736 0.98757135868073 0
vt 0.89818072319031 2.70432233810425 0
vt 0.48937606811523 0.98914909362793 0
vt 4.37612628936768 -3.45501899719238 0
vt 0.49212753772736 0.03360545635223 0
vt 0.49212753772736 0.01085090637207 0
vt 2.32277297973633 -1.23907041549683 0
vt 0.99212753772736 0.14579772949219 0
vt 3.79647898674011 -5.1396427154541 0
vt 0.91880279779434 2.70428419113159 0
vt 3.87958908081055 -3.12516117095947 0
vt 0.00787247065455 0.01085090637207 0
vt 3.37812972068787 -3.74779605865479 0
vt 0.89825171232224 2.70404171943665 0
vt 0.49212753772736 0.05530726909637 0
vt 0.78234857320786 2.47211909294128 0
vt 1.27106416225433 3.07573699951172 0
vt 0.01062391977757 0.05530726909637 0
vt 0.77162617444992 2.49756669998169 0
vt 0.91894423961639 2.70430731773376 0
vt 2.33799695968628 -1.22591686248779 0
vt 2.82429838180542 -0.61656498908997 0
vt 0.00787247065455 0.09976363182068 0
vt 2.40834140777588 -1.15028667449951 0
vt 0.91123193502426 2.73534440994263 0
vt 2.32312512397766 -1.2382287979126 0
# 68 texture coordinates

o Mesh115_Group110_Model
usemtl Mesh115_Group110_Model
f 1/3/1 2/2/1 3/1/1
f 5/5/4 2/2/3 1/3/2
f 7/9/5 5/8/5 4/7/5
f 6/13/8 8/12/7 9/11/6
f 6/13/8 10/15/9 8/12/7
f 4/19/11 11/18/10 10/17/9
f 4/22/11 1/3/2 11/21/10
f 11/21/10 1/3/2 3/1/12
f 10/17/13 11/18/13 12/25/13
f 13/28/15 14/27/14 8/12/7
f 13/28/15 15/30/16 14/27/14
f 12/25/18 16/33/17 15/32/16
f 12/36/18 3/1/12 16/35/17
f 16/35/17 3/1/12 2/2/3
f 15/41/19 16/40/19 17/39/19
f 18/43/20 9/11/6 14/27/14
f 7/45/21 9/11/6 18/43/20
f 7/9/21 18/48/20 17/47/22
f 5/5/4 17/50/22 2/2/3
f 8/12/23 14/27/23 9/11/23
f 4/22/11 5/5/4 1/3/2
f 6/54/5 7/9/5 4/7/5
f 7/45/21 6/13/8 9/11/6
f 6/57/8 4/19/11 10/17/9
f 12/36/18 11/21/10 3/1/12
f 13/60/13 10/17/13 12/25/13
f 10/15/9 13/28/15 8/12/7
f 13/60/15 12/25/18 15/32/16
f 17/50/22 16/35/17 2/2/3
f 18/65/19 15/41/19 17/39/19
f 15/30/16 18/43/20 14/27/14
f 5/8/4 7/9/21 17/47/22

