# WaveFront *.obj file (generated by CINEMA 4D)

mtllib ./Triangle_21.mtl

v 304.900390625 100.25 -228.78851318359375
v 353.30078125 100.25 -228.78851318359375
v 353.30078125 100.25 -219.68548583984375
v 375.6005859375 100.25 -219.68548583984375
v 362.400390625 100.25 -171.22549438476562
v 304.400390625 100.75 -229.28851318359375
v 353.30078125 100.75 -229.28851318359375
v 304.400390625 103.75 -229.28851318359375
v 353.30078125 103.75 -229.28851318359375
v 304.900390625 104.25 -228.78851318359375
v 353.30078125 104.25 -228.78851318359375
v 304.2001953125 103.75 -228.78851318359375
v 362.30078125 103.75 -170.66949462890625
v 362.400390625 104.25 -171.22549438476562
v 304.2001953125 100.75 -228.78851318359375
v 362.30078125 100.75 -170.66949462890625
v 362.80078125 100.75 -170.81851196289062
v 376.1005859375 100.75 -219.68548583984375
v 376.1005859375 103.75 -219.68548583984375
v 362.80078125 103.75 -170.81851196289062
v 375.6005859375 104.25 -219.68548583984375
v 375.80078125 103.75 -220.18548583984375
v 375.80078125 100.75 -220.18548583984375
v 354.30078125 100.75 -220.18548583984375
v 354.30078125 103.75 -220.18548583984375
v 353.30078125 104.25 -219.68548583984375
v 353.80078125 103.75 -220.68548583984375
v 353.80078125 100.75 -220.68548583984375
v 353.80078125 100.75 -228.78851318359375
v 353.80078125 103.75 -228.78851318359375
# 30 vertices

vn -0.42641606926918 -0.88711416721344 -0.17662906646729
vn 0.4765123128891 -0.73883152008057 -0.4765123128891
vn 0.4765123128891 -0.4765123128891 -0.73883152008057
vn 0 0 -1
vn 0.4765123128891 0.73883152008057 -0.4765123128891
vn -0.42641606926918 0.88711416721344 -0.17662906646729
vn -0.59613609313965 0.60247999429703 -0.53069734573364
vn -0.79679399728775 0.60247838497162 -0.04625073820353
vn 0.14278492331505 0.83124005794525 0.53726381063461
vn -0.02375049702823 0.54885524511337 0.83557993173599
vn -0.70710676908493 0 0.70710676908493
vn -0.59613609313965 -0.60247999429703 -0.53069734573364
vn -0.79679399728775 -0.60247838497162 -0.04625073820353
vn 0.14278492331505 -0.83124005794525 0.53726381063461
vn 0.43548077344894 -0.54885894060135 0.71351969242096
vn -0.02375049702823 -0.54885524511337 0.83557993173599
vn 0.49463894963264 -0.78261578083038 -0.37794816493988
vn 0.96487045288086 0 0.26272603869438
vn 0.49463894963264 0.78261578083038 -0.37794816493988
vn 0.79205453395844 0.50882744789124 -0.33725991845131
vn 0.53351616859436 0.50882792472839 -0.67561423778534
vn 0.53351616859436 -0.50882792472839 -0.67561423778534
vn 0.79205453395844 -0.50882744789124 -0.33725991845131
vn 0.37047389149666 -0.85176181793213 -0.37047389149666
vn 0.37047389149666 0.85176181793213 -0.37047389149666
vn 0.39385095238686 0.62932401895523 -0.66994976997375
vn 0.66994976997375 0.62932401895523 -0.39385095238686
vn 0.66994976997375 -0.62932401895523 -0.39385095238686
vn 0.39385095238686 -0.62932401895523 -0.66994976997375
vn 1 0 0
vn 0.73883152008057 0.4765123128891 -0.4765123128891
vn 0.4765123128891 0.4765123128891 -0.73883152008057
vn 0.73883152008057 -0.4765123128891 -0.4765123128891
vn 0.43548077344894 0.54885894060135 0.71351969242096
vn 0 -1 0
vn 0 1 0
# 36 normals

vt 0.01317531429231 0.53096109628677 0
vt 0.39971494674683 0.53096109628677 0
vt 0.39971494674683 0.52699077129364 0
vt 1.26882553100586 3.29426336288452 0
vt 0.98750030994415 0.9297366142273 0
vt 0.59696751832962 0.9297366142273 0
vt 0.59696751832962 0.95355838537216 0
vt 1.34787952899933 3.51276111602783 0
vt 0.39971494674683 0.50794059038162 0
vt 0.01317531429231 0.50794059038162 0
vt 0.00918216910213 0.51191091537476 0
vt 0.89997410774231 3.0445728302002 0
vt 0.00758335087448 0.50794059038162 0
vt 3.79571390151978 3.56962871551514 0
vt 0.47238707542419 0.050856590271 0
vt 0.4715915620327 0.04644167423248 0
vt 4.65743494033813 -3.39870262145996 0
vt 0.47573190927505 0.00753998756409 0
vt 0.01157649699599 0.00753998756409 0
vt 0.01157649699599 0.03136169910431 0
vt 4.38143301010132 -3.83504390716553 0
vt 0.00758335087448 0.00753998756409 0
vt 0.00758335087448 0.03136169910431 0
vt 0.00918216910213 0.52699077129364 0
vt 0.00758335087448 0.53096109628677 0
vt 0.88635241985321 -1.83087539672852 0
vt 0.47238707542419 0.9880450963974 0
vt 1.27709376811981 3.27962064743042 0
vt 0.47558471560478 0.99127674102783 0
vt 0.4715915620327 0.99246007204056 0
vt 5.96872520446777 -3.81204319000244 0
vt 0.57780766487122 0.60324442386627 0
vt 1.25708961486816 3.27989912033081 0
vt 0.98842352628708 0.96863830089569 0
vt 0.59815758466721 0.96863830089569 0
vt 0.59815758466721 0.99246007204056 0
vt 4.51379060745239 -1.42462205886841 0
vt 0.57780766487122 0.43565726280212 0
vt 0.5818008184433 0.43565726280212 0
vt 3.80222272872925 -1.93219566345215 0
vt 0.57940649986267 0.43962752819061 0
vt 0.66682153940201 -0.57027435302734 0
vt 0.99241662025452 0.99246007204056 0
vt 0.99241662025452 0.96863830089569 0
vt 1.60735177993774 3.55751514434814 0
vt 0.57940649986267 0.59927415847778 0
vt 0.5818008184433 0.60324442386627 0
vt 3.30716586112976 3.54587650299072 0
vt 0.77665907144547 0.88289439678192 0
vt 0.59856635332108 0.88289439678192 0
vt 0.59696751832962 0.88686466217041 0
vt 1.45510113239288 3.59105443954468 0
vt 0.7686727643013 0.88686466217041 0
vt 0.59696751832962 0.91068643331528 0
vt 1.38823759555817 3.47646379470825 0
vt 0.59856635332108 0.91465675830841 0
vt 0.77665907144547 0.91465675830841 0
vt 0.7686727643013 0.91068643331528 0
vt 5.9346079826355 -4.09042835235596 0
vt 0.39971494674683 0.43565726280212 0
vt 0.40370807051659 0.4435977935791 0
vt 0.40770122408867 0.43962752819061 0
vt 0.10964114964008 -0.74036169052124 0
vt 0.77266591787338 0.91068643331528 0
vt 0.77266591787338 0.88686466217041 0
vt 3.71632790565491 -0.51756262779236 0
vt 0.40370807051659 0.59530383348465 0
vt 0.39971494674683 0.60324442386627 0
vt 0.40770122408867 0.59927415847778 0
vt 3.39261913299561 4.4776725769043 0
vt 1.26716279983521 3.29188871383667 0
vt 0.66168063879013 0.84399276971817 0
vt 0.59696751832962 0.84399276971817 0
vt 0.59696751832962 0.86781454086304 0
vt 3.56418633460999 -0.5597357749939 0
vt 0.40370807051659 0.50794059038162 0
vt 5.43552303314209 -4.49878311157227 0
vt 0.39971494674683 0.51191091537476 0
vt 0.65600168704987 0.19273805618286 0
vt 0.66567379236221 0.86781454086304 0
vt 0.66567379236221 0.84399276971817 0
vt 1.23862135410309 3.42631816864014 0
vt 0.40370807051659 0.53096109628677 0
vt 2.86402249336243 3.5674991607666 0
vt 0.47558471560478 0.04762494564056 0
vt 4.9553394317627 -5.13864326477051 0
vt 0.59696751832962 0.96863830089569 0
vt 5.37714099884033 -2.90685081481934 0
vt 1.26713085174561 3.29141235351562 0
vt 1.27697312831879 3.27987480163574 0
vt 5.43383026123047 -4.50126838684082 0
vt 5.4270977973938 -4.51813411712646 0
vt 1.27719676494598 3.27990674972534 0
vt 0.98750030994415 0.95355838537216 0
vt 1.35625088214874 3.49840402603149 0
vt 0.89160287380218 3.05892992019653 0
vt 4.64338684082031 -3.37461853027344 0
vt 0.47573190927505 0.03136169910431 0
vt 4.39548110961914 -3.85912799835205 0
vt 4.38092184066772 -3.83592510223389 0
vt 1.25722467899323 3.27962064743042 0
vt 1.26316797733307 3.29812240600586 0
vt 0.98842352628708 0.99246007204056 0
vt 4.52243995666504 -1.43946313858032 0
vt 3.79357361793518 -1.91735458374023 0
vt 1.6078644990921 3.55839586257935 0
vt 1.45876204967499 3.58477306365967 0
vt 1.39189839363098 3.4701828956604 0
vt 5.93826532363892 -4.09670066833496 0
vt 3.71683883666992 -0.51668095588684 0
vt 1.26854836940765 3.29426336288452 0
vt 0.66168063879013 0.86781454086304 0
vt 3.5655677318573 -0.56210994720459 0
vt 5.43414163589478 -4.5011568069458 0
vt 1.23913407325745 3.4271993637085 0
vt 0.59696751832962 0.99246007204056 0
vt 5.37765216827393 -2.90597009658813 0
# 117 texture coordinates

o Mesh126_Group110_Model
usemtl Mesh126_Group110_Model
f 7/3/3 2/2/2 1/1/1
f 9/7/4 7/6/4 6/5/4
f 8/11/7 10/10/6 11/9/5
f 12/13/8 10/10/6 8/11/7
f 13/16/10 14/15/9 10/10/6
f 12/20/11 15/19/11 16/18/11
f 12/20/8 8/23/7 6/22/12
f 15/25/13 6/24/12 1/1/1
f 15/25/13 1/1/1 5/27/14
f 16/30/16 5/27/14 17/29/15
f 17/29/15 5/27/14 4/32/17
f 20/36/18 17/35/18 18/34/18
f 19/39/20 21/38/19 14/15/9
f 19/39/20 22/41/21 21/38/19
f 18/34/23 23/44/22 22/43/21
f 18/47/23 4/32/17 23/46/22
f 23/51/22 4/50/17 3/49/24
f 22/54/4 23/51/4 24/53/4
f 25/58/26 26/57/25 21/56/19
f 25/62/26 27/61/27 26/60/25
f 24/53/29 28/65/28 27/64/27
f 24/69/29 3/68/24 28/67/28
f 28/67/28 3/68/24 2/2/2
f 27/74/30 28/73/30 29/72/30
f 30/76/31 11/9/5 26/60/25
f 30/76/31 9/78/32 11/9/5
f 29/72/33 7/81/3 9/80/32
f 29/83/33 2/2/2 7/3/3
f 13/16/10 20/85/34 14/15/9
f 16/87/16 17/35/15 20/36/34
f 3/68/35 4/32/35 5/27/35
f 1/1/35 3/68/35 5/27/35
f 1/1/35 2/2/35 3/68/35
f 26/60/36 11/9/36 10/10/36
f 14/15/36 26/60/36 10/10/36
f 14/15/36 21/38/36 26/60/36
f 6/24/12 7/3/3 1/1/1
f 8/94/4 9/7/4 6/5/4
f 9/78/32 8/11/7 11/9/5
f 12/13/8 13/16/10 10/10/6
f 13/98/11 12/20/11 16/18/11
f 15/19/13 12/20/8 6/22/12
f 16/30/16 15/25/13 5/27/14
f 18/47/23 17/29/15 4/32/17
f 19/103/18 20/36/18 18/34/18
f 20/85/34 19/39/20 14/15/9
f 19/103/20 18/34/23 22/43/21
f 24/53/29 23/51/22 3/49/24
f 25/58/4 22/54/4 24/53/4
f 22/54/21 25/58/26 21/56/19
f 25/58/26 24/53/29 27/64/27
f 29/83/33 28/67/28 2/2/2
f 30/112/30 27/74/30 29/72/30
f 27/61/27 30/76/31 26/60/25
f 30/112/31 29/72/33 9/80/32
f 13/116/10 16/87/16 20/36/34

