# WaveFront *.obj file (generated by CINEMA 4D)

mtllib ./Wall_4.mtl

v 589.5 3.6702995300293 -62.30249786376953
v 589.5 84.67040252685547 -62.30249786376953
v 593.400390625 3.6702995300293 -54.23850250244141
v 619 3.6702995300293 -54.23850250244141
v 619 3.6702995300293 -50.11350250244141
v 589.5 3.6702995300293 -50.11350250244141
v 593.400390625 3.6702995300293 -62.30249786376953
v 593.400390625 84.67040252685547 -54.23850250244141
v 619 84.67040252685547 -54.23850250244141
v 593.400390625 84.67040252685547 -62.30249786376953
v 589.5 84.67040252685547 -50.11350250244141
v 619 84.67040252685547 -50.11350250244141
# 12 vertices

vn 0 0 -1
vn 1 0 0
vn -1 0 0
vn 0 0 1
vn 0 -1 0
vn 0 1 0
# 6 normals

vt 0.34232395887375 0.99105554819107 0
vt 0.61538231372833 0.99105554819107 0
vt 0.61538231372833 0.15295219421387 0
vt 0.48897749185562 -1.79312086105347 0
vt 0.86829370260239 0.99105554819107 0
vt 0.86829370260239 0.15295219421387 0
vt 0.78227907419205 0.15295219421387 0
vt 0.80429887771606 0.05223023891449 0
vt 0.99077934026718 0.15295219421387 0
vt 0.94917577505112 0.15295219421387 0
vt 0.94917577505112 0.99105554819107 0
vt 0.91796571016312 -2.07248830795288 0
vt 0.63382369279861 0.99105554819107 0
vt 0.76383769512177 0.99105554819107 0
vt 0.76383769512177 0.15295219421387 0
vt 0.68621456623077 -1.79251003265381 0
vt 0.00922068394721 0.99105554819107 0
vt 0.32388257980347 0.99105554819107 0
vt 0.32388257980347 0.15295219421387 0
vt 0.22351606190205 2.35390257835388 0
vt 0.88673508167267 0.99105554819107 0
vt 0.93073439598084 0.99105554819107 0
vt 0.93073439598084 0.15295219421387 0
vt 0.88128536939621 -1.79709386825562 0
vt 0.05082422122359 0.09238219261169 0
vt 0.05082422122359 0.00894451141357 0
vt 0.00922068394721 0.00894451141357 0
vt 0.00120160914958 -2.46744060516357 0
vt 0.00922068394721 0.13506329059601 0
vt 0.32388257980347 0.13506329059601 0
vt 0.00267113558948 -2.47202491760254 0
vt 0.6569858789444 0.00894451141357 0
vt 0.34232395887375 0.00894451141357 0
vt 0.38392749428749 0.05162560939789 0
vt 0.4264175593853 1.66141319274902 0
vt 0.34232395887375 0.13506329059601 0
vt 0.42544519901276 1.66080284118652 0
vt 0.34232395887375 0.15295219421387 0
vt 0.48897737264633 -1.79709386825562 0
vt 0.78227907419205 0.99105554819107 0
vt 0.79460620880127 0.05223023891449 0
vt 0.99077934026718 0.99105554819107 0
vt 0.91796571016312 -2.07187795639038 0
vt 0.63382369279861 0.15295219421387 0
vt 0.68474495410919 -1.79251003265381 0
vt 0.00922068394721 0.15295219421387 0
vt 0.2235159277916 2.34930849075317 0
vt 0.88673508167267 0.15295219421387 0
vt 0.88178271055222 -1.79709386825562 0
vt 0.00267124222592 -2.46744060516357 0
vt 0.32388257980347 0.09238219261169 0
vt 0.00217375485227 -2.47202491760254 0
vt 0.6569858789444 0.05162560939789 0
vt 0.42641764879227 1.66538643836975 0
vt 0.38392749428749 0.13506329059601 0
vt 0.42544519901276 1.66141319274902 0
# 56 texture coordinates

o Mesh38_Group30_Model
usemtl Mesh38_Group30_Model
f 3/3/1 8/2/1 9/1/1
f 3/7/2 7/6/2 10/5/2
f 10/11/1 7/10/1 1/9/1
f 6/15/3 11/14/3 2/13/3
f 5/19/4 12/18/4 11/17/4
f 4/23/2 9/22/2 12/21/2
f 1/27/5 7/26/5 3/25/5
f 5/30/5 6/29/5 3/25/5
f 8/34/6 11/33/6 12/32/6
f 2/36/6 11/33/6 8/34/6
f 4/38/1 3/3/1 9/1/1
f 8/40/2 3/7/2 10/5/2
f 2/42/1 10/11/1 1/9/1
f 1/44/3 6/15/3 2/13/3
f 6/46/4 5/19/4 11/17/4
f 5/48/2 4/23/2 12/21/2
f 6/29/5 1/27/5 3/25/5
f 4/51/5 5/30/5 3/25/5
f 9/53/6 8/34/6 12/32/6
f 10/55/6 2/36/6 8/34/6

