# WaveFront *.obj file (generated by CINEMA 4D)

mtllib ./Wall_6.mtl

v 60.1005859375 106.25 -107.96750640869141
v 619.30078125 106.25 112.50548553466797
v 592.900390625 106.25 119.17649078369141
v 592.900390625 106.25 123.98749542236328
v 592.900390625 106.25 142.4534912109375
v 624.1005859375 106.25 142.4534912109375
v 624.1005859375 106.25 89.23049163818359
v 78.7001953125 -13.75 119.17749786376953
v 78.7001953125 -13.75 123.98848724365234
v 73.6005859375 -9.75 119.17749786376953
v 73.6005859375 22.25 91.55649566650391
v 73.6005859375 106.25 119.17749786376953
v 73.6005859375 -9.75 -107.96750640869141
v 73.6005859375 -9.75 123.98848724365234
v 60.1005859375 -9.75 123.98848724365234
v 60.1005859375 -9.75 -107.96750640869141
v 73.6005859375 -13.75 119.17749786376953
v 73.6005859375 -13.75 -108.03549957275391
v 73.6005859375 -9.75 -108.03549957275391
v 283 -13.75037956237793 119.17749786376953
v 78.7001953125 -9.75 119.17749786376953
v 283 -9.74999046325684 119.17749786376953
v 283 -13.75 123.98848724365234
v 592.900390625 -13.75 123.98749542236328
v 592.900390625 -13.75 119.17649078369141
v 592.900390625 -13.75 112.50548553466797
v 619.30078125 -13.75 112.50548553466797
v 619.30078125 -13.75 89.23049163818359
v 624.1005859375 -13.75 89.23049163818359
v 624.1005859375 -13.75 142.4534912109375
v 592.900390625 -13.75 142.4534912109375
v 592.900390625 -9.75 123.98749542236328
v 283 -9.75 123.98848724365234
v 78.7001953125 -9.75 123.98749542236328
v 60.1005859375 -13.75 123.98848724365234
v 592.900390625 -9.75 119.17649078369141
v 592.900390625 -9.75 112.50548553466797
v 619.30078125 -9.75 112.50548553466797
v 619.30078125 -9.75 89.23049163818359
v 624.1005859375 -9.75 89.23049163818359
v 624.1005859375 -9.75 142.4534912109375
v 592.900390625 -9.75 142.4534912109375
v 60.1005859375 106.25 123.98848724365234
v 619.30078125 106.25 89.23049163818359
v 592.900390625 106.25 112.50548553466797
v 73.6005859375 106.25 -107.96750640869141
v 60.1005859375 94.25 91.55649566650391
v 60.1005859375 22.25 91.55649566650391
v 60.1005859375 22.25 -28.70151519775391
v 73.6005859375 22.25 -28.70151519775391
v 73.6005859375 94.25 -28.70151519775391
v 73.6005859375 94.25 91.55649566650391
v 60.1005859375 94.25 -28.70151519775391
v 60.1005859375 -9.75 -108.03549957275391
v 60.1005859375 -13.75 -108.03549957275391
# 55 vertices

vn 1 0 0
vn -1 0 0
vn 0 1 0
vn 0 0 -1
vn 0 -1 0
vn 0 0 1
vn 0 -1 0.00003125097646
vn 0 -0.00003125097646 -1
# 8 normals

vt 0.54918557405472 0.86892312765121 0
vt 0.57499015331268 0.79018843173981 0
vt 0.54918557405472 0.76019430160522 0
vt 0.62852299213409 0.7701923251152 0
vt 0.76139330863953 0.76019430160522 0
vt 0.54918557405472 0.99255067110062 0
vt 0.7658879160881 0.99255067110062 0
vt 0.73558872938156 0.98130285739899 0
vt 0.68355405330658 0.98880136013031 0
vt 0.7658879160881 0.88382178544998 0
vt 0.73558872938156 0.91381597518921 0
vt 0.54918557405472 0.88382178544998 0
vt 0.62323892116547 0.91381597518921 0
vt 0.66479921340942 0.380699634552 0
vt 0.66479921340942 0.4934196472168 0
vt 0.67741143703461 0.4934196472168 0
vt 0.66900324821472 0.45584630966187 0
vt 0.68733990192413 0.79018843173981 0
vt 0.68733990192413 0.85767531394958 0
vt 0.76139330863953 0.86892312765121 0
vt 0.57499015331268 0.85767531394958 0
vt 0.57664752006531 0.67669522762299 0
vt 0.57664752006531 0.74418210983276 0
vt 0.58925974369049 0.74418210983276 0
vt 0.58085161447525 0.7216864824295 0
vt 0.67741143703461 0.50831824541092 0
vt 0.66479921340942 0.50831824541092 0
vt 0.66479921340942 0.62103825807571 0
vt 0.66900324821472 0.54589158296585 0
vt 0.62323892116547 0.98130285739899 0
vt 0.5617977976799 0.63545322418213 0
vt 0.54918557405472 0.63545322418213 0
vt 0.54918557405472 0.74418210983276 0
vt 0.55338960886002 0.67169618606567 0
vt 0.00742487516254 0.50814014673233 0
vt 0.02003710530698 0.50814014673233 0
vt 0.02003710530698 0.50807642936707 0
vt 0.15204462409019 0.7240532040596 0
vt 0.57664752006531 0.65804725885391 0
vt 0.57664752006531 0.66179656982422 0
vt 0.58925974369049 0.66179656982422 0
vt 0.58085161447525 0.66054677963257 0
vt 0.60410952568054 0.74418210983276 0
vt 0.61672174930573 0.74418210983276 0
vt 0.61672174930573 0.67669522762299 0
vt 0.61251765489578 0.7216864824295 0
vt 0.02003710530698 0.72555661201477 0
vt 0.02480136044323 0.7255557179451 0
vt 0.02480136044323 0.72104722261429 0
vt 0.00742487516254 0.72555661201477 0
vt 0.02003710530698 0.72104722261429 0
vt 0.02003710530698 0.97073364257812 0
vt 0.00742487516254 0.97524309158325 0
vt 0.02480136044323 0.97524309158325 0
vt 0.08842299133539 0.97223681211472 0
vt 0.00742487516254 0.75776290893555 0
vt 0.48781087994576 0.00744938850403 0
vt 0.29694598913193 0.00744938850403 0
vt 0.4925751388073 0.11617827415466 0
vt 0.26564866304398 0.07993531227112 0
vt 0.4925751388073 0.00744938850403 0
vt 0.00742487516254 0.00744938850403 0
vt 0.00742487516254 0.11617827415466 0
vt 0.67741143703461 0.380699634552 0
vt 0.58925974369049 0.67669522762299 0
vt 0.67741143703461 0.62103825807571 0
vt 0.5617977976799 0.74418210983276 0
vt 0.00742487516254 0.50807642936707 0
vt 0.58925974369049 0.65804725885391 0
vt 0.60410952568054 0.67669522762299 0
vt 0.02480136044323 0.97073364257812 0
vt 0.02003710530698 0.75776290893555 0
vt 0.21566624939442 0.97524309158325 0
vt 0.21566624939442 0.97073364257812 0
vt 0.54918557405472 0.51182568073273 0
vt 0.59890854358673 0.51182568073273 0
vt 0.59890854358673 0.50807642936707 0
vt 0.58233422040939 0.58431160449982 0
vt 0.69400930404663 0.38118326663971 0
vt 0.69400930404663 0.38493263721466 0
vt 0.69849348068237 0.38493263721466 0
vt 0.69699877500534 0.45741844177246 0
vt 0.61375832557678 0.50807642936707 0
vt 0.61375832557678 0.51182568073273 0
vt 0.63550275564194 0.51182568073273 0
vt 0.62100648880005 0.58431160449982 0
vt 0.59318375587463 0.380699634552 0
vt 0.59318375587463 0.38444888591766 0
vt 0.6178480386734 0.38444888591766 0
vt 0.60140520334244 0.45693480968475 0
vt 0.69226115942001 0.50856012105942 0
vt 0.69226115942001 0.51230937242508 0
vt 0.69849348068237 0.51230937242508 0
vt 0.69433861970901 0.58479529619217 0
vt 0.50742489099503 0.11617827415466 0
vt 0.79694598913193 0.11617827415466 0
vt 0.79694598913193 0.11242854595184 0
vt 0.98939895629883 0.11492848396301 0
vt 0.21566624939442 0.72555661201477 0
vt 0.21566624939442 0.72104722261429 0
vt 0.54918557405472 0.380699634552 0
vt 0.54918557405472 0.38444888591766 0
vt 0.57833397388458 0.38444888591766 0
vt 0.55890172719955 0.45693480968475 0
vt 0.63269776105881 0.380699634552 0
vt 0.63269776105881 0.38444888591766 0
vt 0.64994943141937 0.38444888591766 0
vt 0.63844835758209 0.45693480968475 0
vt 0.98781085014343 0.11242890357971 0
vt 0.98781085014343 0.11617827415466 0
vt 0.99257510900497 0.11617827415466 0
vt 0.52985161542892 0.96447986364365 0
vt 0.50518733263016 0.97073268890381 0
vt 0.50518733263016 0.97524213790894 0
vt 0.53433579206467 0.99255067110062 0
vt 0.53433579206467 0.94266378879547 0
vt 0.50518733263016 0.96447986364365 0
vt 0.50518733263016 0.99255067110062 0
vt 0.02003710530698 0.13482618331909 0
vt 0.02480136044323 0.13107693195343 0
vt 0.00742487516254 0.13107693195343 0
vt 0.02321327477694 0.13357639312744 0
vt 0.02480136044323 0.13482618331909 0
vt 0.21566624939442 0.13107693195343 0
vt 0.50518733263016 0.13107693195343 0
vt 0.21566624939442 0.13482618331909 0
vt 0.52985161542892 0.71479338407516 0
vt 0.53433579206467 0.74286419153214 0
vt 0.53433579206467 0.69297736883163 0
vt 0.50518733263016 0.7255557179451 0
vt 0.50518733263016 0.72104626893997 0
vt 0.50518733263016 0.71479338407516 0
vt 0.50518733263016 0.74286419153214 0
vt 0.54918557405472 0.50807642936707 0
vt 0.69849348068237 0.38118326663971 0
vt 0.63550275564194 0.50807642936707 0
vt 0.6178480386734 0.380699634552 0
vt 0.69849348068237 0.50856012105942 0
vt 0.50742489099503 0.11242890357971 0
vt 0.57833397388458 0.380699634552 0
vt 0.64994943141937 0.380699634552 0
vt 0.99257510900497 0.11242890357971 0
vt 0.52985161542892 0.94266378879547 0
vt 0.00742487516254 0.13482618331909 0
vt 0.50518733263016 0.13482618331909 0
vt 0.52985161542892 0.69297736883163 0
vt 0.63269776105881 0.4931777715683 0
vt 0.64994943141937 0.4931777715683 0
vt 0.54918557405472 0.4931777715683 0
vt 0.57833397388458 0.4931777715683 0
vt 0.54918557405472 0.62055456638336 0
vt 0.59890854358673 0.62055456638336 0
vt 0.69400930404663 0.49366140365601 0
vt 0.69849348068237 0.49366140365601 0
vt 0.00742487516254 0.24355506896973 0
vt 0.50518733263016 0.24355506896973 0
vt 0.02003710530698 0.28027069568634 0
vt 0.50518733263016 0.28027164936066 0
vt 0.50518733263016 0.27576220035553 0
vt 0.34347060322762 0.27876818180084 0
vt 0.50518733263016 0.28652453422546 0
vt 0.52985161542892 0.28652453422546 0
vt 0.00742487516254 0.4931777715683 0
vt 0.02003710530698 0.4931777715683 0
vt 0.52985161542892 0.30834054946899 0
vt 0.53433579206467 0.30834054946899 0
vt 0.53433579206467 0.25845372676849 0
vt 0.00742487516254 0.27576124668121 0
vt 0.50518733263016 0.25845372676849 0
vt 0.69226115942001 0.62103825807571 0
vt 0.69849348068237 0.62103825807571 0
vt 0.59318375587463 0.4931777715683 0
vt 0.6178480386734 0.4931777715683 0
vt 0.61375832557678 0.62055456638336 0
vt 0.63550275564194 0.62055456638336 0
vt 0.76139330863953 0.36580097675323 0
vt 0.76145684719086 0.36205172538757 0
vt 0.54918557405472 0.36205172538757 0
vt 0.69067859649658 0.36330139636993 0
vt 0.76145684719086 0.36580097675323 0
vt 0.52003711462021 0.23980581760406 0
vt 0.52003711462021 0.24355506896973 0
vt 0.52010065317154 0.24355506896973 0
vt 0.5200582742691 0.24230527877808 0
vt 0.73680299520493 0.23980581760406 0
vt 0.54918557405472 0.36580097675323 0
vt 0.73680299520493 0.24355506896973 0
# 187 texture coordinates

o Mesh12_Group14_Model
usemtl Mesh12_Group14_Model.1
f 10/3/1 11/2/1 12/1/1
f 11/2/1 10/3/1 13/5/1
f 47/8/2 43/7/2 1/6/2
f 43/7/2 47/8/2 15/10/2
f 48/11/2 15/10/2 47/8/2
f 15/10/2 48/11/2 16/12/2
f 16/12/2 48/11/2 49/13/2
f 50/16/3 49/15/3 48/14/3
f 11/2/1 13/5/1 50/18/1
f 50/18/1 13/5/1 51/19/1
f 46/20/1 51/19/1 13/5/1
f 46/20/1 52/21/1 51/19/1
f 12/1/1 52/21/1 46/20/1
f 52/21/1 12/1/1 11/2/1
f 47/24/4 52/23/4 11/22/4
f 47/28/5 53/27/5 51/26/5
f 47/8/2 1/6/2 53/30/2
f 53/30/2 1/6/2 49/13/2
f 16/12/2 49/13/2 1/6/2
f 46/33/4 13/32/4 16/31/4
f 19/37/5 13/36/5 16/35/5
f 54/41/4 19/40/4 18/39/4
f 50/45/6 51/44/6 53/43/6
f 21/49/5 34/48/5 14/47/5
f 10/51/5 15/50/5 16/35/5
f 10/51/5 14/47/5 15/50/5
f 9/54/5 35/53/5 17/52/5
f 17/52/5 35/53/5 55/56/5
f 12/59/4 22/58/4 21/57/4
f 10/61/4 12/59/4 21/57/4
f 3/63/4 36/62/4 22/58/4
f 11/64/3 50/16/3 48/14/3
f 48/65/4 47/24/4 11/22/4
f 52/66/5 47/28/5 51/26/5
f 1/67/4 46/33/4 16/31/4
f 54/68/5 19/37/5 16/35/5
f 55/69/4 54/41/4 18/39/4
f 49/70/6 50/45/6 53/43/6
f 10/51/5 21/49/5 14/47/5
f 13/36/5 10/51/5 16/35/5
f 8/71/5 9/54/5 17/52/5
f 18/72/5 17/52/5 55/56/5
f 12/59/4 3/63/4 22/58/4
f 20/74/7 23/73/7 9/54/7
f 29/77/1 40/76/1 41/75/1
f 39/81/4 40/80/4 29/79/4
f 38/85/2 39/84/2 28/83/2
f 37/89/4 38/88/4 27/87/4
f 36/93/2 37/92/2 26/91/2
f 20/97/8 22/96/8 36/95/8
f 22/100/5 33/99/5 34/48/5
f 41/103/6 42/102/6 31/101/6
f 42/107/2 32/106/2 24/105/2
f 10/111/4 21/110/4 8/109/4
f 8/109/4 21/110/4 22/96/4
f 24/114/5 25/113/5 27/112/5
f 20/74/5 25/113/5 24/114/5
f 29/116/5 30/115/5 27/112/5
f 25/113/5 26/117/5 27/112/5
f 30/115/5 31/118/5 24/114/5
f 35/121/6 9/120/6 14/119/6
f 34/123/6 14/119/6 9/120/6
f 34/123/6 9/120/6 23/124/6
f 33/126/6 23/124/6 24/125/6
f 40/129/5 41/128/5 38/127/5
f 22/100/5 36/131/5 32/130/5
f 36/131/5 37/132/5 38/127/5
f 41/128/5 42/133/5 32/130/5
f 32/130/5 36/131/5 38/127/5
f 8/71/7 20/74/7 9/54/7
f 30/134/1 29/77/1 41/75/1
f 28/135/4 39/81/4 29/79/4
f 27/136/2 38/85/2 28/83/2
f 26/137/4 37/89/4 27/87/4
f 25/138/2 36/93/2 26/91/2
f 25/139/8 20/97/8 36/95/8
f 21/49/5 22/100/5 34/48/5
f 30/140/6 41/103/6 31/101/6
f 31/141/2 42/107/2 24/105/2
f 17/142/4 10/111/4 8/109/4
f 20/97/4 8/109/4 22/96/4
f 23/73/5 20/74/5 24/114/5
f 28/143/5 29/116/5 27/112/5
f 27/112/5 30/115/5 24/114/5
f 15/144/6 35/121/6 14/119/6
f 33/126/6 34/123/6 23/124/6
f 32/145/6 33/126/6 24/125/6
f 39/146/5 40/129/5 38/127/5
f 33/99/5 22/100/5 32/130/5
f 38/127/5 41/128/5 32/130/5
f 5/148/2 4/147/2 32/106/2
f 6/150/6 5/149/6 42/102/6
f 40/76/1 7/152/1 6/151/1
f 39/81/4 44/154/4 7/153/4
f 43/155/6 15/144/6 14/119/6
f 43/155/6 34/123/6 33/126/6
f 43/155/6 14/119/6 34/123/6
f 33/126/6 32/145/6 4/156/6
f 4/159/3 3/158/3 12/157/3
f 2/162/3 45/161/3 3/158/3
f 4/159/3 2/162/3 3/158/3
f 12/157/3 46/164/3 1/163/3
f 7/166/3 44/165/3 2/162/3
f 6/167/3 2/162/3 4/159/3
f 42/107/2 5/148/2 32/106/2
f 41/103/6 6/150/6 42/102/6
f 41/75/1 40/76/1 6/151/1
f 40/80/4 39/81/4 7/153/4
f 43/155/6 33/126/6 4/156/6
f 43/168/3 4/159/3 12/157/3
f 43/168/3 12/157/3 1/163/3
f 6/167/3 7/166/3 2/162/3
f 5/169/3 6/167/3 4/159/3
f 3/171/2 45/170/2 37/92/2
f 45/173/4 2/172/4 38/88/4
f 2/175/2 44/174/2 39/84/2
f 36/93/2 3/171/2 37/92/2
f 37/89/4 45/173/4 38/88/4
f 38/85/2 2/175/2 39/84/2
f 17/178/1 18/177/1 13/176/1
f 13/176/1 18/177/1 19/180/1
f 16/183/2 54/182/2 55/181/2
f 16/183/2 55/181/2 35/185/2
f 10/186/1 17/178/1 13/176/1
f 15/187/2 16/183/2 35/185/2

