# WaveFront *.obj file (generated by CINEMA 4D)

mtllib ./Wall_8.mtl

v 80.2001953125 3.6702995300293 -108.78549957275391
v 61.1005859375 3.6702995300293 -107.96750640869141
v 61.1005859375 -13.5 -107.96750640869141
v 61.1005859375 -13.5 -108.78549957275391
v 61.1005859375 3.6702995300293 -108.78549957275391
v 60.1005859375 -13.5 -107.96750640869141
v 60.1005859375 3.6702995300293 -107.96750640869141
v 60.30078125 -13.5 -108.21750640869141
v 60.30078125 -13.5 -109.53549957275391
v 60.30078125 -13.75 -109.53549957275391
v 60.30078125 -13.75 -108.21750640869141
v 83.900390625 -13.5 -109.53549957275391
v 83.900390625 -13.75 -109.53549957275391
v 84.2001953125 -13.5 -109.78549957275391
v 60.1005859375 -13.5 -109.78549957275391
v 60.1005859375 3.6702995300293 -109.28549957275391
v 60.1005859375 3.1702995300293 -109.28549957275391
v 60.1005859375 3.1702995300293 -109.78549957275391
v 83.7001953125 3.6702995300293 -109.28549957275391
v 80.2001953125 3.6702995300293 40.43448638916016
v 83.7001953125 3.6702995300293 43.87149810791016
v 83.7001953125 3.6702995300293 39.62848663330078
v 83.7001953125 3.1702995300293 -109.28549957275391
v 619.30078125 3.1702995300293 109.07349395751953
v 619.30078125 3.1702995300293 108.57349395751953
v 153.30078125 3.1702995300293 108.57349395751953
v 84.2001953125 3.1702995300293 39.42148590087891
v 84.2001953125 3.1702995300293 -109.78549957275391
v 83.7001953125 3.1702995300293 39.62848663330078
v 153.1005859375 3.1702995300293 109.07349395751953
v 619.30078125 3.6702995300293 109.07349395751953
v 619.30078125 3.6702995300293 112.50548553466797
v 619.30078125 -13.5 112.50548553466797
v 619.30078125 -13.5 108.57349395751953
v 153.1005859375 3.6702995300293 109.07349395751953
v 84.2001953125 3.6702995300293 44.37149810791016
v 148.400390625 3.6702995300293 108.57349395751953
v 148.900390625 3.6702995300293 109.07349395751953
v 84.2001953125 -13.50000095367432 44.37149810791016
v 80.2001953125 -13.50000095367432 40.43448638916016
v 148.400390625 -13.50000190734863 108.57349395751953
v 152.30078125 -13.50000190734863 112.50548553466797
v 152.30078125 3.6702995300293 112.50548553466797
v 152.400390625 -13.50000190734863 112.25548553466797
v 148.5 -13.50000190734863 108.39649200439453
v 84.30078125 -13.50000095367432 44.19449615478516
v 80.5 -13.50000095367432 40.33049774169922
v 80.5 -13.5 -109.03549957275391
v 80.2001953125 -13.5 -108.78549957275391
v 60.80078125 -13.5 -109.03549957275391
v 60.80078125 -13.5 -108.21750640869141
v 60.80078125 -13.75 -108.21750640869141
v 60.80078125 -13.75 -109.03549957275391
v 80.5 -13.75000095367432 40.33049774169922
v 80.5 -13.75 -109.03549957275391
v 83.900390625 -13.75000095367432 39.52548980712891
v 153.2001953125 -13.75000190734863 108.82349395751953
v 619 -13.75 108.82349395751953
v 619 -13.75 112.25548553466797
v 152.400390625 -13.75000190734863 112.25548553466797
v 148.5 -13.75000190734863 108.39649200439453
v 84.30078125 -13.75000095367432 44.19449615478516
v 619 -13.5 112.25548553466797
v 619 -13.5 108.82349395751953
v 153.30078125 -13.50000190734863 108.57349395751953
v 153.2001953125 -13.50000190734863 108.82349395751953
v 83.900390625 -13.50000095367432 39.52548980712891
v 84.2001953125 -13.50000095367432 39.42148590087891
# 68 vertices

vn 1 0 0
vn 0 0 1
vn 0 -1 0
vn -1 0 0
vn 0 0 -1
vn 0.70710676908493 0 -0.70710676908493
vn -0.70710676908493 0 0.70710676908493
vn 0 1 0
# 8 normals

vt 0.60459691286087 0.8377445936203 0
vt 0.60459691286087 0.8208732008934 0
vt 0.60374665260315 0.8208732008934 0
vt 0.60351568460464 0.98677742481232 0
vt 0.60374665260315 0.86877936124802 0
vt 0.60478609800339 0.86877936124802 0
vt 0.60478609800339 0.85190796852112 0
vt 0.60364180803299 1.02343595027924 0
vt 0.0076996977441 0.77603769302368 0
vt 0.00749160069972 0.7762833237648 0
vt 0.00853107031435 0.7762833237648 0
vt 0.42901590466499 0.75657778978348 0
vt 0.0076996977441 0.774742603302 0
vt 0.42903503775597 0.75658959150314 0
vt 0.62095010280609 0.82308995723724 0
vt 0.61958009004593 0.82308995723724 0
vt 0.61958009004593 0.82333564758301 0
vt 0.61702764034271 0.78231346607208 0
vt 0.62827771902084 0.79180955886841 0
vt 0.60374665260315 0.79180955886841 0
vt 0.60374665260315 0.79205524921417 0
vt 0.60890877246857 0.55897980928421 0
vt 0.03254242241383 0.77449703216553 0
vt 0.03223078325391 0.774742603302 0
vt 0.42903503775597 0.75622403621674 0
vt 0.00749160069972 0.77449703216553 0
vt 0.42903810739517 0.75622010231018 0
vt 0.42901590466499 0.75659346580505 0
vt 0.60374665260315 0.80670988559723 0
vt 0.62827771902084 0.80670988559723 0
vt 0.62827771902084 0.80621856451035 0
vt 0.61949479579926 0.57400292158127 0
vt 0.50790727138519 0.03639101982117 0
vt 0.99250841140747 0.03639101982117 0
vt 0.99250841140747 0.03589963912964 0
vt 0.83036875724792 -0.19775438308716 0
vt 0.67541188001633 0.40459263324738 0
vt 0.60322588682175 0.40459263324738 0
vt 0.60322588682175 0.40508389472961 0
vt 0.62668806314468 0.17077469825745 0
vt 0.60322588682175 0.44979071617126 0
vt 0.60322588682175 0.46666204929352 0
vt 0.66996192932129 0.46666204929352 0
vt 0.62487721443176 0.42114567756653 0
vt 0.49292409420013 0.066934466362 0
vt 0.49292409420013 0.05006301403046 0
vt 0.00749160069972 0.05006301403046 0
vt 0.16849867999554 0.02209556102753 0
vt 0.10343448072672 0.99267268180847 0
vt 0.10333094000816 0.99291831254959 0
vt 0.58876341581345 0.99291831254959 0
vt 0.42632243037224 0.74795067310333 0
vt 0.09938013553619 0.98888087272644 0
vt 0.4263257086277 0.75516581535339 0
vt 0.09927659481764 0.9890547990799 0
vt 0.42632263898849 0.75516778230667 0
vt 0.03264697641134 0.92579650878906 0
vt 0.4263728260994 0.75522577762604 0
vt 0.03254242241383 0.92597043514252 0
vt 0.42637068033218 0.75522863864899 0
vt 0.02869617938995 0.92199975252151 0
vt 0.42715713381767 0.75621819496155 0
vt 0.02838454209268 0.9221019744873 0
vt 0.42715495824814 0.75622111558914 0
vt 0.02869617938995 0.77523392438889 0
vt 0.42720434069633 0.75627815723419 0
vt 0.02838454209268 0.77547955513 0
vt 0.42720305919647 0.75628101825714 0
vt 0.60322588682175 0.49769687652588 0
vt 0.75833559036255 0.49769687652588 0
vt 0.75833559036255 0.48082542419434 0
vt 0.70583462715149 0.65496903657913 0
vt 0.60374665260315 0.97604691982269 0
vt 0.60374665260315 0.99291831254959 0
vt 0.62360006570816 0.99291831254959 0
vt 0.60977643728256 1.14788341522217 0
vt 0.00853107031435 0.77547955513 0
vt 0.42902588844299 0.75628101825714 0
vt 0.00821943301708 0.77523392438889 0
vt 0.42902892827988 0.75627708435059 0
vt 0.00821943301708 0.77603769302368 0
vt 0.42901894450188 0.75658172369003 0
vt 0.62061959505081 0.8685337305069 0
vt 0.61976927518845 0.8685337305069 0
vt 0.61976927518845 0.86877936124802 0
vt 0.61732739210129 0.84011071920395 0
vt 0.62028902769089 0.85412466526032 0
vt 0.61976927518845 0.85412466526032 0
vt 0.61976927518845 0.85437035560608 0
vt 0.61693948507309 1.01732957363129 0
vt 0.42902588844299 0.75657778978348 0
vt 0.75848734378815 0.39018356800079 0
vt 0.60322588682175 0.39018356800079 0
vt 0.60322588682175 0.39042925834656 0
vt 0.75681704282761 0.34941470623016 0
vt 0.62422335147858 0.77740061283112 0
vt 0.60374665260315 0.77740061283112 0
vt 0.60374665260315 0.77764618396759 0
vt 0.60756915807724 0.94061332941055 0
vt 0.76250386238098 0.39018356800079 0
vt 0.75848734378815 0.39042925834656 0
vt 0.75682133436203 0.49295616149902 0
vt 0.82923990488052 0.39018356800079 0
vt 0.76250386238098 0.39042925834656 0
vt 0.75682133436203 0.49304068088531 0
vt 0.4403427541256 0.00708174705505 0
vt 0.43628841638565 0.00708174705505 0
vt 0.43628841638565 0.00732731819153 0
vt 0.43463507294655 0.11134195327759 0
vt 0.92535907030106 0.00708174705505 0
vt 0.4403427541256 0.00732731819153 0
vt 0.43463686108589 0.17170941829681 0
vt 0.5884507894516 0.99267268180847 0
vt 0.42632547020912 0.74795454740524 0
vt 0.5884507894516 0.98930042982101 0
vt 0.42636740207672 0.74795454740524 0
vt 0.58876341581345 0.9890547990799 0
vt 0.10437040776014 0.9890547990799 0
vt 0.4263704419136 0.74795067310333 0
vt 0.10426585376263 0.98930042982101 0
vt 0.92047333717346 0.02149069309235 0
vt 0.43628841638565 0.02149069309235 0
vt 0.43628841638565 0.02173638343811 0
vt 0.94146990776062 -0.21960949897766 0
vt 0.62314754724503 0.83749896287918 0
vt 0.61958009004593 0.83749896287918 0
vt 0.61958009004593 0.8377445936203 0
vt 0.61776036024094 0.80558717250824 0
vt 0.99250841140747 0.02149069309235 0
vt 0.92047333717346 0.02173638343811 0
vt 0.94147193431854 -0.15208578109741 0
vt 0.03254242241383 0.92110657691956 0
vt 0.03223078325391 0.9212087392807 0
vt 0.42636761069298 0.75515401363373 0
vt 0.42721542716026 0.75622111558914 0
vt 0.42721417546272 0.75622403621674 0
vt 0.75817030668259 0.3757746219635 0
vt 0.60322588682175 0.3757746219635 0
vt 0.60322588682175 0.37602019309998 0
vt 0.6518651843071 0.34498679637909 0
vt 0.67510730028152 0.51186013221741 0
vt 0.67510730028152 0.52824026346207 0
vt 0.83020347356796 0.52824026346207 0
vt 0.62658041715622 0.28986465930939 0
vt 0.60322588682175 0.41924726963043 0
vt 0.60322588682175 0.43562734127045 0
vt 0.62827670574188 0.43562734127045 0
vt 0.61097025871277 0.19762408733368 0
vt 0.60322588682175 0.51186013221741 0
vt 0.60322588682175 0.52824026346207 0
vt 0.62658047676086 0.29030680656433 0
vt 0.50790727138519 0.05055439472198 0
vt 0.50790727138519 0.066934466362 0
vt 0.99230033159256 0.066934466362 0
vt 0.66876566410065 -0.17251014709473 0
vt 0.42637068033218 0.75515204668045 0
vt 0.67541188001633 0.40508389472961 0
vt 0.83020347356796 0.40508389472961 0
vt 0.83020347356796 0.40459263324738 0
vt 0.62668198347092 0.17184770107269 0
vt 0.60563635826111 0.88294267654419 0
vt 0.60374665260315 0.88294267654419 0
vt 0.60426634550095 0.89932280778885 0
vt 0.60411715507507 0.66711503267288 0
vt 0.60426634550095 0.89981412887573 0
vt 0.60563635826111 0.89981412887573 0
vt 0.60412323474884 0.66713470220566 0
vt 0.60374665260315 0.89932280778885 0
vt 0.00853107031435 0.75984233617783 0
vt 0.00853107031435 0.75903856754303 0
vt 0.00749160069972 0.75903856754303 0
vt 0.00760089745745 0.52676337957382 0
vt 0.03202268481255 0.6140119433403 0
vt 0.03202268481255 0.60984283685684 0
vt 0.02838454209268 0.61321997642517 0
vt 0.00941370241344 0.52645087242126 0
vt 0.02838454209268 0.75984233617783 0
vt 0.00749160069972 0.76033365726471 0
vt 0.00758479302749 0.52676337957382 0
vt 0.03202268481255 0.76033365726471 0
vt 0.00940386857837 0.52639782428741 0
vt 0.03202268481255 0.29565560817719 0
vt 0.00749160069972 0.29565560817719 0
vt 0.00749160069972 0.29614686965942 0
vt 0.01239533815533 0.06327617168427 0
vt 0.58876341581345 0.08109784126282 0
vt 0.10416231304407 0.08109784126282 0
vt 0.10437040776014 0.08158910274506 0
vt 0.01506268978119 0.06183469295502 0
vt 0.03254242241383 0.1495373249054 0
vt 0.03202268481255 0.14933395385742 0
vt 0.01240144018084 0.06291162967682 0
vt 0.01422052271664 0.0629106760025 0
vt 0.60374665260315 0.9308488368988 0
vt 0.6073140501976 0.9308488368988 0
vt 0.6073140501976 0.93035757541656 0
vt 0.60705441236496 0.68370360136032 0
vt 0.60783380270004 0.93035757541656 0
vt 0.60783380270004 0.91397744417191 0
vt 0.60374665260315 0.91397744417191 0
vt 0.60685074329376 0.68365055322647 0
vt 0.10416231304407 0.5457758307457 0
vt 0.09927659481764 0.54626715183258 0
vt 0.00762139772996 0.52538180351257 0
vt 0.03254242241383 0.60935151576996 0
vt 0.00758479489014 0.5268429517746 0
vt 0.09979633241892 0.5457758307457 0
vt 0.6073847413063 0.96188360452652 0
vt 0.60790449380875 0.96188360452652 0
vt 0.60790449380875 0.94501221179962 0
vt 0.60692745447159 0.91496402025223 0
vt 0.60374665260315 0.94501221179962 0
vt 0.60374665260315 0.96188360452652 0
vt 0.60713720321655 0.91495299339294 0
vt 0.67404907941818 0.44979071617126 0
vt 0.66996192932129 0.44979071617126 0
vt 0.67048168182373 0.46666204929352 0
vt 0.62487721443176 0.42115652561188 0
vt 0.10405775159597 0.52486801147461 0
vt 0.10322637856007 0.52824026346207 0
vt 0.58824265003204 0.52824026346207 0
vt 0.07754810899496 0.26084887981415 0
vt 0.03243888169527 0.4613641500473 0
vt 0.03202268481255 0.45677638053894 0
vt 0.02848808281124 0.45756733417511 0
vt 0.07842695713043 0.26917243003845 0
vt 0.09917204082012 0.52444845438004 0
vt 0.07759545743465 0.2681200504303 0
vt 0.07759024202824 0.26804828643799 0
vt 0.00801133550704 0.31080150604248 0
vt 0.00749160069972 0.31031024456024 0
vt 0.00749160069972 0.31160533428192 0
vt 0.08024157583714 0.26948380470276 0
vt 0.03202268481255 0.31031024456024 0
vt 0.02848808281124 0.31080150604248 0
vt 0.08025156706572 0.26917135715485 0
vt 0.08025767654181 0.26948380470276 0
vt 0.58876341581345 0.54240357875824 0
vt 0.10333094000816 0.54240357875824 0
vt 0.00758474925533 0.52532488107681 0
vt 0.60374665260315 0.8377445936203 0
vt 0.60372543334961 0.98677742481232 0
vt 0.60374665260315 0.85190796852112 0
vt 0.60364180803299 1.02342021465302 0
vt 0.62095010280609 0.82333564758301 0
vt 0.61702764034271 0.7823338508606 0
vt 0.62827771902084 0.79205524921417 0
vt 0.60890877246857 0.55934435129166 0
vt 0.60374665260315 0.80621856451035 0
vt 0.61949479579926 0.57363742589951 0
vt 0.50790727138519 0.03589963912964 0
vt 0.83036851882935 -0.20495867729187 0
vt 0.62668806314468 0.17229282855988 0
vt 0.6246674656868 0.42114567756653 0
vt 0.00749160069972 0.066934466362 0
vt 0.1687084287405 0.02209556102753 0
vt 0.60322588682175 0.48082542419434 0
vt 0.70583456754684 0.65266293287277 0
vt 0.62360006570816 0.97604691982269 0
vt 0.6095666885376 1.14788436889648 0
vt 0.62061959505081 0.86877936124802 0
vt 0.61732739210129 0.84012341499329 0
vt 0.62028902769089 0.85437035560608 0
vt 0.61693948507309 1.0173374414444 0
vt 0.75681710243225 0.35172307491302 0
vt 0.62422335147858 0.77764618396759 0
vt 0.60756915807724 0.94091695547104 0
vt 0.82923990488052 0.39042925834656 0
vt 0.75682139396667 0.49444377422333 0
vt 0.43463507294655 0.11142539978027 0
vt 0.92535907030106 0.00732731819153 0
vt 0.43463709950447 0.17892169952393 0
vt 0.94147008657455 -0.21240997314453 0
vt 0.62314754724503 0.8377445936203 0
vt 0.61776036024094 0.80564022064209 0
vt 0.99250841140747 0.02173638343811 0
vt 0.94147193431854 -0.15057063102722 0
vt 0.75817030668259 0.37602019309998 0
vt 0.65186524391174 0.34729051589966 0
vt 0.83020347356796 0.51186013221741 0
vt 0.62637680768967 0.28986465930939 0
vt 0.62827670574188 0.41924726963043 0
vt 0.61076658964157 0.19762408733368 0
vt 0.62637680768967 0.29030680656433 0
vt 0.99230033159256 0.05055439472198 0
vt 0.66856205463409 -0.17251014709473 0
vt 0.62668192386627 0.1695464849472 0
vt 0.00758478138596 0.52639782428741 0
vt 0.03254242241383 0.29614686965942 0
vt 0.01239532791078 0.06290376186371 0
vt 0.58876341581345 0.08158910274506 0
vt 0.01506247464567 0.05463337898254 0
vt 0.01421799696982 0.06290376186371 0
vt 0.60706049203873 0.68365055322647 0
vt 0.0076214405708 0.52678596973419 0
vt 0.67404907941818 0.46666204929352 0
vt 0.62487721443176 0.42123162746429 0
vt 0.58824265003204 0.52486801147461 0
vt 0.0775900259614 0.26084887981415 0
vt 0.00801133550704 0.31160533428192 0
vt 0.08024157583714 0.26947605609894 0
vt 0.0802515745163 0.26947605609894 0
vt 0.58876341581345 0.5457758307457 0
vt 0.00758453411981 0.51812046766281 0
# 304 texture coordinates

o Mesh142_Group126_Group125_Group121_Model
usemtl Mesh142_Group126_Group125_Group121_Model
f 3/3/1 4/2/1 5/1/1
f 3/7/2 2/6/2 7/5/2
f 3/11/3 6/10/3 8/9/3
f 9/13/3 8/9/3 6/10/3
f 9/17/4 10/16/4 11/15/4
f 12/21/5 13/20/5 10/19/5
f 12/24/3 9/13/3 14/23/3
f 14/23/3 9/13/3 15/26/3
f 6/10/3 15/26/3 9/13/3
f 17/31/5 16/30/5 19/29/5
f 30/35/5 35/34/5 31/33/5
f 35/39/6 30/38/6 29/37/6
f 37/43/7 36/42/7 39/41/7
f 42/47/2 33/46/2 32/45/2
f 33/51/3 42/50/3 44/49/3
f 44/49/3 42/50/3 45/53/3
f 42/50/3 41/55/3 45/53/3
f 45/53/3 41/55/3 46/57/3
f 41/55/3 39/59/3 46/57/3
f 46/57/3 39/59/3 47/61/3
f 39/59/3 40/63/3 47/61/3
f 47/61/3 40/63/3 48/65/3
f 40/63/3 49/67/3 48/65/3
f 40/71/4 20/70/4 1/69/4
f 1/75/2 5/74/2 4/73/2
f 49/67/3 4/77/3 48/65/3
f 48/65/3 4/77/3 50/79/3
f 51/81/3 50/79/3 4/77/3
f 51/85/1 52/84/1 53/83/1
f 8/89/2 11/88/2 52/87/2
f 51/81/3 3/11/3 8/9/3
f 4/77/3 3/11/3 51/81/3
f 48/94/4 55/93/4 54/92/4
f 50/98/2 53/97/2 55/96/2
f 47/101/7 54/92/7 62/100/7
f 46/104/7 62/100/7 61/103/7
f 45/108/7 61/107/7 60/106/7
f 44/111/2 60/106/2 59/110/2
f 63/113/3 33/51/3 44/49/3
f 64/115/3 33/51/3 63/113/3
f 33/51/3 64/115/3 34/117/3
f 34/117/3 64/115/3 65/118/3
f 64/115/3 66/120/3 65/118/3
f 64/123/5 58/122/5 57/121/5
f 63/127/1 59/126/1 58/125/1
f 66/130/6 57/121/6 56/129/6
f 66/120/3 67/133/3 68/132/3
f 68/132/3 67/133/3 14/23/3
f 67/133/3 12/24/3 14/23/3
f 67/139/1 56/138/1 13/137/1
f 28/143/1 27/142/1 68/141/1
f 18/147/5 28/146/5 14/145/5
f 27/142/6 26/150/6 65/149/6
f 26/154/5 25/153/5 34/152/5
f 65/118/3 66/120/3 68/132/3
f 23/159/1 19/158/1 22/157/1
f 17/163/4 15/162/4 6/161/4
f 7/166/4 16/165/4 17/163/4
f 17/163/4 18/168/4 15/162/4
f 7/171/8 2/170/8 5/169/8
f 20/175/8 21/174/8 22/173/8
f 16/178/8 5/169/8 1/177/8
f 22/173/8 19/180/8 1/177/8
f 18/184/8 17/183/8 23/182/8
f 26/188/8 30/187/8 24/186/8
f 23/182/8 29/191/8 27/190/8
f 29/191/8 30/187/8 26/188/8
f 24/196/1 31/195/1 32/194/1
f 24/196/1 34/199/1 25/198/1
f 33/200/1 34/199/1 24/196/1
f 37/203/8 35/202/8 22/173/8
f 22/173/8 21/174/8 36/205/8
f 37/203/8 38/207/8 35/202/8
f 39/210/7 36/209/7 21/208/7
f 21/208/7 20/213/7 40/212/7
f 38/217/7 41/216/7 42/215/7
f 38/217/7 37/43/7 41/216/7
f 59/221/3 60/220/3 57/219/3
f 54/225/3 56/224/3 62/223/3
f 61/227/3 62/223/3 56/224/3
f 57/219/3 60/220/3 61/227/3
f 11/232/3 10/231/3 53/230/3
f 55/235/3 13/234/3 56/224/3
f 10/231/3 13/234/3 55/235/3
f 35/202/8 43/239/8 32/238/8
f 35/202/8 38/207/8 43/239/8
f 2/241/1 3/3/1 5/1/1
f 6/243/2 3/7/2 7/5/2
f 8/245/4 9/17/4 11/15/4
f 9/247/5 12/21/5 10/19/5
f 23/249/5 17/31/5 19/29/5
f 24/251/5 30/35/5 31/33/5
f 22/157/6 35/39/6 29/37/6
f 41/216/7 37/43/7 39/41/7
f 43/255/2 42/47/2 32/45/2
f 49/257/4 40/71/4 1/69/4
f 49/259/2 1/75/2 4/73/2
f 50/261/1 51/85/1 53/83/1
f 51/263/2 8/89/2 52/87/2
f 47/101/4 48/94/4 54/92/4
f 48/266/2 50/98/2 55/96/2
f 46/104/7 47/101/7 62/100/7
f 45/268/7 46/104/7 61/103/7
f 44/111/7 45/108/7 60/106/7
f 63/271/2 44/111/2 59/110/2
f 66/130/5 64/123/5 57/121/5
f 64/274/1 63/127/1 58/125/1
f 67/276/6 66/130/6 56/129/6
f 12/278/1 67/139/1 13/137/1
f 14/280/1 28/143/1 68/141/1
f 15/282/5 18/147/5 14/145/5
f 68/141/6 27/142/6 65/149/6
f 65/285/5 26/154/5 34/152/5
f 29/37/1 23/159/1 22/157/1
f 7/166/4 17/163/4 6/161/4
f 16/178/8 7/171/8 5/169/8
f 19/180/8 16/178/8 1/177/8
f 20/175/8 22/173/8 1/177/8
f 28/289/8 18/184/8 23/182/8
f 25/291/8 26/188/8 24/186/8
f 28/289/8 23/182/8 27/190/8
f 27/190/8 29/191/8 26/188/8
f 32/194/1 33/200/1 24/196/1
f 36/205/8 37/203/8 22/173/8
f 39/210/7 21/208/7 40/212/7
f 43/296/7 38/217/7 42/215/7
f 58/298/3 59/221/3 57/219/3
f 57/219/3 61/227/3 56/224/3
f 52/300/3 11/232/3 53/230/3
f 54/225/3 55/235/3 56/224/3
f 53/230/3 10/231/3 55/235/3
f 31/303/8 35/202/8 32/238/8

