# WaveFront *.obj file (generated by CINEMA 4D)

mtllib ./Wall_13.mtl

v 73.6005859375 -13.75 -241.44451904296875
v 73.6005859375 106.25 -241.44451904296875
v 10.6005859375 106.25 -241.44451904296875
v 10.6005859375 -13.75 -236.63250732421875
v 10.6005859375 -13.75 -241.44451904296875
v 73.6005859375 -13.75 -236.63250732421875
v 10.6005859375 50.62069702148438 -236.63250732421875
v 10.6005859375 50.62069702148438 -241.44451904296875
v 73.6005859375 50.62069702148438 -236.63250732421875
v 73.6005859375 106.25 -236.63250732421875
v 10.6005859375 106.25 -236.63250732421875
v 73.6005859375 50.62069702148438 -241.44451904296875
# 12 vertices

vn 0 -1 0
vn -1 0 0
vn 1 0 0
vn 0 1 0
vn 0 0 1
vn 0 0 -1
# 6 normals

vt 0.4403510093689 0.04700660705566 0
vt 0.4403510093689 0.0099937915802 0
vt 0.00889804307371 0.0099937915802 0
vt 0.60315257310867 0.05165159702301 0
vt 0.90739613771439 0.06699407100677 0
vt 0.90739613771439 0.56211858987808 0
vt 0.9403510093689 0.56211858987808 0
vt 0.91838109493256 0.88450980186462 0
vt 0.95814710855484 0.06699407100677 0
vt 0.95814710855484 0.56211858987808 0
vt 0.99110198020935 0.56211858987808 0
vt 1.00208616256714 0.88450980186462 0
vt 0.9403510093689 0.99000626802444 0
vt 0.88542699813843 0.88450980186462 0
vt 0.88960003852844 0.04700660705566 0
vt 0.88960003852844 0.0099937915802 0
vt 0.45814707875252 0.0099937915802 0
vt 0.43916314840317 0.01463961601257 0
vt 0.99110198020935 0.99000626802444 0
vt 0.96913206577301 0.88450980186462 0
vt 0.4403510093689 0.06699407100677 0
vt 0.00889804307371 0.06699407100677 0
vt 0.00889804307371 0.56211858987808 0
vt -0.15390352904797 0.71946829557419 0
vt 0.00889804307371 0.99000626802444 0
vt 0.4403510093689 0.99000626802444 0
vt 0.27755147218704 1.1473560333252 0
vt 0.88960003852844 0.06699407100677 0
vt 0.45814707875252 0.06699407100677 0
vt 0.45814707875252 0.56211858987808 0
vt 0.47712895274162 0.71946829557419 0
vt 0.45814707875252 0.99000626802444 0
vt 0.88960003852844 0.99000626802444 0
vt 0.90858399868011 1.1473560333252 0
vt 0.00889804307371 0.04700660705566 0
vt 0.60315257310867 0.01463961601257 0
vt 0.9403510093689 0.06699407100677 0
vt 0.91838109493256 0.38938534259796 0
vt 0.99110198020935 0.06699407100677 0
vt 1.00208616256714 0.38938534259796 0
vt 0.90739613771439 0.99000626802444 0
vt 0.88542699813843 1.31239748001099 0
vt 0.45814707875252 0.04700660705566 0
vt 0.43916314840317 0.05165159702301 0
vt 0.95814710855484 0.99000626802444 0
vt 0.96913206577301 1.31239748001099 0
vt 0.4403510093689 0.56211858987808 0
vt 0.27755147218704 0.71946829557419 0
vt 0.88960003852844 0.56211858987808 0
vt 0.90858399868011 0.71946829557419 0
# 50 texture coordinates

o Mesh14_Group16_Model
usemtl Mesh14_Group16_Model
f 5/3/1 1/2/1 6/1/1
f 7/7/2 8/6/2 5/5/2
f 12/11/3 9/10/3 6/9/3
f 8/6/2 7/7/2 11/13/2
f 11/17/4 10/16/4 2/15/4
f 9/10/3 12/11/3 2/19/3
f 7/23/5 4/22/5 6/21/5
f 10/26/5 11/25/5 7/23/5
f 12/30/6 1/29/6 5/28/6
f 3/33/6 2/32/6 12/30/6
f 4/35/1 5/3/1 6/1/1
f 4/37/2 7/7/2 5/5/2
f 1/39/3 12/11/3 6/9/3
f 3/41/2 8/6/2 11/13/2
f 3/43/4 11/17/4 2/15/4
f 10/45/3 9/10/3 2/19/3
f 9/47/5 7/23/5 6/21/5
f 9/47/5 10/26/5 7/23/5
f 8/49/6 12/30/6 5/28/6
f 8/49/6 3/33/6 12/30/6

