# WaveFront *.obj file (generated by CINEMA 4D)

mtllib ./Wall_5.mtl

v 624.1005859375 106.25 -64.54651641845703
v 624.1005859375 106.25 -30.76950836181641
v 619.30078125 106.25 -30.76950836181641
v 619.30078125 106.25 -64.54651641845703
v 619.30078125 -9.75 -30.76950836181641
v 624.1005859375 -9.75 -30.76950836181641
v 619.30078125 -9.75 -64.54651641845703
v 624.1005859375 -9.75 -64.54651641845703
v 624.1005859375 -13.75000095367432 -64.54651641845703
v 624.1005859375 -13.75000095367432 -30.76950836181641
v 619.30078125 -13.75000095367432 -64.54651641845703
v 619.30078125 -13.75000095367432 -30.76950836181641
# 12 vertices

vn 0 1 0
vn 0 0 1
vn 0 0 -1
vn 1 0 0
vn 0 -1 0
vn -1 0 0
# 6 normals

vt 0.87260454893112 0.69880151748657 0
vt 0.92128449678421 0.69880151748657 0
vt 0.92128449678421 0.42188251018524 0
vt 0.95384532213211 0.40549063682556 0
vt 0.78387719392776 0.99190682172775 0
vt 0.78387719392776 0.04088699817657 0
vt 0.73519724607468 0.04088699817657 0
vt 0.75142389535904 -0.92926263809204 0
vt 0.85258084535599 0.99190682172775 0
vt 0.85258084535599 0.04088699817657 0
vt 0.8039008975029 0.04088699817657 0
vt 0.771340072155 -0.92926263809204 0
vt 0.35258087515831 0.99190682172775 0
vt 0.35258087515831 0.04088699817657 0
vt 0.01001183036715 0.04088699817657 0
vt -0.11431379616261 -0.92926263809204 0
vt 0.92128449678421 0.71498781442642 0
vt 0.87260454893112 0.71498781442642 0
vt 0.87260454893112 0.99190682172775 0
vt 0.88883119821548 0.6062895655632 0
vt 0.87260454893112 0.42188251018524 0
vt 0.90505784749985 0.40549063682556 0
vt 0.73519724607468 0.99190682172775 0
vt 0.75142389535904 0.02175724506378 0
vt 0.8039008975029 0.99190682172775 0
vt 0.771340072155 0.02175724506378 0
vt 0.01001183036715 0.99190682172775 0
vt -0.11431379616261 0.02175724506378 0
vt 0.92128449678421 0.99190682172775 0
vt 0.84004372358322 0.6062895655632 0
vt 0.71517354249954 0.99190682172775 0
vt 0.71517354249954 0.04088699817657 0
vt 0.3726045191288 0.04088699817657 0
vt 0.60676330327988 -1.72646331787109 0
vt 0.3726045191288 0.99190682172775 0
vt 0.59293758869171 -1.72646331787109 0
vt 0.01001183036715 0.00809323787689 0
vt 0.22825516760349 -0.92926263809204 0
vt 0.8039008975029 0.00809323787689 0
vt 0.82012754678726 -0.92926263809204 0
vt 0.3726045191288 0.00809323787689 0
vt 0.83949917554855 -0.60132479667664 0
vt 0.73519724607468 0.00809323787689 0
vt 0.80021131038666 -0.92926263809204 0
vt 0.98998814821243 0.71498781442642 0
vt 0.94130820035934 0.71498781442642 0
vt 0.94130820035934 0.99190682172775 0
vt 0.95753484964371 0.6062895655632 0
vt 0.35258087515831 0.00809323787689 0
vt 0.22825516760349 -0.96205639839172 0
vt 0.85258084535599 0.00809323787689 0
vt 0.82012754678726 -0.96205639839172 0
vt 0.71517354249954 0.00809323787689 0
vt 0.83949917554855 -0.63411855697632 0
vt 0.78387719392776 0.00809323787689 0
vt 0.80021131038666 -0.96205639839172 0
vt 0.98998814821243 0.99190682172775 0
vt 0.90874737501144 0.6062895655632 0
# 58 texture coordinates

o Mesh39_Group31_Model
usemtl Mesh39_Group31_Model
f 2/3/1 1/2/1 4/1/1
f 5/7/2 6/6/2 2/5/2
f 8/11/3 7/10/3 4/9/3
f 6/15/4 8/14/4 1/13/4
f 5/19/5 7/18/5 8/17/5
f 3/21/1 2/3/1 4/1/1
f 3/23/2 5/7/2 2/5/2
f 1/25/3 8/11/3 4/9/3
f 2/27/4 6/15/4 1/13/4
f 6/29/5 5/19/5 8/17/5
f 7/33/6 5/32/6 3/31/6
f 4/35/6 7/33/6 3/31/6
f 8/14/4 6/15/4 10/37/4
f 7/10/3 8/11/3 9/39/3
f 5/32/6 7/33/6 11/41/6
f 6/6/2 5/7/2 12/43/2
f 12/47/5 11/46/5 9/45/5
f 9/49/4 8/14/4 10/37/4
f 11/51/3 7/10/3 9/39/3
f 12/53/6 5/32/6 11/41/6
f 10/55/2 6/6/2 12/43/2
f 10/57/5 12/47/5 9/45/5

