# WaveFront *.obj file (generated by CINEMA 4D)

mtllib ./wall_1.mtl

v 363.80078125 84.67060089111328 -236.78851318359375
v 363.80078125 84.67060089111328 -230.11651611328125
v 359.80078125 84.67060089111328 -236.78851318359375
v 359.80078125 3.67020034790039 -236.78851318359375
v 359.80078125 3.67020034790039 -226.18548583984375
v 359.80078125 84.67060089111328 -226.18548583984375
v 363.80078125 3.67020034790039 -236.78851318359375
v 425.6005859375 84.67060089111328 -226.18548583984375
v 425.6005859375 84.67060089111328 -230.11651611328125
v 363.80078125 3.67020034790039 -230.11651611328125
v 425.6005859375 3.67020034790039 -230.11651611328125
v 422.5 3.67020034790039 -230.11651611328125
v 425.6005859375 3.67020034790039 -226.18548583984375
v 422.5 3.67020034790039 -226.18548583984375
# 14 vertices

vn -1 0 0
vn 0 0 -1
vn 1 0 0
vn 0 -1 0
vn 0 1 0
vn 0 0 1
# 6 normals

vt 0.86422574520111 0.98810565471649 0
vt 0.86422574520111 0.14592528343201 0
vt 0.80055671930313 0.14592528343201 0
vt 0.8396087884903 2.30270862579346 0
vt 0.95578664541244 0.14592528343201 0
vt 0.93176746368408 0.14592528343201 0
vt 0.93176746368408 0.98810565471649 0
vt 0.94206184148788 0.22695446014404 0
vt 0.91802859306335 0.14592528343201 0
vt 0.87796461582184 0.14592528343201 0
vt 0.87796461582184 0.98810565471649 0
vt 0.89360737800598 0.23461723327637 0
vt 0.96952551603317 0.98810565471649 0
vt 0.99313056468964 0.98810565471649 0
vt 0.99313056468964 0.14592528343201 0
vt 0.98183441162109 0.51534396409988 0
vt 0.43434104323387 0.12213659286499 0
vt 0.43434104323387 0.08126473426819 0
vt 0.41572266817093 0.08126473426819 0
vt 0.46001464128494 -2.3345193862915 0
vt 0.03088862076402 0.05276620388031 0
vt 0.4019837975502 0.05276620388031 0
vt 0.4019837975502 0.01189434528351 0
vt 0.2813828587532 -0.15353608131409 0
vt 0.00686943996698 0.01189434528351 0
vt 0.00686943996698 0.12213659286499 0
vt 0.27674517035484 -0.15180087089539 0
vt 0.7868178486824 0.98810565471649 0
vt 0.7868178486824 0.14592528343201 0
vt 0.43434104323387 0.14592528343201 0
vt 0.66589778661728 0.23461723327637 0
vt 0.41572266817093 0.14592528343201 0
vt 0.41572266817093 0.98810565471649 0
vt 0.67161375284195 0.23511838912964 0
vt 0.00686943996698 0.98810565471649 0
vt 0.4019837975502 0.98810565471649 0
vt 0.38336542248726 0.14592528343201 0
vt 0.26064509153366 0.51470142602921 0
vt 0.4019837975502 0.14592528343201 0
vt 0.80055671930313 0.98810565471649 0
vt 0.84532475471497 2.30270862579346 0
vt 0.95578664541244 0.98810565471649 0
vt 0.94206184148788 0.22631084918976 0
vt 0.91802859306335 0.98810565471649 0
vt 0.89360737800598 0.23570787906647 0
vt 0.96952551603317 0.14592528343201 0
vt 0.98183441162109 0.51470142602921 0
vt 0.41572266817093 0.12213659286499 0
vt 0.45973721146584 -2.3345193862915 0
vt 0.27674514055252 -0.15353512763977 0
vt 0.03088862076402 0.12213659286499 0
vt 0.27702301740646 -0.15180087089539 0
vt 0.00686943996698 0.14592528343201 0
vt 0.26064524054527 0.52494788169861 0
# 54 texture coordinates

o Mesh37_Group29_Model
usemtl Mesh37_Group29_Model
f 4/3/1 5/2/1 6/1/1
f 1/7/2 7/6/2 4/5/2
f 2/11/3 10/10/3 7/9/3
f 11/15/3 9/14/3 8/13/3
f 12/19/4 11/18/4 13/17/4
f 8/23/5 9/22/5 2/21/5
f 3/26/5 6/25/5 2/21/5
f 12/30/2 10/29/2 2/28/2
f 9/33/2 11/32/2 12/30/2
f 14/37/6 8/36/6 6/35/6
f 14/37/6 13/39/6 8/36/6
f 3/40/1 4/3/1 6/1/1
f 3/42/2 1/7/2 4/5/2
f 1/44/3 2/11/3 7/9/3
f 13/46/3 11/15/3 8/13/3
f 14/48/4 12/19/4 13/17/4
f 6/25/5 8/23/5 2/21/5
f 1/51/5 3/26/5 2/21/5
f 9/33/2 12/30/2 2/28/2
f 5/53/6 14/37/6 6/35/6

