# WaveFront *.obj file (generated by CINEMA 4D)

mtllib ./Wall_3.mtl

v 359.80078125 106.25 -236.78851318359375
v 363.80078125 84.67060089111328 -236.78851318359375
v 363.80078125 84.67060089111328 -230.11651611328125
v 589.5 106.25 -50.11350250244141
v 589.5 85.17060089111328 -50.11350250244141
v 590 85.17060089111328 -50.11350250244141
v 618.5 85.17060089111328 -50.11350250244141
v 619 85.17060089111328 -50.11350250244141
v 619 106.25 -50.11350250244141
v 589.5 106.25 -157.03350830078125
v 589.5 85.17060089111328 -157.03350830078125
v 359.80078125 106.25 -226.18548583984375
v 520.30078125 106.25 -226.18548583984375
v 619 106.25 -54.23850250244141
v 593.400390625 106.25 -54.23850250244141
v 593.400390625 106.25 -158.04550170898438
v 589.5 106.25 -161.98348999023438
v 525.2001953125 106.25 -226.18548583984375
v 521.30078125 106.25 -230.11651611328125
v 363.80078125 106.25 -230.11651611328125
v 363.80078125 106.25 -236.78851318359375
v 359.80078125 85.17060089111328 -226.18548583984375
v 520.30078125 85.17060089111328 -226.18548583984375
v 359.80078125 85.17060089111328 -236.78851318359375
v 359.80078125 85.17060089111328 -230.11651611328125
v 359.80078125 85.17060089111328 -226.68548583984375
v 363.80078125 85.17060089111328 -236.78851318359375
v 360.1005859375 85.17060089111328 -236.78851318359375
v 363.80078125 85.17060089111328 -230.11651611328125
v 360.1005859375 84.67060089111328 -236.78851318359375
v 360.1005859375 84.67060089111328 -230.11651611328125
v 521.30078125 84.67060089111328 -230.11651611328125
v 524.7001953125 84.67060089111328 -226.68548583984375
v 520.5 84.67060089111328 -226.68548583984375
v 360.1005859375 84.67060089111328 -226.68548583984375
v 525.2001953125 84.67060089111328 -226.18548583984375
v 589.5 84.67060089111328 -161.98348999023438
v 593.400390625 84.67060089111328 -158.04550170898438
v 590 84.67060089111328 -161.48348999023438
v 593.400390625 84.67060089111328 -54.23850250244141
v 618.5 84.67060089111328 -54.23850250244141
v 618.5 84.67060089111328 -50.61350250244141
v 590 84.67060089111328 -50.61350250244141
v 590 84.67060089111328 -157.24050903320312
v 619 85.17060089111328 -54.23850250244141
v 618.5 85.17060089111328 -54.23850250244141
v 619 85.17060089111328 -53.73850250244141
v 618.5 85.17060089111328 -50.61350250244141
v 618.5 85.17060089111328 -53.73850250244141
v 590 85.17060089111328 -50.61350250244141
v 360.1005859375 85.17060089111328 -226.68548583984375
v 520.5 85.17060089111328 -226.68548583984375
v 590 85.17060089111328 -157.24050903320312
v 360.1005859375 85.17060089111328 -230.11651611328125
# 54 vertices

vn -1 0 0
vn 0 0 1
vn 1 0 0
vn 0 0 -1
vn 0 -1 0
vn 0.70710676908493 0 -0.70710676908493
vn -0.70710676908493 0 0.70710676908493
vn 0 1 0
# 8 normals

vt 0.7086124420166 0.16630697250366 0
vt 0.50819540023804 0.16630697250366 0
vt 0.50819540023804 0.21570718288422 0
vt 0.57351475954056 -0.37824082374573 0
vt 0.30829629302025 0.07849895954132 0
vt 0.30829629302025 0.02909886837006 0
vt 0.00744577171281 0.02909886837006 0
vt 0.3505112528801 -0.51841354370117 0
vt 0.55546820163727 0.49012339115143 0
vt 0.55546820163727 0.44072329998016 0
vt 0.54296183586121 0.44072329998016 0
vt 0.55029952526093 0.87160277366638 0
vt 0.57838344573975 0.33776915073395 0
vt 0.57838344573975 0.33894097805023 0
vt 0.59088981151581 0.33894097805023 0
vt 0.58154904842377 0.60932379961014 0
vt 0.60714668035507 0.30468690395355 0
vt 0.60714668035507 0.30351507663727 0
vt 0.60021084547043 0.30351507663727 0
vt 0.60383123159409 0.07229721546173 0
vt 0.50819540023804 0.55438476800919 0
vt 0.50819540023804 0.57002079486847 0
vt 0.51513123512268 0.57002079486847 0
vt 0.50025510787964 0.33320105075836 0
vt 0.62965989112854 0.23432517051697 0
vt 0.50913262367249 0.23432517051697 0
vt 0.50913262367249 0.28489708900452 0
vt 0.54783248901367 0.15269017219543 0
vt 0.50819540023804 0.14768898487091 0
vt 0.70277726650238 0.14768898487091 0
vt 0.70277726650238 0.09711706638336 0
vt 0.70393592119217 0.50248658657074 0
vt 0.49236661195755 0.98951923847198 0
vt 0.43894454836845 0.98951923847198 0
vt 0.43894454836845 0.99069100618362 0
vt 0.45043522119522 -0.5483226776123 0
vt 0.43800732493401 0.02909886837006 0
vt 0.35004702210426 -0.51249861717224 0
vt 0.00800774246454 0.57688975334167 0
vt 0.00800774246454 0.56884902715683 0
vt 0.00744577171281 0.56884902715683 0
vt 0.44641062617302 -0.04925918579102 0
vt 0.00800774246454 0.55321300029755 0
vt 0.44633442163467 -0.04926633834839 0
vt 0.57838344573975 0.30351507663727 0
vt 0.57838344573975 0.3191511631012 0
vt 0.58531928062439 0.3191511631012 0
vt 0.57044315338135 0.08233141899109 0
vt 0.00744577171281 0.01048076152802 0
vt 0.3081077337265 0.01048076152802 0
vt 0.3081077337265 0.00930905342102 0
vt 0.35045102238655 -0.54835748672485 0
vt 0.43838256597519 0.00930905342102 0
vt 0.35043999552727 -0.54835748672485 0
vt 0.50819540023804 0.50991320610046 0
vt 0.70806324481964 0.50991320610046 0
vt 0.70806324481964 0.50874143838882 0
vt 0.64035898447037 -0.04753375053406 0
vt 0.50819540023804 0.52970296144485 0
vt 0.56161743402481 0.52970296144485 0
vt 0.56161743402481 0.52853119373322 0
vt 0.54272848367691 -0.02513337135315 0
vt 0.49236661195755 0.98102390766144 0
vt 0.49236661195755 0.98219567537308 0
vt 0.493303835392 0.98219567537308 0
vt 0.45036622881889 -0.06973934173584 0
vt 0.50913262367249 0.30351507663727 0
vt 0.50819540023804 0.30351507663727 0
vt 0.50819540023804 0.35291528701782 0
vt 0.50702160596848 -0.23553252220154 0
vt 0.56349188089371 0.35291528701782 0
vt 0.56349188089371 0.30351507663727 0
vt 0.56255465745926 0.30351507663727 0
vt 0.50748592615128 -0.23446393013 0
vt 0.50748592615128 -0.23551607131958 0
vt 0.44531843066216 0.1067841053009 0
vt 0.493303835392 0.1067841053009 0
vt 0.493303835392 0.09711706638336 0
vt 0.47970107197762 -0.45086526870728 0
vt 0.43800732493401 0.3476870059967 0
vt 0.44531843066216 0.35005867481232 0
vt 0.47961017489433 -0.4518096446991 0
vt 0.00744577171281 0.53459501266479 0
vt 0.01494360342622 0.53459501266479 0
vt 0.01494360342622 0.51895898580551 0
vt 0.47573569417 -0.46027207374573 0
vt 0.31017073988914 0.51895898580551 0
vt 0.31748002767563 0.50974649190903 0
vt 0.30829629302025 0.50974649190903 0
vt 0.47582244873047 -0.45450234413147 0
vt 0.43800732493401 0.35928738117218 0
vt 0.47734579443932 -0.45195245742798 0
vt 0.52807033061981 0.49012339115143 0
vt 0.52807033061981 0.44072329998016 0
vt 0.52713304758072 0.44072329998016 0
vt 0.52427941560745 -0.11806845664978 0
vt 0.5207017660141 0.44072329998016 0
vt 0.52427941560745 -0.11819505691528 0
vt 0.50819540023804 0.49012339115143 0
vt 0.57800817489624 0.37153327465057 0
vt 0.57107228040695 0.37153327465057 0
vt 0.57107228040695 0.42093348503113 0
vt 0.57190865278244 0.30027687549591 0
vt 0.57857012748718 0.37153327465057 0
vt 0.57857012748718 0.42093348503113 0
vt 0.57190865278244 0.30042219161987 0
vt 0.50819540023804 0.57806152105331 0
vt 0.8088573217392 0.57806152105331 0
vt 0.5094256401062 0.00675177574158 0
vt 0.81673043966293 0.57806152105331 0
vt 0.81035834550858 0.57002079486847 0
vt 0.50950127840042 0.0067822933197 0
vt 0.50950109958649 0.00097501277924 0
vt 0.59941476583481 0.49012339115143 0
vt 0.59941476583481 0.43955147266388 0
vt 0.59298342466354 0.43955147266388 0
vt 0.59627056121826 0.36128902435303 0
vt 0.63059711456299 0.23432517051697 0
vt 0.62965989112854 0.28489708900452 0
vt 0.54783260822296 0.15603673458099 0
vt 0.50819540023804 0.23432517051697 0
vt 0.70922160148621 0.09711706638336 0
vt 0.70344948768616 0.01527667045593 0
vt 0.94550603628159 0.73892116546631 0
vt 0.93913215398788 0.73086416721344 0
vt 0.93913215398788 0.74080771207809 0
vt 0.51270604133606 0.00931084156036 0
vt 0.94550603628159 0.98219567537308 0
vt 0.93913215398788 0.99069100618362 0
vt 0.9925542473793 0.99069100618362 0
vt 0.51035726070404 0.01036310195923 0
vt 0.50913262367249 0.37270510196686 0
vt 0.50819540023804 0.37270510196686 0
vt 0.50819540023804 0.42210519313812 0
vt 0.53903305530548 0.77085101604462 0
vt 0.55618077516556 0.42210519313812 0
vt 0.55618077516556 0.37153327465057 0
vt 0.53949743509293 0.77086973190308 0
vt 0.50913262367249 0.37153327465057 0
vt 0.57035976648331 0.49012339115143 0
vt 0.57809191942215 0.49012339115143 0
vt 0.5771546959877 0.44072329998016 0
vt 0.57418030500412 -0.08095073699951 0
vt 0.57809191942215 0.44072329998016 0
vt 0.49236661195755 0.99069100618362 0
vt 0.493303835392 0.99069100618362 0
vt 0.4517807662487 0.43548285961151 0
vt 0.45179176330566 0.43546414375305 0
vt 0.43894454836845 0.73963594436646 0
vt 0.43800732493401 0.74012106657028 0
vt 0.45413598418236 0.43439555168152 0
vt 0.00744577171281 0.57688975334167 0
vt 0.00744577171281 0.57806152105331 0
vt 0.45565909147263 0.4259307384491 0
vt 0.43800732493401 0.99069100618362 0
vt 0.45179173350334 0.43441426753998 0
vt 0.30866971611977 0.57688975334167 0
vt 0.30829629302025 0.57806152105331 0
vt 0.45565921068192 0.43184566497803 0
vt 0.45567008852959 0.42594003677368 0
vt 0.59544664621353 0.52853119373322 0
vt 0.58901536464691 0.52853119373322 0
vt 0.58901536464691 0.52970296144485 0
vt 0.59015512466431 0.76124036312103 0
vt 0.5765089392662 0.52853119373322 0
vt 0.59016609191895 0.7609965801239 0
vt 0.81766766309738 0.57923328876495 0
vt 0.93819493055344 0.7296923995018 0
vt 0.5094918012619 0.01023662090302 0
vt 0.50949174165726 0.00688767433167 0
vt 0.61163902282715 0.33894097805023 0
vt 0.6125762462616 0.33894097805023 0
vt 0.6125762462616 0.33776915073395 0
vt 0.61118119955063 -0.21604061126709 0
vt 0.60578137636185 0.33776915073395 0
vt 0.60578137636185 0.33894097805023 0
vt 0.61117023229599 -0.21605706214905 0
vt 0.7086124420166 0.21570718288422 0
vt 0.5735148191452 -0.37430143356323 0
vt 0.00744577171281 0.07849895954132 0
vt 0.35004690289497 -0.51841354370117 0
vt 0.54296183586121 0.49012339115143 0
vt 0.54983520507812 0.87160277366638 0
vt 0.59088981151581 0.33776915073395 0
vt 0.58156007528305 0.60932379961014 0
vt 0.60021084547043 0.30468690395355 0
vt 0.6038202047348 0.07229721546173 0
vt 0.51513123512268 0.55438476800919 0
vt 0.50010812282562 0.33320105075836 0
vt 0.50819540023804 0.09711706638336 0
vt 0.70393580198288 0.49866199493408 0
vt 0.45043522119522 -0.54937481880188 0
vt 0.43800732493401 0.07849895954132 0
vt 0.35004711151123 -0.50889420509338 0
vt 0.44648623466492 -0.04925918579102 0
vt 0.00744577171281 0.55321300029755 0
vt 0.44633442163467 -0.04925680160522 0
vt 0.58531928062439 0.30351507663727 0
vt 0.57029616832733 0.08233141899109 0
vt 0.00744577171281 0.00930905342102 0
vt 0.35045087337494 -0.55427002906799 0
vt 0.43838256597519 0.01048076152802 0
vt 0.35044008493423 -0.54473662376404 0
vt 0.50819540023804 0.50874143838882 0
vt 0.64035886526108 -0.05146384239197 0
vt 0.50819540023804 0.52853119373322 0
vt 0.54272848367691 -0.02618551254272 0
vt 0.493303835392 0.98102390766144 0
vt 0.45035520195961 -0.06973934173584 0
vt 0.43800732493401 0.09711706638336 0
vt 0.47970104217529 -0.45195484161377 0
vt 0.00744577171281 0.50974649190903 0
vt 0.47582229971886 -0.4604172706604 0
vt 0.50819540023804 0.44072329998016 0
vt 0.52427941560745 -0.11844110488892 0
vt 0.6369691491127 0.28489708900452 0
vt 0.71015882492065 0.14768898487091 0
vt 0.7034495472908 0.01548194885254 0
vt 0.51035726070404 0.00931084156036 0
vt 0.9925542473793 0.98219567537308 0
vt 0.51043713092804 0.01036310195923 0
vt 0.57035976648331 0.44072329998016 0
vt 0.57418030500412 -0.08108425140381 0
vt 0.45178073644638 0.43439555168152 0
vt 0.59544664621353 0.52970296144485 0
vt 0.59015512466431 0.76136684417725 0
vt 0.5765089392662 0.52970296144485 0
vt 0.59015512466431 0.7609965801239 0
# 228 texture coordinates

o Mesh42_Group36_Group35_Group34_Model
usemtl Mesh42_Group36_Group35_Group34_Model
f 10/3/1 11/2/1 5/1/1
f 22/7/2 23/6/2 13/5/2
f 29/11/3 27/10/3 21/9/3
f 27/15/3 29/14/3 3/13/3
f 2/19/4 30/18/4 28/17/4
f 3/23/5 31/22/5 30/21/5
f 17/27/6 37/26/6 36/25/6
f 38/31/3 16/30/3 15/29/3
f 6/35/5 50/34/5 48/33/5
f 13/5/7 23/6/7 11/37/7
f 25/41/5 54/40/5 51/39/5
f 28/43/5 54/40/5 25/41/5
f 29/47/5 54/46/5 28/45/5
f 34/51/2 52/50/2 51/49/2
f 52/50/7 34/51/7 44/53/7
f 43/57/1 50/56/1 53/55/1
f 42/61/2 48/60/2 50/59/2
f 47/65/5 49/64/5 46/63/5
f 4/69/2 5/68/2 6/67/2
f 7/73/2 8/72/2 9/71/2
f 6/67/2 7/73/2 9/71/2
f 9/78/8 14/77/8 15/76/8
f 15/76/8 16/81/8 10/80/8
f 20/85/8 21/84/8 1/83/8
f 13/89/8 18/88/8 19/87/8
f 10/80/8 17/91/8 18/88/8
f 10/80/8 16/81/8 17/91/8
f 13/89/8 19/87/8 20/85/8
f 26/95/1 22/94/1 12/93/1
f 25/97/1 26/95/1 12/93/1
f 25/97/1 12/93/1 1/99/1
f 21/102/4 27/101/4 28/100/4
f 1/105/4 28/100/4 24/104/4
f 34/108/5 35/107/5 3/23/5
f 32/111/5 33/110/5 34/108/5
f 3/23/5 35/107/5 31/22/5
f 33/116/6 32/115/6 19/114/6
f 18/119/6 36/25/6 33/118/6
f 17/27/6 39/121/6 37/26/6
f 16/30/6 38/31/6 39/122/6
f 44/126/5 39/125/5 38/124/5
f 44/126/5 38/124/5 40/128/5
f 42/130/5 43/129/5 40/128/5
f 14/134/4 45/133/4 46/132/4
f 46/132/4 40/137/4 15/136/4
f 46/132/4 41/139/4 40/137/4
f 47/142/3 14/141/3 9/140/3
f 47/142/3 45/144/3 14/141/3
f 8/146/5 7/145/5 48/33/5
f 48/33/5 49/64/5 47/65/5
f 11/150/5 53/149/5 50/34/5
f 22/153/5 26/152/5 51/39/5
f 50/34/5 6/35/5 5/155/5
f 23/158/5 52/157/5 53/149/5
f 51/39/5 52/157/5 23/158/5
f 54/163/1 31/162/1 35/161/1
f 30/165/1 31/162/1 54/163/1
f 34/108/5 33/110/5 36/167/5
f 37/168/5 39/125/5 44/126/5
f 36/167/5 37/168/5 44/126/5
f 41/173/3 46/172/3 49/171/3
f 49/171/3 48/176/3 42/175/3
f 4/178/1 10/3/1 5/1/1
f 12/180/2 22/7/2 13/5/2
f 20/182/3 29/11/3 21/9/3
f 2/184/3 27/15/3 3/13/3
f 27/186/4 2/19/4 28/17/4
f 2/188/5 3/23/5 30/21/5
f 18/119/6 17/27/6 36/25/6
f 40/190/3 38/31/3 15/29/3
f 7/145/5 6/35/5 48/33/5
f 10/193/7 13/5/7 11/37/7
f 26/152/5 25/41/5 51/39/5
f 24/196/5 28/43/5 25/41/5
f 27/198/5 29/47/5 28/45/5
f 35/200/2 34/51/2 51/49/2
f 53/202/7 52/50/7 44/53/7
f 44/204/1 43/57/1 53/55/1
f 43/206/2 42/61/2 50/59/2
f 45/208/5 47/65/5 46/63/5
f 4/69/2 6/67/2 9/71/2
f 4/210/8 9/78/8 15/76/8
f 4/210/8 15/76/8 10/80/8
f 12/212/8 20/85/8 1/83/8
f 13/89/8 10/80/8 18/88/8
f 12/212/8 13/89/8 20/85/8
f 24/214/1 25/97/1 1/99/1
f 1/105/4 21/102/4 28/100/4
f 32/111/5 34/108/5 3/23/5
f 18/119/6 33/118/6 19/216/6
f 17/217/6 16/30/6 39/122/6
f 43/129/5 44/126/5 40/128/5
f 41/220/5 42/130/5 40/128/5
f 14/134/4 46/132/4 15/136/4
f 8/222/3 47/142/3 9/140/3
f 8/146/5 48/33/5 47/65/5
f 5/155/5 11/150/5 50/34/5
f 11/150/5 23/158/5 53/149/5
f 22/153/5 51/39/5 23/158/5
f 51/225/1 54/163/1 35/161/1
f 28/227/1 30/165/1 54/163/1
f 34/108/5 36/167/5 44/126/5
f 41/173/3 49/171/3 42/175/3

