# WaveFront *.obj file (generated by CINEMA 4D)

mtllib ./Wall_12.mtl

v 80.2001953125 3.6702995300293 -108.78549957275391
v 80.2001953125 84.67030334472656 -108.78549957275391
v 84.2001953125 3.6702995300293 -55.30850982666016
v 80.2001953125 3.6702995300293 -55.30850982666016
v 84.2001953125 84.67030334472656 -55.30850982666016
v 80.2001953125 84.67030334472656 -55.30850982666016
v 60.1005859375 3.67020034790039 -109.78549957275391
v 60.1005859375 3.6702995300293 -108.78549957275391
v 60.1005859375 84.67030334472656 -108.78549957275391
v 60.1005859375 84.67019653320312 -109.78549957275391
v 84.2001953125 3.6702995300293 -109.78549957275391
v 84.2001953125 84.67030334472656 -109.78549957275391
# 12 vertices

vn -1 0 0
vn 1 0 0
vn 0 0 -1
vn 0 0 1
vn 0 -1 0
vn 0 1 0
# 6 normals

vt 0.98647397756577 0.99257731437683 0
vt 0.99251466989517 0.99257797002792 0
vt 0.99251466989517 0.50742202997208 0
vt 1.9298722743988 -0.62810039520264 0
vt 0.00748534221202 0.99257797002792 0
vt 0.3365623652935 0.99257797002792 0
vt 0.3365623652935 0.50742202997208 0
vt 1.16802310943604 -0.62810015678406 0
vt 0.83511769771576 0.99257731437683 0
vt 0.83511769771576 0.50742149353027 0
vt 0.68954014778137 0.50742202997208 0
vt 1.72774493694305 -0.78981924057007 0
vt 0.85008835792542 0.99257737398148 0
vt 0.97150331735611 0.99257737398148 0
vt 0.97150331735611 0.50742149353027 0
vt 1.87019145488739 -0.62810063362122 0
vt 0.35153305530548 0.50742202997208 0
vt 0.35153305530548 0.99257797002792 0
vt 0.67456942796707 0.99257797002792 0
vt 1.3947833776474 -0.63573098182678 0
vt 0.3285818696022 0.00742208957672 0
vt 0.3285818696022 0.49257802963257 0
vt 0.35274451971054 0.49257802963257 0
vt 1.27218341827393 -1.1357307434082 0
vt 0.00748534221202 0.1662837266922 0
vt 0.00748534221202 0.17227327823639 0
vt 0.12890027463436 0.17227327823639 0
vt 0.98732209205627 -1.28873062133789 0
vt 0.12890027463436 0.49257802963257 0
vt 0.15306290984154 0.49257802963257 0
vt 0.98352855443954 -1.28835916519165 0
vt 0.28944852948189 0.48658835887909 0
vt 0.31361117959023 0.49257802963257 0
vt 0.31361117959023 0.1662837266922 0
vt 1.19260263442993 -0.9766857624054 0
vt 0.16803359985352 0.49257802963257 0
vt 1.19639623165131 -0.97631430625916 0
vt 0.98647397756577 0.50742149353027 0
vt 1.92994475364685 -0.62810039520264 0
vt 0.00748534221202 0.50742202997208 0
vt 1.17188918590546 -0.62810611724854 0
vt 0.68954014778137 0.99257797002792 0
vt 1.72774493694305 -0.79745006561279 0
vt 0.85008835792542 0.50742149353027 0
vt 1.87162303924561 -0.62810063362122 0
vt 0.67456942796707 0.50742202997208 0
vt 1.3947833776474 -0.62810015678406 0
vt 0.35274451971054 0.00742208957672 0
vt 1.27218341827393 -1.12809991836548 0
vt 0.15306290984154 0.1662837266922 0
vt 0.98739457130432 -1.28835916519165 0
vt 0.28944852948189 0.1662837266922 0
vt 1.19260263442993 -0.97631430625916 0
vt 0.16803359985352 0.48658835887909 0
vt 1.19639623165131 -0.97441554069519 0
# 55 texture coordinates

o Mesh136_Group117_Model
usemtl Mesh136_Group117_Model
f 8/3/1 9/2/1 10/1/1
f 11/7/2 12/6/2 5/5/2
f 11/11/3 7/10/3 10/9/3
f 1/15/4 2/14/4 9/13/4
f 6/19/1 2/18/1 1/17/1
f 5/23/4 6/22/4 4/21/4
f 1/27/5 8/26/5 7/25/5
f 3/30/5 4/29/5 1/27/5
f 5/34/6 12/33/6 2/32/6
f 2/32/6 12/33/6 10/36/6
f 7/38/1 8/3/1 10/1/1
f 3/40/2 11/7/2 5/5/2
f 12/42/3 11/11/3 10/9/3
f 8/44/4 1/15/4 9/13/4
f 4/46/1 6/19/1 1/17/1
f 3/48/4 5/23/4 4/21/4
f 11/50/5 1/27/5 7/25/5
f 11/50/5 3/30/5 1/27/5
f 6/52/6 5/34/6 2/32/6
f 9/54/6 2/32/6 10/36/6

