# WaveFront *.obj file (generated by CINEMA 4D)

mtllib ./window_outline2.mtl

v 73.6005859375 -13.75 -241.44451904296875
v 73.6005859375 106.25 -241.44451904296875
v 359.80078125 -13.75 -236.78851318359375
v 359.80078125 -13.75 -241.44451904296875
v 359.80078125 106.25 -236.78851318359375
v 359.80078125 106.25 -241.44451904296875
v 73.6005859375 106.25 -236.78851318359375
v 75.1005859375 104.75 -236.78851318359375
v 75.1005859375 -12.25 -236.78851318359375
v 73.6005859375 -13.75 -236.78851318359375
v 358.30078125 -12.25 -236.78851318359375
v 75.1005859375 -12.25 -241.44451904296875
v 358.30078125 -12.25 -241.44451904296875
v 358.30078125 104.75 -241.44451904296875
v 358.30078125 104.75 -236.78851318359375
v 75.1005859375 104.75 -241.44451904296875
# 16 vertices

vn 0 1 0
vn 0 0 1
vn 1 0 0
vn 0 -1 0
vn -1 0 0
vn 0 0 -1
# 6 normals

vt 0.00884527526796 0.1300665140152 0
vt 0.92593455314636 0.1300665140152 0
vt 0.92593455314636 0.11410748958588 0
vt 1.37453556060791 0.12131929397583 0
vt 0.92593455314636 0.99053847789764 0
vt 0.01365181989968 0.98539710044861 0
vt 0.00884527526796 0.99053847789764 0
vt 0.15305238962173 1.39671003818512 0
vt 0.01365181989968 0.58436691761017 0
vt 0.00884527526796 0.57922554016113 0
vt 0.15305238962173 0.98539710044861 0
vt 0.92112803459167 0.58436691761017 0
vt 0.15785892307758 0.99053847789764 0
vt 0.92593455314636 0.57922554016113 0
vt 1.07044124603271 0.98539710044861 0
vt 1.06563472747803 0.99053847789764 0
vt 0.94362509250641 0.99053847789764 0
vt 0.95854461193085 0.99053847789764 0
vt 0.95854461193085 0.57922554016113 0
vt 0.96849077939987 0.85000658035278 0
vt 0.92593455314636 0.07922554016113 0
vt 0.00884527526796 0.07922554016113 0
vt 0.00884527526796 0.09518456459045 0
vt 0.47763320803642 0.08111763000488 0
vt 0.94362509250641 0.56030249595642 0
vt 0.95854461193085 0.56030249595642 0
vt 0.95854461193085 0.14898955821991 0
vt 0.95357143878937 0.41977059841156 0
vt 0.92593455314636 0.56030249595642 0
vt 0.92593455314636 0.14898955821991 0
vt 0.92112803459167 0.15413093566895 0
vt 1.08261728286743 0.28952145576477 0
vt 0.00884527526796 0.14898955821991 0
vt 1.08742392063141 0.28438007831573 0
vt 0.01365181989968 0.15413093566895 0
vt 0.17484150826931 0.28952145576477 0
vt 0.00884527526796 0.56030249595642 0
vt 0.1700349599123 0.28438007831573 0
vt 0.01365181989968 0.55516105890274 0
vt 0.1700349599123 0.69569301605225 0
vt 0.99115473031998 0.99053847789764 0
vt 0.99115473031998 0.58950835466385 0
vt 0.97623521089554 0.58950835466385 0
vt 0.97126221656799 0.72489887475967 0
vt 0.91632145643234 0.04434359073639 0
vt 0.00884527526796 0.04434359073639 0
vt 0.00884527526796 0.06030249595642 0
vt 0.15305238962173 0.06219434738159 0
vt 0.97623521089554 0.16955518722534 0
vt 0.97623521089554 0.57058531045914 0
vt 0.99115473031998 0.57058531045914 0
vt 0.99612766504288 0.83965253829956 0
vt 0.92112803459167 0.55516105890274 0
vt 1.08261728286743 0.69055157899857 0
vt 0.00884527526796 0.02542054653168 0
vt 0.91632145643234 0.02542054653168 0
vt 0.91632145643234 0.00946152210236 0
vt -0.13566146790981 0.03263199329376 0
vt 0.92112803459167 0.98539710044861 0
vt 1.06563472747803 1.39156866073608 0
vt 0.00884527526796 0.11410748958588 0
vt 0.45714661478996 0.12131929397583 0
vt 0.94362509250641 0.57922554016113 0
vt 0.95357143878937 0.85000658035278 0
vt 0.92593455314636 0.09518456459045 0
vt -0.4397557079792 0.08111763000488 0
vt 0.94362509250641 0.14898955821991 0
vt 0.93865215778351 0.41977059841156 0
vt 0.97623521089554 0.99053847789764 0
vt 0.97126221656799 1.12592899799347 0
vt 0.91632145643234 0.06030249595642 0
vt 1.06082820892334 0.06219434738159 0
vt 0.99115473031998 0.16955518722534 0
vt 0.99612766504288 0.43862247467041 0
vt 0.00884527526796 0.00946152210236 0
vt 0.77211433649063 0.03263199329376 0
# 76 texture coordinates

o Mesh80_Group83_Group82_Group81_Model
usemtl Mesh80_Group83_Group82_Group81_Model
f 5/3/1 6/2/1 2/1/1
f 7/7/2 8/6/2 5/5/2
f 7/7/2 9/9/2 8/6/2
f 10/10/2 9/9/2 7/7/2
f 9/9/2 10/10/2 11/12/2
f 3/14/2 11/12/2 10/10/2
f 11/12/2 3/14/2 5/5/2
f 4/19/3 6/18/3 5/17/3
f 10/23/4 1/22/4 4/21/4
f 10/27/5 7/26/5 2/25/5
f 12/31/6 1/30/6 2/29/6
f 1/30/6 12/31/6 4/33/6
f 13/35/6 4/33/6 12/31/6
f 4/33/6 13/35/6 6/37/6
f 6/37/6 13/35/6 14/39/6
f 13/43/5 11/42/5 15/41/5
f 12/47/1 9/46/1 11/45/1
f 16/51/3 8/50/3 9/49/3
f 12/31/6 2/29/6 16/53/6
f 16/53/6 2/29/6 14/39/6
f 6/37/6 14/39/6 2/29/6
f 14/57/4 15/56/4 8/55/4
f 15/59/2 5/5/2 8/6/2
f 11/12/2 5/5/2 15/59/2
f 7/61/1 5/3/1 2/1/1
f 3/63/3 4/19/3 5/17/3
f 3/65/4 10/23/4 4/21/4
f 1/67/5 10/27/5 2/25/5
f 14/69/5 13/43/5 15/41/5
f 13/71/1 12/47/1 11/45/1
f 12/73/3 16/51/3 9/49/3
f 16/75/4 14/57/4 8/55/4

