# WaveFront *.obj file (generated by CINEMA 4D)

mtllib ./Window_1.mtl

v 263.900390625 -12.25 -239.44451904296875
v 216.7001953125 -12.25 -239.44451904296875
v 216.7001953125 -12.25 -238.94451904296875
v 263.900390625 -12.25 -238.94451904296875
v 263.900390625 104.75 -239.44451904296875
v 216.7001953125 104.75 -239.44451904296875
v 263.900390625 104.75 -238.94451904296875
v 311.1005859375 -12.25 -239.44451904296875
v 311.1005859375 104.75 -239.44451904296875
v 311.1005859375 -12.25 -238.94451904296875
v 311.1005859375 104.75 -238.94451904296875
v 216.7001953125 104.75 -238.94451904296875
v 169.5 -12.25 -239.44451904296875
v 169.5 104.75 -239.44451904296875
v 169.5 -12.25 -238.94451904296875
v 122.30078125 -12.25 -239.44451904296875
v 122.30078125 -12.25 -238.94451904296875
v 122.30078125 104.75 -239.44451904296875
v 169.5 104.75 -238.94451904296875
v 122.30078125 104.75 -238.94451904296875
v 358.30078125 104.75 -239.44451904296875
v 358.30078125 104.75 -238.94451904296875
v 358.30078125 -12.25 -239.44451904296875
v 358.30078125 -12.25 -238.94451904296875
v 75.1005859375 -12.25 -238.94451904296875
v 75.1005859375 104.75 -238.94451904296875
v 75.1005859375 -12.25 -239.44451904296875
v 75.1005859375 104.75 -239.44451904296875
# 28 vertices

vn 0 1 0
vn 0 0 1
vn 1 0 0
vn 0 0 -1
vn -1 0 0
vn 0 -1 0
# 6 normals

vt 190.36199951171875 2.15594005584717 0
vt 143.14700317382812 2.15594005584717 0
vt 143.14700317382812 2.65594005584717 0
vt 143.14700317382812 118.5 0
vt 190.36199951171875 118.5 0
vt 190.36199951171875 1.5 0
vt 2.15594005584717 1.5 0
vt 2.15594005584717 118.5 0
vt 2.65594005584717 118.5 0
vt 237.5780029296875 118.5 0
vt 237.5780029296875 1.5 0
vt 237.5780029296875 2.15594005584717 0
vt 190.36199951171875 2.65594005584717 0
vt -237.5780029296875 118.5 0
vt -190.36199951171875 118.5 0
vt -190.36199951171875 1.5 0
vt -143.14700317382812 118.5 0
vt -143.14700317382812 1.5 0
vt -2.15594005584717 118.5 0
vt -2.15594005584717 1.5 0
vt -2.65594005584717 1.5 0
vt 95.93119812011719 118.5 0
vt 143.14700317382812 1.5 0
vt 95.93119812011719 2.15594005584717 0
vt 95.93119812011719 2.65594005584717 0
vt 48.71559906005859 2.15594005584717 0
vt 48.71559906005859 2.65594005584717 0
vt 48.71559906005859 118.5 0
vt 95.93119812011719 1.5 0
vt -48.71559906005859 2.15594005584717 0
vt -95.93119812011719 2.15594005584717 0
vt -95.93119812011719 2.65594005584717 0
vt -143.14700317382812 2.15594005584717 0
vt -143.14700317382812 2.65594005584717 0
vt -190.36199951171875 2.15594005584717 0
vt -190.36199951171875 2.65594005584717 0
vt -237.5780029296875 2.15594005584717 0
vt -237.5780029296875 2.65594005584717 0
vt -284.79400634765625 2.15594005584717 0
vt -284.79400634765625 2.65594005584717 0
vt 284.79400634765625 118.5 0
vt 284.79400634765625 1.5 0
vt 284.79400634765625 2.15594005584717 0
vt 237.5780029296875 2.65594005584717 0
vt -284.79400634765625 118.5 0
vt -237.5780029296875 1.5 0
vt -95.93119812011719 118.5 0
vt -95.93119812011719 1.5 0
vt -48.71559906005859 118.5 0
vt -48.71559906005859 1.5 0
vt -1.5 118.5 0
vt -1.5 1.5 0
vt 1.5 2.15594005584717 0
vt 1.5 2.65594005584717 0
vt 1.5 118.5 0
vt 48.71559906005859 1.5 0
vt -1.5 2.15594005584717 0
vt -48.71559906005859 2.65594005584717 0
vt 2.65594005584717 1.5 0
vt -2.65594005584717 118.5 0
vt 284.79400634765625 2.65594005584717 0
vt -284.79400634765625 1.5 0
vt 1.5 1.5 0
vt -1.5 2.65594005584717 0
# 64 texture coordinates

o Mesh81_Group82_Group81_Model
usemtl _38
f 2/3/1 3/2/1 4/1/1
f 1/6/2 5/5/2 6/4/2
f 5/9/3 7/8/3 4/7/3
f 8/11/2 9/10/2 5/5/2
f 1/13/1 4/1/1 10/12/1
f 4/16/4 7/15/4 11/14/4
f 3/18/4 12/17/4 7/15/4
f 2/21/5 3/20/5 12/19/5
f 2/23/2 6/4/2 14/22/2
f 13/25/1 15/24/1 3/2/1
f 16/27/1 17/26/1 15/24/1
f 13/29/2 14/22/2 18/28/2
f 14/9/3 19/8/3 15/7/3
f 14/32/6 19/31/6 20/30/6
f 6/34/6 12/33/6 19/31/6
f 5/36/6 7/35/6 12/33/6
f 9/38/6 11/37/6 7/35/6
f 21/40/6 22/39/6 11/37/6
f 23/42/2 21/41/2 9/10/2
f 8/44/1 10/12/1 24/43/1
f 8/21/5 10/20/5 11/19/5
f 10/46/4 11/14/4 22/45/4
f 23/21/5 24/20/5 22/19/5
f 15/48/4 19/47/4 12/17/4
f 17/50/4 20/49/4 19/47/4
f 25/52/4 26/51/4 20/49/4
f 27/54/1 25/53/1 17/26/1
f 16/56/2 18/28/2 28/55/2
f 16/21/5 17/20/5 20/19/5
f 18/58/6 20/30/6 26/57/6
f 28/9/3 26/8/3 25/7/3
f 1/13/1 2/3/1 4/1/1
f 2/23/2 1/6/2 6/4/2
f 1/59/3 5/9/3 4/7/3
f 1/6/2 8/11/2 5/5/2
f 8/44/1 1/13/1 10/12/1
f 10/46/4 4/16/4 11/14/4
f 4/16/4 3/18/4 7/15/4
f 6/60/5 2/21/5 12/19/5
f 13/29/2 2/23/2 14/22/2
f 2/3/1 13/25/1 3/2/1
f 13/25/1 16/27/1 15/24/1
f 16/56/2 13/29/2 18/28/2
f 13/59/3 14/9/3 15/7/3
f 18/58/6 14/32/6 20/30/6
f 14/32/6 6/34/6 19/31/6
f 6/34/6 5/36/6 12/33/6
f 5/36/6 9/38/6 7/35/6
f 9/38/6 21/40/6 11/37/6
f 8/11/2 23/42/2 9/10/2
f 23/61/1 8/44/1 24/43/1
f 9/60/5 8/21/5 11/19/5
f 24/62/4 10/46/4 22/45/4
f 21/60/5 23/21/5 22/19/5
f 3/18/4 15/48/4 12/17/4
f 15/48/4 17/50/4 19/47/4
f 17/50/4 25/52/4 20/49/4
f 16/27/1 27/54/1 17/26/1
f 27/63/2 16/56/2 28/55/2
f 18/60/5 16/21/5 20/19/5
f 28/64/6 18/58/6 26/57/6
f 27/59/3 28/9/3 25/7/3

