<?xml version="1.0" encoding="UTF-8"?>
<svg width="100%" height="100%" viewBox="0 0 1167 361" version="1.1" xmlns="http://www.w3.org/2000/svg" xmlns:xlink="http://www.w3.org/1999/xlink">
    <!-- Generator: Sketch 51.3 (57544) - http://www.bohemiancoding.com/sketch -->
    <title>demonstration</title>
    <desc>Created with Sketch.</desc>
    <defs>
        <filter x="-30.9%" y="-47.2%" width="162.9%" height="195.5%" filterUnits="objectBoundingBox" id="filter-1">
            <feOffset dx="0" dy="0" in="SourceAlpha" result="shadowOffsetOuter1"></feOffset>
            <feGaussianBlur stdDeviation="11.5" in="shadowOffsetOuter1" result="shadowBlurOuter1"></feGaussianBlur>
            <feColorMatrix values="0 0 0 0 0   0 0 0 0 0   0 0 0 0 0  0 0 0 0.5 0" type="matrix" in="shadowBlurOuter1" result="shadowMatrixOuter1"></feColorMatrix>
            <feMerge>
                <feMergeNode in="shadowMatrixOuter1"></feMergeNode>
                <feMergeNode in="SourceGraphic"></feMergeNode>
            </feMerge>
        </filter>
        <path d="M250.892175,100.325378 L234.46796,100.325378 L234.46796,83.1252064 C234.087062,83.0692838 233.695882,83.0151704 233.29442,82.962866 L233.29442,83.1963801 C233.091525,83.2243865 232.891391,83.2528787 232.694017,83.2818566 L232.694017,100.482028 L216.269802,100.482028 L216.269802,90.7670412 L216.269802,101.976354 L233.867557,101.976354 L233.867557,101.819704 L250.892175,101.819704 L250.892175,100.325378 Z M214.609738,91.1150934 C220.987932,85.5569509 227.366127,82.7778797 233.744322,82.7778797 C240.122517,82.7778797 246.500711,85.5569509 252.878906,91.1150934 L250.028193,129.22975 C245.578186,132.050167 240.396254,133.460376 234.482396,133.460376 C228.568538,133.460376 223.095225,132.050167 218.062458,129.22975 L214.609738,91.1150934 Z" id="path-2"></path>
        <filter x="-47.0%" y="-35.5%" width="194.1%" height="171.0%" filterUnits="objectBoundingBox" id="filter-3">
            <feOffset dx="0" dy="0" in="SourceAlpha" result="shadowOffsetOuter1"></feOffset>
            <feGaussianBlur stdDeviation="6" in="shadowOffsetOuter1" result="shadowBlurOuter1"></feGaussianBlur>
            <feColorMatrix values="0 0 0 0 0   0 0 0 0 0   0 0 0 0 0  0 0 0 0.5 0" type="matrix" in="shadowBlurOuter1"></feColorMatrix>
        </filter>
    </defs>
    <g id="Page-1" stroke="none" stroke-width="1" fill="none" fill-rule="evenodd">
        <g id="demonstration">
            <g id="Group-8" transform="translate(0.000000, 100.000000)" fill="#FFFFFF" fill-rule="nonzero">
                <g id="Group">
                    <circle id="Oval" cx="47" cy="166.2" r="5.3"></circle>
                    <path d="M92.9,163.2 L80.5,150.8 L3.8,150.8 L3.8,32.5 L90.1,32.5 L90.1,131.3 C90.9,131.8 91.7,132.3 92.5,133.1 L92.9,133.5 L93.4,134 L93.9,134.5 L93.9,0.2 L0,0.2 L0,183 L93.9,183 L93.9,164.2 L93.4,163.7 L92.9,163.2 Z M47,156.9 C52.1,156.9 56.3,161.1 56.3,166.2 C56.3,171.3 52.1,175.5 47,175.5 C41.9,175.5 37.7,171.3 37.7,166.2 C37.7,161.1 41.8,156.9 47,156.9 Z" id="Shape"></path>
                    <path d="M143.875,131.2 L136.075,123.4 C135.675,123 135.475,122.6 135.475,122.1 C135.275,115.5 132.575,109.4 127.975,104.8 L118.175,95 C115.675,92.5 111.475,92.5 108.975,95 C108.175,95.8 107.675,96.8 107.375,98.1 C107.175,98.8 106.675,99.3 106.075,99.5 C105.375,99.7 104.675,99.6 104.175,99.1 C101.575,96.9 97.775,97 95.375,99.4 C94.575,100.2 94.075,101.2 93.775,102.5 C93.575,103.2 93.075,103.7 92.475,103.9 C91.775,104.1 91.075,104 90.575,103.5 C87.975,101.3 84.175,101.4 81.775,103.8 C81.075,104.5 80.575,105.5 80.175,106.8 C79.975,107.5 79.475,108 78.775,108.2 C78.075,108.4 77.375,108.2 76.875,107.7 L67.375,98.2 L66.875,97.7 L66.375,97.2 L63.575,94.4 L63.075,93.9 C61.775,92.6 60.175,92 58.475,92 C58.375,92 58.175,92 58.075,92 C56.575,92.1 55.075,92.7 53.875,93.9 C51.375,96.4 51.375,100.6 53.875,103.1 L55.575,104.8 L59.575,108.8 L66.375,115.6 L66.875,116.1 L67.375,116.6 L76.775,126 C77.475,126.7 77.575,127.7 77.075,128.5 C74.775,132 75.175,136.4 77.975,139.3 L83.975,145.3 C86.775,148.1 91.375,150 98.275,151.1 C103.475,151.9 108.675,152.1 112.575,152.1 C113.075,152.1 113.575,152.3 113.975,152.7 L117.875,156.6 C117.875,156.6 118.075,156.6 118.075,156.6 L143.675,131 C143.875,131.4 143.875,131.3 143.875,131.2 Z" id="Shape"></path>
                </g>
                <path d="M46.4,228 C37.3,228 30,235.4 30,244.4 C30,253.5 37.4,260.8 46.4,260.8 C55.5,260.8 62.8,253.4 62.8,244.4 C62.8,235.4 55.4,228 46.4,228 Z M48.8,251.7 L45.4,251.7 L45.4,240.3 L41.5,240.3 L41.5,238.1 C42.5,238.1 43.2,238 43.7,237.9 C44.4,237.8 44.9,237.5 45.3,237 C45.6,236.7 45.8,236.3 45.9,235.8 C46,235.5 46,235.3 46,235.1 L48.7,235.1 L48.7,251.7 L48.8,251.7 Z" id="Shape"></path>
            </g>
            <g id="Group-9" transform="translate(252.000000, 0.000000)" fill-rule="nonzero">
                <path d="M143.4,328 C134.3,328 127,335.4 127,344.4 C127,353.5 134.4,360.8 143.4,360.8 C152.5,360.8 159.8,353.4 159.8,344.4 C159.8,335.4 152.5,328 143.4,328 Z M149.1,351.7 L137.8,351.7 C137.8,350.5 138.1,349.4 138.6,348.4 C139.1,347.3 140.2,346.1 141.9,344.9 C143.4,343.8 144.4,343.1 144.8,342.6 C145.5,341.9 145.8,341.1 145.8,340.2 C145.8,339.5 145.6,338.9 145.2,338.5 C144.8,338.1 144.3,337.8 143.5,337.8 C142.5,337.8 141.8,338.2 141.5,338.9 C141.3,339.3 141.2,340 141.1,340.9 L137.9,340.9 C138,339.5 138.2,338.4 138.7,337.5 C139.6,335.8 141.1,335 143.3,335 C145.1,335 146.5,335.5 147.5,336.5 C148.5,337.5 149.1,338.8 149.1,340.4 C149.1,341.6 148.7,342.7 148,343.7 C147.5,344.3 146.7,345 145.6,345.8 L144.3,346.7 C143.5,347.3 142.9,347.7 142.6,348 C142.3,348.3 142,348.6 141.8,348.9 L149,348.9 L149,351.7 L149.1,351.7 Z" id="Shape" fill="#FFFFFF"></path>
                <g id="Group">
                    <polygon id="Shape" fill="#FFFFFF" points="54.5 273 54.5 263.8 42.3 267.7"></polygon>
                    <polygon id="Shape" fill="#FFFFFF" points="33.6 190 0.3 200.8 0.3 220.8 33.6 210"></polygon>
                    <path d="M45.3,221.9 C45.1,222 44.9,222 44.7,222 C44.5,222 44.3,222 44.1,221.9 C44.1,221.9 44.1,221.9 44.1,221.9 C44,221.9 44,221.8 43.9,221.8 C43.8,221.7 43.7,221.7 43.6,221.6 C43.6,221.6 43.6,221.6 43.6,221.6 C43.6,221.6 43.6,221.6 43.6,221.6 L34.4,214.5 C34.3,214.4 34.3,214.4 34.2,214.3 C34.2,214.3 34.1,214.2 34.1,214.2 C34.1,214.2 34.1,214.2 34.1,214.1 C34.1,214.1 34.1,214.1 34.1,214.1 C34.1,214.1 34.1,214.1 34.1,214.1 L1.9,224.5 L37.2,265 L37.3,265.1 L54.6,259.5 L54.6,259.3 L54.6,219 L45.3,221.9 C45.3,221.9 45.3,221.9 45.3,221.9 Z" id="Shape" fill="#FFFFFF"></path>
                    <polygon id="Shape" fill="#F70A53" points="45.2 132.4 172.6 91.1 174.6 90.5 176.6 89.9 179.8 88.8 176.6 86.1 174.6 84.3 174.5 84.2 39.9 127.9 40.3 128.2"></polygon>
                    <path d="M69.6,178.3 L69.6,176.2 L69.6,174.1 L69.6,132.7 L159,103.7 L159,155 L172.7,150.6 L174.7,150 L176.7,149.4 L181.9,147.7 L181.9,92.4 L176.7,94.1 L174.7,94.7 L172.7,95.3 L46.8,136.1 L46.8,181.5 L46.8,183.6 L46.8,185.7 L46.8,205.7 L46.8,205.8 L46.8,207.2 L46.8,207.8 L46.8,207.9 L46.8,209.3 L46.8,209.9 L46.8,210 L46.8,211.4 L46.8,217.3 L54.5,214.8 L54.5,208.9 L54.5,207.5 L54.5,207.4 L54.5,206.8 L54.5,205.4 L54.5,205.3 L54.5,204.7 L54.5,203.3 L54.5,203.2 L54.5,190.5 C54.5,190.4 54.5,190.4 54.5,190.3 C54.5,190.2 54.5,190.2 54.5,190.1 C54.5,189.3 55.1,188.5 55.9,188.3 L69.6,183.9 L69.6,178.3 Z M170.2,128 C171.1,128 171.9,128.1 172.6,128.4 C173.3,128.6 174,129 174.6,129.4 C175.4,129.9 176.1,130.6 176.6,131.3 C177.6,132.6 178.1,134.2 178.1,136 C178.1,137.7 177.5,139.4 176.6,140.7 C176,141.5 175.4,142.1 174.6,142.6 C174,143 173.3,143.3 172.6,143.6 C171.8,143.8 171,144 170.2,144 C165.8,144 162.2,140.4 162.2,136 C162.2,131.6 165.8,128 170.2,128 Z" id="Shape" fill="#F70A53"></path>
                    <path d="M170.2,140 C171.1,140 172,139.7 172.6,139.1 C173.5,138.4 174.1,137.3 174.1,136 C174.1,134.7 173.5,133.6 172.6,132.9 C171.9,132.4 171.1,132 170.2,132 C168,132 166.2,133.8 166.2,136 C166.2,138.2 168,140 170.2,140 Z" id="Shape" fill="#F70A53"></path>
                    <polygon id="Shape" fill="#F70A53" points="38.5 212.6 38.5 212.7 39.8 213.7 42.8 216 42.8 216 42.8 212.7 42.8 212.7 42.8 211.3 42.8 211.2 42.8 210.6 42.8 209.2 42.8 209.1 42.8 208.5 42.8 208.5 42.8 207.1 42.8 207 42.8 187 42.8 184.9 42.8 182.8 42.8 135.6 37.6 131.3 37.6 184.5 37.6 186.6 37.6 188.7 37.6 208.7 37.6 208.8 37.6 210.2 37.6 210.2 37.6 210.8 37.6 210.9 37.6 212 37.9 212.2"></polygon>
                    <path d="M218,243.8 L176.5,257.2 C178.3,257.8 180.1,258.5 181.9,259.5 C203.7,254.7 230.4,254.3 244.9,254.5 L218.7,243.2 C218.5,243.5 218.3,243.7 218,243.8 Z" id="Shape" fill="#FFFFFF"></path>
                    <path d="M118.8,296.1 C124.4,289.6 136.3,277.5 153.7,269.1 C154,267.3 154.6,265.6 155.4,264.1 L118.8,276 L118.8,296.1 Z" id="Shape" fill="#FFFFFF"></path>
                    <path d="M219.4,175.8 L219.4,238.9 L253.8,253.7 L253.8,173.4 C249.2,173.6 235.5,174.1 219.4,175.8 Z" id="Shape" fill="#FFFFFF"></path>
                    <path d="M213.9,240.9 L215.4,240.4 L215.4,239.7 L215.4,239.4 L215.4,237.6 L215.4,237.3 L215.4,176.3 C209.6,176.9 203.5,177.7 197.5,178.7 C196.8,178.8 196.2,178.9 195.5,179 C194.8,179.1 194.2,179.2 193.5,179.3 C184.1,181 175,183.1 167.4,185.8 C161.7,187.8 156.5,190.2 151.7,192.7 C151.1,193 150.5,193.3 149.9,193.7 C149.3,194 148.7,194.4 148.1,194.7 C133.5,202.9 123.7,212.1 120,215.9 C120.2,215.8 120.4,215.8 120.7,215.7 C121.4,215.5 122.2,215.8 122.7,216.4 C123.2,217 123.3,217.8 122.9,218.5 C122.8,218.7 122.7,219 122.7,219.2 C122.7,220.1 123.5,220.9 124.4,220.9 C125.3,220.9 126.1,220.1 126.1,219.2 C126.1,219 126,218.7 125.9,218.5 C125.6,217.8 125.7,217 126.1,216.4 C126.5,215.8 127.3,215.5 128.1,215.7 C135.7,217.3 141.5,223.5 142.7,230.9 C142.7,231 142.7,231 142.7,231.1 C142.8,231.7 142.9,232.3 142.9,233 C142.9,233.1 142.9,233.1 142.9,233.2 C142.9,233.5 142.9,233.7 142.9,234 C142.9,234.4 142.9,234.8 142.9,235.1 C142.9,235.2 142.9,235.2 142.9,235.3 C142.8,236.8 142.5,238.4 142,239.8 C141.8,240.5 141.1,241 140.4,241.2 C139.7,241.3 138.9,241 138.5,240.4 C138.3,240.2 138.2,240 138,239.9 C137.2,239.4 136.1,239.7 135.6,240.5 C135.1,241.3 135.4,242.4 136.2,242.9 C136.4,243 136.6,243.1 136.9,243.1 C137.7,243.2 138.3,243.7 138.6,244.4 C138.9,245.1 138.7,245.9 138.2,246.5 C137.7,247 137.2,247.5 136.7,248 C136.7,248 136.7,248 136.6,248 C133.2,251 128.8,252.7 124.2,252.7 C123.6,252.7 122.9,252.7 122.3,252.6 C122.3,252.6 122.3,252.6 122.2,252.6 C120.9,252.5 119.7,252.2 118.5,251.8 L118.5,253.8 L118.5,255.9 L118.5,258 L118.5,261.5 L118.5,263.6 L118.5,265.7 L118.5,271.9 L161.9,257.8 L165.6,256.6 L213.2,241.2 L213.9,240.9 Z M184.1,232.4 C179.8,231.8 175.9,229.7 172.9,226.4 C172.7,226.2 172.6,225.9 172.5,225.6 C172.5,225.5 172.5,225.5 172.4,225.4 C172.3,225 172.4,224.7 172.5,224.3 C172.8,223.6 173.4,223.1 174.2,223 C174.5,223 174.7,222.9 174.9,222.8 C175,222.7 175.1,222.6 175.2,222.6 C175.2,222.6 175.2,222.6 175.2,222.6 C175.2,222.6 175.2,222.6 175.2,222.6 C175.7,222.1 175.9,221.3 175.5,220.6 C175.5,220.6 175.5,220.6 175.5,220.5 C175,219.7 174,219.4 173.1,219.9 C173,219.9 173,220 172.9,220.1 C172.8,220.2 172.7,220.3 172.6,220.4 C172.3,220.8 171.8,221.1 171.3,221.2 C171.1,221.2 170.9,221.2 170.7,221.2 C170,221.1 169.3,220.6 169.1,219.9 C168.9,219.3 168.8,218.7 168.6,218.2 C168.3,217 168.2,215.8 168.1,214.6 C168.1,214.4 168.1,214.2 168.1,214 C168.1,213.2 168.2,212.4 168.3,211.7 C169.3,203.9 175.2,197.4 183,195.8 C183.7,195.7 184.5,195.9 185,196.5 C185.5,197.1 185.6,197.9 185.2,198.6 C185.1,198.8 185,199.1 185,199.3 C185,200.3 185.8,201 186.7,201 C187.6,201 188.4,200.2 188.4,199.3 C188.4,199.1 188.3,198.8 188.2,198.6 C187.9,197.9 188,197.1 188.4,196.5 C188.8,195.9 189.6,195.6 190.4,195.8 C191.4,196 192.4,196.3 193.3,196.7 C194,197 194.7,197.3 195.3,197.6 C196,198 196.7,198.4 197.3,198.8 C202.1,202.2 205.2,207.8 205.2,214 C205.2,216 204.9,217.9 204.3,219.8 C204.1,220.5 203.4,221 202.7,221.2 C201.9,221.3 201.2,221 200.8,220.4 C200.6,220.2 200.5,220 200.3,219.9 C199.5,219.4 198.4,219.7 197.9,220.5 C197.4,221.3 197.7,222.4 198.5,222.9 C198.7,223 198.9,223.1 199.2,223.1 C199.9,223.2 200.6,223.7 200.9,224.4 C201.2,225.1 201,225.9 200.5,226.5 C199.5,227.6 198.5,228.5 197.3,229.3 C197.1,229.4 196.9,229.5 196.7,229.7 C196.7,229.7 196.6,229.8 196.6,229.8 C196.2,230.1 195.7,230.3 195.3,230.6 C195,230.8 194.7,230.9 194.4,231.1 C194.1,231.3 193.7,231.4 193.4,231.5 C192.8,231.7 192.3,231.9 191.7,232.1 C190.1,232.6 188.4,232.8 186.6,232.8 C185.9,232.6 185.1,232.5 184.1,232.4 C184.2,232.4 184.1,232.4 184.1,232.4 Z" id="Shape" fill="#FFFFFF"></path>
                    <path d="M132.2,238.5 C132.2,238.5 132.2,238.4 132.3,238.4 C133.7,236 136.5,235 139,235.8 C139.1,235.3 139.1,234.8 139.1,234.4 C139.1,234.3 139.1,234.3 139.1,234.2 C139.1,234.1 139.1,234 139.1,233.9 C139.1,233.4 139.1,232.8 139,232.3 C139,232.2 139,232.2 139,232.1 C138.4,226.8 134.9,222.3 130.1,220.3 C129.5,222.9 127.2,224.8 124.5,224.8 C121.8,224.8 119.5,222.9 118.9,220.3 C118.9,220.3 118.8,220.3 118.8,220.3 L118.8,238.6 L118.8,238.8 L118.8,240.7 L118.8,240.9 L118.8,242.8 L118.8,243 L118.8,247.3 C120.6,248.1 122.5,248.5 124.5,248.5 C127.7,248.5 130.9,247.4 133.4,245.5 C131.5,243.8 131,241 132.2,238.7 C132.1,238.6 132.2,238.5 132.2,238.5 Z" id="Shape" fill="#FFFFFF"></path>
                    <path d="M147.2,190.5 C147.8,190.2 148.4,189.9 149,189.5 C151.2,188.3 153.5,187.2 155.8,186.1 C159,184.6 162.5,183.2 166.1,181.9 C171.5,180 177.5,178.4 183.9,177 C187,176.3 190.3,175.7 193.5,175.1 C194.2,175 194.8,174.9 195.5,174.8 C196.2,174.7 196.8,174.6 197.5,174.5 C203.5,173.5 209.6,172.8 215.4,172.1 C216.1,172 216.7,172 217.4,171.9 C218.1,171.8 218.7,171.8 219.4,171.7 C230.2,170.6 239.9,170 246.5,169.7 L219.4,158 L217.4,157.1 L216.6,156.7 L213.8,155.5 L197.5,148.5 L195.5,147.6 L195,147.4 L193.5,147.9 L185.8,150.4 L183.8,151 L181.8,151.6 L176.6,153.3 L174.6,153.9 L172.6,154.5 L158.9,158.9 L138.9,165.4 L136.9,166 L134.9,166.6 L69.6,187.8 L62.2,190.2 L62.5,190.3 L69.6,193.4 L73.4,195 L75.6,196 L75.7,196 L77.6,196.8 L78.4,197.2 L78.5,197.2 L80.4,198 L81,198.2 L81.3,198.3 L81.4,198.3 L83.3,199.1 L83.9,199.3 L86.7,200.5 L91.1,202.4 L93.9,203.6 L96.7,204.8 L116.4,213.3 C119.5,210 129.7,200 145.6,190.9 C146,191.1 146.6,190.8 147.2,190.5 Z" id="Shape" fill="#FFFFFF"></path>
                    <polygon id="Shape" fill="#FFFFFF" points="87.7 206.1 84.9 204.9 84.9 204.9 80.5 203 78.4 202.1 77.1 201.6 77.1 201.6 76.4 201.3 75.3 200.8 75.2 200.7 74.3 200.4 72.5 199.6 72.4 199.5 71.5 199.2 71.5 199.2 69.7 198.4 69.6 198.3 58.5 193.6 58.5 201.9 58.5 202 58.5 203.4 58.5 203.4 58.5 204 58.5 204.1 58.5 205.5 58.5 206.2 58.5 206.2 58.5 207.6 58.5 207.6 58.5 213.5 58.5 213.5 58.5 215.6 58.5 217.7 58.5 258.1 58.5 258.3 58.5 260.2 58.5 260.4 58.5 262.3 58.5 262.5 58.5 273.1 58.5 273.1 58.5 274.6 59.4 274.9 59.4 274.9 62.2 276.1 66.9 278.2 69.6 279.4 72.4 280.5 76.4 282.2 78.4 283.1 80.3 284 80.4 284 80.7 284.1 83.5 285.3 86.3 286.5 114.8 298.8 114.8 277.2 114.8 275.1 114.8 273 114.8 266.8 114.8 264.7 114.8 262.6 114.8 259.1 114.8 259.1 114.8 257 114.8 257 114.8 254.9 114.8 254.9 114.8 249.7 114.8 247.4 114.8 244.3 114.8 244.1 114.8 243.3 114.8 242.2 114.8 242 114.8 240.1 114.8 239.9 114.8 239.2 114.8 236.4 114.8 222.9 114.8 220.3 114.8 217.9 114.8 217.8 90.5 207.3"></polygon>
                    <path d="M94.3,83.5 C94.6,84.1 95.3,84.5 96,84.5 C96,84.5 96,84.5 96.1,84.5 C96.1,84.5 96.1,84.5 96.2,84.5 C96.7,84.5 97.2,84.3 97.6,83.9 L115.9,65.6 C116.7,64.8 116.7,63.6 115.9,62.8 C115.1,62 113.9,62 113.1,62.8 L98.1,77.8 L98.1,54.8 C98.1,26.8 120.9,4 148.9,4 C150,4 150.9,3.1 150.9,2 C150.9,0.9 150,1.42108547e-14 148.9,1.42108547e-14 C118.7,1.42108547e-14 94.1,24.6 94.1,54.8 L94.1,77.6 L79.1,62.6 C78.3,61.8 77.1,61.8 76.3,62.6 C75.5,63.4 75.5,64.6 76.3,65.4 L94.3,83.5 Z" id="Shape" fill="#FFFFFF"></path>
                    <path d="M189,228.5 C190.1,228.3 191.1,228.1 192.1,227.7 C192.6,227.5 193.1,227.3 193.5,227.1 C194.2,226.7 194.9,226.3 195.5,225.9 C195.6,225.8 195.6,225.8 195.7,225.7 C195.6,225.6 195.6,225.5 195.5,225.5 C193.8,223.7 193.3,220.9 194.6,218.6 C194.8,218.2 195.2,217.8 195.5,217.5 C196.1,216.9 196.8,216.5 197.5,216.2 C198.7,215.7 200.1,215.7 201.3,216.1 C201.4,215.5 201.4,214.8 201.4,214.2 C201.4,210.4 199.9,206.9 197.5,204.2 C196.9,203.5 196.2,202.9 195.5,202.4 C194.9,201.9 194.2,201.5 193.5,201.1 C193.1,200.9 192.8,200.7 192.4,200.6 C191.8,203.2 189.5,205.1 186.8,205.1 C184.1,205.1 181.8,203.2 181.2,200.6 C175.8,202.8 172.2,208.2 172.2,214.1 C172.2,214.7 172.2,215.4 172.3,216 C174.8,215.2 177.6,216.2 179,218.6 C179.7,219.8 179.9,221.1 179.7,222.4 C179.6,223.1 179.4,223.7 179,224.3 C178.7,224.8 178.3,225.3 177.9,225.7 C178.3,226 178.7,226.2 179,226.5 C180.3,227.3 181.7,227.9 183.2,228.3 C184.4,228.6 185.5,228.7 186.8,228.7 C187.5,228.6 188.3,228.6 189,228.5 Z" id="Shape" fill="#FFFFFF"></path>
                </g>
            </g>
            <g id="Group-6" transform="translate(615.000000, 131.000000)">
                <g id="Group-5">
                    <g id="Group-4">
                        <path d="M56.3710407,6 L56.3710407,105.343511 L214.099548,105.343511 L214.099548,6 L56.3710407,6 Z M36.6606335,130.442748 L36.6606335,132.633588 L236,132.633588 L236,130.442748 L36.6606335,130.442748 Z" id="Combined-Shape" stroke="#FFFFFF" stroke-width="12"></path>
                        <g id="Group-3" filter="url(#filter-1)" transform="translate(0.000000, 69.862595)">
                            <g id="Group-2" transform="translate(28.470588, 0.000000)">
                                <rect id="Rectangle-3" stroke="#F70A53" stroke-width="3" x="1.5" y="1.5" width="32.040724" height="31.9312977"></rect>
                                <rect id="Rectangle-3" fill="#F70A53" x="5.47511312" y="5.45801527" width="24.0904977" height="24.0152672"></rect>
                                <text id="W" font-family="Lato-Regular, Lato" font-size="14" font-weight="normal" fill="#FFFFFF">
                                    <tspan x="9.85520362" y="23.5114504">W</tspan>
                                </text>
                            </g>
                            <g id="Group-2" transform="translate(0.000000, 38.206107)">
                                <rect id="Rectangle-3" stroke="#F70A53" stroke-width="3" x="1.5" y="1.5" width="32.040724" height="31.9312977"></rect>
                                <rect id="Rectangle-3" fill="#F70A53" x="5.47511312" y="5.45801527" width="24.0904977" height="24.0152672"></rect>
                                <text id="A" font-family="Lato-Regular, Lato" font-size="14" font-weight="normal" fill="#FFFFFF">
                                    <tspan x="12.0452489" y="23.5114504">A</tspan>
                                </text>
                            </g>
                            <g id="Group-2" transform="translate(38.325792, 38.206107)">
                                <rect id="Rectangle-3" stroke="#F70A53" stroke-width="3" x="1.5" y="1.5" width="32.040724" height="31.9312977"></rect>
                                <rect id="Rectangle-3" fill="#F70A53" x="5.47511312" y="5.45801527" width="24.0904977" height="24.0152672"></rect>
                                <text id="S" font-family="Lato-Regular, Lato" font-size="14" font-weight="normal" fill="#FFFFFF">
                                    <tspan x="13.810362" y="23.5114504">S</tspan>
                                </text>
                            </g>
                            <g id="Group-2" transform="translate(76.651584, 38.206107)">
                                <rect id="Rectangle-3" stroke="#F70A53" stroke-width="3" x="1.5" y="1.5" width="32.040724" height="31.9312977"></rect>
                                <rect id="Rectangle-3" fill="#F70A53" x="5.47511312" y="5.45801527" width="24.0904977" height="24.0152672"></rect>
                                <text id="D" font-family="Lato-Regular, Lato" font-size="14" font-weight="normal" fill="#FFFFFF">
                                    <tspan x="12.0452489" y="23.5114504">D</tspan>
                                </text>
                            </g>
                        </g>
                    </g>
                    <path d="M137.5,230 C128.387302,230 121,222.612698 121,213.5 C121,204.387302 128.387302,197 137.5,197 C146.612698,197 154,204.387302 154,213.5 C154,222.612698 146.612698,230 137.5,230 Z M138.5,203.456 C137.731996,203.456 137.014003,203.561999 136.346,203.774 C135.677997,203.986001 135.086003,204.301998 134.57,204.722 C134.053997,205.142002 133.624002,205.665997 133.28,206.294 C132.935998,206.922003 132.704001,207.651996 132.584,208.484 L134.144,208.76 C134.288001,208.784 134.423999,208.796 134.552,208.796 C134.824001,208.796 135.043999,208.730001 135.212,208.598 C135.380001,208.465999 135.512,208.248002 135.608,207.944 C135.792001,207.359997 136.115998,206.882002 136.58,206.51 C137.044002,206.137998 137.627996,205.952 138.332,205.952 C139.108004,205.952 139.719998,206.161998 140.168,206.582 C140.616002,207.002002 140.84,207.623996 140.84,208.448 C140.84,208.832002 140.784001,209.183998 140.672,209.504 C140.559999,209.824002 140.362001,210.097999 140.078,210.326 C139.793999,210.554001 139.412002,210.731999 138.932,210.86 C138.451998,210.988001 137.848004,211.056 137.12,211.064 L137.12,213.176 C138.000004,213.176 138.701997,213.243999 139.226,213.38 C139.750003,213.516001 140.151999,213.703999 140.432,213.944 C140.712001,214.184001 140.896,214.473998 140.984,214.814 C141.072,215.154002 141.116,215.531998 141.116,215.948 C141.116,216.276002 141.054001,216.601998 140.93,216.926 C140.805999,217.250002 140.618001,217.543999 140.366,217.808 C140.113999,218.072001 139.800002,218.285999 139.424,218.45 C139.047998,218.614001 138.608003,218.696 138.104,218.696 C137.655998,218.696 137.270002,218.630001 136.946,218.498 C136.621998,218.365999 136.340001,218.194001 136.1,217.982 C135.859999,217.769999 135.654001,217.528001 135.482,217.256 C135.309999,216.983999 135.152001,216.708001 135.008,216.428 C134.92,216.259999 134.794001,216.132 134.63,216.044 C134.465999,215.956 134.280001,215.912 134.072,215.912 C133.839999,215.912 133.612001,215.96 133.388,216.056 L132.08,216.596 C132.320001,217.340004 132.607998,217.995997 132.944,218.564 C133.280002,219.132003 133.687998,219.611998 134.168,220.004 C134.648002,220.396002 135.211997,220.691999 135.86,220.892 C136.508003,221.092001 137.267996,221.192 138.14,221.192 C138.940004,221.192 139.697996,221.076001 140.414,220.844 C141.130004,220.611999 141.759997,220.270002 142.304,219.818 C142.848003,219.365998 143.279998,218.808003 143.6,218.144 C143.920002,217.479997 144.08,216.716004 144.08,215.852 C144.08,214.835995 143.824003,213.992003 143.312,213.32 C142.799997,212.647997 142.024005,212.148002 140.984,211.82 C141.416002,211.675999 141.801998,211.496001 142.142,211.28 C142.482002,211.063999 142.769999,210.800002 143.006,210.488 C143.242001,210.175998 143.421999,209.810002 143.546,209.39 C143.670001,208.969998 143.732,208.484003 143.732,207.932 C143.732,207.299997 143.610001,206.712003 143.366,206.168 C143.121999,205.623997 142.772002,205.150002 142.316,204.746 C141.859998,204.341998 141.310003,204.026001 140.666,203.798 C140.021997,203.569999 139.300004,203.456 138.5,203.456 Z" id="Combined-Shape" fill="#FFFFFF"></path>
                    <g id="Combined-Shape">
                        <use fill="black" fill-opacity="1" filter="url(#filter-3)" xlink:href="#path-2"></use>
                        <use fill="#FFFFFF" fill-rule="evenodd" xlink:href="#path-2"></use>
                    </g>
                </g>
            </g>
            <g id="Group-7" transform="translate(977.000000, 188.000000)" fill="#FFFFFF">
                <g id="feab094a7a909c3c7517ef4e62955fdf" fill-rule="nonzero">
                    <g id="Group" transform="translate(95.000000, 47.500000) scale(-1, 1) rotate(-180.000000) translate(-95.000000, -47.500000) ">
                        <path d="M75.1391837,94.6159657 C60.2513265,93.946815 49.1867347,92.4979584 38.7910204,89.8620866 C30.3631633,87.7072274 28.2460204,86.9275214 25.3145918,85.0345039 C21.5281633,82.6197428 19.1880612,79.0179665 17.7785714,73.5949367 C15.8087755,65.9045529 11.8362245,35.4475296 11.8362245,28.0577787 C11.8362245,22.7084524 12.9510204,19.40343 15.6226531,16.6550633 C19.0019388,13.1638424 30.1770408,6.73805635 38.9015306,3.28368722 C45.0280612,0.832074316 48.1456122,0.162923642 53.4190816,0.162923642 C58.2466327,0.126071866 60.0283673,0.385973867 75.7692857,3.24683544 C91.4733673,6.1445488 98.6022449,6.10575745 115.271837,3.06063699 C134.058571,-0.320028583 136.509184,-0.543078808 142.633776,0.71957942 C149.539694,2.13158432 160.788469,7.14536546 168.733571,12.3821968 C177.977653,18.435586 179.016837,21.2595958 177.607347,36.1903838 C176.492551,47.889853 173.931429,66.0907513 172.52,72.1809922 C170.664592,80.2786852 167.099184,84.7358105 160.379388,87.2242752 C153.213673,89.9357901 137.769388,92.9440588 126.371327,93.9099633 C113.342755,94.9883626 90.25,95.3219682 75.1391837,94.6159657 Z" id="Shape"></path>
                        <path d="M3.48204082,76.6769089 C1.96010204,76.0077583 0.401326531,74.1147407 0.141530612,72.6290323 C0.0310204082,71.9598816 -0.0445918367,64.2345855 0.0310204082,55.3940384 C0.141530612,39.8678032 0.180306122,39.3479992 0.922857143,38.345243 C2.03571429,36.8226827 3.33469388,35.9692732 4.85663265,35.7462229 C6.4522449,35.4863209 6.11877551,33.9637607 7.75316327,47.8549408 C9.27510204,60.5571662 11.5027551,74.1515925 12.3945918,76.5663536 C12.6543878,77.1598612 12.3209184,77.1986525 8.645,77.1986525 C6.11877551,77.1598612 4.15091837,76.9736627 3.48204082,76.6769089 Z" id="Shape"></path>
                        <path d="M177.572449,76.6032054 C178.574796,73.965394 181.285204,56.8060433 182.770306,43.6577174 C183.253061,39.4236423 183.735816,35.8587178 183.846327,35.7462229 C183.958776,35.5968763 184.66449,35.6337281 185.405102,35.7462229 C187.15,36.0798285 189.191531,37.9379339 189.674286,39.6098408 C189.970918,40.5388934 190.046531,46.4448755 189.970918,57.215292 C189.860408,72.925786 189.823571,73.44559 189.08102,74.4502858 C187.409796,76.7157003 186.667245,77.0124541 181.802857,77.124949 C177.684898,77.2335647 177.34949,77.1967129 177.572449,76.6032054 Z" id="Shape"></path>
                    </g>
                </g>
                <path d="M95.5,173 C86.3873016,173 79,165.612698 79,156.5 C79,147.387302 86.3873016,140 95.5,140 C104.612698,140 112,147.387302 112,156.5 C112,165.612698 104.612698,173 95.5,173 Z M99.304,157.46 L99.304,146.636 L96.496,146.636 L88.276,157.616 L88.576,159.116 C88.6160002,159.300001 88.7119992,159.453999 88.864,159.578 C89.0160008,159.702001 89.191999,159.764 89.392,159.764 L96.712,159.764 L96.712,164 L99.304,164 L99.304,159.764 L100.876,159.764 C101.076001,159.764 101.227999,159.706001 101.332,159.59 C101.436001,159.473999 101.488,159.336001 101.488,159.176 L101.488,157.46 L99.304,157.46 Z M96.712,151.784 L96.712,157.46 L91.432,157.46 L96.82,150.032 C96.7799998,150.352002 96.7520001,150.659999 96.736,150.956 C96.7199999,151.252001 96.712,151.527999 96.712,151.784 Z" id="Combined-Shape"></path>
            </g>
        </g>
    </g>
</svg>
